<svg width="179" height="179" viewBox="0 0 179 179" fill="none" xmlns="http://www.w3.org/2000/svg">
<rect y="47.2496" width="139.808" height="139.808" transform="rotate(-19.7527 0 47.2496)" fill="#F42E0A" fill-opacity="0.7"/>
<path d="M116.716 83.6962C119.31 82.7485 120.644 79.8776 119.696 77.2839C118.749 74.6902 115.878 73.3559 113.284 74.3036L116.716 83.6962ZM58.4658 95.8924C57.3019 98.3966 58.3884 101.37 60.8926 102.534L101.7 121.501C104.204 122.665 107.178 121.578 108.342 119.074C109.506 116.57 108.419 113.597 105.915 112.433L69.6416 95.5731L86.5011 59.2997C87.665 56.7956 86.5785 53.822 84.0743 52.6581C81.5702 51.4942 78.5966 52.5807 77.4327 55.0849L58.4658 95.8924ZM113.284 74.3036L61.284 93.3036L64.716 102.696L116.716 83.6962L113.284 74.3036Z" fill="white"/>
</svg>
