<svg width="340" height="356" viewBox="0 0 340 356" fill="none" xmlns="http://www.w3.org/2000/svg">
<g clip-path="url(#clip0_182_5430)">
<path d="M182.33 7.25988L190.71 7.81988C191.02 6.18988 190.04 4.56988 190.09 3.04988C190.11 2.29988 191.76 1.65988 191.59 0.529881C193.97 0.809881 196.45 0.679881 198.84 0.589881C203.68 0.409881 208.52 0.0198808 213.34 -0.000119152C218.86 -0.0201192 224.22 0.779881 229.75 0.629881C230.32 3.37988 231.6 5.20988 233.73 6.98988C231.84 8.55988 230.77 6.90988 229.51 6.69988C227.82 6.41988 221.59 6.50988 220.03 7.26988L213.06 6.70988L213.62 3.91988L206.92 5.58988L209.15 1.67988C206.41 0.849881 204.32 4.02988 202.17 4.47988C200.23 4.87988 202.58 2.29988 201.61 1.67988C199.5 3.30988 198.5 6.04988 195.75 4.44988L196.01 1.11988C194.4 1.06988 191.4 7.47988 191.82 7.82988C193.3 7.56988 194.66 8.30988 196.04 8.41988C208.81 9.46988 221.15 13.9999 232.23 20.7899C234.28 22.0499 238.59 26.0799 239.92 26.5599C241.02 26.9599 241.61 26.3299 242.32 26.4299C243.47 26.5799 244.92 27.9699 246.59 27.3899L244.92 28.5099L246.07 29.3699L245.73 32.9999C247.42 34.0599 249.53 34.5299 251.37 33.6199C252.07 33.6599 252.09 36.3199 252.87 36.7599C253.35 37.0299 254.05 36.7599 254.55 36.8899C255.13 37.0599 254.99 38.9099 257.77 37.4199C257.82 32.8399 253.48 34.3599 251.04 32.6699C250.69 32.4199 250.65 30.7099 249.95 30.1699C252.31 29.4399 253.3 32.8099 255.54 31.5599C252.34 28.5199 251.09 23.9099 246.04 23.4499L246.6 21.7799L244.37 22.3299C245.6 20.4399 243.15 19.9599 243.18 17.9399L238.29 17.7899L237.1 14.5199C238.21 14.4899 239.09 14.9699 238.78 13.4099C237.56 13.5999 236.72 12.4999 235.68 12.3099C234.09 12.0199 229.69 12.8599 228.97 11.7499L228.72 8.37988L230.91 8.43988L230.96 10.0599C232.94 10.4299 233.19 8.33988 235.14 8.32988C235.94 8.32988 239.34 9.58988 240.21 10.0299C250.9 15.4199 266.79 31.4699 271.47 42.4599C273.04 46.1499 272.85 49.0999 276.77 51.6899L274.54 52.2399C277.91 55.0699 282.25 56.1999 285.68 58.9799C287.51 60.4599 288.78 62.6999 290.22 63.9399C291.17 64.7599 292.99 65.1899 293.91 66.1099C294.83 67.0299 295.23 68.9099 295.93 69.6799C296.59 70.3999 298.25 70.7999 299.13 71.7899C302.11 75.1199 307.22 84.6999 308.04 89.1399C308.51 91.6899 309.39 94.8599 309.71 96.9699C310.19 100.11 309.04 100.6 310.69 103.5C311.21 104.41 311.01 115.27 310.3 116.39C308.59 119.1 309.62 118.44 309.15 121.49C308.93 122.96 307.62 124.07 308.05 125.9C308.15 126.32 309.08 126.2 309.18 126.63C309.45 127.83 308.63 130.34 309.72 131.03C310.57 131.57 311.9 131.34 313.37 132.41C316.21 134.46 318.35 138.26 320.9 140.52C324.06 143.32 327.38 145.08 329.52 149.22C330.62 151.36 333.43 163.39 333.09 165.53C332.99 166.13 332.29 166.76 332.28 167.32C332.27 168.24 333.95 170.12 334.2 171.35C334.67 173.65 333.62 175.97 335.42 177.95C336.12 178.71 337.27 178.99 337.94 179.9C339.81 182.43 338.27 184.54 338.2 186.89C338.12 189.97 339.31 194.84 339.24 198.04C339.13 203.72 338.58 207.56 338.81 213.66C339.04 219.78 338.16 219.86 336.58 224.89C335.7 227.7 335.87 230.52 335.31 233.12C334.93 234.86 332.92 237 332.75 238.96C332.64 240.14 333.39 241.26 333.19 242.46C332.03 242.19 332.12 239.95 331.38 239.25C330.21 238.13 321.98 238.32 319.83 238.61C318.83 242.85 321.41 245.73 322.69 249.34C323.83 252.53 323.89 255.04 324.27 258.36C324.37 259.2 325.04 259.87 325.11 260.59C325.36 263.35 323.7 267.82 321.43 269.54C320.83 269.99 319.44 270.28 319.3 270.49C318.73 271.39 320.17 272.38 317.5 273.4C313.56 274.91 314.55 273.48 312.1 272.2C310.67 271.45 302.86 268.34 301.58 268.17C298.87 267.81 298.69 268.82 297.34 270.58C296.84 271.22 296.76 271.91 296.02 270.96L294.61 259.48C295.52 256.08 294.61 252.95 294.67 249.5C291.22 248.59 290.48 245.74 290.73 242.46L292.32 243.1L292.41 246.37L293.97 246.21C294.06 245.15 294.12 245.11 295.2 245.25L295.89 249.03L299.09 249.7C299.89 248.11 298.92 246.3 299.09 245.01C299.3 243.46 300.92 240.59 300.77 238.29C300.68 236.94 299.54 236.11 299.64 233.81C299.67 233.14 299.96 230.34 301.01 230.76C301.32 230.88 303.36 231.84 303.47 231.93C303.55 231.99 303.25 232.58 303.41 232.93C304.01 234.23 307.02 238.92 306.36 239.66L304.4 238.55C303.66 239.43 305.27 240.29 305.78 241.63C307.03 244.93 304.33 247.99 306.91 250.27L307.48 244.69C308.97 244.94 306.87 248.06 309.15 247.48C309.94 245.26 308.32 243.63 308.05 242.16C307.64 239.9 308.38 238.32 307.2 235.75C306.19 233.54 302.4 228.58 302.03 226.46C301.87 225.54 302.86 223.6 302.45 222.34C304.56 221.8 304.78 224.36 305.98 225.52C306.11 225.64 308.3 227.38 308.63 227.62C309.6 228.33 310.89 228.58 311.67 229.61L311.94 226.26L310.27 226.82C310.68 225.6 308.48 222.5 310.82 222.91L313.62 227.37L311.43 218.72L310.28 217.88C310.3 219.03 310.03 220.33 308.61 220.11C306.81 217.32 306.88 209.25 303.29 215.08C302.01 212.05 307.73 210.32 310.01 210.56C311.58 210.73 311.46 213.65 312.51 214.81L313.63 214.23C313.81 213.3 311.29 209.47 310.96 207.97C310.78 207.17 310.25 202.67 310.36 202.09C310.87 199.48 311.91 196.48 312.9 193.96C313.37 192.76 312.88 191.05 314.74 190.5L315.3 192.73C315.08 191.11 316.82 191.64 317.74 191.11C319.24 190.25 317.62 187.71 317.54 186.31C317.29 182.12 317.16 176.34 318.7 172.48C318.86 172.08 319.59 172.15 319.76 171.63C320.32 169.83 319.27 169.45 322.58 169.27C322.48 166.49 320.38 163.94 320.32 161.15C320.26 158.36 322.68 153.11 319.24 151.68C322.89 150.13 319.79 146.96 318.56 144.53C318.14 143.7 318.22 142.62 317.82 141.91C317.32 141.03 316.19 140.99 315.98 140.69C315.39 139.83 316.76 136.87 314.47 135.77C312.83 134.98 314.24 137.98 314.19 138.26L313.65 138.85C311.24 138.17 309.6 141.01 308.2 141.89C304.79 144.04 300.91 145.3 298.09 148.33L299.11 150.28C298.3 150.5 297.27 149.67 296.65 149.8C295.86 149.97 295.09 152.46 294.37 152.43C294.08 152.42 293.5 151.34 292.78 151.46C292.21 151.56 288.92 154 289.62 154.74L293.52 153.07C293.79 154.71 292.37 155.73 291.3 156.71C287.13 160.53 281.6 162.7 277.3 166.17C269.04 172.84 262.34 181.59 255.25 189.37C243.79 201.95 233.22 215.31 221.74 227.93C208.65 242.32 195.74 253.37 176.09 257.7C169.85 259.08 164.83 260.17 158.63 257.59L158.31 255.29H156.07L156.34 253.6L156.98 253.09L160.73 253.55C161.74 253.21 161.87 251.31 163.16 250.92C164.98 250.38 167.63 251.17 169.65 250.71C170.88 250.43 171.95 249.06 173.36 248.82C174.39 248.64 175.15 249.25 175.82 249.19C176.27 249.15 176.42 246.6 179.2 247.53C180.25 247.88 179.63 249.67 181.21 249.15L181.23 247.52C183.24 248.16 184.68 246.57 185.99 246.38C186.57 246.3 187.21 246.76 187.91 246.56C190.59 245.78 193.06 243.82 195.71 242.97L195.17 241.89C199.2 241.86 200.42 238.09 202.71 235.73C205.38 232.99 208.38 230.67 210.81 227.63C212.97 224.92 214.55 221.87 216.32 219.2C218.31 216.21 221.94 212.31 221.44 208.65C219.24 207.22 219.46 210.37 218.67 210.91C218.05 211.33 216.77 211.05 215.86 211.46C214.84 211.92 214.16 213.93 212.79 213.96C211.62 213.99 210.21 212.42 208.81 212.29C207.41 212.16 206.2 213.11 205.06 212.78C204.12 212.5 203.86 211.07 202.15 211.11C200.97 211.14 200.44 212.03 199.82 212.13C199.2 212.23 198.5 211.67 197.8 211.83C197.05 212 196.75 213.16 195.72 212.85C195 209.53 199.32 210.47 199.93 209.52C200.49 208.64 201.17 206 202.05 204.65C203.95 201.73 204.18 199.97 205.5 196.66C206.18 194.95 208.33 189.22 209.68 188.55C210.48 188.16 215.79 187.79 211.76 185.9C209.46 184.82 209.72 186.31 208.54 186.89C207.85 187.23 207.05 186.62 206.31 186.83C204.83 187.26 204.38 188.89 201.86 187.71V189.62C199.45 191.13 198.77 186.43 199.06 184.66C199.4 182.65 201.24 183 202.43 181.87C203.85 180.52 205.76 177 207.49 175.2C209.66 172.94 213.8 168.92 216.94 169.05L218.92 165.93C217.5 163.96 217.93 162.06 217.49 160.17C217.37 159.64 215.91 160 216.37 158.4C216.49 157.99 217.73 158.02 217.99 157.22C218.5 155.66 218.31 151.46 218.65 149.49C218.89 148.08 220.4 146.69 219.48 145.25C218.85 144.27 215.53 145.95 213.6 144.99C211.11 143.75 214.09 140.61 213.6 138.57C211.08 139.75 210.6 138.08 209.15 137.68C208.41 137.47 207.68 138.01 207.22 137.91C206.38 137.73 206.57 135.6 204.66 136.33C204.67 139.69 207.34 145.48 204.32 147.99C203.17 148.95 201.39 149.62 200.47 148.07L197.96 152.85L196.05 152.51L195.45 153.66C193.82 152.72 192.68 152.2 190.7 152.52C190.7 150.02 193.06 150.1 194.05 148.06C189.63 149.64 184.31 152.22 181.9 146.51C181.51 145.6 181.01 141.36 180.3 141.31C178.55 141.43 176.14 142.59 175.35 144.18C175.02 144.84 175.21 145.75 174.91 146.23C174.63 146.68 168.95 150.89 168.35 150.28C167.99 145.28 171.79 142.99 175.79 141.24C182.93 138.12 189.08 138.93 196.55 140.24C197.66 140.43 197.95 141.5 199.08 141.34C199.47 139.04 196.52 138.63 196.84 136.31L194.68 136.79C192.83 133.92 188.47 132.26 184.94 133.07C184.5 133.17 178.89 136.01 178.23 136.43C177.47 136.91 177.3 137.94 176.93 138.02C175.32 138.35 174.45 136.65 173.23 136.94C172.65 137.08 167.93 140.68 167.47 141.3C166.45 142.67 163.69 148.46 163.44 150.14C163.12 152.22 164.2 153.87 163.77 155.45C163.56 156.22 160.98 160.51 159.97 159.78C158.69 157.3 160.27 155.71 160.53 153.36C160.69 151.94 160.73 144.35 160.26 143.56C159.87 142.43 157.41 144.02 157.29 144.25C156.71 145.27 157.82 149.18 154.94 149.16C154.28 148.39 155.97 139.17 156.44 137.54C158.15 131.7 162.22 129.51 165.94 125.52C166.32 125.12 165.97 124.21 167.03 123.55C169.21 122.2 171.07 123.53 173.07 123.49C174.4 123.46 175.84 122.72 177.17 122.46C179.07 122.08 181.16 121.81 183.05 121.58C186.04 121.22 188.6 119.2 191.04 119.01C191.86 118.94 195.51 119.93 196.41 120.27C198.1 120.9 200.31 122.77 201.73 123.33C203.71 124.11 206.78 123.6 208.23 124.09C209.21 124.42 208.73 125.81 209.68 125.7C209.68 124.89 209.77 124.04 209.64 123.23C209.32 121.23 208.69 117.83 206.95 117.01L207.43 112.11C210.67 110.83 209.05 108.77 209.97 106.71C210.26 106.06 211.61 105.27 212.17 104.44C214.48 101.02 214.52 99.4099 213.63 95.3199L215.87 94.1099C216.02 93.0699 215.2 91.9399 215.37 90.9099C215.5 90.1399 216.43 89.4099 216.39 88.5499C216.36 87.8199 215.48 87.2699 215.47 86.8799C215.43 85.6099 218.54 82.9099 218.65 81.8199C218.82 80.2299 218.17 76.8499 218.17 75.1399C218.17 73.9299 218.91 72.7899 218.64 71.2399C218.42 69.9499 217.04 69.5999 216.96 68.4199C216.89 67.4399 217.74 66.2799 216.96 65.1299L218.09 64.5299L216.98 62.5799L220.62 64.2599L221.2 63.0999L224.78 63.6599L224.81 62.0199L230.38 62.8499C230.35 63.1299 227.15 66.1399 226.74 67.0799C226.33 68.0199 226.94 68.7399 226.72 69.2999C226.5 69.8599 225.39 70.4699 225.04 71.4799C224.67 72.5499 224.7 74.5899 226.19 74.2999C227.55 74.0399 226.31 72.0199 226.72 71.4999C227.03 71.1099 227.99 71.1899 228.16 70.5499C229.22 66.3999 228.65 69.0199 230.42 67.2199C231.51 66.1099 233.9 60.6699 231.77 59.7899L229.82 60.8999L229.8 59.2699L227.58 59.2299V57.5499L228.71 56.6999C227.12 55.5599 225.21 56.5699 224.03 56.4699C223.51 56.4299 223.64 55.2099 222.74 54.8599C222.35 54.7099 219.84 54.2299 219.44 54.2399C218.39 54.2699 218.1 55.5599 216.96 55.3099L217.3 53.6199L214.17 51.9599C215.4 51.5699 216.84 52.5099 217.83 52.4599C218.82 52.4099 220.38 50.9199 221.83 50.9599C222.65 50.9799 223.12 51.8299 223.97 51.9299C224.54 51.9999 228.06 51.8999 228.14 50.8299L214.53 49.0699L213.62 48.3099L215.29 47.4599C215.18 46.6299 213.58 46.3299 214.72 45.5099C222.05 44.1599 229.89 42.8999 237.38 43.5399C242.86 44.0099 249.65 46.7899 255.24 46.3599C256.28 46.2799 257.25 45.7899 258.31 45.7999L252.89 43.1199C246.82 43.5299 240.64 40.8799 235.06 40.2699C222.99 38.9599 209.49 41.2099 197.71 43.0299C178.58 45.9799 162.79 49.8899 143 47.8799C138.84 47.4599 134.52 46.3599 129.86 46.1499C128.7 46.0999 125.02 46.4399 124.58 46.3099C123.74 46.0599 123.65 44.7099 123.1 44.3899C122.32 43.9299 121.43 44.2899 120.7 44.0999C120.24 43.9799 120.3 43.2599 119.87 43.0499C114.6 40.4899 112.84 38.4699 106.61 37.9299C105.68 37.8499 104.6 38.5399 103.9 38.3899C103.36 38.2699 102.9 37.3699 102.23 37.4899C101.56 37.6099 101.23 38.8699 100.18 38.5299C101.14 36.3099 103.84 36.6099 105.45 35.1499C106.69 34.0299 107.53 31.6999 108.56 30.4399C111.71 26.5799 111.62 27.1299 114.03 22.5099C115.52 19.6599 118.4 19.0699 120.57 17.3199C122.59 15.6999 124.26 12.7599 126.15 11.1699C128.9 8.85988 133 7.96988 135.9 5.82988C137.12 4.92988 139.18 2.09988 140.23 1.77988C141.99 1.25988 144.82 1.88988 146.82 1.66988C149.75 1.34988 152.58 0.0798809 155.66 0.549881C156.62 0.779881 158.71 7.22988 158.27 8.57988L159.39 10.0599C158.3 11.0599 154.17 5.24988 153.58 4.41988C152.82 3.35988 153.27 1.76988 151.01 2.23988C151.28 4.99988 152.91 7.24988 154.36 9.48988C152.89 10.7599 148.13 3.67988 145.98 4.46988C145.63 6.44988 147.35 7.19988 148.2 8.23988C148.72 8.87988 149.01 10.0299 149.48 10.4599C150.17 11.0799 151.59 10.7499 151.56 11.7199C150.5 11.7999 149 11.8299 148.06 12.3199C147.64 12.5399 147.65 13.1899 147.52 13.2499C145.72 14.1999 143.48 11.6999 141.81 11.6899C140 11.6799 136.77 12.6199 134.81 12.8499C134.65 13.6299 135.89 13.5999 136.47 13.6899C137.98 13.9499 140.31 13.5399 140.96 15.0699C138.04 16.5299 133.63 14.1399 132.02 17.3099L134.81 17.8699L130.35 18.9999C131.27 22.8699 133.52 19.4799 134.98 18.8599C139.98 16.7099 146.24 14.2899 151.46 12.4599C152.68 12.0299 154.62 12.1599 155.68 11.6299C156.54 11.1999 156.53 10.0399 156.94 10.0399C157.71 10.0399 158.79 10.7099 160.22 10.6499C163.62 10.4999 168.66 8.36988 172 7.85988C174.64 7.44988 177.84 8.10988 180.64 7.26988L178.36 2.56988C180.2 1.36988 182.41 -1.11012 184.55 0.859881C183.67 2.93988 182.11 4.89988 182.31 7.26988L182.33 7.25988ZM128.13 22.3499C127.11 22.1899 126.46 22.4399 125.58 22.8599C124.05 23.5899 122.09 26.2099 121.27 26.6299C118.13 28.2499 118.5 27.9099 115.57 30.1599C114.26 31.1599 111.48 31.6599 111.38 34.0699C116.82 30.1099 123.74 27.4499 128.14 22.3399L128.13 22.3499ZM235.41 65.9199C235.22 62.4699 232.26 65.5999 232.23 66.7599C232.21 67.2999 233.05 67.9399 233.1 68.5199C233.16 69.2699 232.19 69.7799 232.18 70.1099C232.18 70.2599 233.72 72.2999 233.92 72.4599C234.2 72.6999 235 72.4799 235.25 72.7399C235.7 73.1899 235.35 75.0399 237.08 74.8599V75.3999C235.98 75.5499 234.68 76.3299 234.85 77.6399C235.64 77.2999 237.31 77.6899 237.85 77.5099C239.7 76.9099 237.99 75.5599 237.82 74.4799C237.44 72.0899 238.82 71.3799 234.85 70.9299C236.17 67.5899 234.36 68.5999 233.74 66.7399C233.33 65.4899 234.76 65.9699 235.41 65.9099V65.9199ZM232.61 82.6799C235.83 82.4499 235.17 80.6099 235.4 78.2099C233.34 79.1299 232.33 80.2699 232.61 82.6799ZM303.39 130.93C301.59 129.63 299.72 130.41 297.76 130.1C295.61 129.76 293.59 128.66 291.28 129.04C293.18 131.8 297.68 130.31 299.65 133.22L294.91 136.28C293.24 132.71 292.44 135.82 290.17 136.29C290.44 133.33 286.85 133.48 284.58 133.5C283.66 134.33 288.12 136.14 286.81 137.41C286.25 137.95 283.57 135.13 282.16 135.3C281.02 135.44 278.67 136.84 277.44 137.26C276.51 137.58 275.41 137.23 274.51 137.68C273.87 138 272.46 140.6 271.25 141.13C270.89 142.88 271.64 145.6 270.65 147.11C270.06 148.01 268.27 147.68 267.54 148.6C266.93 149.36 267.09 150.78 266.69 151.53C266.35 152.17 265.34 152.12 265.1 152.86C264.81 153.75 265.22 154.85 264.73 155.86C264.2 156.96 261.98 158.16 262.17 160.32L256.39 159.76L253.33 162.11L253.65 163.4C252.9 165.52 249.71 162.53 248.81 164.53C248.23 165.83 251.06 165.15 251.04 166.47C249.45 166.68 246.84 165.71 246.01 167.59C250.6 168.32 255.49 166.81 259.98 165.64C274.62 161.83 291.8 151.94 301.61 140.23C303.4 138.09 305.64 134.76 306.32 132.09C306.75 130.43 304.7 131.95 303.9 131.89C303.48 131.86 303.56 131.08 303.37 130.94L303.39 130.93ZM259.9 159.11L261.1 155.29C259.59 155.85 259.52 158.03 257.76 158.09L258.04 159.2L259.91 159.11H259.9ZM235.96 169.26C235.05 168.1 234.27 165.35 234.33 163.92C234.37 162.97 236.24 161.52 235.12 160.32L230.54 164.96C230.69 166.64 228.06 166.9 228.69 168.41C229.32 169.92 234.38 168.99 235.95 169.25L235.96 169.26ZM218.08 181C216.3 181.17 214.22 181.4 213.06 182.95C214.81 185 217.88 183.28 218.08 181Z" fill="#2CC5F4" fill-opacity="0.8"/>
<path d="M202.44 302.77C205.7 306.15 204.33 307.58 205.52 309.49C205.77 309.89 206.7 309.79 206.9 310.45C208.83 316.62 210.07 325.18 209.7 331.52L211.37 334.61C211.88 332 212.05 328.72 212.77 326.23C213.69 323.07 216.34 320.54 217.54 317.59C218.42 315.44 218.66 311.39 219.47 310.02C219.98 309.16 220.09 309.61 220.6 310.02C222.79 311.82 224.07 314.41 226.19 316.17C226.82 316.69 227.09 317.53 228.14 317.29C229.05 316.4 224.09 312.35 223.67 311.84C221.14 308.76 220.08 307.17 220.33 303.04C220.37 302.41 219.96 301.51 220.88 301.66C220.75 303.41 221.41 304.03 223.12 303.9L222.06 306.53C221.74 309.3 224.84 309.01 225.91 309.76C226.72 310.32 226.34 312.57 228.14 312.27L225.75 306.27C223.66 305.36 223.94 302.21 222.86 300.51C222.52 299.97 221.49 299.98 220.87 299.97C220.87 299.42 220.57 299.02 221.25 298.86C223.61 298.31 220.93 297.64 220.86 297.39V292.44L221.98 292.16C222.92 294.35 224.44 296.31 225.45 298.47C228.66 305.32 231.7 313.37 234.15 320.49C234.4 321.23 235.24 322.06 235.38 322.62C235.8 324.24 233.28 322.64 233.73 324.27C233.92 324.98 235.49 327.05 235.99 328.17C236.39 329.08 236.31 330.74 237.08 331.82C238.66 331.39 237.63 330.71 237.63 330.42V322.04C237.63 321.8 237.06 321.21 237.17 319.97C237.55 315.48 242.09 308.94 242.64 303.54C242.98 300.23 239.97 297.14 242.38 294.95C244.06 298.67 246.92 302.06 250.45 304.2L258.86 307.79C259.25 307.46 253.67 302.9 254.38 301.65C252.78 302.44 250.21 301.81 248.84 300.78C247.3 299.62 245.4 296.83 244.25 295.29C243.79 294.67 242.97 294.53 242.67 293.96C241.8 292.32 242.18 289.52 242.1 287.69C244.11 287.57 243.83 289.6 243.78 291.04H245.45C245.93 287.34 241.28 286.36 244.4 283.29C245.31 282.76 246.05 284.18 246.47 284.71C247.63 286.15 248.84 288.59 249.83 290.29C252.19 294.35 254.38 298.73 256.94 302.72C258.61 305.31 261.71 306.85 259.97 310.58L261.64 310.02L262.77 313.38L263.88 313.1C263.13 307.88 263.28 303.54 264.23 298.37C264.43 297.26 265.31 296.26 265.39 295.69C265.6 294.24 264.2 292.12 265.91 290.21L263.32 283.22L270.07 289.04L273.38 290.2C271.6 286.63 267.71 285.61 265.57 282.37C264.4 280.59 263.22 278.12 263.32 275.97C264.17 275.82 263.85 276.88 264.46 277.33C266.81 279.06 274.55 283.66 276 285.63C277.55 287.73 278.55 293.23 279.95 295.37C280.57 296.31 281.13 296.62 282.04 297.19C283.4 295.77 281.78 294.59 281.71 293C281.63 291.25 282.8 289.11 282.32 287.14L283.13 293.31C284.26 299 285.21 298.93 290.13 296.91C293.09 295.69 297.22 293.25 295.44 289.38C294.69 287.75 287.33 281.89 285.4 282.08L282.89 284.35C282.07 281.13 284.18 278.08 284.02 275.15C283.95 273.75 283.03 269.6 282.63 268.12C282.05 265.97 280.4 264.31 280.65 262C281.96 261.84 282.77 263.13 282.89 264.23C284.17 263.61 283.68 261.86 285.6 262.68L285.69 263.67H286.24L286.28 262.58L287.92 263.11C288.56 261.42 288.39 259.67 288.6 257.92C288.98 254.83 288.45 255.28 288.48 253.4C288.51 252.14 289.53 250.49 289.6 249.14C293.63 250.14 292.11 256.15 292.44 259.42C292.7 261.99 294.21 264.66 293.45 267.55L291.83 267.59C292.74 269.91 291.6 272.47 291.92 274.44C291.97 274.73 294.6 278.9 294.91 279.29C296.1 280.8 298.72 281.59 298.54 284.34L299.56 283.86L303.24 288.63C306.37 288.06 308.42 288.52 311.26 286.75C311.86 286.38 311.96 285.49 312.3 285.43C314.16 285.1 318.07 289.19 320.15 290.37C322.23 291.55 327.17 292.69 327.9 294.91C328.96 298.14 327.77 305.3 328.15 309.19C328.74 315.29 331.22 319.55 329.7 326.39C328.18 333.23 326.93 334.11 327.05 342.13C327.12 347 326.89 351.39 322.72 354.61C307.05 354.54 291.55 355.57 275.87 355.31C213.51 355.64 150.61 355.03 88.1798 354.7C59.8898 354.55 31.3298 354.82 3.21982 354.74C-1.78018 354.73 0.32982 346.91 0.96982 343.53C1.31982 341.66 2.16982 337.24 2.63982 335.7C3.47982 332.95 7.44982 328.49 8.95982 324.14C11.2398 317.53 12.3998 315.27 17.5198 310.34C23.2398 304.82 28.2198 298.63 35.7098 295.02C37.7698 294.02 46.4098 291.37 47.0098 289.56C47.8198 287.11 46.6898 284.76 45.8098 282.63C45.6598 282.28 45.9498 281.68 45.8798 281.63C45.4998 281.35 44.5398 281.57 43.6998 280.75C42.9998 280.07 41.4898 276.72 41.4598 275.68C41.4098 274.02 41.3998 270.65 41.4898 269C41.6898 265.28 44.1798 260.31 43.7798 256.68C43.5998 255.01 42.2498 252.78 42.0998 250.5C42.0398 249.58 42.6398 248.75 42.5698 247.82C42.2998 243.79 40.2498 239.58 40.3298 235.47C40.3998 231.83 42.1498 228.79 42.5798 225.94C42.7098 225.05 42.3398 220.66 42.8898 220.66C43.4698 221.62 43.0098 223.02 43.2798 224.18C43.5198 225.21 44.5898 225.94 44.6998 226.6C44.8698 227.58 43.7898 229.89 44.2898 231.27L45.9598 230.15L44.2898 234.62L46.5198 233.51C46.6798 233.69 46.8598 237.34 47.1198 238.12C47.7298 239.99 49.9098 243.36 50.4198 246.1C51.1998 250.29 50.2798 255.5 50.4198 259.46C50.8098 270.74 59.8098 281.06 57.1498 292.72C59.0598 293.14 57.8698 291.32 58.5098 290.45C59.1998 289.5 61.1598 290.93 60.6398 287L63.2898 282.67C64.6998 290 70.4598 295.99 69.9998 303.89L71.9498 302.76L73.3398 303.89C74.1598 301.84 72.0798 301.72 72.2098 300.85L76.9798 291.06C78.6698 291.99 77.2098 293.53 77.4098 294.59C77.6898 296.03 79.1598 296.93 77.8198 299.43L79.1598 298.95L79.7698 299.41C81.4198 301.54 79.1498 305.66 80.8798 305.95C81.2998 306.02 82.0898 305.31 82.8498 305.81C83.3798 306.16 86.5198 312.94 86.5998 313.75C86.7698 315.45 85.0798 318.51 87.0398 320.09L91.7998 312.01L90.6698 311.16C91.2198 313.39 88.9798 313.14 87.3198 313.4C86.7898 308.77 84.4998 308.62 87.0898 303.96C87.7498 302.78 88.6598 301.1 89.2998 300.03C89.9398 298.96 91.3098 298.41 91.6698 296.81C91.9398 295.58 91.7998 293.14 91.2198 292.04C90.7598 291.17 89.1598 291.47 89.6098 289.74C90.2498 288.38 91.4898 288.15 92.8998 288.26C93.5798 287.72 90.6598 284.9 90.4098 284.33C89.7698 282.87 90.3298 281.21 88.4298 280.16C89.4698 279.34 90.8098 281.58 91.8098 282.38C93.2798 283.56 95.2298 283.59 95.1398 286.59L96.8098 286.03C95.8498 288.3 96.7098 290.44 96.6298 292.37C96.5498 294.3 95.4398 297 95.3398 299.26C95.2698 300.69 96.3098 302.46 95.4198 303.91C94.9498 304.69 93.1098 304.9 92.9098 306.13L95.1398 307.26C95.0298 305.37 96.1398 303.87 97.9298 303.35C97.1098 307.05 100.3 309.52 98.4798 313.08C99.6398 313.38 100.08 315.07 100.69 315.35C101.15 315.56 101.96 315.02 102.56 315.17C104.3 315.59 106.48 322.12 106.32 324.01C107.27 324.16 106.93 322.66 106.87 322.06C106.7 320.38 105.05 315.1 105.28 314.35C105.93 312.2 108.46 311.43 109.69 310.34C111.56 308.67 113.22 304.68 114.29 302.65C114.57 302.12 116.45 298.93 116.67 298.88C117.41 298.7 118.02 299.5 118.04 300.22C118.07 301.37 116.56 307.47 116.12 308.95C115.3 311.69 113.55 315.93 112.33 318.57C111.21 320.98 108.95 321.99 110.24 325.14C112.07 324.45 112.12 322.34 113.01 320.93C113.98 319.4 115.48 317.81 116.3 316.4C116.88 315.39 119.08 309.51 119.46 309.51C121.01 310.63 119.92 312.63 120.4 314.14C120.62 314.85 121.48 315.18 121.67 315.62C121.98 316.35 120.77 317.82 122.32 318.34C122.82 318.34 123.42 317.93 123.87 318.01C124.81 318.18 128.99 324.9 129.52 326.26C130.66 329.16 131.2 332.14 130.39 335.16L132.04 335.76C132 335.2 132.12 334.65 132.38 334.15C135.46 328.23 140.58 323.3 143.61 317.72C144.05 316.91 143.63 315.71 144.63 315.09L146.01 318.16C146.07 319.45 144.56 320.31 144.41 321.05C144.24 321.89 145.78 322.4 145.46 323.47L143.23 322.35L143.19 323.99C141.44 323.22 140.81 325.36 139.87 326.55C143.33 328.08 138.54 328.37 138.29 328.58C138.08 328.76 136.98 332.65 135.87 333.42L134.85 332.95C135.03 334.98 132.48 335.35 133.17 337.98L136.79 334.06C140.98 333.4 143.92 324.84 145.46 323.45C146.05 322.92 147.39 323.27 147.41 321.22C148.4 324.38 153.93 326.35 155.34 328.09C155.84 328.71 155.79 330.48 157.18 330.71C157.35 329.9 157.07 329.27 156.85 328.53C156.55 327.47 155.86 321.93 156.02 321.03C156.12 320.5 157.19 320.53 157.46 320.12C157.93 319.4 157.92 315.82 157.73 314.81C157.57 313.96 156.62 313.31 156.72 312.67C156.75 312.44 158.41 309.16 158.74 308.52C159.13 307.77 159.17 307.18 159.71 308.37C160.73 310.6 157.94 317.51 158.9 320.42C157.07 322.85 159.09 325.57 158.87 327.63C158.78 328.51 157.74 329.12 157.74 329.88C157.74 330.53 158.75 331.37 158.9 332.64C159.04 333.81 158.88 337.46 158.81 338.84C158.77 339.63 157.95 340.12 157.93 340.49C157.91 340.86 159.47 342.38 158.86 343.56L156.63 341.33C156.76 342.87 156.69 344.05 154.95 344.13V345.24H156.06V345.79C153.12 346.63 153.74 349.04 157.03 347.61C158.38 347.02 159.58 344.68 160.8 344.68L163.31 348.04C164.01 345.78 161.44 344.48 161.1 343.7C160.33 341.97 160.34 337 160.65 335.05C161.8 327.94 168.76 323.27 169.45 315.92C169.64 313.92 169.31 311.82 169.49 309.8L167.78 309.5L168.92 304.29L166.66 301.96L169.45 301.11C169.45 301.9 169.37 302.72 169.57 303.51C170.57 307.43 170.7 309.62 170.57 313.69C170.35 320.31 171.03 322.1 176.21 325.93L182.3 329.61L182.56 326.76L184.28 326.33C185.55 323.84 182.69 321.32 182.33 319.26C182.01 317.48 182.5 315.27 182.3 313.42L179.53 314.85C177.76 315.26 178.92 312.93 178.95 312.02C179 310.62 178.92 309.22 178.95 307.83L180.62 313.41C180.83 311.54 180.36 309.32 180.59 307.52C180.84 305.58 182.55 303.69 181.74 301.12C178.9 300.28 177.23 303.83 174.48 303.08C175.84 301.99 177.77 300.74 179.4 300.18C180.02 299.97 184.53 298.84 184.81 298.89C184.93 298.91 185.93 299.71 185.37 299.98C184.76 300.52 184.54 301.15 184.48 301.95C184.33 304.04 185.19 307.61 185.15 309.78C185.1 312.44 183.91 314.22 184.84 317.3C185.15 318.32 186.58 317.96 184.52 318.79L184.54 322.35L185.65 321.78L185.07 336.61L186.21 341.89C185.96 332.23 194.22 325.29 196.28 316.2L198.25 320.08C200.8 321.09 201.39 324.46 204.09 324.57L203.77 322.34L206.61 320.67L208 322.9C208.23 321.79 206 315.87 205.49 315.64C203.77 317.41 203.73 318.97 203.14 321.11C202.99 321.66 203.16 322.8 202.15 322.33C199.82 321.24 203.09 320.53 202.42 318.99C200.96 318.05 200.75 320.55 200.18 319.83C198.97 318.31 198.57 315.49 197.91 313.82C197.69 313.27 196.1 313.21 196.87 311.2L198.54 310.86C198.88 309.07 197.86 305.5 198.22 304.49C198.51 303.65 200.64 300.77 201.59 300.56C203 300.25 202.3 301.96 202.42 302.78C201.72 302.05 201.99 301.4 200.75 301.66C201.17 303.03 199.27 306.42 199.27 306.97C199.27 307.39 200.72 308.89 200.19 310.04L200.75 308.37C203.19 309.18 202.58 310.14 203.29 311.69C203.5 312.14 204.15 312.43 204.31 312.84C204.58 313.5 203.77 314.79 205.21 315.08C205.32 310.77 203.02 307.05 202.42 302.79L202.44 302.77ZM48.7898 265.9V257.24C48.7898 256.05 46.1098 251.36 45.5798 249.83C45.3198 249.07 45.4398 248.24 45.4398 247.46C44.0398 247.24 44.2598 247.66 44.2998 248.87C44.4398 253.02 46.9198 257.11 47.5498 260.71C47.8498 262.45 46.9798 265.04 48.7998 265.89L48.7898 265.9ZM48.7798 283.22C47.2198 281.4 47.7198 287.2 47.8198 287.83C48.1298 289.78 48.7098 290.16 50.4598 291.03C51.1398 289.1 48.9198 289.08 48.7698 288.41C48.5398 287.36 49.0698 283.54 48.7798 283.21V283.22ZM58.8398 301.09C58.5398 299.22 59.7698 296.03 57.7298 294.95C57.7498 296.32 57.6198 297.72 57.7698 299.09C57.8298 299.63 58.0198 301.19 58.8398 301.09ZM253.28 299.43C251.42 299.45 251.33 297.34 249.93 296.63C249.41 299.3 250.61 299.73 252.44 301.09L253.28 299.43ZM283.28 312.13C283.69 311.44 283.5 309.08 283.45 308.07C283.42 307.39 283.88 306 282.9 306.13L280.65 313.39L279.55 312.82C280.27 315.55 277.16 315.36 277.32 317.85C277.52 318.09 280.04 315.91 280.38 315.62C280.95 315.13 281.07 314.32 281.34 314.1C281.52 313.96 282.13 314.35 282.34 314.24C283.26 313.75 282.15 312.81 282.45 312.41C282.58 312.24 283.19 312.3 283.28 312.14V312.13ZM78.7498 322.55C77.7598 321.99 76.1898 321.47 75.0498 321.21L77.6798 323.89L80.0798 324C80.1298 323.68 78.8598 322.61 78.7598 322.55H78.7498ZM249.93 334.05C256.5 334.07 263.48 328.95 262.22 321.77C260.61 322.86 260.54 325.82 259.67 327.32C259.04 328.41 257.53 329.18 257.01 330.53L249.93 334.06V334.05ZM109.69 334.05L109.42 327.91C108.62 329.09 108.54 331.84 108.56 333.21C108.58 334.32 108.61 334.11 109.7 334.05H109.69ZM237.08 332.38C235.54 332.03 236.13 332.88 235.71 333.5C233.15 337.21 230.78 340.39 226.59 342.28L220.33 342.99C226.93 345.4 237.42 340.06 237.09 332.38H237.08ZM100.19 339.63C103.87 339.71 106.06 337.52 106.89 334.05C106.31 333.41 103.03 337.61 102.81 337.79C102.17 338.3 100.46 338.22 100.19 339.63ZM200.2 346.91C200.63 348.59 202.36 347.48 203.38 347.01C207.66 345.03 211.49 341.39 210.81 336.29L209.16 339.97C206.9 339.81 204.58 339.44 204.11 342.43L206.34 342.71C204.66 344.47 202.68 346.38 200.2 346.91ZM126.45 342.44L122.34 341.96L116.96 342.99C119.96 343.69 124.32 345.57 126.45 342.44ZM177.29 349.69H169.47C168.99 351.07 171.07 351.4 172 351.4C173.22 351.4 179.57 350.31 180.09 349.68C181.14 348.41 178.7 348.85 178.98 348.02C182.3 349.37 186.3 346.7 185.68 342.99C183.69 344.98 182.66 343.13 182.05 343.12C181.44 343.11 179.69 345.39 179.12 345.75C177.76 346.6 176.78 345.44 176.21 348.33C177.11 348.78 177.56 348.3 177.31 349.69H177.29ZM146 348.58C143.21 348.92 140.75 347.69 138.18 346.9C136.95 347.96 141.94 349.53 142.5 349.58C143.06 349.63 145.89 349.42 146 348.58Z" fill="#2CC5F4" fill-opacity="0.8"/>
<path d="M105.62 40.96C107.74 42.54 109.31 42.95 111.73 44.35C111.98 44.5 112.03 45.19 112.6 45.43C113.7 45.89 115.59 45.36 115.83 46.37C113.87 45.95 112.22 47.22 110.48 47.45C105.84 48.07 100.58 48.14 95.9901 48.04C95.4001 48.03 93.7001 48.23 92.9201 48.31C92.2501 48.38 91.5301 47.85 91.2401 49.16C94.4201 49.88 97.9401 48.88 101.02 49.16C103.06 49.35 104.43 50.74 105.51 50.83C106.67 50.94 108.24 50.09 109.96 50.24C111.68 50.39 112.91 51.69 114.7 51.39C114.36 52.74 113.43 52.15 112.48 51.94C112.09 53.84 111.24 56.87 114.14 56.42V57.53C113.01 57.34 112.41 59.27 112.06 60.23C111.68 61.27 110.31 65.99 110.1 66.37C110.02 66.52 109.09 66.83 108.64 67.39C101.94 75.8 102.34 94.61 104.68 104.7C104.89 105.58 105.62 106.24 105.75 107.02C106.08 109 104.59 111.2 105.3 113.58C105.48 114.18 107.24 115.98 107.81 116.12C108.98 116.41 110.68 115.16 111.64 115.29C111.96 115.33 116.62 118.2 116.96 118.7C117.38 119.32 117.36 120.61 117.82 120.7C119.32 121.01 121.14 120.11 122.14 120.27C125.05 120.74 135.88 126.6 137.9 129.01C138.57 129.81 140.53 133.36 138.43 132.96C137.05 132.7 135.32 130.17 133.13 130.72C132.41 131.45 134.7 135.21 132.86 134.62C130.47 133.86 128.71 131.62 126.82 130.6C124.59 129.39 120.44 128.49 118.01 129.29C117.59 129.43 114.76 131.45 114.72 131.64C114.63 132.02 115.14 133.33 114.69 134.07C121.13 133.41 127.3 135.61 132.01 139.93C132.67 140.53 133.03 141.62 133.97 142.44C135.67 143.94 139.95 144.48 138.09 147.12C136.78 148.97 134.35 149.6 135.92 146.36L133.13 146.91C133.71 144.55 131.83 143.42 131.44 141.33C129.5 141.71 131.15 145.52 130.88 145.79C127.32 145.38 123.37 146.12 120.06 144.04C117.36 142.35 119 139.16 116.63 137.42C113.7 139.55 116.16 141.12 116.91 143.55C114.84 144.39 113.23 142.27 112.07 142.05C111.54 141.95 110.76 142.55 110.21 142.2C108.09 140.85 110.08 139.11 110.09 138.8C110.1 138.44 109.1 137.93 108.84 137.38C108.37 136.38 108.38 134.09 106.56 134.2C106.33 134.21 104.79 135.67 104.59 135.99C103.13 138.28 104.65 140.57 104.59 142.67C104.51 144.98 102.81 148.79 102.5 151.26C102.26 153.21 102.64 156.18 102.4 158.37C102.2 160.15 101.99 160.93 100.16 161.43C100.77 159.26 100.56 156.15 100.16 153.89C99.8002 151.88 97.2702 152.22 96.2302 153.32C95.1902 154.42 96.2301 157.27 93.7401 157.54L92.3601 156.62L92.8601 154.24C91.2402 154.11 90.3802 151.85 89.1602 151.49C87.7702 151.07 82.6401 151.72 82.3201 153.41C82.8301 156.49 87.2301 156.72 85.6401 159.76C86.4801 159.49 86.9101 158.95 87.8801 159.47C89.6001 160.4 86.7901 160.03 87.3201 161.15C87.8501 162.27 92.3701 165.24 92.4301 162.65L99.3201 165.35L100.5 163.14C102.48 162.51 105.49 166.43 106.16 168C107.29 170.64 105.51 175.13 108.85 175.34C108.9 178.22 111.04 181.23 114.14 180.98L112.46 182.1L114.15 183.5V184.61L112.99 185.2C113.73 186.63 114.17 194.64 112.73 194.94C111.39 195.22 111.57 193.6 111.34 192.99C110.57 191.01 108.06 184.03 106.59 183.22C105.58 182.66 105.76 183.89 105.88 184.49C106.21 186.18 108.03 190.3 107.97 191.33C107.91 192.45 106.13 193.44 107.43 195.5C106.35 195.77 106.35 195.1 105.86 194.56C104.1 192.63 101.55 190.93 99.0601 189.91C98.4001 192.34 100.93 191.79 101.57 192.7C102.28 193.7 103.03 196.93 104.31 198.34C105.4 199.53 107.71 199.4 107.98 200.25C108.25 201.1 108.26 201.72 107.13 201.66C106.36 201.62 101.38 200.2 100.56 199.84C99.5301 199.39 98.4201 198.05 97.0301 197.76L97.3501 196.1C96.7801 196.14 96.2802 195.61 95.9102 195.52C94.6302 195.22 95.6801 197.16 94.0102 196.61L93.9601 194.43C92.6801 194.44 89.1601 192.58 88.6701 191.59C88.2401 190.72 89.5601 189.17 88.4501 187.51C87.9701 186.79 85.0301 185.43 87.0301 183.78C87.8301 184.8 89.2302 184.87 90.1502 185.68C91.4301 186.82 90.6301 188.16 92.9201 187.35L93.4601 189.36L95.1301 188.79V190.46L93.4601 189.9V192.7H95.6902C95.0002 190.7 97.2101 189.12 96.7401 187.5C94.5801 185.65 91.9701 183.1 89.1202 183.05C88.1502 180.92 82.4002 179.65 82.8002 176.82C84.4502 176.46 84.3002 174.68 84.6202 174.38C85.3302 173.71 89.2901 174.65 86.7401 171.22C87.5601 170.12 89.0701 169.52 90.1001 170.69C89.9701 171.23 89.5602 171.84 89.5701 172.37C89.6001 174.63 90.9801 174.08 88.4201 175.95L92.3302 174.83L91.7701 172.6C93.6801 172.06 94.3302 174.29 95.4102 174.83C96.3402 175.29 96.5002 174.03 96.2302 173.45C96.0202 172.99 94.7901 172.52 94.1401 171.63C93.2601 170.43 92.6901 168.5 92.8901 167.02L90.9402 168.13L89.9301 166.08C88.3302 164.7 81.2701 159.97 81.1401 158.35C81.0601 157.35 81.8901 156.35 81.7101 155.29L78.9201 156.4C80.2901 152.2 77.6901 152.31 75.2801 149.7C71.2401 145.34 64.6801 136.78 62.2201 131.48C58.2701 122.96 56.6101 113.02 56.5401 103.59C56.5101 99.3 55.9601 92.98 56.2601 89.07C56.3401 87.97 57.8201 86.08 58.1201 84.5C58.8701 80.41 58.7301 76.86 60.2101 72.62C62.7901 65.22 67.6402 60.6 71.8002 54.33L78.9201 51.94L78.3601 50.27L83.3901 50.82L81.1602 49.15L87.3002 49.7L84.5102 49.14C83.5202 48.32 90.1901 46.38 90.5001 46.19C92.5301 44.93 95.6801 42.17 98.3201 41.39C99.4701 41.05 100.53 41.98 101.55 41.9C102.91 41.79 103.46 39.36 105.59 40.94L105.62 40.96ZM106.33 59.22H102.98C103.15 61.21 103.66 65.14 106.34 63.96C105.83 62.18 105.67 60.99 106.34 59.22H106.33Z" fill="#2CC5F4" fill-opacity="0.8"/>
<path d="M168.78 233.63C169.29 234.06 169.11 235.2 169.61 235.6C170.06 235.96 171.27 235.69 171.7 236.57C171.13 237.04 170.65 237.91 170.01 238.22C166.64 239.85 154.92 238.14 150.9 237.26C148.89 236.82 147.11 235.53 144.88 235.46L144.33 234.89C144.26 234.21 144.22 233.59 144.87 233.2C146.29 232.35 149.22 233.97 148.8 231.82C144.88 232.03 139.06 228.29 136.76 225.14C136.24 224.43 134.47 220.93 134.35 220.23C134.16 219.13 134.94 218.09 134.57 217.3C133.82 215.69 128.34 213.43 129.24 212.26C130.39 210.77 133.22 213.21 134.09 213.28C134.75 213.33 135.23 212.54 135.65 212.53C136.53 212.5 139.19 212.74 140.01 212.95C141.38 213.31 142.85 215.54 144.01 215.58C146.13 215.66 149.95 213.33 152.99 213.33C155.36 213.33 157.14 214.58 159.2 214.99C163.28 215.8 167.76 216.82 171.75 215.33L172.23 213.07C174.57 213.73 175.6 211.27 175.94 211.2C176.53 211.08 178.38 212 179.57 211.37C182.57 216.84 176.93 219.59 172.28 220.36L165.83 227.91C165.62 228.36 166.15 231.86 166.4 232.38C166.94 233.47 168.3 233.21 168.79 233.62L168.78 233.63ZM161.65 221.78C158.28 220.71 155.35 221.55 151.97 221.76C149.46 226.21 155.11 229.79 159.41 227.92L157.73 226.81V225.15L159.73 224.6C158.8 221.67 160.64 224.29 161.64 221.79L161.65 221.78ZM142.1 225.12L146 223.73C144.52 222.05 141.6 222.61 142.1 225.12Z" fill="#2CC5F4" fill-opacity="0.8"/>
<path d="M153.15 182.27L153.6 183.27L157.18 182.67C156.82 185.79 153.64 185.96 155.56 189.87C157.7 190.66 162.51 188.88 162.24 186.32C162.16 185.58 159.64 182.82 162.49 183.78C163.02 183.96 163.11 185.34 163.71 185.48C165.68 185.91 166.69 184.44 167.64 187.57C168.92 191.78 167.23 195.01 165.02 198.6C162.18 203.21 158.56 205.65 153.56 207.25C151.64 207.08 149.68 203.82 148.42 203.45C146.44 202.87 143.42 203.62 140.95 203.09C138.95 202.66 136.85 201.12 135.4 199.7C135.17 198.19 136.66 199.63 137.87 199.44C139.08 199.25 142.13 197.68 142.92 196.61C145.02 193.76 146.45 193.9 147.52 192.56C147.83 192.17 150.31 188.68 150.38 188.44C150.96 186.41 149.52 181.64 153.16 182.28L153.15 182.27Z" fill="#2CC5F4" fill-opacity="0.8"/>
<path d="M63.3102 188.81C62.9902 190.33 62.7802 190.5 61.0702 190.49C60.2802 190.96 63.7602 193.73 60.5002 195.24C58.2402 196.29 56.4802 193.41 54.8902 193.54C51.9202 193.78 53.3002 195.22 52.9502 196.59C52.3802 198.79 50.6302 200.38 48.2202 199.99V197.76H49.6302C49.0102 195.87 50.0302 195.47 50.4702 194.14C52.0702 189.29 52.2702 190.15 54.6202 186.57C55.2202 185.66 55.2402 184.49 55.6302 183.95C56.1202 183.28 57.9202 182.92 58.9702 181.43C60.1402 179.76 60.5902 176.52 61.7902 175.03C62.2702 174.43 65.2402 173.02 65.7902 172.05C66.2002 171.31 65.9302 170.21 66.2002 169.91C66.3702 169.71 67.2002 169.94 67.5702 169.66C68.4902 168.97 69.4802 167.11 70.5602 166.48L71.6802 170.95C70.0002 170.38 68.2402 170.86 67.1902 172.34C66.7802 172.91 66.8102 173.8 66.5202 174.15C66.1302 174.63 64.8402 174.62 64.1602 175.42C63.0002 176.77 64.1602 178.38 61.6202 178.49C61.9802 180.5 61.5602 182.79 63.8702 183.23C64.2102 181.9 64.1302 178.58 64.7102 177.64C64.9802 177.21 65.9202 177.05 66.3402 176.48C66.8302 175.82 67.4002 172.91 68.9202 173.99C70.4402 175.07 69.2502 176.59 69.5702 177.76C71.1402 179.81 70.1802 183.45 70.0202 186.02C66.9502 185.23 63.7002 185.22 61.6502 187.98C61.3902 189.29 62.5102 188.77 63.3202 188.81C63.3902 188.49 63.2602 188.05 63.3202 187.69C64.4402 187.21 66.8802 189.18 66.6702 190.19C66.5602 190.73 65.7302 191.24 64.9902 190.76C63.9502 190.08 65.1202 188.93 64.9902 188.8C64.9002 188.71 63.7602 188.82 63.3102 188.8V188.81Z" fill="#2CC5F4" fill-opacity="0.8"/>
<path d="M59.0598 256.74C61.8198 259.58 62.1798 262.95 63.3298 266.71L61.0698 272.61L58.8398 271.5V273.44L57.7298 273.72C57.9598 272.76 56.6998 272.66 56.6098 272.21C55.9598 268.87 53.9898 267.51 52.8498 264.35C51.5498 260.75 50.4398 253.7 55.2198 252.68C56.5498 252.95 56.0998 254.51 56.5698 255.06C56.9498 255.51 57.8998 255.56 59.0498 256.74H59.0598Z" fill="#2CC5F4" fill-opacity="0.8"/>
<path d="M128.13 316.18L127.85 317.85C125.32 316.06 126.3 313.24 125.87 310.89C125.6 309.41 123.88 307.47 124.22 305.56C124.97 304.72 128.02 309.69 127.57 305.56L129.8 306.13L128.68 309.75C131.56 311.01 131.28 306.63 132.16 304.85C132.4 304.36 134.95 301.24 135.19 301.16C138.49 300.05 137.78 304.35 136.75 306.09C135.24 308.63 134.73 308.33 134.33 312.06C134.24 312.87 134.94 313.7 134.58 314.5C133.05 317.88 128.32 315.88 128.14 316.19L128.13 316.18Z" fill="#2CC5F4" fill-opacity="0.8"/>
<path d="M105.22 216.18C103.27 215.99 102.99 217.18 102.05 218.45C100.35 218.86 99.6898 217.73 98.6398 217.46C97.5198 217.17 96.4698 217.37 95.2998 216.89C93.8998 216.31 92.7898 214.12 91.7998 213.68C90.3798 213.06 87.8198 214.1 87.8998 211.72C89.3598 210.56 91.0798 212.86 91.5298 212.82C92.0098 212.78 92.3798 210.99 93.2798 210.68C95.8598 209.81 98.0698 211.16 100.28 211.89C103.34 212.9 104.23 212.05 105.21 216.18H105.22Z" fill="#2CC5F4" fill-opacity="0.8"/>
<path d="M98.5202 202.78C101.2 201.41 102 203.62 104.43 204.42L104.1 206.68C108.09 205.41 107.98 207.48 104.39 207.8C100.8 208.12 97.6902 206.28 94.1202 205.49L93.4902 198.86C94.4902 198.64 94.7702 199.55 95.5802 199.83C97.4802 200.48 98.8702 199.36 98.5102 202.77L98.5202 202.78Z" fill="#2CC5F4" fill-opacity="0.8"/>
<path d="M278.9 262.63C278.81 265.14 280.17 268.12 279.43 270.54C279.19 271.33 277.94 272.11 277.39 272.97C276.62 274.17 276.22 275.44 275.35 276.5C273.09 275.03 274.31 273.19 274.61 270.99L276.23 270.63C276.52 269.25 275.59 266.63 275.02 265.23C274.83 264.77 274.27 264.83 274.01 264.34C273.25 262.9 274.16 261.61 271.17 261.15C272.16 258.85 277.39 261.98 278.91 262.63H278.9Z" fill="#2CC5F4" fill-opacity="0.8"/>
<path d="M75.6001 277.07L73.3701 275.96L74.4801 282.1L71.9701 279.31L71.1301 282.1C69.8101 282.46 67.8401 280.84 67.7501 279.56C67.6701 278.47 68.5701 277.96 68.6501 277.36C68.8201 276.12 67.9101 273.61 68.3501 272.05L70.4401 274.7L70.5901 278.19H72.2601C71.6901 275.67 71.5001 271.19 73.9301 269.81L75.6101 277.07H75.6001Z" fill="#2CC5F4" fill-opacity="0.8"/>
<path d="M102.96 226.21C99.9901 227.56 97.6701 225.67 94.8801 225.63C93.5501 225.61 90.7301 227.17 91.2301 224.31C91.3001 223.93 92.2501 223.9 92.6001 223.43C93.0501 222.82 93.0001 221.48 93.8301 221.25C94.0701 221.18 98.2501 221.7 98.7701 221.81C100.67 222.22 103.74 223.85 102.97 226.22L102.96 226.21Z" fill="#2CC5F4" fill-opacity="0.8"/>
<path d="M79.4199 164.88C80.3699 166.37 76.4499 167.29 79.5299 168.42V169.54L77.8999 170.69L78.1599 173.2C70.9599 176.96 73.5799 164.44 76.6999 163.89C77.1599 163.53 79.3199 164.71 79.4199 164.88Z" fill="#2CC5F4" fill-opacity="0.8"/>
<path d="M216.96 303.89C215.99 304.14 216.83 302.2 215.57 302.78C214.77 303.15 214.62 304.56 214.15 305.16C213.87 305.52 212.5 307.14 211.94 306.69C211.04 303.8 211.14 300.66 211.94 297.76L210.27 298.32L210.82 296.9C214.43 296.96 217.83 300.1 216.97 303.9L216.96 303.89Z" fill="#2CC5F4" fill-opacity="0.8"/>
<path d="M106.9 301.09C106.44 298.74 108.31 297.83 109.68 296.34L106.89 295.5V293.83L111.94 294.09L112.37 294.73C111.39 296.5 113.55 297.35 112.78 298.86C112.01 300.37 110.22 299.76 108.97 300.1C108.18 300.32 107.91 301.35 106.89 301.09H106.9Z" fill="#2CC5F4" fill-opacity="0.8"/>
<path d="M84.5498 213.4V211.16C83.1998 211.12 81.5598 211.61 80.6298 210.31L81.6298 208.64L80.0698 206.69C82.5898 205.94 82.9998 207.66 84.2598 208.39C85.0198 208.83 85.9998 208.45 86.4898 209.46C87.3698 211.27 86.9398 213.92 84.5398 213.39L84.5498 213.4Z" fill="#2CC5F4" fill-opacity="0.8"/>
<path d="M195.17 313.38C192.92 313.81 194.96 310.38 193.21 309.47L192.38 311.43C189.95 311.18 192.27 307.32 192.24 305.71C192.22 304.75 190.74 303.63 191.26 302.2C192.42 301.96 192.55 302.77 193.04 303.49C194.87 306.15 195.12 310.18 195.16 313.37L195.17 313.38Z" fill="#2CC5F4" fill-opacity="0.8"/>
<path d="M91.8098 203.89C89.1798 204.64 85.2498 199.61 88.4498 198.03C89.4298 197.55 92.0998 197.45 92.3398 198.63C92.5498 199.64 90.2198 202.21 91.7998 203.89H91.8098Z" fill="#2CC5F4" fill-opacity="0.8"/>
<path d="M235.6 16.01C235.89 16.3 237.85 17.19 237.08 17.88C235.55 19.25 234.73 15.65 234.55 15.62L229.1 17.23L223.67 14.54C227.07 15.61 230.7 13.91 234.02 14.52C235.26 14.75 235.04 15.46 235.6 16.01Z" fill="#2CC5F4" fill-opacity="0.8"/>
<path d="M73.3701 180.99C73.8001 179.66 71.9101 176.56 73.7101 176C74.8501 175.64 79.3401 178.21 79.5201 179.04C79.9301 181.01 76.9301 179.7 75.9201 179.86C74.8401 180.03 74.5001 181.17 73.3801 180.99H73.3701Z" fill="#2CC5F4" fill-opacity="0.8"/>
<path d="M162.7 2.30995C162.43 5.65995 162.76 5.75995 165 7.81995C160 8.69995 161.11 4.49995 158.3 1.94995C158.18 0.469949 158.55 1.41995 159.28 1.52995C160.44 1.68995 161.61 1.86995 162.7 2.30995Z" fill="#2CC5F4" fill-opacity="0.8"/>
<path d="M173.94 0.570068L172.81 1.47007L172.58 6.18007L170.05 6.69007L168.91 1.68007L173.94 0.570068Z" fill="#2CC5F4" fill-opacity="0.8"/>
<path d="M126.45 296.07C126.77 296.37 123.67 300.75 123.35 301.63C122.99 302.59 123.12 303.78 122.77 304.97C122.57 305.62 121.99 307.7 120.87 307.25C121.55 305.19 121.52 302.29 122 300.38C122.11 299.94 122.84 300 123.06 299.56C123.84 298.01 123.73 295.73 126.45 296.08V296.07Z" fill="#2CC5F4" fill-opacity="0.8"/>
<path d="M190.15 0.570059C189.42 1.39006 187.15 7.81006 185.68 6.15006C184.74 3.75006 186.81 3.26006 186.81 3.07006C186.81 1.98006 185.41 1.75006 185.68 0.560059H190.15V0.570059Z" fill="#2CC5F4" fill-opacity="0.8"/>
<path d="M167.79 1.67993L166.96 7.81993C166.15 7.08993 165.82 7.67993 165.54 6.41993C165.18 4.81993 164.76 3.26993 164.44 1.67993H167.79Z" fill="#2CC5F4" fill-opacity="0.8"/>
<path d="M76.1601 264.79C75.1001 266.75 76.7201 267.37 76.7201 269.25L71.1401 265.89L71.4201 264.77C73.2101 265.31 74.3801 265.41 76.1601 264.78V264.79Z" fill="#2CC5F4" fill-opacity="0.8"/>
<path d="M239.87 293.27L235.04 286.65L234.29 284.33C236.9 286.26 239.62 289.97 239.87 293.27Z" fill="#2CC5F4" fill-opacity="0.8"/>
<path d="M236.52 292.15C235.15 292.4 235.29 291.12 234.4 290.5C232.93 289.49 230.1 289.81 230.39 287.12C232.94 287.82 236.49 288.87 236.53 292.15H236.52Z" fill="#2CC5F4" fill-opacity="0.8"/>
<path d="M263.25 282.59L262.19 283L262.78 286.57L259.99 286.01C259.77 285.86 261.17 281.35 261.38 280.98C262.02 279.83 263.75 281.9 263.25 282.59Z" fill="#2CC5F4" fill-opacity="0.8"/>
<path d="M308.04 144.13L305.43 146.82L301.34 148.59C300.08 147.43 306.81 143.76 308.04 144.13Z" fill="#2CC5F4" fill-opacity="0.8"/>
<path d="M101.86 292.72L99.9099 298.86C97.9999 296.86 99.0199 293.04 101.86 292.72Z" fill="#2CC5F4" fill-opacity="0.8"/>
<path d="M173.95 322.32C173.45 321.35 173.95 319.44 173.77 318.78C173.55 317.98 172.58 317.75 172.83 316.74L175.1 316.98C175.99 317.59 176.3 322.75 173.95 322.32Z" fill="#2CC5F4" fill-opacity="0.8"/>
<path d="M116.39 145.24V146.92C113.94 147.14 112.28 147.11 110.81 144.97L112.19 143.67C113.65 144.64 114.52 146.07 116.38 145.24H116.39Z" fill="#2CC5F4" fill-opacity="0.8"/>
<path d="M85.6601 167.59C85.5401 168.71 84.7801 172.37 83.1501 172.05C81.0501 171.64 83.7401 166.64 85.6601 167.59Z" fill="#2CC5F4" fill-opacity="0.8"/>
<path d="M180.09 302.77L179.53 306.68L177.31 306.08C177.31 304.13 177.85 302.85 180.09 302.77Z" fill="#2CC5F4" fill-opacity="0.8"/>
<path d="M177.29 3.36011C178.54 6.25011 171.12 8.93011 174.07 5.42011L177.29 3.36011Z" fill="#2CC5F4" fill-opacity="0.8"/>
<path d="M226.46 9.5C226.89 12.7 223.45 11.6 221.44 11.73L224.39 9.94L226.46 9.5Z" fill="#2CC5F4" fill-opacity="0.8"/>
<path d="M149.36 308.35C148.75 308.35 147.72 308.36 147.37 308.87C146.83 309.64 147.68 311.22 146.57 311.15C146.39 308.89 146.31 307.86 147.75 306.2C149.19 305.92 149.56 307.21 149.36 308.35Z" fill="#2CC5F4" fill-opacity="0.8"/>
</g>
<defs>
<clipPath id="clip0_182_5430">
<rect width="339.23" height="355.4" rx="100" fill="white"/>
</clipPath>
</defs>
</svg>
