<svg width="623" height="687" viewBox="0 0 623 687" fill="none" xmlns="http://www.w3.org/2000/svg">
<g clip-path="url(#clip0_200_5507)">
<path d="M512.215 686.618C511.524 685.986 514.128 683.604 514.305 682.413C514.423 681.634 513.878 679.223 513.304 679.252C512.112 679.311 511.259 680.649 510.038 681.134C508.905 681.575 507.419 681.222 506.359 681.855C504.888 682.722 504.27 686.5 503.682 686.662C492.955 685.692 480.419 687.808 469.928 686.662C464.116 686.03 466.103 680.032 469.928 677.782C470.531 677.43 480.419 674.342 481.199 674.283C486.79 673.857 481.993 678.767 482.155 679.561C482.803 682.81 487.82 681.34 489.821 681.428C492.264 681.531 494.191 683.06 496.472 681.531C496.781 681.325 500.989 676.342 501.004 675.989C501.048 675.401 499.429 672.931 499.694 670.094C499.738 669.653 502.107 662.111 502.313 661.67C503.314 659.376 509.14 656.216 509.214 651.761C509.258 649.291 504.123 642.323 502.166 641.235C500.886 640.515 498.605 640.412 497.001 639.78C489.645 636.898 478.904 634.634 470.723 634.443C466.676 634.355 463.807 635.943 460.408 636.002C453.949 636.119 454.832 632.797 447.593 637.825C443.429 640.721 444.179 641.206 442.237 644.955C441.663 646.042 440.633 646.763 440.148 647.998C439.588 649.438 435.822 668.329 435.763 670.123C435.63 674.533 436.19 677.532 441.236 677.062C444.032 676.797 445.15 673.225 447.534 674.475C451.86 676.724 453.89 682.957 449.962 686.632L50.1005 686.5C48.2172 685.339 47.5698 671.328 46.7311 668.212C46.2161 666.286 44.6123 664.875 44.2592 663.346C43.6853 660.876 44.627 657.818 43.9649 655.569C43.803 655.04 37.6821 648.189 36.7846 647.322C35.0189 645.646 30.0751 643.073 29.5601 641.323C29.0451 639.574 29.6337 637.486 29.3541 635.649C28.7803 631.738 26.7351 625.799 26.4555 622.374C26.2642 620.11 27.1324 617.904 26.8822 616.096C26.4997 613.347 23.4833 609.334 22.9389 606.79C22.5858 605.129 23.0419 603.365 22.7182 601.866C20.8937 593.236 12.4922 585.18 11.7565 574.624C11.3151 568.229 14.6992 566.171 14.7287 563.657C14.7728 558.497 11.3592 550.382 11.2121 545.06C11.1385 542.546 12.1979 539.694 12.345 537.18C12.551 533.505 10.2998 530.918 13.9488 526.89C19.0398 521.288 23.4686 522.053 29.5896 520.495C34.4157 519.274 37.7851 509.851 40.4042 506.337C42.1992 503.941 46.172 502.236 47.3343 500.045C48.4967 497.855 48.0112 494.209 48.8646 492.753C49.2177 492.165 50.9981 491.401 51.822 490.563C58.5904 483.815 56.5893 481.757 57.325 473.289C57.8253 467.409 62.0187 460.808 63.9756 454.972C66.3592 447.871 67.4186 439.609 69.5963 432.685C70.3025 430.435 72.2006 427.965 72.5832 426.113C73.3336 422.526 73.569 415.925 74.1575 411.53C74.7461 407.134 77.2768 397.858 70.3467 398.872L59.7528 403.723C55.3681 405.546 49.2177 403.282 45.9218 403.459C44.4799 403.532 42.6848 405.237 40.7867 405.237C37.4467 405.252 36.4315 402.312 34.7688 401.812C32.032 400.989 28.6773 402.312 25.3079 400.989C19.6725 398.784 16.9357 392.727 13.5368 388.522C12.551 387.302 10.6088 386.464 9.24043 384.729C3.50207 377.482 2.45739 366.926 1.44214 357.944C1.01544 354.21 1.51571 355.209 0.338608 351.034C-0.838492 346.859 1.19201 346.8 2.03069 343.86C2.91352 340.773 2.54567 336.892 3.63449 333.716C4.72331 330.541 8.59303 320.75 10.2851 318.324C11.4622 316.648 13.478 315.987 14.6992 314.664C20.776 308.063 23.3509 300.506 30.8255 294.082C41.9638 284.526 46.4515 271.545 57.6634 260.681C62.5925 255.903 59.8263 258.432 62.0922 253.36C63.1075 251.096 65.4323 246.465 66.7124 244.025C67.7718 241.996 70.6851 239.585 71.4502 237.747C72.3477 235.615 71.6709 233.793 72.1712 231.867C72.5979 230.22 75.0698 228.427 75.5259 226.398C75.982 224.369 75.7025 221.399 75.673 219.209C75.5259 208.815 73.9074 193.026 78.1008 183.456C80.8523 177.193 82.7504 177.546 87.6648 174.65C91.8435 172.18 93.4031 169.578 98.7736 170.416C104.674 171.342 113.782 176.149 118.549 180.03C119.844 181.089 120.741 183.397 121.977 183.956C126.583 186.058 136.5 182.838 137.368 177.311C137.795 174.562 135.941 169.093 139.604 168.916C139.531 172.783 139.781 177.046 140.531 180.854C142.326 190.042 155.363 217.224 162.602 223.046C163.558 223.825 165.015 223.693 166.001 224.428C168.061 225.942 171.533 229.617 173.225 230.441C175.844 231.72 179.287 230.808 180.773 231.705C181.965 232.425 183.098 236.042 185.894 236.924C188.689 237.806 188.498 235.615 190.102 235.116C192.441 234.381 196.87 240.026 198.047 240.026C198.724 240.026 202.491 236.439 206.846 237.203C208.641 237.512 210.937 240.937 212.025 240.834C212.57 240.79 214.512 235.939 218.029 235.88C219.721 235.851 222.428 239.614 226.357 237.571C227.725 236.865 228.902 231.602 232.595 230.588C232.86 230.514 234.523 234.439 236.23 234.689C242.203 235.586 240.482 229.72 242.968 229.279C245.146 228.882 253.165 232.558 254.18 229.382C254.681 227.809 253.783 225.604 254.636 223.957C255.357 222.531 257.815 222.605 258.756 221.444C259.227 220.87 259.772 216.989 261.625 218.827C262.214 219.415 260.625 222.972 260.89 223.222C261.052 223.369 265.142 223.384 265.289 223.222C265.613 222.914 263.067 216.313 267.276 215.24C269.424 214.696 271.322 217.651 273.176 218.003C276.28 218.577 277.443 213.799 278.841 212.167C279.782 211.079 282.107 210.271 282.622 209.286C283.314 207.963 279.871 205.272 283.623 201.538C285.168 200.009 288.346 200.524 289.596 198.701C290.612 197.245 289.876 195.202 290.994 194.217C292.495 192.894 297.924 193.261 300.22 191.688C302.294 190.277 301.632 188.263 302.721 186.837C303.28 186.102 307.959 184.147 304.987 182.456C303.03 181.353 298.778 182.03 295.761 179.192C292.966 176.576 298.116 171.077 300.588 175.091C302.324 177.913 300.529 180.633 305.62 177.972C307.606 176.928 309.784 175.385 309.416 172.93C308.842 169.078 304.472 174.811 303.545 171.357C303.471 171.063 304.031 165.432 304.237 165.212C306.135 163.095 307.547 168.916 308.283 169.607C310.578 169.578 308.356 166.05 310.843 164.8C312.108 164.168 312.771 165.109 313.462 165.917C316.317 169.254 316.979 179.369 318.715 184.161C320.893 190.145 322.555 192.321 327.985 195.467C329.22 196.187 334.768 199.068 335.798 199.406C340.992 201.082 345.818 196.143 350.364 194.055C358.707 190.218 367.344 187.513 375.481 193.541C377.952 195.378 379.159 198.025 381.042 199.73C384.059 202.479 388.399 203.405 390.856 207.551C393.314 211.697 392.637 215.416 393.49 219.606C394.344 223.796 397.066 226.354 398.257 230.264C403.26 231.161 400.126 228.03 400.053 226.56C400.008 225.766 401.318 222.473 401.936 222.105C402.098 222.017 405.511 222.384 405.644 222.502C406.615 223.281 399.744 230.646 405.408 231.205C406.747 231.337 409.057 227.324 409.204 226.383C409.41 225.001 405.835 222.943 406.379 222.502C407.439 221.635 412.191 223.472 413.251 223.164C414.501 222.796 414.707 219.959 416.282 220.297C419.637 221.032 415.296 225.648 415.325 226.383C415.487 229.529 418.268 228.088 419.975 226.898C424.036 224.09 423.08 222.443 424.566 219.003C427.7 211.726 429.039 223.149 429.509 223.957C429.98 224.766 433.1 225.883 433.556 225.413C433.703 225.266 433.673 221.326 433.467 221.105C432.658 220.238 429.642 221.885 430.642 216.269C431.643 210.653 436.469 215.828 436.881 215.828C438.5 215.828 438.558 211.182 440.177 210.344C441.795 209.506 447.593 211.888 448.902 209.918C449.756 208.624 447.71 202.655 453.199 201.318C455.626 200.73 455.111 203.17 456.112 203.42C461.335 204.743 462.66 202.038 464.572 198.039C465.087 196.951 465.028 195.217 465.514 194.57C466.765 192.909 472.488 194.217 472.444 187.69C472.415 183.441 470.899 184.896 468.883 183.926C465.367 182.221 467.383 178.457 466.309 176.928C465.705 176.076 462.557 175.988 461.247 175.37C458.098 173.9 463.513 171.93 466.103 172.709C467.721 173.194 471.164 176.943 472.076 178.501C473.106 180.266 471.826 182.162 475.063 182.162C475.608 182.162 478.286 181.515 478.389 181.368C478.565 181.118 476.858 177.399 476.52 177.017C475.696 176.105 474.283 176.208 473.592 175.532C466.765 168.96 473.945 169.21 473.974 167.799C473.989 167.093 469.855 165.653 470.384 163.477C470.59 162.595 472.282 162.271 472.841 161.507C473.327 160.845 476.711 155.509 476.814 155.156C477.476 152.966 475.343 151.495 475.564 150.29C475.887 148.482 480.007 147.967 480.478 144.101C480.875 140.749 477.638 140.984 478.55 136.383C478.801 135.148 480.993 132.972 479.168 131.781C476.211 129.855 471.12 136.985 469.237 132.898C468.074 130.399 470.075 128.297 465.588 128.473C457.524 128.812 464.97 132.163 461.939 134.427C460.247 135.692 457.951 134.692 457.201 135.192C456.656 135.559 456.612 138.441 456.303 138.705C455.42 139.455 449.064 137 449.035 139.881C449.035 140.176 454.199 144.013 450.844 144.659C450.05 144.806 446.121 141.381 444.311 141.778C443.076 142.043 442.884 145.38 441.722 146.541C440.78 147.482 439.397 147.423 438.764 147.982C437.837 148.79 438.043 150.275 437.278 150.907C435.645 152.275 436.263 147.467 436.587 146.659C436.881 145.924 437.955 146.365 438.088 145.056C438.205 143.821 437.514 133.045 437.264 131.811C436.969 130.296 433.57 126.974 433.615 125.915C433.659 124.857 437.293 124.695 438.323 124.019C439.162 123.475 439.294 122.034 439.986 121.873C441.133 121.608 442.575 122.078 444.061 121.696C446.313 121.123 449.344 118.094 451.036 117.653C454.126 116.83 466.147 117.198 467.206 115.816C467.545 115.375 467.442 114.404 467.809 113.89C469.413 111.655 473.121 112.464 475.475 112.332C475.313 111.258 472.238 110.244 471.473 110.229C470.752 110.2 465.632 110.832 464.97 111.023C463.793 111.361 462.13 114.096 460.776 113.478C457.024 111.773 461.321 109.979 462.277 108.847C464.661 106.01 465.234 103.717 460.556 103.775C456.48 103.82 454.538 105.981 451.448 107.054C445.739 109.024 439.633 110.317 433.938 112.332C432.938 112.684 427.523 114.934 427.288 115.242C426.964 115.654 427.847 117.55 427.788 118.58C427.553 122.652 428.524 124.195 428.421 126.548C428.347 128.341 425.875 137.588 425.154 139.529C423.389 144.321 419.357 141.337 415.414 141.984C410.838 137.897 417.003 139.102 417.989 136.044C418.312 135.03 418.96 130.723 418.945 129.591C418.916 123.034 418.916 120.108 420.549 113.625C421.638 109.274 423.918 104.878 424.051 100.174C424.183 95.4693 421.064 97.5862 420.446 95.7192C419.592 93.1612 421.991 90.7061 417.444 89.8681C412.28 88.9126 415.267 94.3961 415.281 97.2775C415.281 98.3948 414.413 105.01 414.104 105.716C413.898 106.186 407.395 112.714 406.791 113.096C405.57 113.86 404.114 113.728 403.039 114.493C401.553 115.566 400.847 118.653 398.566 120.3C393.24 124.107 394.726 119.638 393.211 118.535C392.181 117.786 389.929 118.477 388.532 118.08C386.84 117.58 386.707 115.492 385.824 114.169C385.398 113.522 383.323 112.037 383.617 111.611C383.794 111.361 388.326 109.582 389.194 109.465C390.68 109.259 396.565 109.656 396.845 109.406C397.301 108.994 396.536 107.612 395.624 107.333C395.006 107.142 388.708 106.525 387.737 106.554C386.398 106.583 382.116 107.289 380.792 107.701C380.424 107.818 374.392 111.053 374.097 111.288C373.156 111.993 370.051 118.947 368.536 120.417C367.829 121.108 366.696 121.093 366.049 121.608C365.475 122.049 363.695 125.621 363.047 122.99C362.886 122.328 364.637 115.83 365.019 114.698C365.975 111.905 368.227 106.348 369.492 103.746C370.86 100.953 378.041 95.5869 381.042 96.1749C382.867 96.5278 382.69 98.1302 384.118 98.9976C387.781 101.232 392.107 100.012 395.697 100.644C397.375 100.938 400.303 103.29 402.245 102.732C402.539 102.643 405.953 98.5418 406.291 97.9391C408.013 94.9253 408.086 90.3092 409.337 87.9423C409.778 87.1043 411.088 87.1337 411.426 86.1928C412.03 84.4434 411.191 81.6943 411.573 79.7096C411.824 78.4012 413.118 77.6368 413.045 76.0637C413.015 75.3434 409.999 69.5511 409.352 68.6544C405.143 62.7739 392.46 58.2606 385.427 58.0107C377.526 57.7167 368.874 62.965 361.988 60.9215C360.561 60.4952 359.413 59.4514 357.942 59.0839C350.776 57.3051 342.978 55.3351 337.754 61.7595C332.884 67.7429 326.749 82.6646 333.34 88.8096C334.665 90.0445 336.592 90.1328 337.328 91.794C334.9 91.1324 330.177 92.5878 331.001 95.484C332.634 101.247 337.21 98.3948 341.801 99.4533C342.875 99.7032 352.365 105.113 353.057 105.819C356.941 109.788 352.292 109.847 352.424 114.595C349.893 115.066 348.908 117.83 346.465 118.212C340.727 119.109 338.284 110.685 336.872 110.2C332.678 108.744 332.075 113.552 331.03 115.242C327.087 121.652 321.54 126.401 318.067 133.134C316.14 136.868 315.11 141.028 313.624 144.85C313.006 146.424 310.534 148.144 311.299 150.569C311.579 151.466 313.227 152.436 312.977 153.745C312.903 154.098 309.151 159.537 308.312 159.361C305.06 158.64 309.533 154.656 309.357 153.951C309.18 153.245 307.886 152.701 307.562 152.01C306.502 149.79 308.15 146.659 308.592 144.248C308.857 142.836 308.43 141.263 308.68 139.926C309.18 137.279 312.153 136.941 312.359 136.089C313.079 133.134 311.638 129.208 311.696 126.65C311.726 125.166 313.447 123.813 313.05 122.358C312.432 120.079 306.738 121.696 305.34 122.622C303.28 123.975 302.662 128.297 301.691 128.517C300.411 128.826 299.41 126.43 298.38 125.959C295.246 124.504 293.849 127.297 291.215 127.665C288.581 128.032 286.727 126.356 284.77 126.415C283.578 126.445 276.795 130.59 276.001 131.487C274.117 133.619 275.913 136.427 273.396 138.426C269.895 141.219 267.599 137.485 266.805 138.073C266.54 138.279 265.407 143.248 264.745 144.468C263.994 145.865 262.655 146.6 262.067 147.673C260.802 149.966 259.889 156.038 256.152 155.759C255.446 155.7 254.592 155.347 254.489 154.641C254.445 154.318 255.048 148.629 255.196 148.144C255.49 147.129 256.917 146.35 257.432 145.233C260.066 139.44 256.329 131.208 262.008 127.768C264.436 126.298 268.085 127.106 268.35 123.034C268.629 118.491 266.231 120.358 263.671 119.564C263.185 119.417 258.021 116.022 258.021 115.683C258.035 112.699 263.936 114.64 265.024 114.61C270.704 114.493 289.935 114.331 293.804 112.537C295.217 111.876 295.953 110.494 297.807 109.921C300.926 108.95 303.265 110.126 305.355 106.451C305.899 105.481 305.723 103.996 306.444 103.129C307.238 102.158 309.063 102.496 309.46 101.585C310.254 99.7179 310.019 95.9691 310.343 93.808C310.46 92.9701 311.505 91.9851 311.461 91.4412C311.432 91.0442 309.254 88.8979 309.077 88.8979C307.9 88.8832 306.517 93.2788 306.12 93.3229C302.427 93.6904 303.207 88.1628 298.895 89.7211C297.586 90.1916 297.615 92.9113 295.894 94.0727C294.01 95.3517 290.406 95.337 288.199 96.6601C286.904 97.4245 286.094 99.0858 284.756 99.8208C281.474 101.614 277.149 102.643 274.191 103.952C271.41 105.187 270.645 107.495 265.642 107.921C256.726 108.686 264.509 99.8061 264.612 98.0861C264.745 95.6751 262.655 95.6016 262.126 94.7342C261.522 93.7345 261.743 92.3379 261.037 91.3824C260.036 90.0445 257.903 90.5297 256.535 90.0151C255.519 89.6329 254.828 88.7067 253.798 88.3392C252.694 87.9276 251.252 88.3392 249.943 87.7806C246.426 86.2369 247.441 81.7237 246.853 79.1216C246.529 77.6809 245.102 76.8135 244.822 75.2846C244.572 73.9615 244.043 65.5524 244.116 64.244C244.234 61.8771 248.104 62.2593 246.073 57.1433C245.896 56.6876 243.513 52.733 243.307 52.5713C243.057 52.3655 237.892 49.9104 237.318 49.7487C232.301 48.2638 225.444 51.3658 220.089 52.1008C211.643 53.2475 199.798 53.9826 191.514 53.5269C181.244 52.9535 169.517 47.4112 162.102 57.3198C161.292 58.4076 155.76 66.361 155.525 66.8902C154.083 70.0657 154.671 80.3565 153.524 84.7227C153.067 86.4428 151.464 87.0749 151.611 89.0743C151.758 91.0736 153.2 92.7349 153.641 94.4696C154.539 97.9538 152.346 101.688 159.144 100.644C161.116 100.335 162.205 98.6006 163.617 98.4683C164.279 98.4095 169.797 99.2622 170.621 99.5268C171.754 99.8796 179.39 107.157 180.17 108.347C181.686 110.656 180.126 113.508 177.448 113.743C175.815 113.89 173.873 111.435 173.534 111.685C172.681 112.332 173.019 115.228 168.738 115.404C162.249 115.683 163.176 109.788 160.719 107.965C159.453 107.024 157.643 107.304 156.334 106.466C155.245 105.775 154.818 104.187 153.671 103.261C153.126 102.82 148.241 100.012 147.609 99.7767C144.298 98.5124 139.442 100.13 139.089 99.8796C138.913 99.7473 138.413 98.1008 137.559 97.3363C136.514 96.3807 134.278 95.1753 133.778 94.499C132.63 92.9554 134.028 90.6914 131.629 91.1471C131.556 93.3964 131.482 95.4252 132.115 97.6304C132.336 98.3948 135.97 104.819 136.353 105.143C137.132 105.804 138.501 105.848 139.354 106.539C140.252 107.274 140.369 108.671 141.664 109.377C142.621 109.891 148.124 112.42 149.227 112.831C150.787 113.419 156.157 113.522 156.584 115.037C157.276 117.477 151.169 121.167 149.683 122.799C140.899 132.428 143.003 141.925 139.163 152.671C138.824 153.612 138.721 154.833 137.5 155.038C136.397 150.907 138.648 148.099 139.354 144.777C140.826 137.823 141.017 132.428 144.96 126.151C146.461 123.754 152.243 118.491 152.214 116.463C152.185 114.434 148.653 114.301 147.049 113.566C141.87 111.155 135.558 108.23 131.968 103.673C127.274 97.7186 123.081 85.0609 122.772 77.5486C122.669 75.02 123.905 72.8442 123.522 70.3009C122.728 65.0232 122.227 63.2296 123.875 57.3639C126.921 46.4703 135.97 38.2818 146.329 34.2683C148.697 33.3569 151.92 33.5186 153.965 32.3572C156.496 30.9165 158.247 25.477 161.381 24.3451L157.952 31.2105C155.76 35.5473 151.155 33.9008 147.741 34.9593C146.152 35.4444 145.357 37.0469 144.063 37.8848C141.988 39.2079 139.619 38.0171 140.443 41.5895C141.149 44.6621 144.695 43.1184 147.358 43.5154C149.08 43.78 151.155 44.8385 152.655 44.8679C153.965 44.8973 160.851 41.9276 163.779 41.4131C170.547 40.237 178.463 40.9427 184.893 39.7372C186.1 39.5167 186.791 38.3259 187.836 38.2671C188.483 38.223 189.131 42.7215 190.896 43.3096C193.545 44.1916 196.385 42.6333 198.871 42.6333C201.108 42.6333 203.83 44.0299 206.11 43.4566C207.096 43.2066 206.817 40.4281 208.553 39.8548C210.598 39.1638 212.952 40.5457 215.042 40.5457C216.498 40.5457 221.692 40.0018 223.12 39.7372C225.121 39.3549 225.518 37.385 226.945 36.9587C230.933 35.7679 234.67 38.12 236.347 38.0318C237.142 37.9877 238.554 36.1501 239.305 36.1795C240.6 36.2383 242.807 43.3684 245.161 43.4272L276.03 44.1622C282.298 44.368 287.051 47.9992 293.304 47.0877C284.049 37.679 294.952 41.5748 296.247 40.4869C298.248 38.7816 291.436 38.9286 290.538 38.4876C289.155 37.8113 288.905 36.1942 287.669 35.4885C286.168 34.6506 283.932 34.8417 282.298 34.2536C280.871 33.7391 278.414 31.8868 277.384 31.7838C276.119 31.6662 275.53 33.5774 273.823 33.8861C271.631 34.283 269.439 33.2246 267.231 33.0922C265.628 32.9893 263.303 34.4301 261.89 32.9893C261.199 32.269 261.096 30.3137 260.978 30.2255C259.933 29.4611 254.548 34.8858 253.283 34.6359C252.518 34.4889 251.929 33.0775 252.238 32.1367C252.547 31.1958 254.107 30.9459 254.695 30.1814C255.372 29.314 256.152 26.7413 256.947 26.5502C258.153 26.2709 258.889 28.3585 260.036 28.6672C261.522 29.0641 263.273 27.6234 264.892 28.6966C265.878 29.3582 266.172 32.2837 267.217 32.3572C267.54 32.3866 272.837 30.1667 273.146 29.5052C274.426 26.756 264.245 19.7436 261.993 18.5822C234.876 4.52789 209.495 0.220446 180.876 11.4962C179.729 11.952 178.14 14.0836 177.139 12.8928C179.317 9.21756 181.627 10.2466 184.511 9.24696C187.395 8.24728 190.484 5.24824 193.839 4.61609C211.084 1.38184 227.71 2.02869 244.396 7.36521C252.797 10.0555 261.39 12.5547 269.218 17.068C278.87 22.6397 289.214 32.0485 298.645 38.3259C300.897 39.8254 307.709 47.5582 308.371 47.7199C311.329 48.455 311.711 43.4272 312.844 42.5892C318.229 38.6199 326.572 38.5317 331.074 33.0922C331.943 34.8123 327.352 37.679 326.072 38.3994C325.277 38.8404 323.467 38.8845 323.379 38.9874C323.011 39.399 323.688 42.8391 324.233 43.2213C324.645 43.5154 330.707 44.765 331.766 44.8679C333.944 45.059 349.879 44.074 350.541 43.3684C353.336 40.3105 341.712 40.6486 341.742 39.3402C341.742 39.105 344.582 36.2677 344.994 36.0031C349.349 33.1363 349.319 38.5758 350.511 39.3843C353.042 41.1044 357.706 39.3402 356.103 36.0472C355.337 34.4742 350.555 33.9008 350.555 32.7394C350.555 32.1955 353.057 30.9018 353.866 30.9165C355.485 30.9606 356.176 33.3275 357.412 33.0628C358.957 32.7394 359.781 29.8286 360.193 29.5199C361.149 28.8436 364.313 31.5339 365.107 28.9465C365.549 27.5058 364.548 23.3748 367.785 24.301C369.183 24.6979 369.183 28.5055 368.771 29.6963C368.403 30.7695 366.902 30.9312 366.358 31.6956C365.608 32.7247 365.299 33.9743 364.475 34.9593C363.739 35.8414 360.178 38.8845 360.178 39.3549C360.178 39.6931 361.65 40.9427 361.944 41.8835C362.385 43.2654 362.4 51.4981 364.107 51.454C364.401 51.454 367.197 46.8966 367.256 46.6173C367.447 45.5882 366.284 44.1475 366.785 42.4569C367.123 41.3249 368.668 40.7369 369.212 39.6931C369.816 38.517 369.727 37.0175 370.434 35.7826C372.346 32.4307 377.305 33.5774 376.981 28.726C379.041 28.5055 379.512 30.5195 379.203 32.0191C379.056 32.7688 376.834 32.0485 376.319 33.5774C375.907 34.7829 376.422 36.6499 375.907 38.3112C375.539 39.5167 370.11 44.1181 373.671 44.8679C375.731 45.3089 376.084 41.4278 376.952 40.8251C377.511 40.4428 382.219 39.6784 383.191 39.7078C385.795 39.7813 387.458 41.6924 388.502 41.8247C389.473 41.957 390.106 40.4281 391.842 40.5751C394.005 40.7516 396.08 43.3243 397.978 43.4272C400.818 43.5889 401.524 39.0756 405.894 40.5751C406.983 40.9427 407.306 42.6039 408.219 43.3978C413.089 47.7199 412.677 45.4706 417.768 45.5441C425.36 45.647 434.615 47.0583 442.031 47.8669C445.636 46.5438 451.359 47.8228 454.42 46.9554C458.569 45.7941 450.58 41.81 449.932 41.369C448.593 40.4428 447.607 39.1785 446.342 38.3553C444.562 37.1939 439.515 35.9002 438.838 33.3569C437.558 28.5349 446.857 32.8276 449.432 30.9459C452.257 28.8877 448.122 27.888 447.916 25.7711C449.756 27.6822 452.066 28.8436 453.817 30.8724C455.317 32.6218 456.156 35.5326 458.187 36.7969C460.467 38.1936 464.131 38.0318 465.926 40.8104C463.807 42.3099 462.498 39.8254 460.953 39.1638C460.055 38.7816 454.493 37.8554 455.641 40.0606C456.259 41.2514 458.216 40.9574 459.261 41.6189C461.291 42.8979 461.688 45.6764 462.969 47.4259C464.999 50.175 467.412 49.7781 469.251 51.4246C470.473 52.5272 470.561 54.2913 471.267 54.9235C474.004 57.3786 479.992 56.2025 479.065 52.7036C478.771 51.6157 471.841 45.7499 470.399 44.4121C469.913 43.9711 468.074 42.6774 468.869 41.9129C469.663 41.1485 476.182 47.3524 479.213 45.2648C480.184 44.6033 479.772 41.5013 480.448 39.8842C481.964 36.2236 492.558 29.7551 496.398 28.6525C498.826 27.9615 503.019 28.2703 504.152 27.594C505.212 26.9619 507.492 22.4633 508.596 21.1843C509.979 19.5525 515.291 13.8484 516.703 12.9664C519.514 11.1875 523.81 8.27668 526.709 6.80657C532.756 3.73402 550.221 -0.455808 556.695 0.0734343C562.095 0.514469 579.472 3.76343 583.768 6.05681C585.328 6.88007 588.065 9.04114 589.404 10.3348C586.196 10.8347 584.416 7.99736 582.062 7.02708C579.708 6.05681 573.631 4.08685 571.321 3.80753C555.415 1.86698 529.901 0.38216 519.278 14.7893C518.395 15.9801 517.571 19.0085 517.38 19.1555C516.527 19.7877 514.54 16.5828 512.245 18.0383C512.039 18.1706 509.552 21.5665 509.464 21.8753C506.86 30.7842 515.32 24.5803 517.012 25.036C518.704 25.4917 517.763 28.6231 518.233 29.3434C518.793 30.1961 523.707 29.6963 523.987 29.417C524.295 29.0935 523.457 21.4489 527.694 22.4192C538.435 24.8743 528.106 30.8871 528.489 32.6659C528.71 33.6803 533.756 37.4144 534.316 36.7969C534.448 36.6499 534.183 34.0331 534.492 32.9305C534.683 32.2543 536.596 27.2412 536.92 26.5502C537.597 25.0948 540.672 23.4777 541.29 22.1105C541.849 20.8462 541.628 15.0098 544.13 15.5832C544.439 15.6567 548.956 18.5675 549.015 18.8615C549.338 20.3463 544.262 24.7273 543.262 26.2709C541.761 28.5643 539.833 32.6071 540.687 35.2092C541.084 36.4294 543.6 41.0897 544.615 39.2373C545.027 38.4729 544.689 37.1498 546.087 36.4294C549.412 34.7388 561.08 38.223 565.229 38.6199C567.186 39.7666 563.64 42.6186 564.479 43.4125C564.788 43.7065 571.424 43.3243 572.924 43.4125C580.87 43.9564 595.584 45.4412 603.058 44.1475C606.928 43.486 603.014 41.1779 600.675 40.6486C598.011 40.0459 594.686 41.4131 598.276 37.9142C601.351 37.9436 605.457 36.8116 608.223 36.7675C610.989 36.7234 612.534 38.3112 615.742 36.9734C616.551 36.6352 616.904 37.1204 616.536 35.8267C616.095 34.2536 611.121 26.0798 609.974 24.742C607.237 21.5371 600.954 21.7282 600.557 21.3019C600.366 21.0961 600.483 19.2438 599.777 18.053C598.615 16.0683 595.157 14.5541 593.847 12.5988C598.35 13.2751 602.396 17.2297 606.104 19.8024C607.516 20.7874 609.827 21.2578 610.945 22.1105C614.55 24.8449 619.935 32.1367 623.952 35.7385C625.217 36.8704 627.086 37.2968 627.998 38.3112C630.661 41.2955 628.41 50.2485 628.454 53.9973C628.454 55.0852 629.146 56.3348 629.16 57.7167C629.337 74.1085 628.91 90.5003 629.16 106.892C629.057 107.451 625.291 107.818 624.29 108.039C623.231 108.274 622.23 107.392 622.495 109.156C622.995 112.552 628.292 110.288 629.116 110.994C629.219 111.082 629.249 113.037 629.16 113.508C629.057 114.11 627.571 113.89 626.983 114.36C626.262 114.934 626.203 115.933 625.261 116.374C620.582 118.58 622.466 112.949 621.083 112.037C619.699 111.126 612.813 111.905 612.24 109.068C612.034 108.053 617.125 103.922 617.08 101.805C617.08 101.35 616.065 100.526 615.918 99.5856C615.065 94.1462 619.523 93.514 617.345 88.2216C616.256 88.2216 616.286 89.8681 615.697 90.2357C614.197 91.1618 612.401 91.8969 610.283 93.2641C609.297 93.8962 607.163 94.0286 606.663 94.793C605.839 96.0573 606.972 98.6153 605.618 99.6297C604.441 100.512 596.805 100.806 600.778 103.687C602.734 105.099 605.442 103.555 604.883 107.686C604.235 112.581 595.643 107.142 593.435 105.878C592.685 104.599 593.377 102.658 592.95 101.232C592.464 99.615 589.831 99.4533 591.64 96.8365C591.964 96.3661 592.95 96.3807 593.082 95.8074C593.244 95.0576 593.259 91.5294 593.009 91.25C592.258 90.3974 582.827 88.1481 583.548 91.5294C583.901 93.1906 587.8 93.9109 587.947 94.1168C588.83 95.2929 585.019 97.6303 585.019 98.1449C585.019 99.6444 591.552 101.247 586.27 103.805C581.561 106.084 581.12 103.614 578.795 103.599C578.192 103.599 578.339 105.378 577.206 105.745C570.673 107.965 574.337 101.776 573.984 101.438C573.851 101.306 570.453 101.306 570.32 101.438C569.952 101.791 571.792 104.496 570.747 105.892C569.702 107.289 562.301 107.201 560.756 108.406C559.432 109.421 560.359 113.713 557.446 113.978C555.253 114.169 552.119 110.832 552.796 108.568C553.149 107.377 556.578 105.642 554.915 104.731C554.135 104.305 550.751 104.143 550.486 104.378C549.912 104.907 554.106 115.154 542.938 111.552C538.023 109.965 544.821 103.378 540.672 103.731C539.922 103.79 535.228 107.568 534.301 108.406C533.197 109.406 529.99 114.772 528.445 113.199C528.106 112.861 529.269 104.569 529.519 103.628C531.682 95.4399 543.526 93.8816 550.28 96.8806C552.119 97.7039 556.872 101.585 558.358 102.026C559.609 102.408 566.421 102.438 567.672 102.07C569.437 101.556 567.995 100.115 568.275 99.027C568.819 96.8512 571.615 96.616 572.91 95.5575C574.778 94.0286 576.971 90.7796 578.883 89.7652C580.178 89.0743 582.65 89.0155 583.268 88.2363C583.504 87.9423 582.783 84.9874 582.459 84.5316C581.709 83.4878 578.633 83.3555 577.118 80.3271C576.47 79.0334 575.544 75.314 575.455 73.8586C575.234 69.6246 584.048 55.3939 579.354 52.9535C575.867 51.1453 559.682 50.4543 555.283 50.763C551.501 51.0277 537.479 54.306 535.419 50.763C534.61 49.3664 535.713 45.2501 533.948 44.8826C531.623 44.3974 530.446 51.4981 527.945 52.1155C524.604 52.9388 518.484 46.2351 512.804 47.9404C510.98 48.4844 503.888 55.8055 502.725 57.7167C496.516 67.9634 497.987 74.4466 497.575 85.6195C497.487 87.8688 495.839 90.0151 497.516 92.2938C497.752 92.6025 502.181 95.337 502.519 95.4105C503.637 95.631 504.976 94.8077 506.551 94.9547C510.332 95.2782 516.247 97.7038 515.276 102.423C515.144 103.07 512.583 103.834 512.304 103.628C511.73 103.202 512.024 98.4242 507.875 100.335C504.623 101.835 507.772 102.261 508.522 103.334C510.185 105.687 508.228 110.303 505.3 110.317C500.606 110.317 499.297 106.98 499.415 102.908C497.325 104.613 498.958 107.554 497.958 109.524C497.252 110.905 493.897 111.214 493.912 112.082C493.912 112.728 496.957 113.566 497.443 115.154C498.046 117.124 497.693 123.916 496.796 125.842C496.516 126.459 495.53 126.459 495.162 127.312C492.896 132.546 492.985 133.736 489.924 138.941C485.539 146.379 488.585 151.495 487.276 158.317C487.04 159.493 485.848 160.419 485.848 160.551C485.848 161.213 489.203 162.257 489.365 163.624C489.703 173.738 491.087 192.791 500.268 198.98C504.491 201.832 512.171 202.45 516.909 204.772C521.691 203.993 524.913 199.95 529.254 198.069C538.715 193.967 538.229 197.275 545.733 197.672C550.412 197.907 550.927 195.555 556.18 198.921C558.402 200.347 569.467 209.109 570.688 210.844C572.218 212.99 571.262 215.093 575.249 215.813C577.309 216.195 579.281 212.52 581.297 211.902C583.312 211.285 585.696 212.02 587.241 211.226C588.374 210.653 588.492 208.639 589.11 208.58C590.655 208.433 591.479 209.977 592.685 210.035C592.979 210.05 596.599 209.477 596.775 209.359C597.217 209.05 595.657 206.419 596.378 204.978C597.393 202.949 602.043 200.391 602.97 197.554C605.059 195.864 610.665 198.172 611.828 195.437C612.107 194.79 611.342 192.688 611.43 191.38C611.945 184 616.992 190.645 619.567 189.954C622.966 189.042 620.862 185.146 623.216 182.53C627.733 177.502 629.116 183.544 629.175 187.69C629.205 190.13 627.792 193.291 627.998 195.04C628.101 195.908 629.116 196.716 629.175 198.657C630.544 254.609 628.027 310.753 629.146 366.72C624.938 368.279 628.807 371.513 626.615 373.145L616.242 378.217C614.52 381.51 610.709 382.215 608.605 383.803C607.811 384.391 607.296 386.17 606.707 386.332C604.677 386.846 605.045 383.45 604.736 382.436C603.558 378.643 598.291 385.656 596.584 386.493C594.068 387.714 590.728 387.273 588.727 388.184C588.359 388.361 584.328 392.256 584.313 392.58C584.254 395.035 594.039 392.947 595.657 392.918C601.322 392.786 607.928 393.8 613.358 392.977C618.316 392.227 623.893 389.39 629.131 389.287V417.19C624.349 418.204 626.512 410.104 624.349 409.119C622.804 408.413 623.054 411.677 621.804 412.426C617.345 415.131 615.565 407.163 612.961 408.031C612.578 408.163 606.693 412.573 606.501 412.926C605.927 413.941 606.737 416.102 605.957 417.91C605.103 419.88 595.672 434.302 594.245 435.566C592.229 437.33 587.962 438.536 585.828 440.373C580.811 444.695 577.957 449.312 571.335 453.06C563.464 457.53 556.636 459.823 547.911 459.896C545.66 459.911 543.747 462.028 540.745 461.117C539.362 460.705 534.639 455.515 531.947 454.472C528.327 453.075 524.899 453.413 521.161 450.561C517.939 448.077 517.115 443.916 515.305 441.167C514.82 440.432 512.642 440.55 511.524 438.888C511.259 438.506 509.155 433.552 509.361 433.346C509.832 432.89 522.118 434.14 519.646 438.477C522.692 434.022 525.105 434.463 530.24 434.86C531.549 434.963 532.859 435.963 533.977 435.963C535.095 435.963 536.405 434.978 537.714 434.86C539.745 434.684 544.027 435.287 545.38 434.449C546.087 434.008 549.176 428.215 549.059 427.113C548.853 425.04 543.07 421.585 544.203 419.38C545.689 416.454 549.456 418.88 551.207 418.277C551.619 418.145 557.828 414.352 558.549 413.823C560.535 412.382 564.714 407.575 564.508 405.09C564.346 403.047 560.933 402.194 561.565 400.004C561.83 399.122 563.949 398.063 564.847 398.093C566.421 398.137 567.201 400.151 567.775 400.283C569.746 400.739 569.82 396.402 570.511 394.947C571.556 392.756 574.293 390.713 575.382 388.802C576.338 387.126 576.5 385.156 577.368 383.45C578.236 381.745 580.37 381.701 579.928 378.643C579.708 377.055 573.513 373.63 572.233 373.909C570.865 374.218 570.762 377.702 569.938 378.966C569.761 379.231 565.847 383.245 565.597 383.436C563.522 385.053 559.726 384.274 557.828 385.229C556.901 385.7 556.474 387.331 555.562 388.111C550.059 392.844 548.779 389.963 543.306 388.728C540.598 388.111 537.302 389.066 534.992 386.729C534.433 386.17 534.374 384.935 534.301 384.876C533.889 384.582 526.326 388.39 525.796 389.978C524.56 393.682 527.547 393.697 528.754 395.932C529.019 396.431 531.182 401.268 531.255 401.577C531.711 403.415 530.004 405.105 530.976 406.913C532.123 409.06 535.905 407.281 535.037 412.368C534.963 412.779 532.638 419.733 532.462 420.1C531.137 422.879 526.591 425.158 525.193 426.789C523.898 428.304 523.457 432.773 522.103 433.243C521.014 433.625 516.983 433.522 515.923 432.979C514.393 432.199 514.717 429.524 513.275 429.024C511.509 428.406 506.683 429.494 505.741 428.848C505.388 428.598 505.197 426.29 504.491 425.319C501.828 421.673 497.266 418.424 494.633 414.617C494 413.705 491.469 409.56 491.69 408.751C492.543 405.576 498.414 410.074 499.606 410.398C500.724 410.706 502.225 409.633 503.461 410.897C505.285 412.779 503.373 415.161 503.785 417.19C504.417 420.336 506.507 421.747 509.596 421.526C517.159 420.953 513.613 418.116 513.79 413.926C513.863 412.015 515.482 410.589 515.6 409.471C515.717 408.501 514.938 407.354 515.32 405.943C516.07 403.106 521.5 404.267 521.853 402.738C522.088 401.709 521.956 395.094 521.5 394.373C520.323 392.565 516.512 394.976 515.953 394.403C514.04 392.433 519.793 384.127 520.735 381.936C521.573 379.996 521.397 377.643 522.692 375.071C523.354 373.762 525.767 370.425 527.003 369.837C528.121 369.308 538.494 366.676 539.922 366.544C541.82 366.368 548.676 366.573 550.177 367.176C553.738 368.617 552.296 371.19 552.722 371.616C553.914 372.836 561.109 369.734 559.726 367.206C558.814 365.544 556.107 366.338 555.621 363.927C554.738 359.62 557.475 359.429 558.255 356.988C558.49 356.238 559.285 351.299 559.255 350.637C559.167 348.888 556.828 348.329 557.107 347.036C557.284 346.227 558.755 345.742 559.638 345.889C560.418 346.021 560.329 348.726 562.242 348.123C562.022 345.551 560.697 343.89 562.654 341.552C563.728 340.273 565.509 340.449 565.906 338.2C566.2 336.51 566.2 327.042 565.229 326.41C564.258 325.778 561.977 326.263 560.565 325.925C558.328 325.395 557.019 323.426 554.562 323.117C550.824 322.646 547.661 324.616 544.041 325.16C535.081 326.483 525.355 326.057 516.35 326.131C512.495 326.16 499.356 324.734 497.266 326.175C496.501 326.704 496.28 327.924 495.942 328.13C495.162 328.571 493.897 328.159 492.97 328.453C489.453 329.556 490.836 336.245 490.086 338.803C489.336 341.361 486.658 344.169 486.525 348.52C486.452 351.167 488.011 354.122 488.056 356.606C488.085 358.4 487.232 359.958 487.232 361.707C487.232 362.545 487.805 368.426 488.026 368.69C489.306 370.175 495.501 365.486 499.753 366.897C502.637 367.852 513.231 375.438 514.04 378.202C514.393 379.393 511.171 388.302 510.435 389.243C508.934 391.168 507.625 388.86 506.006 388.537C502.225 387.802 497.119 390.081 494.294 386.288C492.499 383.877 493.676 380.245 489.88 381.157C487.629 381.701 487.364 385.861 487.217 388.14C487.129 389.64 488.056 391.815 487.908 392.477C487.585 393.888 485.127 393.844 484.524 394.564C483.627 395.638 484.053 398.916 483.229 400.239C482.155 401.989 479.36 402.665 477.918 406.678C476.358 411.03 477.094 416.219 476.123 419.571C475.74 420.894 473.71 421.615 473.415 422.791C473.003 424.378 474.695 425.437 474.622 426.922C474.534 428.833 472.577 431.876 472.577 434.39C472.577 436.904 473.106 441.902 473.401 444.578C474.298 452.649 476.638 465.645 481.066 472.172C481.861 473.348 483.377 473.627 483.936 474.451C487.276 479.39 490.63 486.947 494.294 490.563C494.971 491.239 495.236 492.621 495.883 492.783C497.708 493.253 503.034 491.607 503.461 492.033C504.55 493.136 499.753 498.854 503.181 500.016C508.464 501.795 502.769 495.606 505.403 494.929C511.73 493.297 512.392 498.722 515.732 499.237C518.16 499.604 521.588 497.179 524.016 498.252C527.032 499.59 522.942 501.986 524.354 503.823C525.002 504.661 528.813 504.661 530.593 505.676C532.771 506.911 534.463 510.954 536.169 511.174C541.187 511.821 539.583 508.998 540.569 506.734C541.216 505.249 543.85 504.162 544.924 503C545.866 501.971 546.16 499.678 547.529 499.001C554.856 495.444 551.31 505.896 554.503 505.235C555.739 504.985 556.327 502.074 557.063 501.177C558.049 499.986 562.08 496.62 562.846 499.104C564.346 504.015 560.3 506.602 557.813 510.365C563.493 512.218 562.11 508.748 564.096 505.279C565.818 502.295 570.453 499.487 571.247 497.678C571.894 496.208 570.026 490.534 572.145 490.563C575.926 490.637 571.497 501.28 574.69 503.456C575.485 504 579.693 503.235 579.869 503.03C581.091 501.633 577.191 497.487 576.544 496.429C575.44 494.635 581.252 494.591 582.812 495.326C584.519 496.135 585.063 501.648 586.476 500.104C586.623 499.957 587.579 496.429 587.609 496.091C587.771 494.429 586.932 493.018 587.535 490.504C588.168 487.843 590.331 487.035 590.743 485.638C591.111 484.389 590.743 482.874 591.037 481.536C591.832 477.876 595.172 478.567 597.761 477.244C603.632 474.23 608.149 467.879 612.902 463.733C614.123 462.66 616.256 462.087 616.948 461.161C618.066 459.661 617.684 456.603 619.891 455.236C621.318 454.354 623.172 456.28 624.761 454.281C626.35 452.281 624.496 449.032 626.129 446.842C627.248 445.342 629.102 445.886 629.102 446.886V670.843C629.102 672.211 632.044 673.548 632.044 673.784V686.632H512.26L512.215 686.618ZM513.687 39.6931C513.613 38.3112 514.069 36.5176 513.319 35.2827C513.142 34.9887 508.36 31.1223 508.022 31.0194C504.741 30.0491 496.295 30.6519 493.102 32.3572C494.118 34.3271 497.737 33.6803 499.768 34.1213C501.092 34.4007 502.313 35.6944 503.137 35.812C505.609 36.1501 507.492 35.2533 510.715 37.1645C512.333 38.12 511.524 40.1488 513.672 39.6931H513.687ZM610.695 42.6333C610.606 42.5598 608.517 42.3393 608.488 42.9861C609.429 45.0002 611.018 42.8979 610.695 42.6333ZM153.362 49.337C151.552 49.9251 149.551 57.4227 151.787 58.0401C155.171 58.9663 161.219 46.779 153.362 49.337ZM277.708 55.9526C277.237 55.3645 273.161 53.8503 274.117 57.5697C274.309 58.3047 275.898 58.2165 276.236 59.2456C276.781 60.9068 276.016 65.2437 277.796 66.5668C278.164 66.8461 281.371 66.2581 281.489 66.1258C282.401 65.0967 278.532 60.3776 277.987 58.9516C277.634 58.0401 278.061 56.3936 277.708 55.9526ZM364.519 58.0401C364.622 57.8049 364.622 55.3498 364.519 55.1146C363.665 53.2475 363.665 59.9072 364.519 58.0401ZM311.976 65.4054C310.725 65.4054 310.666 68.3015 311.976 68.3162C313.285 68.3309 313.285 65.4201 311.976 65.4054ZM280.753 82.2823C283.152 81.4738 281.327 79.2392 281.518 77.6221C281.71 76.0049 284.417 68.4191 281.107 68.3456C278.561 68.3015 281.107 80.4447 280.739 82.2823H280.753ZM482.832 69.066C480.816 67.0666 480.816 73.9909 482.832 71.9915C482.935 71.8886 482.935 69.1689 482.832 69.066ZM309.033 74.2114C307.415 74.1526 307.459 81.6355 309.033 81.5326C309.298 81.5179 312.314 77.7691 312.314 77.5045C312.314 77.2692 309.269 74.2261 309.033 74.2114ZM482.832 102.099C483.185 101.703 482.273 98.1302 483.171 96.9247C483.803 96.072 485.937 96.4396 486.437 95.0282C486.775 94.0727 486.187 89.9269 485.775 89.6182C484.539 88.7067 482.332 95.1017 482.008 95.7633C480.787 98.2478 478.801 97.0717 481.317 101.041C481.567 101.438 481.596 103.526 482.847 102.099H482.832ZM580.561 94.0286C580.208 93.661 577.912 94.0727 577.692 95.19C577.662 95.3517 578.251 98.3213 578.369 98.4389C579.869 100.012 581.105 94.6019 580.561 94.0286ZM545.292 101.379C544.262 100.85 543.335 101.85 543.835 102.099C544.865 102.629 545.792 101.629 545.292 101.379ZM344.67 105.775C346.906 102.82 335.194 102.893 335.135 105.422C335.062 108.362 343.905 106.789 344.67 105.775ZM479.889 109.45C480.419 108.994 479.992 105.054 477.314 105.789C476.152 106.113 475.902 109.2 476.196 109.45C476.343 109.568 479.742 109.568 479.875 109.45H479.889ZM327.043 116.051L325.586 114.595C325.38 116.124 325.513 116.271 327.043 116.051ZM309.401 115.331C308.93 114.948 305.502 115.331 306.473 116.051C308.165 117.301 309.916 115.742 309.401 115.331ZM291.038 121.931C290.847 121.74 288.096 121.52 287.36 121.549C286.551 121.579 283.887 121.593 284.432 123.019C285.947 126.944 292.466 123.431 291.038 121.931ZM485.775 121.931C484.142 120.432 479.095 123.96 477.52 125.063C473.71 127.724 480.449 128.503 482.817 127.415C484.142 126.812 486.923 122.99 485.775 121.931ZM477.697 170.401C477.565 170.504 476.917 173.18 476.917 173.724C476.888 177.737 480.596 175.591 480.64 173.724C480.669 172.606 478.889 169.534 477.697 170.386V170.401ZM617.301 206.375C617.389 206.257 617.595 203.64 616.948 203.435C614.638 204.552 616.948 206.816 617.301 206.375ZM454.905 204.184L451.33 208.345C454.405 214.225 455.523 207.963 454.905 204.184ZM605.192 204.184C603.279 204.699 604.147 207.786 606.648 207.11C608.561 206.595 607.693 203.508 605.192 204.184ZM601.204 215.857C601.499 216.254 603.558 216.989 603.985 215.475C604.294 214.358 604.279 210.006 602.985 210.065C601.528 210.138 600.439 214.828 601.219 215.857H601.204ZM444.591 219.591C444.885 219.356 446.327 213.137 443.517 213.725C442.134 214.019 442.104 219.238 442.413 219.606C442.487 219.694 444.517 219.665 444.591 219.606V219.591ZM591.964 216.666C590.493 217.018 589.168 220.473 591.228 221.061C594.686 222.032 594.451 216.078 591.964 216.666ZM578.722 221.811C577.206 221.811 577.206 226.927 578.722 226.927C580.237 226.927 580.237 221.811 578.722 221.811ZM417.429 233.543C417.797 233.19 416.561 229.897 415.973 230.617C414.134 232.881 416.135 234.792 417.429 233.543ZM404.937 237.218C404.364 234.807 399.67 235.601 401.274 237.218C401.48 237.424 404.128 237.1 404.937 237.218ZM91.7405 253.521C91.1519 253.183 85.5018 252.625 86.0315 254.448C86.3552 255.536 88.6506 259.123 89.6953 259.593C91.608 260.46 95.5366 260.387 94.7274 257.52C94.6538 257.285 91.9612 253.654 91.7405 253.521ZM90.9165 266.826C89.9748 266.062 85.3253 264.327 84.8839 263.68C84.207 262.666 84.9574 261.063 83.8098 259.622C83.589 259.343 80.6463 257.535 80.1755 257.388C74.2311 255.491 74.2458 262.225 76.5706 266.12C80.764 273.162 86.1492 275.264 91.9023 280.175C96.3753 283.968 99.9066 290.113 103.717 293.332C104.056 293.612 108.573 296.17 108.794 295.964C109.176 295.611 110.074 288.966 109.147 287.893C105.601 283.144 100.995 279.381 97.0521 275.015C95.1835 272.956 93.0206 268.546 90.9165 266.826ZM102.702 263.871C101.628 263.004 96.7726 262.445 96.287 262.916C96.1693 263.033 96.184 265.591 96.3017 266.194C96.9638 269.296 100.642 269.649 102.57 271.692C105.204 274.5 107.837 279.351 111.06 282.306C112.972 284.07 120.609 288.099 120.947 288.584C121.683 289.613 120.918 291.686 121.374 292.2C121.639 292.494 122.963 292.259 123.463 292.641C124.552 293.479 123.934 295.038 124.567 295.978C125.45 297.257 129.025 296.346 127.524 299.639C125.729 303.564 120.359 303.153 117.637 304.446C115.4 305.505 113.841 309.548 112.134 310.694C111.045 311.429 97.2581 315.046 105.498 317.986C110.118 319.633 126.98 320.618 128.51 325.881C129.378 328.909 123.949 340.391 123.478 344.801C123.213 347.359 122.654 357.032 123.581 358.664C123.993 359.399 125.656 360.752 125.67 360.958C125.67 362.634 120.094 363.251 121.433 367.411C122.86 371.778 130.055 370.455 133.322 372.424C134.911 373.38 134.646 374.88 135.97 375.277C137.986 370.043 134.499 371.719 133.395 370.146C132.792 369.278 133.307 367.691 132.321 366.823C132.012 366.559 122.684 363.883 129.01 362.781C132.659 362.148 132.556 364.192 134.557 365.309C137.28 366.823 137.839 366.485 140.369 369.058C143.15 371.866 146.358 376.306 144.416 380.422C143.003 383.436 140.826 380.216 138.707 380.54C135.955 380.966 134.146 385.92 129.364 383.73C127.583 382.906 126.171 379.584 124.891 378.658C124.037 378.026 122.683 377.996 121.742 377.408C118.77 375.541 117.342 367.441 114.665 363.883C111.987 360.325 109.191 361.354 107.293 360.267C104.541 358.664 101.731 350.843 101.29 350.476C100.951 350.182 99.2151 350.402 97.6995 349.3C95.2718 347.55 92.2113 341.155 89.0037 338.171C88.474 337.671 86.3847 334.069 86.0021 336.774C85.6195 339.479 88.7094 341.89 89.3421 343.698C90.4898 346.962 89.8865 351.24 90.4457 354.357C92.7557 367.367 100.642 382.157 111.781 389.581C114.076 391.11 118.211 390.86 118.402 394.785C118.593 398.71 115.062 401.577 113.546 404.694C110.692 410.574 108.47 421.306 107.366 427.892C106.189 434.831 106.896 440.755 103.747 447.033C95.3748 463.719 92.432 482.213 90.4751 500.589C89.9601 505.382 90.7252 510.718 90.4309 515.584L92.0495 504.338C96.4636 501.104 94.8009 493.327 96.493 488.24L104.38 459.397C111.736 455.545 110.633 463.572 111.972 467.982C113.223 472.084 117.431 478.214 119.741 481.507C120.624 482.771 120.579 484.756 121.698 486.167C122.11 486.697 125.111 488.961 125.729 488.828C130.864 487.711 132.115 483.639 135.234 480.669C141.547 474.627 152.199 472.422 159.718 468.423C168.178 463.925 159.188 462.734 156.304 461.146C153.744 459.749 151.758 457.294 155.113 455.751C158.762 454.075 166.177 457.544 170.856 456.794C174.373 456.236 174.667 452.913 179.729 453.09C182.966 453.207 182.907 454.971 184.864 455.354C186.159 455.604 190.867 455.589 191.838 455.001C192.809 454.413 192.927 452.296 194.531 451.825C196.135 451.355 198.709 452.193 199.945 451.37C200.196 451.208 202.609 446.327 202.682 446.033C203.138 444.269 202.461 442.417 203.227 440.697C203.624 439.8 205.36 438.874 206.096 437.698C207.758 435.022 208.936 425.422 213.57 428.906C215.336 430.229 213.688 431.891 213.835 433.699C214.115 437.168 215.498 439.491 213.923 443.328C212.585 446.592 208.906 446.46 207.273 448.429C206.316 449.576 206.64 451.017 205.831 452.134C203.594 455.221 195.884 460.514 192.206 462.028C189.234 463.248 180.347 466.144 177.522 465.689C175.888 465.424 172.754 460.911 171.96 465.321C171.077 470.29 179.596 473.142 182.922 476.391C184.761 478.185 188.704 483.668 189.44 486.035C190.97 491.004 189.307 495.003 193.265 499.839C195.767 502.897 200.519 502.809 203.271 500.222C203.845 499.692 204.124 498.311 204.448 498.134C205.699 497.428 208.936 498.355 211.422 496.282C214.836 493.444 214.6 494.135 217.911 492.121C220.633 490.475 222.693 485.094 224.9 483.683C226.518 482.654 228.858 482.977 230.418 481.86C231.86 480.816 232.948 477.288 234.39 475.553C236.921 472.51 240.07 472.672 242.498 469.702C243.498 468.482 246.014 462.837 246.559 462.719C247.647 462.469 249.045 465.424 250.237 463.483C250.414 463.204 251.959 457.735 252.032 457.177C252.459 454.06 250.266 451.252 252.135 448.503C254.563 444.916 255.299 450.693 257.182 451.723C256.785 450.517 258.021 448.488 257.859 447.739C257.564 446.445 255.181 446.974 254.945 446.136C254.725 445.386 254.872 442.064 255.122 441.211C255.637 439.506 258.109 439.388 258.55 438.021C258.992 436.654 258.624 434.654 259.168 432.758C259.713 430.862 261.934 428.95 262.229 427.671C262.567 426.231 261.655 425.04 261.758 423.614C262.111 419.292 266.51 417.836 266.702 416.749C266.849 415.969 265.642 415.19 265.436 414.44C264.053 409.633 269.747 406.443 269.718 402.915C269.718 401.474 268.732 400.063 268.924 398.534C269.1 397.108 271.44 395.564 271.16 395.197C271.028 395.02 267.673 393.873 266.761 394.035C266.231 394.138 263.7 395.255 263.141 395.623C257.594 399.122 254.725 404.796 249.648 407.84C248.648 408.442 247.118 408.31 245.779 409.119C245.131 409.516 235.891 418.233 234.758 419.395C230.521 423.761 227.902 431.641 223.061 435.595C220.501 437.683 215.101 437.551 217.161 433.376C217.558 432.582 218.838 432.023 219.309 431.112C220.03 429.744 220.147 428.171 220.868 426.804C221.957 424.746 224.562 424.834 222.899 421.056C222.546 420.262 218.647 418.086 217.823 417.954C215.822 417.631 212.864 419.351 211.584 418.38C210.731 417.733 210.878 415.234 210.098 413.985C209.053 412.323 206.169 412.338 206.464 409.545C206.655 407.59 209.921 406.222 210.583 404.047C211.187 402.077 210.583 400.18 211.304 398.151C212.187 395.667 216.704 392.859 216.807 392.477C217.411 390.095 215.836 386.802 216.175 385.42C216.513 384.038 219.162 382.98 219.588 381.466C221.619 374.321 219.515 367.808 216.204 361.634C215.292 359.914 212.908 358.502 212.526 357.238C211.952 355.312 212.938 351.74 212.202 350.564C212.011 350.27 210.937 350.196 210.598 349.652C208.141 345.815 206.596 343.052 203.197 339.376C202.005 338.083 196.753 333.922 196.561 333.525C195.369 331.055 196.488 328.145 198.445 330.335C200.755 332.937 202.623 333.584 205.36 335.745C211.187 340.347 220.398 349.447 222.825 356.474C224.164 360.325 223.473 367.617 224.179 372.013C224.782 375.776 227.696 378.055 226.18 382.936C225.827 384.083 224.208 384.538 224.15 385.979C224.002 389.978 232.11 393.579 224.856 395.564C225.533 397.799 233.375 393.888 233.743 393.432C234.655 392.286 235.244 388.493 236.7 386.832C237.774 385.597 238.952 385.905 239.614 385.156C240.129 384.568 241.806 380.687 243.027 378.834C244.013 377.335 243.645 373.101 244.469 371.131C244.925 370.028 246.485 370.043 246.809 369.043C246.926 368.661 247.574 361.531 247.5 361.134C247.25 359.826 241.983 355.562 241.924 353.842C241.821 350.226 245.028 352.916 246.47 352.548C248.56 352.019 247.397 344.331 247.721 342.008C248.015 339.891 249.737 338.038 249.781 336.848C249.84 335.73 249.81 326.483 249.737 325.939C249.604 325.072 248.53 324.102 248.545 323.573C248.589 322.485 251.576 321.779 251.988 320.529C252.503 318.912 251.238 317.31 251.635 315.84C251.944 314.693 253.268 313.884 253.842 312.87C254.592 311.576 254.107 308.46 256.785 309.312C260.051 310.356 258.83 316.148 259.345 318.442C260.345 322.896 259.978 323.323 260.36 327.16C260.522 328.777 263.538 334.745 263.833 336.848C264.112 338.818 262.479 341.508 263.097 343.772L267.746 339.935C268.6 337.921 268.247 331.658 267.482 329.644C267.143 328.733 265.716 328.865 265.392 327.909C264.686 325.807 265.525 321.485 264.362 318.633C263.656 316.883 261.419 316.06 261.022 314.634C260.581 313.061 261.228 311.179 260.772 309.753C260.36 308.489 258.168 308.254 257.565 307.092C256.755 305.534 257.594 302.535 257.108 302.021C256.844 301.741 255.254 302.065 254.622 301.227C254.092 300.536 254.224 298.786 253.695 297.728C252.577 295.449 235.685 280.248 232.595 277.69C226.975 273.015 216.896 272.074 209.715 271.178C197.621 269.663 181.45 269.237 169.473 271.178C158.482 272.971 155.377 278.469 146.902 283.144C145.225 284.07 140.252 286.07 138.545 285.805C138.192 285.746 137.353 281.792 137.53 281.145C137.721 280.38 138.972 279.675 139.428 278.616C143.077 270.178 132.086 268.928 128.201 274.015C127.156 275.397 129.305 276.176 129.967 277.44C130.805 279.043 130.967 280.91 131.718 282.306C132.674 284.1 135.955 287.055 135.793 288.966C135.735 289.686 134.043 292.744 133.439 293.185C132.556 293.817 129.673 294.244 129.334 293.861C128.981 293.45 129.702 288.378 129.305 288.01C129.069 287.79 127.215 288.26 126.347 287.643C126.009 287.408 122.669 281.865 121.977 281.013C116.68 274.5 112.281 272.677 106.189 268.149C104.556 266.944 103.57 264.694 102.673 263.959L102.702 263.871ZM101.437 309.915C102.261 308.945 99.8625 306.784 100.039 305.975C100.407 304.152 103.968 304.226 101.025 298.963C95.9192 289.848 83.2212 280.895 77.1886 272.118C76.2469 270.751 76.1292 268.796 75.0404 267.664C74.4518 267.047 70.6115 264.885 69.8317 265.444C67.6688 267.017 68.8164 274.309 69.9347 276.426C71.0529 278.543 79.1161 286.173 81.6027 288.995C85.8991 293.861 92.4467 303.138 96.7137 306.945C96.9197 307.137 101.26 310.136 101.437 309.93V309.915ZM447.563 301.844C447.151 301.447 437.867 301.844 436.175 301.844C435.807 301.844 429.539 300.154 429.201 300.007C428.259 299.58 427.611 297.787 426.537 297.61C425.64 297.463 424.669 298.463 423.344 297.845C421.152 296.816 419.813 291.789 418.18 289.73C410.749 280.395 394.608 275.514 383.058 273.427C368.021 270.707 348.51 271.721 335.915 280.969C334.032 282.35 326.204 289.657 325.689 291.348C324.645 294.817 329.824 295.199 330.604 297.963C330.868 298.919 330.412 302.226 329.941 302.55C329.471 302.873 324.027 301.388 323.158 300.947C321.672 300.183 321.054 298.478 319.303 298.169C318.435 298.022 312.623 298.698 312.344 298.904C312.064 299.11 313.83 304.682 313.138 306.181C318.053 305.769 318.097 311.268 322.849 309.768C323.762 309.474 324.306 308.298 325.38 307.901C330.604 305.946 335.15 307.739 339.844 307.666C343.449 307.607 342.066 305.578 342.787 303.285C343.934 299.654 347.819 300.815 348.29 299.183C348.672 297.904 347.142 294.891 347.598 294.508C347.863 294.288 350.335 294.979 351.718 293.847C353.38 292.465 354.352 288.202 354.263 286.04C354.131 282.512 351.438 280.028 357.5 281.321C358.81 281.601 359.752 282.953 361.149 282.821C361.473 282.792 363.253 279.087 364.151 279.102C364.313 279.102 365.769 280.572 365.872 281.027C366.123 282.262 364.151 284.012 364.004 285.423C363.96 285.849 364.416 289.201 364.563 289.333C364.784 289.539 367.329 289.26 368.403 289.525C371.876 290.363 372.759 289.907 375.569 290.392C379.615 291.098 380.63 294.846 381.866 295.082C383.647 295.434 388.002 293.2 391.313 293.788C393.343 294.155 396.462 297.287 398.89 297.978C400.023 298.301 402.598 298.037 402.745 298.169C404.202 299.551 395.727 304.667 395.403 306.24C406.232 308.842 417.871 304.27 428.465 307.342C429.833 307.739 433.144 309.871 433.835 309.768C435.086 309.592 438.029 306.99 439.456 306.563C441.81 305.858 445.18 306.769 446.886 304.446C447.372 303.785 447.99 302.226 447.578 301.829L447.563 301.844ZM523.251 298.169C523.427 297.978 527.606 297.184 528.43 297.757C530.446 299.139 526.297 302.418 531.741 303.255C536.434 303.976 542.938 300.036 546.969 301.241C548.205 301.609 549.044 303.476 550.957 303.888C553.797 304.52 556.607 303.491 559.682 304.726C561.374 305.402 561.933 306.828 562.963 307.328C565.288 308.445 569.54 308.548 572.159 310.635C576.47 309.518 587.756 311.841 588.653 306.593C589.242 303.197 583.562 297.463 580.914 295.258C579.06 293.714 576.573 292.656 574.749 291.142C569.938 287.158 572.233 289.275 566.907 287.231C565.42 286.658 564.523 285.247 562.816 284.717C557.225 282.997 541.687 280.498 536.155 281.336C533.962 281.674 532.079 283.409 529.475 283.527C524.987 283.747 520.735 281.954 515.703 284.379C514.481 284.967 513.863 286.261 512.922 286.746C511.274 287.599 502.799 290.965 502.137 291.759C501.283 292.774 499.782 297.419 498.723 298.257C497.664 299.095 496.001 298.639 495.486 299.066C495.206 299.301 492.058 304.858 491.852 305.358C491.204 306.901 491.337 309.43 490.527 310.65C489.836 311.694 487.114 312.37 485.819 313.296C480.772 316.883 484.392 316.634 485.01 319.897C485.51 322.573 483.671 325.234 488.188 323.749C491.763 322.573 494.588 317.53 495.045 317.383C496.251 316.986 501.224 317.501 501.931 316.545C502.254 316.119 500.386 314.458 499.356 314.34C497.884 314.193 492.146 316.31 491.66 315.81C491.543 315.678 491.499 312.841 491.807 312.282C492.043 311.856 495.133 310.724 495.986 310.224C498.282 308.871 498.826 305.931 502.328 309.18C503.549 310.312 503.829 312.003 504.873 313.238C506.86 315.575 506.904 312.458 507.919 311.106C508.449 310.4 511.392 309.107 510.023 307.725C509.508 307.21 506.315 308.915 505.653 308.43C505.123 308.048 504.388 304.476 506.006 304.035C507.492 303.638 508.449 305.652 510.214 305.417C511.892 305.181 514.54 302.55 516.291 302.579C518.042 302.609 519.44 305.505 519.94 305.49C520.234 305.49 521.235 303.741 522.28 303.432C522.898 303.255 531.358 303.314 527.135 301.227C526.62 300.977 521.824 299.698 523.236 298.154L523.251 298.169ZM87.2381 305.74C85.0163 302.77 81.5291 299.551 79.0866 296.655C77.4828 294.758 76.2616 290.701 72.9951 290.216C67.5216 289.407 71.3913 293.847 71.3913 297.066C71.3913 303.079 65.8884 303.226 75.7907 303.652L79.3956 309.577C83.9128 310.768 84.5454 318.618 86.7966 320.529C87.2822 320.941 88.3563 320.926 88.9007 321.367C90.0337 322.308 90.9018 325.484 92.2702 322.396C93.0353 320.662 92.4467 318.163 94.0505 316.266C91.5639 313.017 89.71 309.018 87.2675 305.74H87.2381ZM368.035 295.376C367.844 295.052 366.505 294.817 365.961 294.17C365.313 293.391 364.372 290.715 364.151 290.818C361.797 291.833 361.635 297.64 362.974 299.33C363.857 300.433 367.785 300.786 368.183 300.359C368.359 300.183 368.33 295.876 368.035 295.361V295.376ZM372.597 294.494C372.494 294.391 369.772 294.391 369.669 294.494C367.668 296.508 374.598 296.508 372.597 294.494ZM112.472 299.624L111.015 298.169C110.809 299.698 110.942 299.845 112.472 299.624ZM356.441 301.844C354.793 303.476 361.929 311.503 361.576 305.211C361.429 302.476 357.75 300.551 356.441 301.844ZM368.197 306.24C368.933 307.195 376.466 307.431 378.07 307.769C380.233 308.225 384.147 311.385 386.207 309.209C386.457 308.945 387.958 306.063 387.943 305.872C387.737 302.917 379.895 304.814 378.144 304.814C375.392 304.829 371.081 303.726 369.109 304.593C368.286 304.961 367.403 305.225 368.197 306.24ZM530.225 305.505V306.24C530.696 305.99 530.696 305.755 530.225 305.505ZM365.254 309.915C366.211 308.96 363.253 306.313 362.326 308.827C361.708 310.518 365.107 310.062 365.254 309.915ZM595.996 308.445C595.275 308.71 590.758 307.048 590.861 308.813C590.919 309.93 596.864 311.179 595.996 308.445ZM349.82 308.445C349.025 307.651 347.554 309.107 348.363 309.9C349.172 310.694 350.629 309.239 349.82 308.445ZM74.7608 321.882C75.4965 322.94 76.3204 331.438 78.7335 325.748C80.3667 321.897 76.085 321.544 74.8196 318.545C73.6131 315.707 75.467 312.238 72.8039 310.65C72.2595 313.737 72.0387 316.736 72.8039 319.824C73.2747 321.691 74.3488 321.279 74.7608 321.882ZM520.308 316.516C519.955 314.296 515.202 314.796 515.173 316.148C515.144 317.927 519.411 316.266 520.308 316.516ZM438.735 315.796C437.116 314.252 434.071 319.971 434.336 320.191C434.483 320.309 437.837 320.279 437.97 320.162C438.132 320 438.897 315.957 438.735 315.796ZM399.052 375.277C398.772 375.071 393.269 377.555 392.622 378.011C389.017 380.54 384.662 390.228 378.497 387.376C377.423 386.876 376.643 384.994 375.525 384.479C374.406 383.965 372.95 384.244 371.876 383.715C370.095 382.833 370.537 379.79 367.094 379.613C362.282 379.349 363.489 383.259 361.591 385.935C357.647 391.521 353.16 381.98 352.836 377.746C352.63 374.968 353.263 373.63 353.483 371.234C353.572 370.175 352.586 369.087 353.086 367.955C354.043 365.809 359.031 365.089 360.634 362.972C363.783 361.487 378.114 360.414 381.69 360.796C382.985 360.943 385.53 363.413 386.972 361.354C387.708 360.311 386.192 357.15 386.56 355.121C386.869 353.401 388.679 352.666 389.179 351.108C391.018 345.316 393.152 334.687 392.387 328.718C392.254 327.659 390.901 323.205 390.253 322.764C389.768 322.441 382.264 321.059 381.042 320.956C372.508 320.25 363.445 322.235 354.646 320.897C352.454 320.573 350.497 318.706 347.981 318.721C345.906 318.721 343.905 320.162 341.374 320.265C333.752 320.588 326.351 316.575 319.686 323.528C314.168 329.291 315.095 336.113 313.83 343.316L317.891 356.9C320.333 360.708 326.322 358.341 330.015 359.473C332.561 361.869 341.845 363.457 342.478 366.838C342.595 367.485 342.978 374.512 342.904 374.953C342.713 376.306 340.109 377.246 339.211 378.276C338.314 379.305 337.887 381.672 336.592 382.318C335.224 382.995 333.679 381.289 332.09 381.524C330.324 381.774 329.868 386.449 325.616 382.965C323.968 381.627 320.113 374.85 319.686 374.571C318.494 373.762 316.655 380.437 316.052 380.848C314.154 382.127 307.15 379.246 307.209 381.554C307.253 383.186 311.299 383.318 312.314 383.788C315.728 385.347 312.314 385.788 311.976 386.302C311.373 387.258 311.755 388.787 311.226 389.978C310.769 391.021 308.739 392.168 307.93 393.3C296.203 409.574 297.601 430.891 300.602 449.826C301.823 453.546 306.135 455.133 308.621 457.235C313.3 461.19 319.451 465.983 323.732 470.04C331.589 477.494 334.9 485.153 345.391 489.505C346.951 490.151 348.981 489.901 350.761 490.754C352.704 491.68 355.617 495.385 357.177 496.091C358.839 496.84 360.855 496.135 362.606 497.281C363.798 498.061 366.314 501.912 367.932 502.295C369.551 502.677 370.625 498.869 371.537 498.678C372.449 498.487 373.318 500.207 374.318 500.06C374.995 499.957 375.966 498.59 376.967 498.266C378.644 497.722 380.439 498.134 382.19 497.62C383.779 497.134 388.944 491.71 390.135 495.488C390.533 496.738 389.459 502.221 392.063 501.618C394.667 501.016 393.564 492.445 393.917 492.077C394.373 491.607 400.656 495.253 400.509 492.445C400.479 491.827 397.11 490.592 396.874 489.431C396.551 487.814 401.686 483.609 402.73 484.727C402.936 484.962 402.363 487.358 403.054 488.446C403.628 489.343 406.306 489.284 406.394 489.137C407.292 487.682 406.424 483.492 406.688 481.786C407.174 478.714 412.074 463.645 413.766 461.616C416.694 458.118 425.64 451.149 429.877 449.811C433.32 448.724 442.84 450.385 444.65 449.15C445.386 448.65 445.386 446.886 446.033 446.121C447.122 444.872 448.946 445.283 450.182 444.387C451.492 443.431 451.713 440.829 453.449 439.579C455.185 438.33 457.524 438.683 457.848 438.462C458.29 438.168 456.951 434.757 457.392 433.302C458.025 431.229 461.615 428.48 462.571 426.657C463.734 424.437 463.366 421.6 464.072 419.351C465.602 414.484 468.574 412.426 468.619 406.369C468.648 402.253 467.368 404.958 466.147 405.267C464.381 405.708 462.454 405.237 460.585 405.59C458.937 405.899 457.157 407.501 456.141 407.472C455.126 407.443 453.714 406.281 452.286 406.193C449.653 406.046 446.769 408.207 443.546 407.634C441.884 407.34 441.398 405.767 440.457 405.502C438.058 404.841 438.132 407.693 436.896 408.354C435.542 409.074 435.733 406.59 435.115 405.767C432.187 401.871 427.817 411.191 427.008 411.677C425.816 412.382 423.58 411.853 422.005 412.515C421.005 412.926 420.975 414.161 420.343 414.543C419.122 415.293 416.856 415.058 415.929 416.043C415.237 416.778 412.853 422.849 411.838 424.437C410.764 426.113 403.187 437.051 402.583 437.58C402.26 437.874 400.038 437.874 398.772 438.55C393.99 441.064 387.561 447.886 382.161 450.591C379.012 452.164 370.551 453.457 367.462 452.046C366.329 451.531 363.371 448.077 361.502 446.989C360.075 446.151 357.044 446.092 356.515 444.622C354.881 440.153 361.488 442.373 362.724 440.697C363.121 440.167 362.488 437.521 362.135 437.168C361.856 436.889 355.073 435.007 354.396 434.934C351.968 434.669 351.703 437.021 348.819 435.448C345.465 433.611 346.288 430.553 344.802 427.686C344.008 426.143 340.756 423.834 340.977 422.702C341.389 420.63 347.892 422.555 348.319 420.483C348.805 418.13 341.933 417.66 346.141 414.646C347.598 413.602 349.187 413.808 350.482 413.103C352.645 411.941 354.16 409.03 357.868 409.839C356.397 407.046 352.777 409.957 352.659 405.811C352.63 404.973 353.557 398.372 353.778 398.049C354.705 396.726 362.106 396.182 363.754 396.99C364.828 397.519 365.269 399.475 366.299 400.327C367.123 401.004 368.477 401.092 369.271 401.768C373.406 405.326 375.363 407.501 370.463 411.78L366.696 420.512C369.727 422.129 372.244 417.822 373.818 417.351C375.157 416.954 378.938 417.439 379.188 417.204C379.453 416.954 377.614 411.265 378.129 409.824C378.997 407.428 382.985 407.854 384.338 406.546C388.178 402.856 390.871 397.005 393.593 392.3C396.08 387.993 399.655 384.715 399.802 379.334C399.817 378.584 399.258 375.512 399.023 375.335L399.052 375.277ZM465.19 318.736C464.425 317.971 461.865 320.132 464.102 320.926C465.676 321.5 465.396 318.942 465.19 318.736ZM439.471 321.676C439.015 322.132 439.809 324.587 440.574 324.602C442.722 324.616 440.839 320.309 439.471 321.676ZM596.731 326.072L591.596 327.16C592.611 328.791 596.187 327.542 596.731 326.072ZM80.867 329.012C79.734 327.895 78.4392 330.056 80.4992 331.202C81.1466 331.173 80.9406 329.085 80.867 329.012ZM82.3384 332.687C80.97 334.054 85.2811 335.936 85.2664 333.79C85.2664 333.025 82.7945 332.246 82.3384 332.687ZM598.938 337.818C599.703 338.582 602.264 336.421 600.027 335.627C598.453 335.054 598.732 337.612 598.938 337.818ZM444.62 340.023C443.591 339.494 442.664 340.494 443.164 340.743C444.194 341.273 445.121 340.273 444.62 340.023ZM295.07 364.251V364.986C295.541 364.736 295.541 364.501 295.07 364.251ZM447.019 374.336C446.195 373.806 444.988 371.19 445.68 370.116C445.783 369.955 450.359 367.22 447.195 367.206C446.842 367.206 444.517 369.131 443.664 369.543C438.603 371.895 433.644 375.041 428.332 376.982C426.832 377.526 424.889 377.364 423.477 377.967C422.373 378.437 422.491 379.79 421.343 380.26C420.004 380.804 412.986 380.922 413.045 382.245C413.074 383.098 416.032 384.097 417.062 384.112C419.46 384.127 421.417 382.245 423.05 382.098C427.611 381.657 436.499 382.407 441.339 382.627C445.827 382.833 445.503 381.333 448.108 380.584C451.345 379.657 456.73 381.378 455.656 375.644C454.891 371.601 450.565 376.6 447.034 374.321L447.019 374.336ZM571.012 370.866C570.335 370.322 566.627 370.866 568.069 372.322C568.834 373.101 571.586 371.322 571.012 370.866ZM464.455 375.262C462.939 372.674 460.247 372.351 458.584 374.909L464.455 375.262ZM305.369 378.202V378.937C305.84 378.687 305.84 378.452 305.369 378.202ZM504.138 378.217C503.005 377.702 501.136 378.584 501.945 378.937C503.078 379.452 504.947 378.57 504.138 378.217ZM222.678 402.444C220.913 401.004 218.911 408.31 219.147 409.354C219.588 411.265 224.208 412.103 224.723 409.339C224.9 408.428 223.237 402.915 222.678 402.459V402.444ZM360.487 404.649C358.148 405.179 359.119 408.295 360.487 408.31C362.032 408.31 363.15 404.047 360.487 404.649ZM273.764 411.265C271.807 411.25 273.279 415.764 272.999 416.425C272.455 417.733 269.159 418.983 268.982 419.703C268.453 421.85 274.044 422.497 274.765 420.336C275.162 419.145 275.25 411.28 273.764 411.265ZM523.972 417.116C524.045 417.043 524.266 414.955 523.604 414.926C521.529 416.087 522.824 418.233 523.972 417.116ZM382.146 419.336C381.351 418.542 379.88 419.997 380.689 420.791C381.499 421.585 382.955 420.13 382.146 419.336ZM392.24 433.802C392.666 433.464 397.492 427.466 397.492 427.039C397.492 426.804 396.448 425.731 396.124 425.554C393.534 424.217 393.667 426.745 392.401 427.73C390.798 428.98 388.37 429.539 386.987 431.126C384.029 434.493 386.781 433.655 381.44 435.86C376.408 437.933 382.528 439.109 384.647 438.345C386.089 437.83 385.618 435.728 386.545 435.081C387.708 434.272 390.459 435.228 392.254 433.802H392.24ZM371.125 429.612C370.978 429.45 366.873 429.45 366.726 429.612C364.651 431.729 373.2 431.729 371.125 429.612ZM579.09 434.008C579.928 433.155 578.781 431.641 577.633 433.64C577.545 434.272 579.045 434.052 579.09 434.008ZM536.478 445.019C537.45 446.239 545.189 446.93 544.556 443.931C544.1 441.77 534.536 442.578 536.478 445.019ZM562.183 446.504C562.036 446.357 559.461 447.077 559.255 447.239C558.049 448.253 564.081 448.488 562.183 446.504ZM241.806 519.568C241.335 522.759 241.806 527.845 241.806 531.315C241.806 531.476 243.086 532.667 243.263 532.417C243.586 532.006 244.249 524.008 244.925 521.965C248.265 511.953 252.665 501.515 257.035 492.21C261.743 482.213 267.364 471.995 271.763 462.131C273.205 458.882 276.898 451.032 275.25 447.959C273.809 445.298 272.734 452.017 272.47 452.546C263.391 471.231 251.62 487.005 245.514 507.117C244.778 509.528 245.058 511.983 244.41 514.1C243.969 515.54 242.1 517.54 241.806 519.568ZM552.634 451.634C553.031 451.267 552.575 449.018 551.472 448.724C549.971 448.341 544.203 451.179 547.852 451.634C548.632 451.737 552.472 451.796 552.634 451.634ZM402.73 497.164C402.804 497.09 403.025 495.003 402.363 494.973C400.288 496.135 401.583 498.281 402.73 497.164ZM573.219 506.705C573.557 506.44 571.953 504.323 571.012 506.352C571.041 507.014 573.13 506.778 573.219 506.705ZM522.515 510.38C523.633 511.497 525.649 508.19 523.619 508.19C523.148 508.19 522.088 509.939 522.515 510.38ZM485.613 568.538C485.451 568.259 483.862 567.788 483.156 566.965C479.551 562.79 477.211 556.939 474.357 552.984C472.915 550.985 472.827 548.868 475.696 549.397C478.359 549.897 479.33 553.469 483.215 553.734C493.102 554.425 486.319 547.162 482.759 543.855C475.549 537.122 466.956 531.403 458.628 526.11C456.995 525.067 452.919 519.495 452.625 525.434C452.463 528.874 458.128 532.917 460.82 534.931C462.365 536.093 469.443 538.651 467.074 541.988C464.705 545.325 461.115 540.018 459.673 539.018C456.156 536.563 451.845 534.02 448.637 531.682C446.769 530.315 442.84 526.228 441.148 525.905C437.234 525.155 439.382 530.859 438.647 531.623C438.352 531.932 435.895 530.829 435.836 534.284C435.807 535.887 435.763 539.4 435.851 540.767C435.925 541.811 436.66 547.559 436.852 547.853C437.367 548.618 439.471 548.736 440.471 549.382C446.769 553.499 455.362 566.303 460.482 572.713C464.602 577.888 463.896 578.094 466.75 583.327C467 583.783 473.18 590.898 473.607 591.193C475.269 592.339 478.389 589.678 478.403 589.296C478.447 588.12 473.827 586.9 473.386 585.503C471.959 581.034 473.489 575.903 468.28 572.257C468.148 567.406 463.513 557.674 472.165 563.966C475.622 566.48 475.534 568.641 477.359 571.258C478.286 572.566 483.215 578.549 483.406 579.167C484.598 583.151 482.111 584.797 482.082 586.37C482.023 589.796 487.85 590.105 490.395 589.517C491.013 589.37 496.016 586.576 496.089 586.253C497.296 581.093 494.883 582.96 492.102 581.504C491.41 581.137 486.408 576.271 486.143 575.712C485.127 573.492 486.393 569.846 485.613 568.523V568.538ZM123.243 599.719C126.494 595.691 124.39 589.619 118.858 591.295C116.43 592.03 116.474 595.853 111.354 594.838C108.823 594.339 107.102 588.12 105.41 586.091C104.1 584.518 98.2292 581.372 99.5682 578.697C100.48 576.874 103.6 576.594 102.629 573.522C101.363 569.538 87.7678 566.45 83.8539 563.584C82.8534 562.849 82.0882 561.937 81.279 561.011C73.9074 552.69 67.7423 546.427 58.3402 539.871C56.1332 538.327 52.7196 536.916 50.3801 535.343C40.5955 528.801 34.0773 519.392 20.7024 525.522C19.4371 526.096 14.0371 529.315 13.5957 530.212C12.6982 531.991 15.2142 535.945 15.3319 537.313C15.4055 538.092 12.9042 542.517 12.8747 544.516C12.7717 549.676 16.303 552.602 19.1428 556.292C21.6294 559.526 24.8517 561.834 28.0446 565.024C34.298 571.272 47.1284 583.754 51.0716 591.207C51.7043 592.398 51.5572 594.074 52.1752 595.074C52.5577 595.691 53.7348 595.794 54.0438 596.294C54.7059 597.367 54.6471 603.159 54.397 604.718C53.6613 609.172 49.4678 609.29 55.1326 615.067C59.8558 619.874 67.5952 623.006 73.2158 625.637C76.3204 627.093 79.2191 630.209 83.3095 627.754C85.0751 626.696 85.0163 623.682 88.2239 625.314C90.6958 626.563 89.3568 640.75 94.3301 640.265C100.186 639.677 98.0674 631.929 99.6123 629.371C100.216 628.372 104.512 625.578 105.174 624.652C106.263 623.138 105.527 621.403 106.234 619.83C106.94 618.257 111.398 614.876 111.589 614.538C112.34 613.244 111.163 609.716 113.193 606.952C115.047 604.438 117.004 605.703 118.77 604.453C119.034 604.262 122.934 600.131 123.243 599.749V599.719ZM86.0168 542.693C88.2092 540.253 93.8298 550.867 97.008 551.955C100.436 553.131 100.289 546.28 98.8472 544.178C97.9497 542.87 92.5056 540.782 91.1225 539.415C88.7683 537.107 89.6805 531.756 84.928 532.373C80.9847 532.888 84.3542 536.96 84.5454 538.709C85.0604 543.34 77.5123 546.413 81.2054 550.059C87.0615 555.821 85.6048 543.149 86.0168 542.679V542.693ZM500.459 547.104C500.253 546.898 497.693 546.619 498.267 548.192C499.076 550.426 501.224 547.868 500.459 547.104ZM506.33 549.309C506.404 549.221 506.624 547.133 505.977 547.104C503.961 548.045 506.065 549.632 506.33 549.309ZM101.084 553.719C99.9802 553.719 99.9802 555.895 101.084 555.895C102.187 555.895 102.187 553.719 101.084 553.719ZM492.014 554.454C491.705 554.454 487.305 558.174 487.305 558.482C487.305 558.894 491.984 564.73 492.426 565.054C493.544 565.862 495.309 565.686 496.413 566.95C497.605 568.317 497.561 573.507 499.37 573.536C501.268 573.566 500.43 565.936 499.797 564.319C498.517 561.07 495.103 560.305 493.823 558.541C493.146 557.615 492.955 554.454 492.028 554.469L492.014 554.454ZM105.115 558.115C104.321 557.321 102.849 558.776 103.659 559.57C104.468 560.364 105.925 558.909 105.115 558.115ZM463.204 589.487C461.777 587.738 462.645 585.459 462.1 583.607C460.879 579.446 452.198 573.669 449.447 569.817C447.46 567.038 446.636 564.569 443.502 561.805C441.722 560.232 438.529 557.953 438.926 562.055C439.029 563.172 439.927 564.201 440.045 565.274C440.192 566.597 439.132 567.774 439.78 569.126C440.427 570.479 444.076 573.095 445.327 574.654C448.005 577.976 454.067 584.695 455.935 587.547C456.803 588.87 456.45 591.222 457.48 592.604C460.07 596.103 469.457 595.529 465.161 590.766C464.587 590.134 463.513 589.914 463.175 589.487H463.204ZM516.63 562.525C515.894 562.76 513.878 564.613 513.878 565.083C513.878 565.363 515.747 570.111 516.983 569.876C519.057 569.464 515.953 563.937 516.615 562.54L516.63 562.525ZM42.6554 598.499C42.9202 598.19 42.6848 592.207 42.3317 591.119C42.1551 590.56 36.3579 582.504 35.6369 581.666C32.6206 578.167 26.9705 574.286 23.8953 570.64C22.4387 568.92 21.4823 564.216 17.8186 566.347C17.5096 566.524 14.7581 571.713 14.7728 572.449C14.8611 575.389 19.6431 577.55 20.4523 579.211C21.8207 581.975 19.9668 584.783 20.9673 586.767C22.4092 589.634 21.7177 582.519 24.5575 583.136C26.9705 583.665 35.2396 595.912 38.5797 597.808C39.5213 598.337 42.2434 598.984 42.6554 598.514V598.499ZM513.687 575.007C512.657 574.477 511.73 575.477 512.23 575.727C513.26 576.256 514.187 575.256 513.687 575.007ZM512.215 588.958C510.141 589.178 507.728 584.768 506.698 584.548C504.182 584.004 503.52 590.149 510.097 589.987C510.774 589.972 512.451 589.987 512.215 588.958ZM25.7493 593.354C26.3672 592.751 24.6163 590.737 24.2926 591.148C23.6305 591.986 24.5722 594.515 25.7493 593.354ZM27.971 597.029C27.6915 597.367 27.971 599.925 28.383 600.645L35.6663 611.701C37.3143 610.642 36.4903 610.01 36.4315 608.775C36.3579 607.378 36.1225 603.938 35.6663 602.895C35.2102 601.851 28.28 596.632 27.971 597.014V597.029ZM516.63 676.327C517.159 675.298 516.159 674.372 515.909 674.872C515.379 675.901 516.379 676.827 516.63 676.327Z" fill="#F42E0A" fill-opacity="0.7"/>
<path d="M629.057 120.461V138.088C629.057 138.323 625.011 138.882 624.437 138.72C621.73 137.97 621.141 131.634 616.551 135.515C615.344 136.53 615.977 143.91 614.005 146.188C612.975 147.394 610.93 146.556 609.9 147.232C609.164 147.717 609.047 150.334 608.384 151.584C606.339 155.421 596.349 160.11 592.346 162.727C588.079 165.52 583.606 169.769 578.854 172.004C576.647 173.047 572.012 174.797 572.409 170.754C572.615 168.578 574.955 169.166 576.529 168.211C581.443 165.226 593.671 149.878 596.26 144.601C598.717 139.602 598.82 136.294 599.836 131.281C600.189 129.517 601.601 126.827 601.69 125.827C601.807 124.563 599.747 122.519 600.38 121.917C600.689 121.623 608.252 120.549 608.855 120.564C610.43 120.594 611.769 121.77 613.328 121.887C618.301 122.284 624.069 121.035 629.028 120.447L629.057 120.461Z" fill="#F42E0A" fill-opacity="0.7"/>
<path d="M232.316 108.774C232.213 108.847 231.977 109.994 231.521 110.523C230.344 111.905 225.547 117.389 224.488 117.55C221.148 118.036 220.618 114.919 219.279 114.625C218.573 114.478 213.776 119.388 210.186 117.154C209.774 115.286 205.301 113.17 205.213 112.038C205.081 110.244 209.259 109.112 207.979 107.98C207.67 107.715 204.374 107.892 203.565 108.362C202.02 109.274 200.107 113.081 199.121 114.169C198.489 114.875 197.15 115.375 196.179 116.404C195.208 117.433 195.561 119.947 193.265 117.154C191.779 115.345 191.632 113.228 192.353 111.111C193.707 107.157 198.754 100.585 202.285 98.2478C211.29 92.2645 210.848 98.7183 217.337 101.923C218.97 102.732 221.104 103.026 222.869 103.731C223.841 104.114 224.459 105.334 225.386 105.613C232.375 107.774 228.417 101.07 230.403 97.7039C231.109 96.5131 232.654 96.3808 233.272 95.4399C234.14 94.1168 233.905 92.3086 235.597 90.4121C236.862 88.9861 238.937 87.3249 240.349 89.1919C242.336 91.8381 238.893 93.6758 238.893 94.3667C238.893 95.4252 243.351 96.763 243.145 98.6448C243.042 99.6003 241.777 100.497 241.438 101.394C240.305 104.466 240.394 106.539 237.024 108.73C234.596 110.303 232.478 108.612 232.286 108.744L232.316 108.774ZM220.486 107.98C220.295 107.804 216.042 107.789 215.351 108.348C216.498 110.906 222.399 109.715 220.486 107.98Z" fill="#F42E0A" fill-opacity="0.7"/>
<path d="M411.544 180.692C410.47 181.927 407.615 185.646 406.394 186.19C404.864 186.866 402.995 186.425 401.229 186.911C398.596 187.631 396.918 190.601 394.991 190.968C391.195 191.688 380.733 191.38 377.923 188.587C373.788 184.47 378.394 182.912 382.513 182.853C389.753 182.75 396.712 184.264 404.525 182.882C406.585 182.515 408.542 179.678 411.529 180.707L411.544 180.692Z" fill="#F42E0A" fill-opacity="0.7"/>
<path d="M365.99 170.401C366.564 172.606 373.347 172.43 373.317 174.429C373.303 176.634 361.532 177.605 361.532 173.709C361.532 172.283 364.136 170.886 363.768 170.401C363.371 169.872 353.292 169.666 355.69 165.991C356.382 164.947 373.7 165.314 377.334 164.477C379.424 164.006 379.556 162.477 380.674 161.948C384.132 160.345 389.37 162.889 386.545 165.623C384.765 167.358 383.073 165.726 381.881 166.064C380.615 166.417 380.409 168.99 378.688 169.519C375.583 170.475 369.624 169.019 365.96 170.401H365.99Z" fill="#F42E0A" fill-opacity="0.7"/>
<path d="M374.436 146.174C376.613 146.159 376.495 151.51 375.716 153.318C375.157 154.612 366.284 162.727 365.033 163.242C361.59 164.668 360.31 160.316 358.692 158.949C357.838 158.229 354.969 157.405 354.984 156.803C354.984 156.464 359.648 152.995 360.325 152.613C363.886 150.599 367.873 150.775 371.316 148.908C372.42 148.32 374.23 146.174 374.436 146.174Z" fill="#F42E0A" fill-opacity="0.7"/>
<path d="M531.888 140.117C532.712 139.308 532.579 136.53 534.507 136.706C535.184 136.765 537.258 138.176 537.597 138.838C540.054 143.527 529.048 152.789 523.751 151.172C523.398 151.069 518.189 146.879 518.101 146.526C517.615 144.556 524.398 141.69 525.988 141.205C527.577 140.719 530.578 141.425 531.888 140.131V140.117Z" fill="#F42E0A" fill-opacity="0.7"/>
<path d="M202.108 145.439C202.52 145.88 200.489 152.73 199.813 153.789C198.783 155.406 197.252 155.641 196.237 156.817C193.618 159.831 193.265 163.903 188.336 161.757C187.968 161.595 182.289 157.2 182.289 156.803C182.289 156.332 189.292 151.334 189.807 151.113C192.515 149.996 194.486 151.672 195.928 148.438C197.385 148.658 201.578 144.865 202.123 145.424L202.108 145.439Z" fill="#F42E0A" fill-opacity="0.7"/>
<path d="M549.691 156.45C550.559 157.244 546.027 161.389 545.101 161.772C541.334 163.345 533.594 162.977 529.519 162.286C528.4 162.095 527.547 160.889 526.679 160.963C524.442 161.169 522.853 163.83 519.175 160.86C518.91 160.64 515.908 157.067 515.908 156.803C515.864 154.921 522.382 155.715 523.927 156.847C525.119 157.729 525.325 160.081 527.267 160.096C528.342 160.096 529.607 158.875 530.99 158.67C533.491 158.273 536.434 158.875 539.024 158.625C540.907 158.449 549.161 155.95 549.676 156.435L549.691 156.45Z" fill="#F42E0A" fill-opacity="0.7"/>
<path d="M374.068 26.4769C373.67 26.0358 373.317 16.2596 374.141 14.8042C378.202 14.5395 384.573 13.8339 384.397 19.4644C384.191 26.0946 381.116 23.3896 377.511 24.4187C376.613 24.6686 374.818 27.3148 374.068 26.4769Z" fill="#F42E0A" fill-opacity="0.7"/>
<path d="M229.299 182.147C228.961 182.515 224.282 182.691 223.222 183.059C221.883 183.515 221.074 185.235 219.544 185.984C214.733 188.366 208.126 187.366 203.594 184.72C207.42 184.367 211.187 183.426 214.983 182.897C216.572 182.677 218.573 183.265 220.03 182.78C221.015 182.456 221.015 181.118 221.722 180.648C224.135 179.075 231.153 180.119 229.299 182.147Z" fill="#F42E0A" fill-opacity="0.7"/>
<path d="M186.688 166.726C190.499 165.947 195.811 165.947 199.401 165.109C200.548 164.844 208.612 159.375 209.465 163.433C209.892 165.432 205.433 165.491 204.109 166.153C202.579 166.902 202.079 168.564 200.269 168.916C198.547 169.24 190.264 169.24 188.527 168.916C187.262 168.681 186.467 168.123 186.688 166.726Z" fill="#F42E0A" fill-opacity="0.7"/>
<path d="M430.304 34.0919C431.584 34.2536 432.614 35.9001 431.437 37.1644C429.23 39.5166 421.829 41.6336 418.562 41.1191C415.296 40.6045 413.663 38.3111 417.238 36.9439C418.474 36.4735 429.642 34.0037 430.304 34.0919Z" fill="#F42E0A" fill-opacity="0.7"/>
<path d="M189.366 171.974C191.279 171.357 202.093 172.621 202.108 174.429C202.123 177.649 189.278 178.252 188.248 175.061C187.865 173.856 188.042 172.415 189.366 171.974Z" fill="#F42E0A" fill-opacity="0.7"/>
<path d="M530.416 164.727C543.261 162.771 541.246 173.136 528.518 169.181C523.162 167.52 526.399 165.344 530.416 164.727Z" fill="#F42E0A" fill-opacity="0.7"/>
<path d="M592.067 116.168C593.995 115.801 598.938 120.858 598.909 122.299C598.909 122.725 593.98 125.415 593.288 125.489C590.552 125.754 587.212 117.08 592.067 116.168Z" fill="#F42E0A" fill-opacity="0.7"/>
<path d="M426.979 165.991C427.052 166.064 427.082 168.137 426.979 168.181C426.567 168.417 424.948 167.902 423.609 168.858C421.976 170.048 421.299 174.312 419.592 175.855C419.033 176.37 416.193 178.149 415.561 177.002C414.972 175.929 414.899 172.033 415.561 171.078C416.282 170.004 420.505 169.549 421.623 168.696C422.226 168.225 422.344 166.829 423.285 166.329C423.992 165.961 426.714 165.726 426.979 165.976V165.991Z" fill="#F42E0A" fill-opacity="0.7"/>
<path d="M254.283 156.45C254.445 156.582 255.858 159.699 255.696 160.331C255.475 161.228 253.032 163.021 252.194 164.241C251.149 165.77 251.899 167.711 249.531 168.196C242.924 169.534 248.765 164.991 249.545 161.61C251.179 160.493 251.708 158.787 252.665 157.405C253.018 156.905 253.003 155.465 254.283 156.45Z" fill="#F42E0A" fill-opacity="0.7"/>
<path d="M579.089 138.088C576.323 135.471 588.948 126.621 587.197 135.515C586.711 137.971 579.663 138.617 579.089 138.088Z" fill="#F42E0A" fill-opacity="0.7"/>
<path d="M291.524 180.045C295.217 179.045 294.496 187.616 292.818 187.94C291.7 188.16 287.786 186.734 287.433 185.308C287.08 183.882 290.42 180.324 291.524 180.03V180.045Z" fill="#F42E0A" fill-opacity="0.7"/>
<path d="M467.397 188.748C467.324 188.851 465.97 188.939 465.161 189.821C463.851 191.233 462.851 197.348 460.423 196.834C458.334 196.393 460.364 193.041 460.614 191.894C460.864 190.748 460.511 188.733 460.894 188.145C462.497 185.734 468.515 187.19 467.382 188.748H467.397Z" fill="#F42E0A" fill-opacity="0.7"/>
<path d="M280.782 195.349C278.767 193.952 280.4 186.484 284.74 187.337C288.463 188.072 284.24 197.716 280.782 195.349Z" fill="#F42E0A" fill-opacity="0.7"/>
<path d="M581.679 31.6075C582.591 31.4164 589.448 34.7682 589.772 35.2534C590.743 36.6647 590.61 39.8695 588.08 39.1639C585.196 38.3553 585.505 36.944 583.901 35.2534C583.239 34.5477 578.825 32.2102 581.679 31.6075Z" fill="#F42E0A" fill-opacity="0.7"/>
<path d="M395.138 89.78C397.242 89.6036 398.625 91.8675 399.199 93.5435C399.464 94.3226 400.273 94.2638 399.052 95.1165C392.946 99.3945 389.606 90.2504 395.138 89.78Z" fill="#F42E0A" fill-opacity="0.7"/>
<path d="M577.28 141.263C579.119 141.455 579.56 146.688 579.634 148.202C579.678 149.026 579.987 151.319 578.722 151.275C577.736 151.246 577.706 148.423 577.221 147.644C576.485 146.468 574.146 146.497 573.91 144.277C573.704 142.337 575.646 141.072 577.28 141.249V141.263Z" fill="#F42E0A" fill-opacity="0.7"/>
<path d="M269.733 213.725C268.526 212.564 273.352 208.654 272.69 206.772C273.955 202.376 277.31 207.198 275.986 210.035C275.486 211.109 270.615 214.578 269.733 213.711V213.725Z" fill="#F42E0A" fill-opacity="0.7"/>
<path d="M559.991 177.017C561.448 178.105 559.638 178.266 558.917 178.502C557.254 179.016 549.412 180.207 548.97 178.105C548.323 175.003 559.52 176.664 559.991 177.017Z" fill="#F42E0A" fill-opacity="0.7"/>
<path d="M385.103 30.8725C384.25 30.0345 386.869 25.4478 389.503 26.815C394.049 29.1819 386.604 32.3279 385.103 30.8725Z" fill="#F42E0A" fill-opacity="0.7"/>
<path d="M349.923 164.418C349.673 164.035 349.717 161.698 349.82 161.595C350.084 161.316 355.661 162.903 355.676 164.168C355.705 165.755 350.526 165.344 349.923 164.432V164.418Z" fill="#F42E0A" fill-opacity="0.7"/>
<path d="M408.616 156.45C408.469 156.288 408.469 152.216 408.616 152.039C408.792 151.848 410.926 151.995 411.573 152.392C414.133 153.951 409.763 157.67 408.616 156.45Z" fill="#F42E0A" fill-opacity="0.7"/>
<path d="M211.319 14.7306C213.129 14.3924 214.468 19.5378 212.776 19.8613C210.966 20.1994 209.627 15.054 211.319 14.7306Z" fill="#F42E0A" fill-opacity="0.7"/>
<path d="M406.409 165.256C406.085 165.55 400.244 165.991 402.054 163.124C403.363 161.066 408.278 163.492 406.409 165.256Z" fill="#F42E0A" fill-opacity="0.7"/>
<path d="M588.653 113.861C588.536 113.714 588.536 110.318 588.653 110.185C589.256 109.524 592.111 111.097 592.317 112.023C592.758 113.919 588.947 114.228 588.653 113.846V113.861Z" fill="#F42E0A" fill-opacity="0.7"/>
<path d="M180.803 164.521C182.451 161.874 186.232 161.757 185.202 165.623C184.54 168.122 182.039 164.109 180.803 164.521Z" fill="#F42E0A" fill-opacity="0.7"/>
<path d="M232.978 178.472C236.435 172.165 238.981 178.649 236.318 179.016C235.685 179.104 234.052 178.09 232.978 178.472Z" fill="#F42E0A" fill-opacity="0.7"/>
<path d="M379.954 4.45442C380.321 6.689 379.394 5.61582 378.158 5.92454C376.363 6.38028 374.465 6.74781 372.611 6.6449C372.435 5.58641 373.891 5.65992 374.657 5.41C376.363 4.86606 378.129 4.38092 379.954 4.45442Z" fill="#F42E0A" fill-opacity="0.7"/>
<path d="M413.015 31.6223C414.943 33.2541 410.425 35.3564 408.616 32.7101C408.057 30.9313 412.853 31.4752 413.015 31.6223Z" fill="#F42E0A" fill-opacity="0.7"/>
<path d="M534.683 501.618C537.641 500.736 539.877 503.03 537.523 503.735C534.565 504.617 532.329 502.324 534.683 501.618Z" fill="#F42E0A" fill-opacity="0.7"/>
<path d="M585.696 484.683C587.417 486.388 582.797 488.387 582.032 487.608C580.531 486.123 584.489 483.477 585.696 484.683Z" fill="#F42E0A" fill-opacity="0.7"/>
<path d="M404.937 5.90988C403.319 5.92458 401.097 6.33621 400.523 4.45446C402.141 4.43976 404.363 4.02813 404.937 5.90988Z" fill="#F42E0A" fill-opacity="0.7"/>
<path d="M493.853 674.872C495.442 676.474 491.557 676.577 490.189 676.327C490.174 674.916 493.441 674.445 493.853 674.872Z" fill="#F42E0A" fill-opacity="0.7"/>
<path d="M552.634 353.24C553.796 354.401 551.604 356.606 550.442 355.43C549.279 354.254 551.472 352.063 552.634 353.24Z" fill="#F42E0A" fill-opacity="0.7"/>
<path d="M174.932 13.9954C174.152 15.3332 172.798 17.112 171.253 16.9209C172.033 15.5831 173.387 13.8043 174.932 13.9954Z" fill="#F42E0A" fill-opacity="0.7"/>
<path d="M299.116 183.618C299.881 184.367 297.63 186.572 296.923 185.808C295.776 184.588 297.953 182.471 299.116 183.618Z" fill="#F42E0A" fill-opacity="0.7"/>
<path d="M570.276 174.797C569.599 175.341 567.745 175.547 567.348 174.429C566.479 171.974 571.144 174.106 570.276 174.797Z" fill="#F42E0A" fill-opacity="0.7"/>
<path d="M169.782 17.6709C169.252 18.8617 168.164 20.0966 166.839 19.8614C167.369 18.6706 168.458 17.4357 169.782 17.6709Z" fill="#F42E0A" fill-opacity="0.7"/>
<path d="M459.304 197.569C461.232 199.524 455.17 199.524 457.112 197.569C457.186 197.495 459.231 197.495 459.304 197.569Z" fill="#F42E0A" fill-opacity="0.7"/>
<path d="M555.577 22.0664C555.65 22.1399 555.65 24.1834 555.577 24.2569C553.62 26.1827 553.62 20.1258 555.577 22.0664Z" fill="#F42E0A" fill-opacity="0.7"/>
<path d="M551.898 342.963C552.325 343.39 551.266 345.154 550.795 345.154C548.764 345.154 550.795 341.861 551.898 342.963Z" fill="#F42E0A" fill-opacity="0.7"/>
<path d="M556.312 495.709C556.769 496.076 554.503 498.384 553.37 496.061C553.576 495.414 556.195 495.606 556.312 495.709Z" fill="#F42E0A" fill-opacity="0.7"/>
<path d="M434.321 158.655C434.394 158.729 434.394 160.772 434.321 160.845C432.364 162.771 432.364 156.714 434.321 158.655Z" fill="#F42E0A" fill-opacity="0.7"/>
<path d="M388.767 35.2828C389.561 36.0767 388.105 37.5468 387.31 36.7382C386.515 35.9297 387.972 34.4743 388.767 35.2828Z" fill="#F42E0A" fill-opacity="0.7"/>
<path d="M138.177 164.521C137.323 166.388 137.323 159.728 138.177 161.595C138.28 161.83 138.28 164.286 138.177 164.521Z" fill="#F42E0A" fill-opacity="0.7"/>
<path d="M169.782 375.277C169.973 375.468 173.799 375.247 175.109 375.468C177.316 375.85 179.42 377.173 181.215 377.438C183.569 377.776 185.982 377.114 188.336 377.673C191.779 378.481 197.003 381.863 192.25 384.862C189.234 386.773 184.084 384.215 180.567 384.362C176.771 384.509 173.269 386.861 169.091 384.435C167.987 383.788 167.016 381.186 166.486 381.172C166.074 381.172 160.292 386.288 159.88 386.288C158.408 386.288 157.393 380.598 157.378 379.246C157.305 372.086 161.116 371.101 166.383 368.573C167.251 368.161 167.84 366.926 168.841 366.618C170.253 366.191 176.977 365.838 176.403 368.293C176.036 369.896 170.886 369.749 170.121 370.822C169.664 371.454 169.635 375.115 169.797 375.277H169.782Z" fill="#F42E0A" fill-opacity="0.7"/>
<path d="M177.86 435.478C177.418 435.919 167.016 435.698 165.559 437.139C162.454 440.241 167.442 445.137 163.896 446.857C161.969 447.797 147.785 447.474 146.578 445.798C145.813 444.725 146.019 439.888 146.931 438.712C148.771 436.331 157.275 440.741 159.482 436.948C155.451 434.89 148.712 437.507 145.475 436.654C145.078 436.551 139.678 431.112 139.663 430.7C139.545 427.304 147.917 431.729 148.8 431.832C154.068 432.494 160.954 431.479 166.501 431.759C169.576 431.92 172.725 433.082 176.021 432.523C177.507 432.273 178.478 434.846 177.845 435.463L177.86 435.478Z" fill="#F42E0A" fill-opacity="0.7"/>
<path d="M159.747 423.981C157.01 426.775 156.187 429.906 151.037 429.671C147.829 429.524 148.226 426.995 146.225 425.613C144.827 424.643 142.459 424.569 141.12 423.379C142.929 420.321 145.946 420.953 148.594 419.836C151.831 418.468 157.673 415.911 160.483 414.088C162.705 412.632 166.972 405.149 167.604 410.853C168.325 417.278 163.632 419.997 159.733 423.981H159.747Z" fill="#F42E0A" fill-opacity="0.7"/>
<path d="M149.742 321.823C151.596 321.426 166.162 321.426 166.103 323.499C166.103 323.925 163.278 326.233 162.484 326.483C159.703 327.336 151.905 327.659 149.256 326.41C146.387 325.057 146.328 322.558 149.742 321.838V321.823Z" fill="#F42E0A" fill-opacity="0.7"/>
<path d="M238.127 336.363C240.379 335.877 241.938 341.023 239.952 341.493C237.73 342.022 237.995 337.406 238.127 336.363Z" fill="#F42E0A" fill-opacity="0.7"/>
<path d="M207.273 353.239C207.7 352.813 209.465 353.872 209.465 354.342C209.465 356.371 206.169 354.342 207.273 353.239Z" fill="#F42E0A" fill-opacity="0.7"/>
<path d="M335.945 401.783C336.533 401.283 340.741 401.577 341.006 402.812C341.183 403.62 337.357 407.487 336.96 407.575C334.311 408.148 335.356 402.297 335.945 401.783Z" fill="#F42E0A" fill-opacity="0.7"/>
<path d="M32.8557 536.343C31.7816 535.328 25.7636 531.33 25.7783 530.58C25.7783 530.315 27.3969 528.727 28.2061 528.845C28.9124 528.948 33.7826 533.006 34.9303 533.902C39.8153 537.695 43.3907 541.091 47.8784 545.193C50.571 547.663 58.2075 551.338 57.3688 555.528C57.1775 556.469 56.486 556.689 55.5296 555.91C49.6735 551.147 43.1553 546.619 37.5052 541.606C35.6807 539.989 34.327 537.739 32.8557 536.343Z" fill="#F42E0A" fill-opacity="0.7"/>
<path d="M63.0044 557.63C64.0491 558.174 67.3744 562.099 68.7722 563.231C72.8626 566.583 77.983 566.789 75.158 572.596C73.2893 576.433 70.582 574.272 68.3308 571.758C67.0949 570.361 66.0649 568.876 64.7259 567.318C63.1369 565.48 61.3418 561.658 58.5756 561.805C57.884 561.849 56.2508 562.849 55.9124 562.525C55.3386 561.967 58.7963 558.174 58.8257 556.954C59.3407 556.542 62.3276 557.277 63.0339 557.63H63.0044Z" fill="#F42E0A" fill-opacity="0.7"/>
<path d="M51.4832 570.596C52.2042 569.729 58.3398 577.197 59.9289 577.212C62.3861 581.005 65.6673 581.872 64.6962 587.106C64.2548 589.472 62.0771 590.369 60.694 588.194C60.1938 587.4 60.3703 586.077 59.8848 585.341C57.4276 581.593 54.014 578.447 52.0423 574.095C51.6892 573.331 51.1301 571.052 51.4979 570.611L51.4832 570.596Z" fill="#F42E0A" fill-opacity="0.7"/>
<path d="M101.525 607.231C100.774 606.393 101.716 600.601 102.584 599.278C103.202 598.337 106.395 596.206 107.337 596.632C110.647 598.146 107.381 601.042 106.778 602.733C106.263 604.174 107.057 607.496 104.673 607.893C104.291 607.952 101.642 607.364 101.539 607.246L101.525 607.231Z" fill="#F42E0A" fill-opacity="0.7"/>
<path d="M46.3337 565.451L40.4629 561.423C43.5675 558.6 47.3636 561.57 46.3337 565.451Z" fill="#F42E0A" fill-opacity="0.7"/>
<path d="M96.3014 621.256C96.1396 621.418 91.9756 621.874 92.6377 620.168C93.6382 617.581 97.4638 620.08 96.3014 621.256Z" fill="#F42E0A" fill-opacity="0.7"/>
<path d="M91.1516 577.932C89.6361 579.108 87.3408 573.786 90.7838 575.007C91.8726 575.389 91.7696 577.447 91.1516 577.932Z" fill="#F42E0A" fill-opacity="0.7"/>
<path d="M36.0338 554.454C36.5341 554.704 35.6071 555.704 34.5772 555.175C34.0769 554.925 35.0039 553.925 36.0338 554.454Z" fill="#F42E0A" fill-opacity="0.7"/>
<path d="M336.975 299.83C339.329 300.036 339.402 304.476 335.533 303.27C333.09 302.506 335.341 299.683 336.975 299.83Z" fill="#F42E0A" fill-opacity="0.7"/>
<path d="M534.889 291.451C534.61 291.656 528.989 290.26 528.047 290.054C527.106 289.848 525.928 289.481 526.179 288.26C526.635 286.129 536.464 287.04 536.449 288.981C536.449 289.128 535.007 291.362 534.889 291.451Z" fill="#F42E0A" fill-opacity="0.7"/>
<path d="M498.267 300.374C499.826 298.816 501.592 304.02 499.37 304.035C498.414 304.035 497.84 300.815 498.267 300.374Z" fill="#F42E0A" fill-opacity="0.7"/>
<path d="M460.423 553.705C461.791 553.44 469.104 561.026 465.543 561.775C464.484 561.996 461.556 558.6 460.894 557.615C460.467 556.968 458.525 554.072 460.423 553.705Z" fill="#F42E0A" fill-opacity="0.7"/>
</g>
<defs>
<clipPath id="clip0_200_5507">
<path d="M0 100C0 44.7715 44.7715 0 100 0H632V587C632 642.229 587.228 687 532 687H100C44.7715 687 0 642.228 0 587V100Z" fill="white"/>
</clipPath>
</defs>
</svg>
