<svg width="705" height="356" viewBox="0 0 705 356" fill="none" xmlns="http://www.w3.org/2000/svg">
<g clip-path="url(#clip0_210_5582)">
<path d="M114.25 167.976C114.371 166.702 115.116 165.572 115.452 164.394L109.586 163.048L108.264 152.4C112.279 153.145 112.663 161.005 114.851 161.991C118.578 163.649 117.015 159.515 119.035 159.611L117.857 164.394C131.753 164.226 148.15 167.327 159.883 157.808L152.67 158.409V153.626C150.362 153.65 150.963 158.217 151.42 159.515L134.662 162.015C134.206 159.25 135.744 156.991 138.245 156.005C138.605 156.414 137.235 160.933 140.048 159.611C143.702 157.88 139.591 151.342 144.255 152.424L145.458 158.409V151.222L150.266 154.803C150.242 151.751 153.68 144.179 157.286 146.703C157.815 147.063 156.734 149.9 159.883 148.794V144.01L161.686 146.39C164.066 145.429 170.438 131.126 172.481 141.583C184.166 131.054 178.3 133.097 170.366 128.362C166.134 125.838 160.003 122.737 155.892 119.78C149.617 115.285 152.454 111.295 149.088 104.949C153.56 99.4203 152.214 98.7232 150.29 92.3772C169.188 94.9733 169.716 121.006 189.6 124.468C201.789 126.607 199.241 119.925 202.727 118.867C204.867 118.218 206.886 119.949 208.593 119.852C209.026 119.852 215.494 118.626 216.744 118.386C218.619 118.026 226.89 111.439 228.332 112.761C228.837 116.078 225.447 116.367 223.884 117.977C223.355 118.53 223.764 120.333 223.283 120.814C220.663 123.458 211.647 120.453 212.729 130.742C223.163 129.323 223.452 121.367 230.135 115.165C232.444 117.857 225.038 123.939 227.13 125.958C231.626 130.237 235.281 113.266 236.194 111.631C239.32 106.031 256.486 113.482 253.529 100.766H258.337C258.145 98.0742 253.865 98.7232 253.529 98.3626C253 97.8097 255.669 85.9351 255.957 83.339C256.558 78.0507 257.328 73.8681 258.025 68.6759C260.261 51.6331 260.549 34.0855 267.353 18.0042C269.565 26.9222 265.911 36.0806 265.502 44.9506C265.093 53.8205 265.334 97.2809 269.758 101.992C272.763 105.189 282.957 104.853 287.188 103.843L285.962 97.2088L292.598 96.031C297.479 89.6609 290.458 62.3299 289.569 53.4119L286.563 0.0239258C291.252 10.5525 289.28 23.5329 294.69 33.9172C296.132 36.6816 299.162 37.1383 299.282 38.0037C299.498 39.6142 297.719 42.2824 297.984 44.9266C298.32 48.5803 301.854 61.0559 303.417 64.8058C304.571 67.5942 313.611 83.6515 315.15 84.8534C317.987 87.0889 325.536 89.4446 329.215 88.8196C330.537 93.0022 322.699 90.6224 322.002 93.0022V96.0069L325.031 95.0935L327.412 100.79C333.158 97.4251 336.019 95.5983 342.943 95.9829C347.583 96.2233 363.163 97.0165 359.22 103.194L366.433 104.396C367.443 99.2039 360.783 99.0597 359.244 94.805C370.664 97.6896 371.65 104.973 383.84 97.1848C401.439 85.9591 418.942 55.3349 427.501 36.4172L436.06 15.6004L432.478 35.9845C434.786 38.3642 440.772 25.9367 442.696 25.1915C444.643 33.0759 440.772 34.6864 437.527 40.4074C432.141 49.9264 426.203 60.2146 423.654 70.9355C421.514 79.9737 421.827 89.5167 418.701 98.3867L413.268 99.5405C413.484 97.5694 416.249 97.954 416.85 96.2473C417.667 93.8675 421.13 75.2382 420.456 74.3488C411.464 84.9736 407.546 99.4684 400.164 111.151L403.843 116.127C417.595 113.555 430.242 126.03 444.499 127.112C444.186 125.309 442.311 124.78 440.893 124.131C429.04 118.915 413.364 115.526 404.877 105.526L424.111 113.29C426.78 113.723 436.709 117.977 436.108 112.713L428.919 110.309C433.079 109.18 438.512 112.449 441.566 112.665C448.658 113.17 460.199 107.569 466.281 103.867C469.575 101.848 478.591 93.6993 480.491 92.9541C481.693 92.4974 483.833 93.8675 484.121 93.531V89.9013C486.189 91.8964 489.603 89.3965 490.661 87.4254C493.69 81.8727 494.363 81.6804 497.849 76.6324C501.913 70.7191 503.187 62.5943 509.366 58.0512C514.27 58.6281 516.482 61.8011 522.541 59.9262C522.493 66.4644 515.953 66.0318 511.818 68.9884C498.114 78.7958 499.34 83.5553 491.334 95.3339C485.636 103.723 477.341 112.617 470.802 120.525C469.984 121.535 470.874 123.194 470.681 123.338C469.96 123.891 462.916 124.564 467.291 127.761C469.768 129.564 483.4 128.025 487.102 129.636C503.307 129.179 512.034 115.718 524.921 109.132L513.549 124.756C510.688 127.496 507.971 130.429 505.11 133.169C503.908 134.323 500.23 134.251 502.754 136.751C517.156 135.597 530.571 133.338 543.771 127.352C549.974 124.54 555.431 122.304 559.182 116.343L560.432 118.819C567.501 118.434 570.073 110.213 576.589 112.737C575.675 114.636 567.38 118.05 566.972 119.324C566.563 120.598 566.467 123.001 568.775 122.304L576.613 117.545L572.934 121.655C560.552 127.905 548.026 138.842 535.404 144.155C531.1 145.957 527.734 145.765 523.863 147.063C522.277 147.592 519.367 148.77 520.185 151.126C534.49 153.722 532.326 163.193 548.771 158.698C560.096 155.597 577.021 142.833 580.123 132.496L586.206 123.554C583.561 139.035 571.997 148.001 561.009 157.76L564.592 159.539C560.384 159.491 546.007 165.957 554.085 169.466C556.874 170.668 559.158 169.899 561.514 170.452C581.229 175.212 608.012 171.774 627.03 163.745C630.733 162.183 637.152 156.534 638.715 156.125C641.552 155.38 645.447 157.904 648.644 157.159C649.293 160.02 648.139 159.106 647.082 159.827C638.426 165.765 626.766 171.101 617.076 175.404C612.172 177.591 606.089 176.534 603.613 182.351L602.435 179.947C595.655 184.514 586.759 184.226 578.993 185.98L589.235 193.144L591.014 196.749L599.381 188.36C600.752 193.961 595.703 194.658 596.328 199.129C599.79 201.677 610.032 208.288 613.831 205.74C614.648 205.187 614.552 203.071 615.874 202.735C617.99 202.206 620.058 202.927 623.087 201.821C628.232 199.922 632.175 193.336 637.825 191.966L625.828 204.562L631.815 207.542C628.497 208.84 620.731 203.6 618.615 206.364C615.682 210.187 629.266 210.475 631.093 211.1C633.041 205.812 636.142 206.485 639.628 202.759L640.975 205.235C645.158 205.355 650.087 202.711 654.054 202.759C656.963 202.807 659.632 204.97 661.964 204.562C664.296 204.153 666.436 201.437 668.672 200.812C674.755 199.081 683.963 199.778 688.867 194.37L690.046 196.773C695.022 195.451 699.062 185.404 705.072 186.557C694.205 197.158 683.073 207.59 668.095 212.013C661.339 214.009 650.423 216.268 643.836 214.778C646.865 223.335 654.102 219.465 659.992 219.513C665.426 219.561 672.158 220.787 676.726 220.643C681.823 220.499 688.435 218.167 693.652 218.311C694.998 218.359 695.768 217.903 695.479 219.537C685.742 223.167 674.418 226.725 663.863 226.316C660.738 226.196 657.324 224.609 654.054 224.369C632.56 222.878 611.426 220.018 589.836 221.941C588.875 216.941 597.145 221.869 598.227 217.157C595.222 217.398 593.635 217.782 592.818 214.706L590.413 214.754L588.033 218.335C584.523 217.494 585.268 214.537 583.874 212.927C579.209 207.566 575.531 211.917 570.602 210.643C567.933 209.946 562.788 206.557 561.61 203.913L558.629 204.802C559.11 209.273 555.263 211.316 552.546 214.201C548.267 216.052 545.814 209.537 543.578 207.542C540.573 204.874 533.697 200.716 531.605 197.927C528.912 194.346 528.72 185.139 525.57 183.553C522.709 182.11 524.392 187.663 523.19 187.134C520.185 185.379 518.021 180.668 515.905 178.817C515.16 178.168 507.49 172.447 506.986 172.183C502.634 169.923 496.383 173.457 490.228 168.481C488.064 166.726 487.126 163.145 484.241 162.399C482.486 161.967 481.044 163.169 480.13 163.048C479.289 162.952 479.361 161.197 478.447 160.789C474.047 158.842 465.44 161.726 458.924 160.14C449.235 157.784 438.128 148.073 430.723 141.51L428.943 142.087L437.334 150.501C437.527 151.39 436.084 151.318 435.555 151.078C431.732 149.371 424.327 139.203 419.471 137.4C416.273 136.222 409.012 136.246 404.684 135.14C387.446 130.79 370.207 124.636 352.103 125.91C351.839 129.059 351.935 127.905 353.907 128.266C361.648 129.708 370.28 129.54 377.805 130.814C388.119 132.544 396.943 135.453 406.632 139.203C408.892 140.068 414.326 140.092 415.215 141.438C417.042 153.77 424.808 164.443 428.054 176.606C440.075 221.58 423.125 268.574 387.975 297.973C385.619 299.944 378.598 303.261 376.507 305.112C373.934 307.371 370.688 313.213 367.995 315.544C366.096 317.179 356.647 322.131 356.263 322.708C355.301 324.15 356.022 327.13 355.662 327.491C355.301 327.876 350.853 327.275 349.17 327.587C325.464 332.227 308.37 336.313 283.005 334.775C276.634 334.39 251.004 331.433 246.412 329.342C243.094 327.828 243.263 325.832 241.532 324.607C233.141 318.645 222.923 313.501 214.075 306.458C206.742 300.617 197.438 294.92 193.062 286.651C186.186 273.622 181.642 262.445 176.448 248.046C175.078 244.248 167.336 224.801 167.144 222.518C166.783 218.624 170.846 207.687 163.586 206.316V204.538C163.754 203.528 165.701 204.321 165.99 203.143C167.312 197.759 166.807 190.187 165.99 184.73L169.572 185.932C169.163 177.687 173.852 171.63 176.232 164.37C176.713 162.904 175.463 161.101 176.16 159.563C176.689 158.433 188.253 142.544 189.119 141.871C191.138 140.309 194.312 140.886 195.971 138.53C193.927 135.621 191.066 134.9 187.7 135.645C187.099 140.621 184.07 144.924 180.992 148.722C177.434 153.145 164.668 161.919 163.489 163.938C162.047 166.438 162.48 170.62 161.542 173.697C158.825 182.567 152.214 186.029 143.149 184.73L150.314 187.687C148.198 190.403 148.944 195.259 147.261 197.831C145.578 200.403 141.034 200.235 140.048 203.792C138.245 210.162 140.336 213.72 141.923 219.489L137.139 218.287C138.942 224.177 137.908 224.994 134.686 229.681L138.341 235.667L134.735 238.07L139.543 239.897C140.529 243.791 136.49 240.907 137.115 244.08C137.331 245.137 138.822 244.368 139.134 245.017C140.048 246.844 139.158 249.368 141.346 250.69L149.112 247.085C150.266 257.325 149.641 264.44 156.325 272.877C159.691 277.132 164.499 279.367 167.817 283.021C169.067 284.391 172.89 292.107 173.299 292.492C174.236 293.333 177.266 292.035 178.901 292.925C179.285 293.141 183.661 298.934 184.431 299.992C190.706 308.477 184.07 305.593 183.878 307.78C183.277 314.535 188.926 313.381 192.316 314.919C193.759 315.568 198.039 319.991 199.553 321.458C191.836 322.659 185.777 319.222 178.348 318.068C168.899 316.578 157.912 314.943 148.655 315.328C145.722 315.448 143.582 312.612 140.745 317.275L146.732 321.458C137.115 325.376 129.229 315.064 119.107 315.496C121.102 319.246 125.839 321.193 129.902 321.506C130.263 322.972 128.652 323.068 127.57 323.332C119.011 325.352 108.408 321.986 99.9209 320.304C101.388 325.015 94.4873 325.328 90.9531 325.159C86.4331 324.943 81.2639 321.746 77.6094 321.578C72.7528 321.361 67.175 323.429 60.996 322.611C57.1492 322.083 53.3986 319.631 49.4796 319.102C49.7441 313.165 53.639 317.467 57.3896 317.804C61.1403 318.14 64.5784 317.515 68.0405 317.972C71.0699 318.357 77.4892 324.15 79.5088 317.371C78.7635 313.381 75.3254 311.073 73.426 307.78C70.3726 302.516 67.4635 293.886 64.4341 289.175C59.0967 280.906 46.1618 271.916 43.7575 261.844C43.1564 259.296 43.8537 256.579 43.1805 254.007C42.6035 251.772 37.6267 246.099 37.795 244.104L45.729 232.277L36.2803 226.725L53.086 229.104C50.4894 224.777 56.2116 222.638 56.6924 218.311L59.0967 218.912L58.4716 225.475C60.6113 223.335 61.2365 220.619 63.232 218.263C65.1073 216.076 70.6852 212.518 70.9496 212.11C71.1901 211.749 69.6033 206.1 72.272 203.913C74.532 204.057 72.9933 207.735 74.0511 209.898C76.9843 215.932 85.9522 209.874 84.2692 203.889L88.4526 206.292C92.2033 204.73 101.027 188.24 102.301 183.505L103.479 194.298L107.086 187.11L108.889 189.49C110.043 189.033 113.601 183.985 114.01 182.591C116.847 172.904 107.518 176.125 102.325 170.885L114.298 167.88C114.226 168.673 114.322 169.49 114.298 170.284L134.711 171.486L114.298 167.904L114.25 167.976ZM514.078 62.402C510.712 58.8685 503.836 70.0941 504.485 70.7912C506.481 70.8634 514.703 62.9549 514.078 62.402ZM308.755 93.5791C308.202 84.9976 304.379 82.065 299.162 75.5748L301.566 97.1607C305.918 93.8435 301.59 90.6705 308.755 93.5551C308.827 94.805 306.495 94.8291 309.26 98.3867C312.601 102.665 317.242 102.665 321.04 105.526C322.699 106.776 323.18 109.781 325.536 110.357C325.705 102.569 317.001 103.074 313.876 100.406C312.024 98.8434 311.616 94.4925 310.87 93.7714C310.197 93.1224 309.139 93.7233 308.731 93.5551L308.755 93.5791ZM488.857 92.4012L470.008 106.56L450.437 117.569C468.325 121.655 481.573 106.92 488.857 92.4012ZM302.744 105.574C299.426 107.858 297.31 104.108 294.041 104.564C289.689 105.165 282.861 111.151 279.302 112.641C275.095 114.42 268.892 115.598 264.877 112.833C262.713 111.319 262.857 108.458 260.742 107.978C259.756 110.886 259.083 118.602 262.713 119.852C263.723 120.189 273.172 119.011 274.374 118.554C276.201 117.905 276.009 115.67 276.538 115.285C277.307 114.708 279.687 116.607 281.514 116.199C283.173 115.814 290.362 107.401 294.978 107.209C296.541 107.136 300.003 110.333 302.744 109.156V105.55V105.574ZM255.693 111.848C255.5 111.559 253.144 110.862 252.351 110.406L251.75 115.189L247.542 111.607C249.61 114.228 245.859 119.276 243.359 118.795C239.079 118.002 245.451 110.213 240.354 111.607L235.545 124.804C241.195 119.804 249.971 120.742 257.135 121.199C256.486 119.227 256.414 112.881 255.693 111.848ZM171.88 121.174C170.991 117.593 168.947 112.809 164.692 115.189C163.321 116.728 169.26 122.569 171.88 121.174ZM395.212 116.391C389.297 117.473 389.538 120.381 382.589 120.045C373.093 119.612 363.836 110.742 356.816 121.174L368.813 117.593C365.808 125.381 373.477 121.078 377.757 121.126C380.041 121.15 382.133 122.497 384.873 122.328C388.143 122.136 393.192 119.059 395.212 116.391ZM552.522 128.386C554.686 128.915 564.135 123.29 562.115 121.199C559.35 122.617 552.666 124.347 552.522 128.386ZM546.512 128.386C537.568 132.737 529.225 135.717 519.512 138.025C517.54 138.482 515.881 136.607 516.506 140.357C527.037 139.323 539.371 137.015 546.512 128.362V128.386ZM287.14 141.583C284.327 142.28 283.702 138.65 281.611 138.265C280.192 138.001 278.725 139.563 276.417 138.602C274.71 137.905 268.339 130.718 266.752 131.967C267.377 136.006 260.669 139.443 260.694 142.16C260.694 144.659 268.964 150.116 264.973 157.207C256.149 159.923 259.179 148.674 254.13 145.188L246.412 151.919L248.72 160.765C244.441 161.895 245.475 158.625 242.734 157.159L244.032 162.447L241.508 163.769L245.114 170.38C235.545 170.789 227.851 173.986 221.119 164.971L223.5 162.592L220.494 159.587L219.893 164.394C216.575 166.462 214.412 158.241 211.502 160.789C209.242 162.784 220.639 168.337 221.696 169.178C226.625 173.144 231.506 178.481 229.342 185.211C228.236 188.625 220.302 186.726 217.008 187.278C210.06 188.432 203.112 191.677 195.899 191.99L197.101 195.572C181.521 196.293 200.082 205.884 197.101 208.768L188.133 207.614C183.036 208.336 191.403 225.186 197.101 221.989C196.572 223.503 195.274 224.056 194.985 225.907C194.865 226.604 194.745 236.219 194.865 236.748C195.442 239.224 199.313 239.753 200.154 241.171C200.996 242.589 199.553 244.609 199.77 246.267C200.563 252.493 204.602 251.676 206.766 254.897C209.098 258.406 209.266 266.531 216.287 263.382C214.556 261.099 212.392 255.45 212.945 252.854C213.402 250.69 218.691 242.998 221.071 247.758L216.311 253.791L219.893 255.594C219.412 257.325 212.705 259.464 217.874 260.185C223.331 258.863 227.274 255.642 230.568 251.219L228.092 246.147L221.095 246.003C227.25 244.993 231.41 244.416 236.098 240.041C243.936 246.508 234.343 257.373 227.779 260.474C225.135 261.724 221.456 261.291 219.773 263.286C218.547 264.752 212.921 278.478 217.056 279.464L226.529 279.56C227.875 281.579 225.447 284.295 226.096 287.083C226.216 287.612 230.905 296.362 231.434 296.482C238.43 297.997 237.012 288.574 242.109 287.949L244.513 290.377L248.72 287.997C249.225 292.035 246.316 294.391 244.032 297.155C248.143 305.304 247.422 298.357 249.105 296.675C249.634 296.122 251.389 296.53 251.918 296.05C253.745 294.343 253.529 290.881 257.135 292.804C254.034 284.535 258.193 286.29 260.525 282.372C261.367 280.954 264.084 274.488 264.949 272.396C266.632 268.262 265.622 260.738 271.561 260.401C268.579 271.844 270.551 284.391 267.882 296.338C263.05 294.295 261.247 309.054 260.766 313.189C265.694 308.117 271.777 297.78 272.691 290.905C273.196 287.083 271.633 283.838 272.114 280.786C272.691 277.18 276.249 274.103 277.235 271.483C278.966 266.916 276.465 262.204 281.755 259.224C287.597 271.435 282.404 283.838 277.547 295.184C282.644 295.497 280.048 285.112 285.938 285.593C283.197 292.636 290.867 297.276 291.684 302.107C292.285 305.761 288.198 312.083 292.55 315.568C295.243 314.054 293.728 310.929 294.425 309.294C295.171 307.54 299.498 301.049 300.051 299.775C300.292 299.199 298.681 294.727 300.388 292.804C302.215 293.381 303.922 299.319 304.018 300.737C304.162 302.828 302.191 302.275 301.975 302.708C299.57 307.876 302.84 308.381 306.374 304.799V314.39C308.634 311.794 313.299 305.52 314.453 302.66C315.991 298.934 316.977 285.353 316.833 281.122C316.737 278.43 314.212 276.507 314.789 273.598C318.877 272.733 320.151 276.94 323.18 278.382L315.991 261.579C328.734 264.68 336.692 277.564 338.495 290.088C339.193 294.896 337.99 300.569 339.337 304.847C340.154 307.371 346.189 314.559 349.002 314.511C349.411 314.511 356.455 312.852 356.792 312.636C359.22 310.953 354.7 302.996 355.037 299.968L349.627 300.016L347.151 286.242L350.685 285.521L350.829 279.608C353.209 279.247 355.445 281.723 355.662 283.862L350.829 295.208L356.191 292.804L359.244 300.016C361.312 300.28 360.59 295.809 360.422 294.631C359.965 291.194 358.499 288.862 358.018 285.641C363.548 286.843 366.072 295.905 372.395 289.848C369.799 284.92 367.13 279.319 361.624 284.439C361.624 283.285 361.504 281.963 360.903 280.954C356.022 272.877 349.531 268.238 345.323 259.296C344.674 257.902 344.842 255.979 344.77 254.44C337.822 253.767 344.867 269.656 340.587 269.993C338.904 270.137 337.149 266.411 336.884 266.411C335.274 266.435 334.168 268.166 331.619 267.084C326.835 265.041 326.33 259.248 324.671 255.906C323.877 254.296 318.516 251.868 320.776 249.633C323.036 247.397 330.585 258.046 333.374 258.046C336.524 258.815 335.177 253.575 334.648 251.916C333.903 249.633 327.892 247.061 325.657 245.378C323.613 243.839 322.098 241.7 320.175 240.041C317.194 239.368 317.626 244.152 317.001 244.657L312.481 244.969L312.313 248.286L307.577 248.431C305.509 250.258 315.462 260.93 308.803 260.426C307.889 257.397 307.721 253.431 305.725 250.883C303.201 247.686 299.09 248.046 296.854 246.556C295.267 245.474 294.858 242.638 293.199 241.82C292.574 241.508 280.24 239.849 279.543 239.945C278.1 240.138 278.317 244.609 275.167 243.623L275.215 235.787L263.795 234.008L260.742 242.445C258.097 241.388 254.899 241.099 254.707 237.686L251.726 238.816L251.293 242.878C258.385 247.806 254.659 246.436 254.01 250.474C252.928 257.228 255.284 259.368 245.162 260.45L248.744 252.06L244.513 252.108L243.96 243.647L247.542 246.051L246.869 240.041L258.169 230.835C259.588 226.7 255.044 229.513 255.957 225.643C265.622 226.652 257.977 213.672 253.889 212.614C251.052 211.869 245.234 214.465 241.556 211.244C245.354 221.388 228.909 219.657 222.346 219.633L227.13 213.648C217.297 214.129 201.26 210.379 205.804 197.711C207.439 193.168 226.673 189.298 231.073 189.875C232.011 189.995 242.662 194.923 244.369 195.812C248.792 198.12 249.321 203.167 257.087 199.177L254.731 189.658H258.337V186.053L247.518 188.456L249.922 194.442L233.646 188.456C234.319 184.394 231.386 176.702 235.545 174.659C237.012 173.938 243.479 173.072 245.21 173.361C249.634 174.058 261.319 185.379 263.146 183.649L258.385 174.562L260.742 170.452H255.933V164.443L252.351 166.822C250.283 148.217 270.575 163.024 269.157 172.832H272.739C275.432 162.664 265.815 154.996 267.954 144.034C271.945 147.111 276.369 145.933 279.928 150.044C281.25 148.481 274.35 143.986 279.327 144.059L284.712 150.645L279.928 151.847C281.226 155.044 285.65 153.794 287.14 155.38C289.112 157.496 287.429 161.822 291.348 162.159C295.267 162.495 298.512 155.693 302.816 153.145C318.756 143.698 309.548 159.587 317.891 160.5C318.636 160.572 332.028 159.371 332.701 159.058C336.043 157.496 342.174 150.765 341.164 146.462C346.982 149.539 340.034 154.948 341.164 159.659C343.52 162.375 348.713 149.275 348.377 147.664V156.053C351.598 156.726 353.69 152.64 355.638 151.871C358.042 150.909 360.086 153.313 363.884 149.347C370.688 142.28 360.783 135.886 353.185 138.049L356.792 141.631L351.478 142.712L347.8 136.871C344.362 139.491 342.895 141.943 343.592 146.438L342.39 139.251C340.996 137.809 330.441 145.549 329.215 147.087C326.161 150.933 324.671 163.625 316.28 156.702L317.17 136.847C310.149 135.789 312.794 146.799 306.398 147.64L304.595 136.847L296.18 150.044L291.107 141.943L290.795 135.669C287.068 135.309 287.044 138.866 287.188 141.655L287.14 141.583ZM186.282 134.395H181.473C183.95 145.501 170.798 150.909 165.87 158.385C171.76 159.395 188.109 136.03 186.282 134.395ZM451.447 134.612C450.293 134.131 444.475 136.751 445.653 139.179C451.375 137.713 453.972 141.727 458.852 142.785C457.386 138.794 455.15 138.121 452.12 136.27C451.616 135.958 451.616 134.708 451.447 134.636V134.612ZM498.474 141.559L510.448 140.982C508.909 138.674 507.539 139.203 505.23 139.275C504.221 139.323 498.499 139.972 498.474 141.559ZM443.008 144.275C442.143 143.674 441.205 144.083 440.243 143.986C435.988 144.587 446.831 153.505 448.033 152.376C447.047 150.861 443.874 144.9 442.984 144.275H443.008ZM385.619 158.385C388.816 159.395 391.725 151.366 391.052 149.924C390.043 147.784 384.441 146.246 382.012 146.39C381.82 151.27 387.278 152.736 385.619 158.385ZM468.469 153.577C463.925 154.491 460.343 151.366 456.208 150.789C454.621 150.573 454.501 149.371 452.89 151.775C456.568 159.058 461.281 157.159 468.493 157.159V153.577H468.469ZM380.065 161.606C378.502 159.947 375.593 154.106 374.102 153.746C369.15 154.467 365.615 156.438 366.409 161.991L363.884 158.553L339.409 166.846L334.023 161.991C332.605 169.274 339.313 169.635 341.02 172.375C342.582 174.875 347.295 192.543 348.112 196.485C349.435 203.023 349.459 211.004 350.901 217.734C348.04 218.72 346.886 218.407 346.069 221.893C350.3 222.278 356.96 236.219 356.864 239.344C352.608 240.57 351.502 241.099 352.031 245.979L347.824 243.575C345.54 245.282 349.555 246.868 350.228 248.383C351.094 250.354 350.444 253.431 351.045 254.176C351.406 254.608 356.263 255.33 357.705 257.084C360.374 260.353 357.946 263.238 365.856 265.161C366.89 264.127 365.495 259.825 364.99 258.815C364.149 257.132 359.533 256.195 362.826 254.969C365.255 254.056 371.674 253.959 374.319 254.32C377.108 254.705 379.103 257.108 381.147 256.628C386.003 255.45 395.212 249.104 399.467 246.003L400.044 250.786C408.724 252.157 405.598 248.551 407.546 243.287C408.291 241.291 413.46 237.734 407.858 236.388L406.031 243.575C398.986 246.436 395.644 237.397 393.24 236.556C388.263 234.825 381.796 238.263 376.699 237.518C372.9 236.965 369.558 232.662 365.207 232.734C365.423 230.883 366.986 230.883 368.308 230.45C373.165 228.936 395.043 227.229 396.221 223.576C398.385 216.941 395.067 212.35 395.091 206.941C395.091 202.086 399.131 198.552 392.759 196.124C396.75 191.269 393 191.197 392.23 188.264C391.581 185.74 392.206 181.942 390.283 178.865L383.19 179.923C382.613 179.442 387.734 172.952 387.71 171.173C387.686 166.75 383.118 166.293 382.854 162.255C382.229 161.654 380.474 162.039 380.017 161.558L380.065 161.606ZM287.14 165.572C288.054 163.866 284.736 155.741 284.159 155.981C280.889 158.433 283.053 161.678 283.534 164.779L287.14 165.572ZM395.476 164.154C394.322 162.135 396.606 157.928 393.433 156.005L389.225 167.976L395.212 165.596C393.096 169.923 395.837 187.351 401.607 185.86C408.243 181.99 403.675 172.135 400.044 167.351C398.722 165.62 395.717 164.587 395.452 164.154H395.476ZM300.388 157.183L297.96 163.745L304.571 167.952C307.673 163.745 305.653 158.457 300.388 157.159V157.183ZM504.485 165.572L491.286 157.183C489.05 159.322 502.225 166.245 504.485 165.572ZM409.613 205.187L410.31 193.144C398.313 187.591 399.491 205.042 409.613 205.187ZM347.175 206.364C345.059 204.153 341.789 214.201 342.39 214.754L347.872 213.624L347.175 206.364ZM410.527 221.653C415.047 217.278 413.268 206.389 406.728 207.494C402.28 208.239 406.536 218.359 406.199 221.196L407.81 223.167C408.483 222.326 409.806 222.374 410.527 221.677V221.653ZM342.39 239.969C339.313 236.292 336.043 230.691 330.393 231.58C329.72 234.777 331.21 233.647 332.749 234.561C335.851 236.388 339.144 238.719 342.39 239.969ZM373.597 269.969C371.41 271.843 380.426 276.747 381.387 277.204C382.71 277.829 383.791 278.935 384.393 276.555C385.979 270.305 378.093 269.848 373.597 269.969ZM329.984 311.169C328.902 310.352 324.07 308.044 324.334 311.41C324.623 314.967 327.364 317.924 329.768 320.352C333.711 318.188 333.158 313.597 329.984 311.169Z" fill="#F42E0A" fill-opacity="0.7"/>
<path d="M17.9358 303.766C25.3409 308.838 31.9285 308.429 41.7619 309.415C44.7192 309.703 50.0085 306.843 50.6096 313.165H42.2188L43.2766 319.679C42.916 321.145 41.4975 321.121 40.3915 321.554C35.1502 323.621 18.5609 324.27 13.1032 322.443C10.8673 321.698 -1.68295 313.862 0.168323 311.987L12.1656 310.761L10.9875 302.372C12.983 301.699 13.6081 303.79 14.5698 304.03C15.8441 304.343 17.3588 303.405 17.9117 303.79L17.9358 303.766Z" fill="#F42E0A" fill-opacity="0.7"/>
<path d="M539.299 281.963C551.392 283.069 556.946 293.574 568.005 297.66C566.419 300.424 567.861 301.29 569.304 303.549C566.707 303.597 563.101 303.165 560.937 301.723C559.182 300.545 558.821 298.141 558.244 297.828C556.802 297.011 554.061 298.141 552.402 297.035C551.2 296.242 551.801 293.67 550.502 292.66C541.583 285.737 520.93 293.598 510.472 295.16C509.895 291.699 511.217 293.189 513.236 292.612C517.612 291.362 522.709 290.497 527.277 290.377C527.325 284.127 517.949 289.968 515.809 290.329C512.443 290.881 508.452 289.68 505.302 290.617C502.441 291.482 500.422 297.276 494.868 295.16C492.392 293.069 503.115 288.646 504.124 288.237C510.087 285.81 520.065 282.036 526.075 283.165L526.724 279.488C529.994 279.704 537.327 278.887 539.275 281.963C536.846 281.747 533.096 281.603 530.884 282.564L540.477 285.569C539.779 284.584 539.635 282.54 539.275 281.987L539.299 281.963Z" fill="#F42E0A" fill-opacity="0.7"/>
<path d="M354.387 337.178L335.057 337.875L323.18 344.341C331.018 331.986 341.981 332.467 354.387 337.178Z" fill="#F42E0A" fill-opacity="0.7"/>
<path d="M577.719 262.781L571.251 266.435C565.986 265.858 561.298 264.512 557.307 260.978L561.466 257.974C566.996 260.522 571.083 264.055 577.695 262.781H577.719Z" fill="#F42E0A" fill-opacity="0.7"/>
<path d="M602.939 261.555C599.165 259.849 579.113 257.733 578.945 254.969C578.801 252.637 582.527 253.887 583.513 253.959C589.956 254.512 599.309 255.666 602.939 261.555Z" fill="#F42E0A" fill-opacity="0.7"/>
<path d="M543.746 92.0408C543.097 92.81 541.366 93.0744 540.501 94.1321C538.866 96.1512 538.097 102.377 534.514 100.19C535.332 97.5214 553.965 73.1711 556.104 75.5749C554.734 80.5026 549.204 83.6996 545.958 87.6418C544.925 88.9158 544.78 90.7427 543.746 92.0167V92.0408Z" fill="#F42E0A" fill-opacity="0.7"/>
<path d="M543.698 227.566C543.242 227.926 539.804 229.705 538.649 230.33C536.991 231.244 537.76 232.229 535.692 229.753C535.235 227.398 540.26 220.355 542.496 219.754C547.834 218.335 546.896 224.874 543.674 227.566H543.698Z" fill="#F42E0A" fill-opacity="0.7"/>
<path d="M185.08 339.558C179.478 337.875 171.111 339.51 167.072 334.774C172.65 335.471 183.565 332.058 185.08 339.558Z" fill="#F42E0A" fill-opacity="0.7"/>
<path d="M318.54 353.764C319.814 354.558 322.699 353.716 324.358 353.957C324.502 355.928 319.141 356.216 318.348 355.832C314.934 354.077 316.328 345.736 306.663 347.635C303.153 348.332 304.932 344.366 309.139 344.726C316.809 345.351 317.194 352.947 318.516 353.764H318.54Z" fill="#F42E0A" fill-opacity="0.7"/>
<path d="M576.541 106.776C579.185 100.838 582.239 94.1079 587.312 89.9734C587.239 96.6799 581.373 102.593 576.541 106.776Z" fill="#F42E0A" fill-opacity="0.7"/>
<path d="M230.713 347.971L227.731 345.592L222.346 350.375C223.139 342.995 230.857 336.818 230.737 347.971H230.713Z" fill="#F42E0A" fill-opacity="0.7"/>
<path d="M272.739 349.149L259.54 351.553C261.583 348.188 270.575 344.293 272.739 349.149Z" fill="#F42E0A" fill-opacity="0.7"/>
<path d="M592.12 151.198C588.899 154.779 581.133 154.371 576.517 155.981C579.955 151.847 587.192 151.03 592.12 151.198Z" fill="#F42E0A" fill-opacity="0.7"/>
<path d="M245.114 344.342L237.925 347.947C236.459 346.505 244.128 335.424 245.114 344.342Z" fill="#F42E0A" fill-opacity="0.7"/>
<path d="M155.075 206.364C151.661 208.913 147.862 201.268 152.093 200.379C155.027 199.778 156.878 205.018 155.075 206.364Z" fill="#F42E0A" fill-opacity="0.7"/>
<path d="M554.902 259.176C555.72 263.262 547.473 261.603 545.309 262.757C544.708 258.19 552.21 259.344 554.902 259.176Z" fill="#F42E0A" fill-opacity="0.7"/>
<path d="M206.694 237.565C206.309 237.013 211.046 226.364 211.743 225.234C216.792 217.181 237.805 222.133 233.429 232.445C229.053 242.758 215.157 239.176 206.694 237.565Z" fill="#F42E0A" fill-opacity="0.7"/>
<path d="M251.149 220.787L243.96 229.777C247.254 234.609 249.97 227.037 253.529 228.575C249.946 231.292 243.335 242.157 237.853 238.263L236.675 233.503L239.127 231.628C235.04 231.724 236.362 225.114 234.439 222.133C240.209 219.561 245.426 218.143 251.149 220.811V220.787Z" fill="#F42E0A" fill-opacity="0.7"/>
<path d="M269.06 244.873L269.205 247.061L270.936 247.181C275.937 240.426 275.816 247.253 272.715 251.964C269.181 248.863 263.483 250.714 261.343 254.368C258.53 259.152 262.713 274.704 249.923 273.55L254.731 266.964C250.235 264.416 249.442 270.882 246.34 272.372C243.143 267.036 259.467 258.43 259.467 257.373L257.111 253.791L269.06 244.849V244.873Z" fill="#F42E0A" fill-opacity="0.7"/>
<path d="M308.779 303.573C309.5 296.771 303.201 293.069 305.172 285.569C306.759 287.588 309.981 292.732 310.822 294.896C311.423 296.386 312.553 300.28 312.217 301.578L308.755 303.549L308.779 303.573Z" fill="#F42E0A" fill-opacity="0.7"/>
<path d="M347.174 284.367C343.736 284.944 338.88 275.016 339.986 273.574C344.386 275.185 347.703 279.488 347.174 284.367Z" fill="#F42E0A" fill-opacity="0.7"/>
<path d="M316.785 252.373C317.554 253.022 320.295 257.301 319.574 257.974C314.741 258.094 311.447 255.93 312.385 250.786C314.068 250.57 315.583 251.339 316.785 252.373Z" fill="#F42E0A" fill-opacity="0.7"/>
<path d="M368.789 238.767C364.605 240.378 359.773 240.979 359.196 235.186C362.562 236.003 367.346 234.561 368.789 238.767Z" fill="#F42E0A" fill-opacity="0.7"/>
</g>
<defs>
<clipPath id="clip0_210_5582">
<rect width="705" height="356" fill="white"/>
</clipPath>
</defs>
</svg>
