<svg width="778" height="544" viewBox="0 0 778 544" fill="none" xmlns="http://www.w3.org/2000/svg">
<g clip-path="url(#clip0_210_5637)">
<path d="M157.662 330.491C157.411 329.236 157.801 327.94 157.785 326.715L151.779 327.109L147.456 317.288C151.516 316.849 154.141 324.269 156.519 324.585C160.565 325.104 157.881 321.592 159.843 321.104L160.088 326.024C173.352 321.874 189.949 320.137 198.455 307.651L191.718 310.297L190.345 305.715C188.141 306.401 190.028 310.603 190.838 311.715L175.503 318.921C174.272 316.404 175.098 313.797 177.21 312.136C177.673 312.424 177.657 317.146 179.972 315.072C182.976 312.365 177.161 307.282 181.939 306.979L184.809 312.368L182.746 305.483L188.38 307.533C187.481 304.616 188.601 296.376 192.78 297.758C193.39 297.952 193.168 300.98 195.867 299.016L194.494 294.434L196.905 296.196C198.909 294.592 200.906 279.062 205.865 288.492C214.036 275.052 209.003 278.693 200.043 276.435C195.265 275.232 188.502 274.021 183.715 272.369C176.414 269.865 177.986 265.228 172.94 260.116C175.637 253.536 174.147 253.255 170.483 247.728C189.33 244.79 197.31 269.575 217.35 267.183C229.641 265.733 225.281 260.064 228.317 258.05C230.18 256.814 232.612 257.892 234.219 257.31C234.634 257.185 240.477 254.155 241.606 253.565C243.299 252.682 249.33 243.998 251.092 244.851C252.528 247.883 249.363 249.133 248.328 251.124C247.981 251.806 248.89 253.415 248.567 254.014C246.816 257.299 237.317 257.009 241.306 266.553C250.895 262.199 248.887 254.495 253.509 246.636C256.493 248.552 251.145 256.503 253.729 257.837C259.264 260.645 257.892 243.34 258.298 241.512C259.685 235.249 278.268 237.459 271.785 226.128L276.391 224.747C275.434 222.223 271.52 224.074 271.094 223.825C270.429 223.447 269.577 211.306 269.108 208.737C268.165 203.498 267.702 199.271 266.879 194.097C264.129 177.13 259.368 160.238 261.269 142.88C265.948 150.788 265.076 160.61 267.231 169.224C269.386 177.838 282.092 219.4 287.682 222.643C291.479 224.843 301.147 221.594 304.911 219.412L301.832 213.409L307.85 210.376C310.697 202.873 296.126 178.708 292.714 170.42L274.509 120.142C282.022 128.882 283.86 141.882 292.023 150.276C294.198 152.51 297.231 152.078 297.595 152.872C298.264 154.353 297.326 157.42 298.338 159.876C299.71 163.28 306.677 174.216 309.25 177.359C311.156 179.699 324.425 192.485 326.244 193.195C329.603 194.522 337.511 194.611 340.855 192.957C343.323 196.584 335.132 196.554 335.147 199.034L336.009 201.912L338.649 200.167L342.565 204.941C347.103 200.068 349.319 197.497 356.062 195.877C360.576 194.776 375.728 191.063 373.724 198.113L380.978 197.194C380.455 191.93 374.034 193.704 371.339 190.07C383.106 189.555 386.142 196.248 395.582 185.289C409.218 169.484 417.193 135.124 419.962 114.545L422.185 92.1476L424.605 112.702C427.499 114.319 429.666 100.696 431.295 99.4301C435.423 106.424 432.178 109.078 430.711 115.489C428.285 126.154 425.549 137.714 426.186 148.715C426.731 157.987 429.77 167.039 429.322 176.433L424.448 179.098C424.09 177.147 426.848 176.722 426.934 174.915C427.034 172.4 425.003 153.561 424.103 152.903C418.539 165.661 418.946 180.671 415.229 193.981L420.181 197.691C432.617 191.279 448.312 199.6 462.28 196.543C461.463 194.906 459.515 194.938 457.969 194.723C445.118 193.129 429.129 194.382 418.129 187.24L438.782 189.156C441.463 188.804 452.196 190.029 450.109 185.159L442.532 184.92C446.192 182.644 452.336 184.216 455.323 183.546C462.262 181.994 471.709 173.316 476.473 168.024C479.048 165.144 485.346 154.75 486.951 153.491C487.971 152.708 490.414 153.407 490.594 153.001L489.552 149.524C492.106 150.842 494.658 147.467 495.106 145.275C496.414 139.087 497.003 138.709 498.894 132.873C501.088 126.042 499.977 117.894 504.591 111.768C509.455 110.913 512.485 113.317 517.75 109.782C519.581 116.059 513.193 117.522 510.08 121.541C499.768 134.87 502.309 139.077 498.021 152.658C494.971 162.33 489.579 173.23 485.585 182.683C485.091 183.885 486.42 185.218 486.277 185.412C485.744 186.149 479.19 188.815 484.299 190.622C487.189 191.638 499.805 186.251 503.815 186.731C519.206 181.641 523.702 166.241 534.156 156.233L527.747 174.464C525.793 177.911 524.033 181.5 522.079 184.946C521.258 186.396 517.714 187.383 520.85 189.053C534.314 183.814 546.517 177.798 557.442 168.276C562.577 163.801 567.163 160.093 569.044 153.306L570.953 155.318C577.613 152.921 577.718 144.308 584.683 144.855C584.353 146.936 577.388 152.587 577.362 153.925C577.336 155.262 577.934 157.593 579.945 156.262L586.087 149.453L583.743 154.447C573.676 163.988 564.817 178.061 554.251 186.773C550.646 189.735 547.366 190.517 544.031 192.872C542.663 193.834 540.214 195.797 541.674 197.819C556.122 196.199 556.768 205.893 571.231 196.866C581.188 190.645 593.737 173.559 593.741 162.768L597.001 152.456C598.911 168.044 590.408 179.952 582.684 192.455L586.626 193.131C582.582 194.292 570.666 204.614 579.412 205.656C582.429 206.007 584.396 204.615 586.811 204.468C607.063 203.368 631.732 192.386 647.644 179.236C650.743 176.677 655.27 169.423 656.65 168.583C659.154 167.054 663.609 168.354 666.458 166.722C667.901 169.276 666.534 168.732 665.727 169.727C659.141 177.899 649.503 186.358 641.457 193.261C637.386 196.765 631.256 197.498 630.554 203.781L628.735 201.816C623.552 208.138 614.947 210.415 608.012 214.325L619.88 218.247L622.619 221.19L628.225 210.752C631.146 215.724 626.51 217.841 628.392 221.944C632.44 223.391 644.148 226.783 647.056 223.252C647.68 222.488 646.981 220.489 648.151 219.787C650.026 218.673 652.213 218.77 654.798 216.841C659.181 213.545 661.068 206.104 666.086 203.17L658.21 218.68L664.8 219.816C661.995 222.012 653.051 219.222 651.818 222.477C650.106 226.98 663.201 223.357 665.131 223.431C665.478 217.806 668.642 217.561 670.912 212.991L672.912 214.976C676.954 213.89 680.917 209.943 684.73 208.85C687.531 208.061 690.708 209.367 692.825 208.306C694.942 207.245 696.212 204.029 698.174 202.788C703.504 199.384 712.525 197.409 715.67 190.82L717.489 192.784C721.877 190.089 722.862 179.305 728.95 178.685C721.584 191.959 713.915 205.148 700.837 213.684C694.938 217.535 685.131 222.833 678.393 223.296C683.751 230.624 689.572 224.839 695.229 223.194C700.447 221.681 707.248 220.922 711.582 219.473C716.423 217.872 722.087 213.74 727.126 212.38C728.43 212.04 729.036 211.382 729.229 213.03C720.943 219.302 711.117 225.961 700.889 228.6C697.861 229.382 694.135 228.842 690.934 229.55C669.917 234.293 648.852 237.62 628.722 245.659C626.366 241.146 635.703 243.492 635.387 238.669C632.577 239.761 631.167 240.585 629.501 237.873L627.212 238.609L625.96 242.723C622.356 242.925 622.221 239.879 620.423 238.736C614.416 234.94 612.141 240.164 607.054 240.359C604.298 240.457 598.396 238.687 596.509 236.493L593.908 238.2C595.652 242.345 592.554 245.407 590.78 248.95C587.212 251.951 582.992 246.415 580.278 245.146C576.633 243.453 568.853 241.443 566.048 239.373C562.441 236.715 559.614 227.951 556.141 227.335C552.987 226.775 556.193 231.611 554.889 231.45C551.507 230.631 548.082 226.739 545.524 225.574C544.623 225.166 535.634 221.887 535.075 221.779C530.257 220.864 525.284 226.043 517.96 223.044C515.383 221.984 513.457 218.822 510.479 218.937C508.674 219.026 507.637 220.591 506.727 220.739C505.894 220.888 505.459 219.186 504.466 219.057C499.693 218.455 492.276 223.689 485.579 224.04C475.622 224.565 462.194 218.451 453.217 214.29L451.678 215.354L462.131 221.004C462.57 221.801 461.168 222.146 460.592 222.067C456.44 221.53 446.428 213.916 441.258 213.583C437.857 213.373 430.909 215.48 426.446 215.663C408.684 216.444 390.404 215.498 373.428 221.915C374.079 225.008 373.839 223.875 375.832 223.654C383.661 222.813 391.881 220.175 399.455 219.235C409.832 217.932 419.12 218.185 429.477 218.995C431.891 219.176 437.102 217.639 438.341 218.673C443.631 229.961 454.134 237.955 460.735 248.675C485.161 288.305 482.415 338.187 457.183 376.439C455.492 379.003 449.719 384.196 448.247 386.569C446.431 389.472 444.999 395.999 443.089 399.006C441.739 401.117 434.109 408.573 433.906 409.236C433.399 410.893 434.946 413.542 434.704 413.991C434.469 414.463 430.035 415.164 428.513 415.946C407.137 427.195 391.935 436.017 367.196 441.825C360.982 443.285 335.583 447.81 330.584 447.125C326.971 446.627 326.559 444.668 324.549 443.99C314.8 440.689 303.535 438.694 293.038 434.488C284.337 430.997 273.789 428.211 267.224 421.546C256.897 411.04 249.335 401.637 240.227 389.335C237.824 386.091 224.826 369.685 223.986 367.553C222.523 363.926 223.275 352.283 215.927 353.055L215.416 351.351C215.288 350.335 217.381 350.536 217.319 349.325C217.04 343.788 214.383 336.679 212.033 331.687L215.81 331.81C213.051 324.029 215.804 316.881 216 309.244C216.039 307.701 214.324 306.333 214.55 304.659C214.733 303.425 221.249 284.885 221.885 283.992C223.371 281.916 226.577 281.557 227.49 278.824C224.697 276.625 221.75 276.755 218.739 278.436C219.592 283.374 217.925 288.366 216.068 292.887C213.929 298.146 204.218 310.215 203.669 312.487C203.005 315.296 204.62 319.178 204.605 322.395C204.549 331.671 199.209 336.885 190.154 338.244L197.866 339.019C196.619 342.229 198.727 346.666 197.853 349.613C196.979 352.56 192.578 353.703 192.655 357.394C192.757 364.013 195.782 366.821 198.958 371.892L194.03 372.114C197.447 377.237 196.692 378.317 194.951 383.732L200.17 388.416L197.406 391.754L202.536 392.124C204.598 395.571 199.901 393.968 201.411 396.828C201.922 397.779 203.129 396.614 203.614 397.146C205.014 398.634 204.886 401.307 207.362 401.945L213.766 396.262C217.811 405.74 219.254 412.735 228.079 418.898C232.525 422.008 237.772 422.769 242 425.316C243.59 426.27 249.467 432.564 249.969 432.815C251.109 433.352 253.638 431.239 255.46 431.621C255.89 431.718 261.745 436.011 262.785 436.803C271.232 443.13 264.048 442.272 264.491 444.423C265.855 451.065 270.936 448.338 274.625 448.839C276.193 449.046 281.562 452.055 283.434 453.025C276.386 456.391 269.595 454.838 262.148 455.865C252.669 457.15 241.675 458.738 232.918 461.764C230.143 462.721 227.279 460.618 225.9 465.9L232.835 468.188C224.748 474.702 214.234 467.087 204.662 470.408C207.65 473.427 212.746 473.932 216.728 473.065C217.494 474.366 215.979 474.921 215.018 475.485C207.399 479.876 196.276 479.696 187.664 480.52C190.421 484.612 183.901 486.893 180.467 487.746C176.075 488.836 170.206 487.258 166.657 488.146C161.943 489.333 157.193 492.914 151.04 493.905C147.203 494.503 142.906 493.231 139 493.849C137.549 488.086 142.515 491.089 146.205 490.335C149.894 489.581 153.008 487.995 156.456 487.439C159.468 486.937 167.28 490.644 167.269 483.571C165.409 479.962 161.454 478.739 158.689 476.13C154.253 471.963 148.989 464.532 144.734 460.889C137.248 454.5 122.277 449.601 117.082 440.644C115.775 438.375 115.663 435.573 114.28 433.303C113.085 431.327 106.69 427.321 106.278 425.362L110.483 411.756L99.8381 409.149L116.62 406.604C112.89 403.205 117.757 399.513 116.976 395.23L119.452 395.116L120.737 401.581C122.172 398.918 121.991 396.136 123.226 393.307C124.395 390.673 128.717 385.664 128.853 385.197C128.98 384.782 125.838 379.827 127.766 376.965C129.973 376.455 129.555 380.419 131.189 382.188C135.731 387.125 142.582 378.749 139.252 373.498L143.949 374.6C147.093 372.026 150.812 353.698 150.673 348.796L154.9 358.796L156.291 350.876L158.702 352.638C159.676 351.869 161.636 346.012 161.627 344.559C161.564 334.466 153.552 340.229 147.074 336.7L157.68 330.385C157.839 331.165 158.166 331.921 158.37 332.687L178.268 327.979L157.687 330.408L157.662 330.491ZM510.354 114.583C506.116 112.164 502.751 124.891 503.573 125.373C505.506 124.869 511.112 114.933 510.354 114.583ZM322.623 203.389C319.629 195.328 315.126 193.616 308.265 188.897L316.765 208.884C319.981 204.457 314.925 202.66 322.616 203.366C323.044 204.543 320.817 205.235 324.486 207.85C328.916 210.989 333.361 209.657 337.821 211.306C339.769 212.028 341.092 214.768 343.515 214.644C341.44 207.135 333.248 210.117 329.488 208.459C327.266 207.493 325.626 203.443 324.705 202.966C323.873 202.538 323.033 203.417 322.593 203.373L322.623 203.389ZM494.807 150.56L480.815 169.533L465.229 185.697C483.537 184.476 491.997 166.559 494.807 150.56ZM320.308 216.605C317.786 219.745 314.682 216.76 311.681 218.136C307.685 219.961 302.863 227.655 299.882 230.104C296.362 233.015 290.759 235.924 286.119 234.429C283.612 233.599 282.929 230.818 280.764 230.965C280.655 234.034 282.225 241.619 286.061 241.774C287.125 241.806 295.838 237.966 296.858 237.183C298.422 236.037 297.596 233.95 297.993 233.43C298.564 232.657 301.389 233.793 303.022 232.877C304.501 232.032 308.972 221.909 313.339 220.4C314.815 219.882 319.049 221.951 321.336 220.036L320.301 216.582L320.308 216.605ZM277.038 236.121C276.771 235.9 274.314 235.909 273.423 235.699L274.221 240.454L269.162 238.231C271.895 240.147 269.751 246.059 267.218 246.317C262.891 246.785 266.758 237.496 262.276 240.294L261.458 254.316C265.435 247.905 274.11 246.284 281.105 244.664C279.917 242.963 278.026 236.904 277.038 236.121ZM199.431 269.115C197.551 265.94 194.22 261.944 190.827 265.445C189.956 267.312 197.321 271.203 199.431 269.115ZM411.989 200.422C406.634 203.156 407.7 205.873 400.947 207.546C391.726 209.857 380.313 204.018 376.583 216.026L387.047 209.152C386.404 217.475 392.515 211.151 396.628 209.969C398.823 209.336 401.213 210.025 403.791 209.077C406.868 207.954 410.821 203.558 411.989 200.422ZM566.122 166.754C568.347 166.639 575.783 158.538 573.248 157.115C571.007 159.267 565.101 162.844 566.122 166.754ZM560.364 168.479C553.046 175.214 545.91 180.464 537.268 185.463C535.511 186.467 533.383 185.147 535.059 188.559C544.849 184.546 556.002 178.795 560.357 168.456L560.364 168.479ZM315.698 255.577C313.204 257.052 311.563 253.755 309.449 253.987C308.014 254.141 307.058 256.059 304.571 255.8C302.736 255.622 294.569 250.566 293.408 252.219C295.166 255.908 289.727 261.127 290.53 263.722C291.248 266.116 300.737 268.969 298.949 276.907C291.277 282.042 290.949 270.397 285.112 268.507L279.652 277.17L284.402 284.981C280.627 287.292 280.679 283.863 277.632 283.246L280.394 287.939L278.355 289.93L283.707 295.227C274.659 298.365 268.207 303.636 259.17 296.934L260.767 293.971L257.026 291.955L257.83 296.733C255.245 299.666 250.813 292.412 248.757 295.688C247.165 298.248 259.676 300.295 260.931 300.798C266.79 303.182 272.998 306.893 272.857 313.961C272.777 317.549 264.632 318.007 261.636 319.482C255.311 322.582 249.587 327.685 242.767 330.055L244.947 333.141C230.23 338.304 250.763 342.163 248.735 345.782L239.814 347.251C235.138 349.405 247.99 363.145 252.531 358.447C252.459 360.049 251.374 360.951 251.629 362.807C251.714 363.509 254.359 372.754 254.626 373.226C255.889 375.432 259.749 374.828 260.962 375.945C262.175 377.062 261.373 379.41 262.056 380.937C264.604 386.673 268.238 384.73 271.236 387.195C274.477 389.887 276.971 397.622 282.792 392.59C280.478 390.899 276.783 386.109 276.568 383.464C276.384 381.26 279.243 372.374 282.889 376.249L280.061 383.396L284.01 384.094C284.047 385.89 278.235 389.865 283.394 389.072C288.242 386.239 291.095 382.021 292.98 376.839L289.152 372.691L282.409 374.562C288.015 371.828 291.833 370.081 295.069 364.544C304.433 368.488 298.362 381.65 292.965 386.505C290.791 388.461 287.143 389.103 286.103 391.497C285.35 393.254 283.901 408.016 288.145 407.773L297.247 405.146C299.116 406.694 297.57 409.993 298.992 412.478C299.259 412.95 306.262 419.985 306.803 419.949C313.939 419.391 309.876 410.772 314.579 408.71L317.579 410.345L320.926 406.858C322.569 410.581 320.458 413.673 319.064 416.977C325.342 423.602 322.656 417.155 323.786 415.06C324.134 414.379 325.932 414.266 326.301 413.654C327.561 411.494 326.36 408.241 330.367 409.048C325.022 402.017 329.51 402.504 330.619 398.081C331.018 396.481 331.765 389.507 331.993 387.255C332.419 382.812 329.291 375.894 334.883 373.867C335.312 385.684 340.803 397.137 341.676 409.347C336.46 408.777 338.97 423.433 339.696 427.532C342.961 421.258 345.821 409.611 344.722 402.763C344.109 398.957 341.68 396.297 341.265 393.235C340.782 389.615 343.308 385.646 343.5 382.854C343.847 377.982 340.099 374.186 344.31 369.813C353.412 379.833 351.998 393.205 350.603 405.468C355.575 404.304 350.107 395.102 355.887 393.871C355.284 401.405 363.962 403.647 366.132 408.041C367.757 411.368 365.657 418.597 370.826 420.687C372.97 418.463 370.622 415.905 370.821 414.139C371.031 412.244 373.314 404.785 373.478 403.405C373.542 402.784 370.716 398.963 371.799 396.631C373.715 396.659 377.054 401.857 377.554 403.188C378.292 405.15 376.245 405.186 376.162 405.662C375.342 411.303 378.62 410.848 380.977 406.403L383.73 415.59C385.15 412.455 387.817 405.106 388.101 402.034C388.505 398.024 385.551 384.731 384.198 380.72C383.333 378.168 380.363 377.051 380.081 374.099C383.748 372.097 386.176 375.761 389.492 376.273L377.782 362.241C390.878 361.553 402.2 371.611 407.523 383.09C409.571 387.495 410.048 393.274 412.566 396.986C414.073 399.169 421.917 404.322 424.598 403.468C424.989 403.351 431.261 399.74 431.522 399.436C433.365 397.127 426.751 390.803 426.204 387.805L421.036 389.404L414.71 376.921L417.888 375.216L416.329 369.51C418.505 368.481 421.358 370.211 422.179 372.198L420.807 384.454L425.253 380.612L430.248 386.643C432.305 386.303 430.33 382.227 429.831 381.147C428.406 377.986 426.332 376.173 424.947 373.226C430.589 372.79 435.609 380.746 439.927 373.128C436.025 369.153 431.861 364.554 428.057 371.039C427.725 369.934 427.231 368.702 426.365 367.907C419.371 361.572 411.821 358.991 405.224 351.633C404.202 350.484 403.811 348.594 403.3 347.141C396.451 348.491 407.76 361.689 403.758 363.24C402.187 363.861 399.436 360.796 399.183 360.872C397.647 361.357 397.084 363.332 394.332 363.028C389.163 362.444 387.016 357.04 384.468 354.315C383.245 353 377.413 352.214 378.936 349.424C380.459 346.633 390.747 354.667 393.419 353.866C396.657 353.699 393.863 349.066 392.88 347.629C391.51 345.655 385.014 344.917 382.389 343.947C379.99 343.06 377.925 341.445 375.607 340.409C372.558 340.62 374.345 345.078 373.891 345.741L369.651 347.338L370.442 350.564L365.947 352.061C364.491 354.405 377.089 361.771 370.565 363.199C368.82 360.56 367.52 356.809 364.877 354.942C361.541 352.604 357.707 354.129 355.137 353.344C353.306 352.763 352.101 350.163 350.277 349.857C349.588 349.737 337.298 351.688 336.657 351.981C335.331 352.579 336.821 356.8 333.521 356.76L331.318 349.24L319.868 350.814L319.365 359.773C316.528 359.519 313.382 360.16 312.218 356.946L309.686 358.884L310.438 362.9C318.647 365.584 314.684 365.341 315.221 369.396C316.124 376.177 318.995 377.55 309.61 381.492L310.633 372.427L306.593 373.688L303.635 365.741L307.756 367.016L305.386 361.452L313.568 349.39C313.74 345.022 310.194 349.02 309.958 345.051C319.507 343.243 308.457 333.004 304.238 333.164C301.306 333.265 296.478 337.422 292.03 335.392C298.581 344.019 282.331 347.082 276.037 348.943L278.901 341.836C269.62 345.12 253.182 346.131 253.898 332.692C254.16 327.871 271.474 318.642 275.854 317.931C276.787 317.777 288.404 319.44 290.294 319.802C295.194 320.743 297.15 325.426 303.443 319.375L298.454 310.933L301.909 309.898L300.873 306.444L291.2 311.852L295.221 316.895L277.911 315.834C277.39 311.75 272.372 305.223 275.77 302.072C276.967 300.96 282.914 298.275 284.655 298.054C289.093 297.452 303.536 304.943 304.79 302.761L297.621 295.423L298.698 290.81L294.092 292.19L292.367 286.433L289.618 289.741C282.297 272.513 305.985 280.872 307.442 290.674L310.874 289.645C310.534 279.132 299.121 274.548 298.024 263.433C302.73 265.235 306.63 262.837 311.218 265.753C312.036 263.876 304.136 261.551 308.924 260.192L315.974 264.955L311.736 267.48C313.897 270.17 317.776 267.702 319.659 268.794C322.155 270.254 321.785 274.882 325.635 274.08C329.486 273.277 330.642 265.829 334.033 262.153C346.591 248.527 342.331 266.391 350.585 264.871C351.32 264.726 363.803 259.731 364.358 259.238C367.111 256.782 371.051 248.575 368.849 244.743C375.306 246.02 370.202 253.196 372.637 257.384C375.674 259.31 376.888 245.27 376.103 243.824L378.511 251.86C381.791 251.58 382.621 247.065 384.266 245.769C386.293 244.158 388.941 245.874 391.441 240.984C395.93 232.261 384.606 228.98 377.949 233.233L382.432 235.629L377.653 238.19L372.452 233.651C369.911 237.147 369.21 239.917 371.168 244.023L367.953 237.483C366.204 236.502 358.315 246.946 357.582 248.772C355.761 253.333 357.977 265.918 347.952 261.695L343.104 242.421C336.076 243.423 341.769 253.209 335.885 255.851L331.059 246.03L326.787 261.087L319.602 254.784L317.501 248.864C313.828 249.588 314.826 253.003 315.765 255.632L315.698 255.577ZM217.022 277.645L212.415 279.026C217.976 288.953 206.93 297.909 204.355 306.485C210.288 305.761 219.241 278.687 217.022 277.645ZM471.088 201.733C469.845 201.603 465.024 205.783 466.849 207.771C471.91 204.724 475.549 207.824 480.528 207.436C477.978 204.034 475.643 204.031 472.209 203.128C471.636 202.974 471.277 201.776 471.095 201.756L471.088 201.733ZM518.131 194.887L529.434 190.897C527.298 189.129 526.137 190.029 523.947 190.76C522.993 191.096 517.698 193.36 518.131 194.887ZM465.779 213.412C464.777 213.084 463.996 213.745 463.047 213.929C459.143 215.726 472.09 221.156 472.918 219.729C471.539 218.561 466.787 213.762 465.756 213.418L465.779 213.412ZM414.855 243.402C418.208 243.452 418.69 234.926 417.631 233.737C416.05 231.978 410.242 232.113 407.957 232.948C409.174 237.677 414.823 237.515 414.855 243.402ZM492.839 215.014C488.748 217.193 484.419 215.228 480.293 215.863C478.71 216.111 478.25 214.994 477.397 217.759C483.012 223.68 486.981 220.508 493.89 218.438L492.862 215.007L492.839 215.014ZM410.46 248.082C408.487 246.942 404.023 242.182 402.492 242.264C397.954 244.377 395.135 247.28 397.489 252.371L394.084 249.803L373.019 264.773L366.467 261.668C367.199 269.052 373.728 267.472 376.149 269.607C378.364 271.553 387.95 287.124 389.865 290.666C393.008 296.549 395.322 304.187 398.636 310.22C396.178 311.985 394.983 312.017 395.201 315.591C399.365 314.745 409.746 326.188 410.551 329.209C406.827 331.605 405.919 332.429 407.827 336.951L403.106 335.857C401.408 338.147 405.71 338.514 406.789 339.772C408.184 341.411 408.446 344.545 409.235 345.086C409.705 345.397 414.564 344.694 416.45 345.961C419.945 348.326 418.447 351.786 426.576 351.358C427.269 350.071 424.698 346.349 423.925 345.527C422.636 344.157 417.945 344.584 420.748 342.464C422.812 340.892 428.934 338.957 431.57 338.543C434.352 338.111 436.954 339.841 438.774 338.794C443.088 336.271 450.087 327.549 453.273 323.357L455.199 327.774C463.906 326.595 459.877 324.038 460.231 318.436C460.373 316.311 464.303 311.419 458.55 311.738L458.863 319.147C452.937 323.91 447.141 316.211 444.596 316.095C439.332 315.866 434.123 321.016 429.027 321.765C425.23 322.326 420.793 319.163 416.645 320.482C416.321 318.647 417.818 318.198 418.961 317.404C423.178 314.559 443.646 306.644 443.726 302.806C443.894 295.829 439.398 292.384 437.868 287.196C436.474 282.545 439.329 278 432.529 277.504C434.958 271.707 431.345 272.714 429.766 270.126C428.419 267.894 427.928 264.077 425.202 261.682L418.712 264.731C418.021 264.436 421.064 256.749 420.53 255.052C419.237 250.822 414.73 251.696 413.318 247.903C412.546 247.507 410.975 248.379 410.4 248.05L410.46 248.082ZM322.585 278.557C322.97 276.66 317.46 269.83 316.976 270.226C314.548 273.513 317.552 276 318.903 278.833L322.585 278.557ZM425.954 246.099C424.269 244.496 425.249 239.811 421.657 238.88L421.063 251.555L426.115 247.556C425.33 252.309 432.958 268.216 438.058 265.132C443.303 259.519 436.098 251.39 431.247 247.85C429.484 246.572 426.308 246.444 425.931 246.106L425.954 246.099ZM332.867 266.718L332.424 273.701L339.965 275.833C341.729 270.913 338.276 266.427 332.86 266.695L332.867 266.718ZM530.782 216.165L515.73 211.918C514.202 214.609 528.81 217.458 530.782 216.165ZM451.275 281.346L448.486 269.61C435.399 267.735 441.538 284.114 451.275 281.346ZM391.802 300.399C389.141 298.887 388.893 309.451 389.628 309.808L394.554 307.152L391.802 300.399ZM456.877 296.857C459.951 291.369 455.121 281.448 449.174 284.385C445.127 286.376 452.108 294.848 452.6 297.662L454.709 299.087C455.112 298.088 456.393 297.755 456.884 296.88L456.877 296.857ZM396.866 333.962C392.863 331.323 388.123 326.896 382.966 329.37C383.239 332.626 384.342 331.116 386.078 331.549C389.574 332.409 393.398 333.697 396.866 333.962ZM435.372 353.74C433.814 356.165 443.858 358.274 444.911 358.435C446.357 358.654 447.711 359.403 447.603 356.951C447.329 350.508 439.644 352.335 435.372 353.74ZM405.422 405.727C404.151 405.255 398.859 404.431 400.078 407.579C401.376 410.904 404.85 412.95 407.85 414.585C411.006 411.381 409.159 407.142 405.422 405.727Z" fill="#2CC5F4" fill-opacity="0.8"/>
<path d="M104.382 488.214C112.931 490.946 119.124 488.664 128.827 486.785C131.742 486.212 135.988 481.954 138.378 487.837L130.341 490.246L133.224 496.182C133.3 497.69 131.934 498.075 130.999 498.807C126.571 502.291 110.867 507.675 105.114 507.492C102.758 507.42 88.4869 503.516 89.722 501.189L100.862 496.571L97.3256 488.873C99.0439 487.655 100.243 489.479 101.233 489.433C102.544 489.367 103.725 488.034 104.366 488.243L104.382 488.214Z" fill="#2CC5F4" fill-opacity="0.8"/>
<path d="M597.542 317.663C609.444 315.251 617.78 323.719 629.547 324.459C628.82 327.562 630.45 327.977 632.481 329.727C630.007 330.519 626.429 331.139 623.942 330.379C621.923 329.755 620.887 327.556 620.245 327.422C618.628 327.053 616.327 328.922 614.42 328.339C613.041 327.924 612.879 325.288 611.345 324.694C600.813 320.623 583.287 334.081 573.717 338.58C572.17 335.43 573.865 336.478 575.634 335.345C579.467 332.892 584.101 330.6 588.442 329.173C586.694 323.173 579.389 331.46 577.443 332.419C574.377 333.915 570.209 333.91 567.461 335.712C564.969 337.362 564.697 343.491 558.77 343.059C555.797 341.767 564.799 334.452 565.649 333.77C570.664 329.733 579.138 323.254 585.22 322.611L584.786 318.901C587.981 318.17 594.77 315.282 597.519 317.67C595.131 318.16 591.497 319.099 589.654 320.655L599.706 320.779C598.755 320.035 598.03 318.119 597.526 317.693L597.542 317.663Z" fill="#2CC5F4" fill-opacity="0.8"/>
<path d="M436.264 423.636L417.948 429.853L408.427 439.456C412.388 425.371 423.028 422.684 436.264 423.636Z" fill="#2CC5F4" fill-opacity="0.8"/>
<path d="M628.839 288.259L623.692 293.616C618.483 294.575 613.606 294.631 608.768 292.392L611.89 288.32C617.918 289.173 622.848 291.385 628.816 288.266L628.839 288.259Z" fill="#2CC5F4" fill-opacity="0.8"/>
<path d="M652.646 279.845C648.54 279.294 628.725 283.024 627.771 280.424C626.963 278.232 630.892 278.359 631.856 278.145C638.187 276.825 647.478 275.246 652.646 279.845Z" fill="#2CC5F4" fill-opacity="0.8"/>
<path d="M547.282 134.458C546.881 135.381 545.299 136.131 544.774 137.393C543.787 139.796 544.837 145.981 540.778 144.914C540.795 142.123 551.654 113.449 554.393 115.137C554.495 120.251 550.116 124.901 548.138 129.609C547.514 131.126 547.9 132.917 547.276 134.434L547.282 134.458Z" fill="#2CC5F4" fill-opacity="0.8"/>
<path d="M586.141 264.292C585.807 264.769 583.024 267.46 582.098 268.39C580.771 269.741 581.791 270.464 579.1 268.686C577.986 266.56 580.778 258.371 582.747 257.154C587.453 254.263 588.431 260.795 586.118 264.299L586.141 264.292Z" fill="#2CC5F4" fill-opacity="0.8"/>
<path d="M274.765 474.518C268.916 474.514 261.371 478.482 256.142 475.105C261.685 474.172 271.161 467.769 274.765 474.518Z" fill="#2CC5F4" fill-opacity="0.8"/>
<path d="M406.687 449.815C408.135 450.209 410.657 448.575 412.315 448.329C413.019 450.175 407.966 451.991 407.096 451.85C403.322 451.149 402.263 442.759 393.55 447.352C390.388 449.028 390.953 444.718 395.087 443.855C402.613 442.252 405.162 449.418 406.664 449.822L406.687 449.815Z" fill="#2CC5F4" fill-opacity="0.8"/>
<path d="M582.926 139.158C583.755 132.712 584.748 125.388 588.42 119.971C590.277 126.416 586.355 133.764 582.926 139.158Z" fill="#2CC5F4" fill-opacity="0.8"/>
<path d="M320.893 469.478L317.354 468.054L313.568 474.182C312.21 466.885 317.829 458.752 320.916 469.471L320.893 469.478Z" fill="#2CC5F4" fill-opacity="0.8"/>
<path d="M361.488 458.541L349.535 464.633C350.526 460.823 358.022 454.511 361.488 458.541Z" fill="#2CC5F4" fill-opacity="0.8"/>
<path d="M610.602 177.238C608.544 181.594 600.988 183.432 597.028 186.3C599.135 181.352 605.833 178.492 610.602 177.238Z" fill="#2CC5F4" fill-opacity="0.8"/>
<path d="M333.646 461.867L327.795 467.384C325.976 466.424 330.142 453.607 333.646 461.867Z" fill="#2CC5F4" fill-opacity="0.8"/>
<path d="M207.788 355.544C205.249 358.965 199.416 352.733 203.214 350.667C205.851 349.249 209.129 353.737 207.788 355.544Z" fill="#2CC5F4" fill-opacity="0.8"/>
<path d="M605.948 291.355C607.904 295.035 599.528 295.813 597.786 297.54C595.9 293.337 603.416 292.289 605.948 291.355Z" fill="#2CC5F4" fill-opacity="0.8"/>
<path d="M266.191 370.614C265.664 370.195 267.144 358.634 267.488 357.352C270.013 348.189 291.563 346.9 290.332 358.034C289.1 369.169 274.76 369.727 266.191 370.614Z" fill="#2CC5F4" fill-opacity="0.8"/>
<path d="M303.958 341.78L299.653 352.456C304.195 356.138 304.624 348.105 308.474 348.557C305.822 352.188 302.608 364.493 296.239 362.337L293.744 358.116L295.555 355.616C291.668 356.881 291.037 350.169 288.339 347.866C293.128 343.746 297.718 340.89 303.965 341.803L303.958 341.78Z" fill="#2CC5F4" fill-opacity="0.8"/>
<path d="M328.031 359.71L328.797 361.764L330.489 361.383C333.341 353.477 335.185 360.051 333.567 365.454C329.291 363.498 324.364 366.907 323.363 371.021C322.042 376.411 330.514 390.108 317.93 392.674L320.646 384.985C315.608 383.835 316.704 390.257 314.161 392.575C309.566 388.381 322.733 375.451 322.43 374.438L319.144 371.683L328.024 359.687L328.031 359.71Z" fill="#2CC5F4" fill-opacity="0.8"/>
<path d="M382.928 404.538C381.666 397.815 374.569 396.077 374.305 388.327C376.405 389.806 380.967 393.808 382.395 395.639C383.398 396.894 385.598 400.3 385.649 401.64L382.898 404.522L382.928 404.538Z" fill="#2CC5F4" fill-opacity="0.8"/>
<path d="M414.194 375.118C411.067 376.658 403.565 368.542 404.21 366.843C408.887 367.123 413.3 370.292 414.194 375.118Z" fill="#2CC5F4" fill-opacity="0.8"/>
<path d="M375.899 353.194C376.822 353.595 380.676 356.907 380.179 357.759C375.584 359.261 371.808 358.134 371.229 352.938C372.779 352.247 374.451 352.549 375.899 353.194Z" fill="#2CC5F4" fill-opacity="0.8"/>
<path d="M421.809 325.233C418.264 327.977 413.807 329.94 411.592 324.556C415.05 324.373 419.22 321.618 421.809 325.233Z" fill="#2CC5F4" fill-opacity="0.8"/>
</g>
<defs>
<clipPath id="clip0_210_5637">
<rect width="705" height="356" fill="white" transform="translate(0 202.382) rotate(-16.6824)"/>
</clipPath>
</defs>
</svg>
