<svg width="511" height="894" viewBox="0 0 511 894" fill="none" xmlns="http://www.w3.org/2000/svg">
<g clip-path="url(#clip0_163_2779)">
<path d="M262.102 193.008C264.152 188.25 261.208 188.792 261.091 186.229C260.945 183.359 267.565 177.195 257.942 179.435L257.883 173.857L264.182 173.169V160.665L260.022 161.69C260.124 159.786 259.363 155.935 261.032 154.823C262.278 153.988 264.987 156.506 266.276 153.842C264.226 150.079 264.123 148.087 265.236 143.958L262.219 143.9L262.058 138.38L267.316 137.706V128.321L263.142 127.779L265.192 121.425L269.411 122.04C267.346 119.038 267.082 117.149 268.371 113.708L265.207 113.167C264.284 107.5 269.572 105.553 269.338 102.742C269.206 101.16 267.551 100.091 267.36 98.5248C266.774 93.7808 267.741 86.0646 265.295 81.8184C264.431 80.325 261.238 78.7583 260.549 77.1623C258.835 73.1358 258.586 61.2467 260.285 57.1031C261.062 55.2143 263.933 53.4572 263.947 52.6812C263.947 52.1834 260.549 47.4834 262.102 44.8332C269.631 46.0631 267.053 42.3295 269.352 39.0351C270.129 37.9223 274.362 35.5357 275.915 34.4082C276.852 33.7201 277.233 32.0363 277.702 31.7874C278.903 31.1431 280.998 32.8709 281.847 32.2852C282.213 32.0363 284.806 25.8867 285.773 24.2175C286.344 23.2365 287.794 22.9144 287.897 22.6655C289.655 18.5072 287.091 5.57851 289.244 -0.0439453L293.258 1.63986C293.902 9.16576 292.233 18.3608 295.704 25.3596C295.895 25.7403 300.699 31.6995 301.065 31.9191C305.504 34.5107 307.789 34.6132 311.7 39.5768C313.34 41.6559 313.589 44.6722 314.79 45.8874C316.709 47.8348 320.415 46.2828 319.492 51.5685C319.243 52.9594 317.647 54.2918 317.661 54.775C317.661 55.4193 320.796 57.7473 321.353 60.1925C322.173 63.7944 321.485 75.9178 319.976 79.2415C319.141 81.101 316.46 82.082 314.996 85.7278C312.608 91.687 314.292 96.7677 313.208 101.497C313.121 101.848 309.371 103.664 311.158 107.427L314.263 106.387L315.303 116.812L311.143 115.773C313.062 118.994 311.861 121.19 310.103 124.104L316.358 123.079L316.431 129.814L313.34 130.444C314.849 134.749 308.14 140.488 314.131 140.649L317.398 135.612L317.486 145.466L314.395 146.096L312.198 157.502C313.853 157.575 315.669 157.502 317.207 156.814C318.833 156.096 317.823 154.12 319.492 154.383V163.769L314.292 162.744L316.372 170.035L314.307 167.956C314.41 170.562 314.175 173.154 313.018 175.541C311.363 178.938 307.73 178.323 308.038 182.042C308.404 184.282 315.186 180.504 315.904 179.45L314.292 175.262C317.31 176.243 318.101 176.302 320.532 174.208L321.572 182.554L316.372 180.475C318.321 187.445 315.142 191.896 313.223 198.206L311.143 192.979C304.976 191.574 309.532 200.402 309.561 203.448C310.879 205.849 314.952 200.124 317.412 201.325C318.98 206.04 316.797 208.353 316.372 212.804L312.813 211.662L311.744 213.756L309.092 212.804L310.279 226.231C314.029 224.825 322.114 235.484 313.252 233.669L317.442 235.748C318.321 239.906 313.707 237.886 316.387 242C312.535 242.673 314.893 235.177 310.132 235.748C310.337 238.647 308.829 241.59 312.095 242.454L311.172 250.346L322.656 246.158L320.562 239.921L326.816 238.867L327.886 246.671C323.711 245.821 316.578 248.706 315.332 252.967C315.127 253.669 318.335 252.908 317.427 255.016L313.267 256.612C313.428 260.829 316.592 260.39 319.536 260.258C319.961 262.264 317.207 262.22 316.695 263.143C314.79 266.569 315.142 271.855 313.267 275.369C320.254 276.569 318.145 270.859 323.682 270.156C322.32 278.356 308.492 275.588 316.387 286.833L312.227 285.808C314.981 295.062 310.045 314.799 323.667 315.092L323.169 318.152L315.362 315.019C315.274 321.329 317.134 325.253 316.402 331.71C316.372 331.652 315.611 331.827 315.508 331.593C314.717 329.719 316.299 324.316 313.282 323.364V335.869H316.402C316.534 334.492 316.255 333.057 316.402 331.696C317.222 333.57 319.2 341.418 321.06 343.219C322.744 344.844 325.894 343.116 326.831 346.835C322.744 349.647 322.041 342.062 318.614 346.909C319.624 349.119 319.068 351.931 319.566 353.937C319.785 354.83 321.529 354.625 321.499 355.108C321.206 359.471 320.679 365.006 321.646 369.559C321.704 369.852 324.575 371.551 324.693 374.011C324.707 374.406 320.738 375.797 322.642 380.731C318.701 378.549 321.792 372.195 316.402 371.346C316.534 373.527 315.552 379.882 317.954 380.731L318.994 378.652L320.576 380.233L317.412 389.56L320.562 390.131C317.046 393.265 320.371 398.697 322.642 402.123L319.522 401.596L320.562 413.075C330.742 411.113 322.686 406.706 322.569 406.105C322.056 403.602 324.605 399.59 324.575 396.881C324.517 392.445 317.998 386.105 325.776 384.919C321.924 388.564 325.586 391.581 326.216 395.241C326.538 397.101 325.747 398.858 326.421 401.464C326.875 403.265 330.156 406.31 330.991 408.375L327.871 407.848C330.039 412.167 322.569 420.03 327.827 420.381V422.431L326.04 422.607C326.406 426.75 324.722 432.724 324.824 436.648C325.029 444.467 328.472 452.154 327.856 460.002C332.207 460.705 327.256 452.842 332.016 451.671C330.449 455.331 333.408 460.866 329.907 461.583C331.079 463.648 332.266 466.518 331.826 468.919C331.636 469.944 329.497 468.67 329.951 470.427L337.231 472.521C337.964 471.584 334.272 465.273 337.773 468.333L341.362 491.819L344.028 494.425L340.38 472.535C343.5 471.847 342.797 475.405 343.823 476.445C344.379 477.001 348.452 477.557 348.715 480.866L345.581 481.394C346.122 485.347 351.381 487.675 352.392 489.242C352.861 489.974 352.04 495.669 353.461 498.554C354.325 500.311 357.665 502.536 359.174 504.337C360.155 505.523 360.243 508.92 363.847 510.077C364.901 507.28 365.121 499.696 364.242 497.163C363.554 495.172 360.873 495.889 360.36 495.318C359.848 494.747 359.862 489.183 359.13 487.675L362.352 487.646C363.759 488.436 366.761 507.441 369.076 510.077C370.35 511.541 372.21 511.395 373.089 512.112C374.056 512.903 373.47 514.382 374.452 515.348C377.293 518.159 383.68 518.086 384.075 518.525C384.178 518.642 383.123 520.107 384.105 521.014C385.731 522.522 390.608 523.401 391.326 526.476C391.678 527.955 389.905 533.006 388.865 534.075C386.185 536.842 380.531 534.997 380.062 540.971C378.875 555.774 394.387 582.7 399.002 598.03C399.5 599.685 400.203 601.061 399.822 602.935C397.112 603.433 397.976 602.423 397.258 600.856C395.252 596.493 394.563 591.002 390.96 587.298L386.946 595.322L383.138 598.762L382.098 592.496L385.203 594.575L384.163 591.456C387.796 592.466 388.411 587.869 389.378 585.189L376.942 588.455L376.869 591.456C370.629 591.31 369.603 586.273 371.639 581.016L369.72 581.924L365.443 571.031L356.025 575.277C359.174 578.791 360.331 574.808 360.639 574.823C363.949 574.955 365.795 577.781 365.385 581.031L363.305 581.529C367.538 583.432 367.494 587.283 369.545 590.944L363.803 593.535L365.37 596.654L363.568 596.844L364.345 598.748L361.181 599.289C361.957 604.443 362.865 605.498 367.45 607.621L364.33 607.094C364.681 610.505 364.096 615.483 368.49 614.4L366.351 616.04L366.864 619.656C367.67 620.828 369.779 621.003 370.995 620.564C372.723 619.949 371.918 617.299 373.69 617.519C370.101 625.542 374.042 629.598 374.73 637.344L372.635 636.831C371.478 640.477 376.737 643.888 376.839 644.328C377.323 646.319 376.224 649.233 376.956 651.312C377.469 652.761 379.564 652.776 379.769 653.127C380.032 653.581 379.007 661.21 380.999 663.421L388.265 652.395L391.414 652.996C388.865 660.932 383.431 665.837 387.151 674.431L391.341 675.002L392.469 678.019C391.048 679.117 385.804 673.977 386.214 677.491C386.961 678.428 388.309 679.117 388.807 680.171C389.978 682.631 390.154 685.618 390.608 687.667C391.56 691.958 397.669 693.349 401.594 694.491C404.817 695.428 406.37 695.589 410.515 697.024C414.206 698.312 435.49 706.526 437.335 705.135C436.134 699.469 429.601 704.052 427.419 697.844L426.921 699.923H423.83L422.731 694.71L418.571 695.75L420.651 694.198C419.934 692.558 414.426 690.567 414.382 692.104C417.531 693.407 417.282 694.71 417.517 697.844C412.946 697.141 408.786 689.351 408.171 684.754C407.864 682.484 411.13 684.153 412.287 682.206C412.859 690.113 414.353 689.952 421.208 692.616L422.717 690.552C422.761 691.723 422.233 692.851 423.449 693.715C424.928 694.754 437.76 698.327 438.375 697.844C434.816 694.754 436.09 691.372 435.182 688.195C434.772 686.774 427.594 681.21 433.146 678.048L448.248 710.421L482.202 721.871L481.162 723.935L486.377 725.004C482.495 729.704 472.886 724.579 471.729 732.764C469.605 747.831 483.784 741.125 488.222 746.118C488.442 746.367 490.376 751.945 490.332 752.472C490.215 753.995 488.31 755.708 487.929 757.319C486.567 763.014 486.523 771.331 488.134 776.983C489.131 780.482 502.094 798.696 505.141 802.459C508.524 806.632 514.457 806.193 508.334 814.217C507.045 815.915 504.203 816.808 503.603 817.833C502.504 819.722 503.661 822.768 502.607 824.173C501.904 825.096 499.868 824.759 499.179 825.418C498.432 826.135 498.871 828.815 497.246 829.283C492.397 827.35 487.065 828.126 482.158 826.736C472.447 823.983 475.376 821.391 463.292 823.646C451.998 825.755 440.807 829.459 429.425 831.304C424.855 833.119 424.123 842.563 415.905 842.71C411.877 842.783 411.95 838.961 409.094 837.19C399.807 831.436 390.945 836.443 382.039 839.737L381.556 835.521C379.93 832.958 366.41 838.112 363.261 838.698C363.846 841.875 370.541 838.947 369.515 842.841C362.645 842.549 366.674 850.016 362.221 848.069V873.633C362.221 874.746 365.223 875.625 366.395 875.2V871.027C368.168 870.954 368.343 878.48 368.182 879.768C367.845 882.535 364.535 887.397 364.183 890.706C353.051 892.917 355.819 885.42 351.864 880.896C346.093 874.277 341.435 884.044 339.604 884.454C338.403 884.732 336.938 883.663 335.81 883.897C334.565 884.146 333.613 885.522 331.46 885.757C327.373 886.196 324.341 883.897 319.961 887.777L317.896 885.64L316.709 887.763C314.014 888.246 310.118 887.089 307.686 887.733C306.968 887.924 301.212 894.674 298.297 893.883C294.811 892.931 291.735 887.309 291.544 883.897C291.427 881.877 294.122 879.68 294.488 875.8C294.781 872.769 295.455 860.251 291.676 859.665C285.861 862.74 278.551 863.34 272.092 862.579C267.17 861.993 261.692 856.722 256.828 854.906C254.983 854.218 240.086 851.173 238.606 851.158C234.9 851.143 229.656 856.444 225.76 854.116C224.632 853.442 224.662 848.83 222.435 853.296L224.53 853.838L224.5 855.375L220.003 858.406C216.59 857.688 216.21 854.042 214.071 851.758C199.511 836.267 175.928 826.311 155.128 833.456C138.502 839.166 109.851 856.517 97.7222 868.889C95.2907 871.364 96.2282 875.698 89.6952 873.985C80.8917 871.671 69.7886 865.771 60.2381 866.825C54.3057 867.484 50.5997 870.544 43.6566 869.885C37.4459 869.285 36.0104 865.244 35.2487 865.097C34.5456 864.965 21.7579 867.103 21.0987 867.396C20.2638 867.776 13.3207 873.56 11.7973 874.79C10.0688 876.196 9.90769 879.021 7.46148 878.919C3.28681 878.743 -1.56167 874.907 -2.99717 871.1L-6.0293 872.067C-5.58986 864.599 3.68231 862.52 6.9781 856.312L9.60008 856.429C8.94093 849.43 17.0559 842.168 21.5675 836.531C28.701 827.629 36.3766 819.283 44.7845 811.186C45.2386 810.747 44.8577 809.034 45.2679 808.667C49.0471 805.329 77.4641 806.91 82.6348 800.087C83.0596 804.7 76.8489 803.66 75.223 805.71C73.8168 807.467 74.8128 809.824 74.0218 811.318C73.7728 811.786 72.0297 812.211 71.3266 813.25C66.7565 819.956 66.3024 820.82 57.6015 822.006C58.5536 830.235 71.6196 818.214 72.1908 818.873L70.1108 823.031L73.6996 821.918L75.3109 824.071C74.5345 819.122 79.4562 815.915 83.6602 814.7C83.4258 820.469 81.3458 820.088 76.3509 820.967L77.9035 827.204L85.6377 821.889C82.2247 813.616 86.1504 810.952 93.0495 808.462C91.614 809.941 89.9295 817.043 94.0896 816.794C92.6541 814.363 93.0202 809.619 94.1335 807.203C94.6315 806.105 96.2135 805.783 97.2242 804.29C96.111 804.553 95.1442 804.905 94.1042 805.329C94.2653 798.418 95.1296 789.472 103.479 788.652L101.399 791.258C104.123 792.078 103.699 793.206 103.494 795.944C105.31 794.992 104.9 792.327 106.584 790.19C107.844 788.579 109.719 787.759 111.316 786.573C112.736 787.744 112.473 790.233 112.868 791.786C114.04 790.146 121.13 781.668 122.258 787.115C122.931 790.351 115.988 794.392 112.868 793.865C112.751 793.191 113.015 792.357 112.868 791.786C111.477 793.747 112.209 795.256 111.184 796.076C110.876 796.324 104.402 799.15 104.021 799.136L102.439 796.998V801.171L97.7515 799.092L96.1842 801.156C99.0992 800.951 98.6158 802.24 97.2242 804.304C98.6011 803.982 99.978 804.187 101.384 803.265C101.296 805.827 100.432 808.272 100.051 810.805C99.9341 811.625 98.2496 813.514 100.842 812.635C101.619 812.372 104.197 810.673 104.504 810.044C98.6304 805.959 105.119 798.814 110.759 798.052L109.206 807.452C112.795 806.134 120.134 803.85 122.243 801.186C121.379 801.229 119.328 801.625 119.123 800.673L122.463 792.02L129.552 789.721L126.359 799.092L123.239 798.506C122.199 799.15 122.521 800.849 122.243 801.186C127.414 800.937 134.196 797.393 139.542 796.046C172.852 787.671 204.565 793.762 220.296 826.75C215.77 826.164 210.116 830.879 215.067 833.91C215.741 834.32 223.827 835.008 217.176 836.663L219.271 838.215C217.25 839.049 216.796 839.459 217.162 841.875L214.042 840.821C213.69 843.09 212.079 844.394 214.584 846.033L219.256 843.969C219.256 846.048 216.195 843.852 217.191 847.073L219.271 847.615V848.64L217.176 849.181L219.271 850.733C214.379 852.725 217.733 854.145 221.351 852.286L220.238 846.692L222.376 844.994H220.296V842.9H222.376L220.296 840.821L222.391 840.279L220.311 836.633L222.274 837.541L222.904 835.594C225.394 840.25 225.526 845.682 226.58 850.733C226.961 852.534 225.438 853.837 228.631 853.34C228.778 847.893 226.273 842.959 227.591 837.702C226.976 837.614 226.244 837.951 225.599 837.629C224.339 836.004 225.438 829.883 225.277 829.517C225.204 829.356 223.709 829.239 223.431 828.61C222.201 825.828 221.38 822.768 219.286 820.425L221.322 817.877C216.708 818.243 216.019 813.558 213.031 811.025L217.631 805.285L223.109 801.317L225.584 802.679L226.463 805.681L221.351 811.596L228.118 806.398C233.04 810.073 229.202 813.06 229.027 815.271C228.953 816.193 230.77 818.346 230.843 820.498C230.989 824.949 228.748 833.149 227.606 837.673C228.25 837.775 229.012 837.57 229.686 837.673C229.788 840.967 229.554 844.306 229.686 847.6C229.744 848.859 228.895 851.48 230.711 851.231L231.78 841.846L233.846 848.098C234.3 844.803 233.231 840.455 233.89 837.365C234.022 836.765 236.717 835.799 237.449 832.944C239.148 826.252 235.208 826.706 234.886 825.462C234.607 824.407 234.578 806.837 234.842 805.9L238.035 805.329V802.21L234.886 801.669C237.903 794.45 232.645 785.651 240.115 780.833L238.914 778.374L233.875 777.173L292.277 767.758C290.49 756.191 292.13 744.346 291.295 732.764C291.163 730.978 291.398 729.309 289.669 728.123C288.219 737.581 295.089 750.876 280.793 752.706C279.372 751.945 274.553 739.514 272.473 741.681C272.209 744.156 274.977 745.151 275.3 747.538C276.047 753.043 272.648 751.477 271.14 752.34C269.279 753.409 268.547 756.191 265.207 756.279C264.607 750.949 260.696 747.816 257.854 743.76C260.329 752.882 262.409 754.829 251.174 758.226L243.25 746.894L248.45 759.398L235.926 760.452L237.508 742.721L240.13 742.15L243.221 745.839L239.06 734.375C242.971 732.354 246.78 735.151 250.017 732.398C252.024 736.82 255.144 739.909 257.839 743.76C256.404 738.475 254.69 735.751 252.625 731.242L259.348 730.143L260.447 732.281L266.115 730.275C266.745 734.346 269.66 737.625 272.443 740.642C269.133 733.16 271.667 727.859 280.133 726.995C281.847 729.836 283.297 732.911 285.407 735.532C286.271 736.615 285.363 738.167 288.102 737.494L281.847 724.989C285.246 724.623 287.575 724.858 290.182 727.069V721.841L293.317 721.856L293.375 768.183L287.018 770.423C286.798 773.717 290.328 774.157 291.295 775.46C292.643 777.29 292.833 791.405 292.247 794.114C292.13 794.655 288.951 796.237 289.142 797.979L292.35 798.579C292.13 804.128 295.045 813.851 292.789 818.829C291.779 821.04 287.692 821.977 288.058 825.52C288.146 826.369 295.953 830.206 294.386 833.456L296.451 830.337L297.491 834.496L294.371 700.977L283.063 705.296L282.829 712.925L286.022 713.51L281.979 716.234L281.818 720.143L283.927 721.827L279.753 721.153C278.083 716.087 279.372 710.479 278.727 705.648C278.083 700.816 271.315 710.553 268.298 708.269L268.356 716.556L271.403 717.639C267.653 718.093 267.126 721.71 267.229 724.96C264.504 725.268 265.573 724.916 265.119 723.423C264.46 721.3 264.328 705.692 262.043 707.229C262.292 710.684 256.111 709.572 254.719 712.178C253.547 714.374 252.449 719.938 255.759 720.26C252.463 722.266 253.415 724.843 252.625 728.094C249.973 728.386 250.94 728.137 250.501 726.542C249.168 721.695 250.588 715.282 248.992 710.377L240.657 716.644L239.075 731.227C238.108 731.681 235.955 730.304 235.955 729.66V713.496L230.228 716.585C223.9 720.363 229.539 731.944 222.406 734.36V718.196C222.406 718.02 220.809 716.38 220.34 716.644C218.48 721.022 207.86 724.462 215.111 729.66L210.409 737.494L208.329 719.762C205.517 723.188 196.025 728.035 202.587 731.754C199.701 733.804 198.998 736.073 199.452 739.573C198.486 740.027 196.332 738.65 196.332 738.006V722.881L188.964 727.786L188.027 734.316L191.103 735.4C185.215 734.009 189.111 742.618 183.808 742.706V726.014C172.617 728.152 177.51 736.6 174.404 744.785C171.709 745.078 172.72 744.785 172.28 743.219C171.226 739.514 172.412 737.01 172.193 733.965C172.105 732.837 171.753 728.211 170.259 728.108L164.678 733.555L162.437 746.894C161.617 748.636 159.815 746.864 159.815 746.352V731.227C158.365 732.706 153.692 735.034 153.018 736.425C151.378 739.851 153.751 749.31 148.331 749.998V734.346C146.383 735.649 143.351 737.113 142.179 739.163C140.289 742.457 142.56 751.067 136.847 752.091V736.439C133.683 736.732 133.507 741.3 130.622 739.587L128.483 754.171C124.015 754.449 126.432 746.835 126.256 744.434C126.169 743.292 125.832 738.65 124.338 738.533C124.294 741.198 121.349 741.549 120.368 743.453C119.387 745.356 118.801 755.43 118.054 756.25C111.975 755.547 116.53 745.795 114.406 741.652C106.365 745.693 110.027 752.794 106.057 759.354C103.625 759.339 104.592 748.49 104.49 746.323C104.431 745.151 105.163 743.453 103.464 743.746C103.992 746.762 100.051 746.161 99.4507 747.04C98.0298 749.119 99.9048 759.456 95.1149 761.477L93.5476 745.839C86.9706 749.895 90.0174 757.86 86.2236 763.556C84.0118 764.2 84.3194 760.862 84.2608 759.53C84.1289 756.147 85.3594 752.56 84.4951 749.119C81.2726 747.801 78.0793 746.835 74.7249 745.854C73.2016 745.415 72.894 746.484 73.1869 743.746L294.313 692.573L294.357 685.31H289.157L289.596 690.64L277.687 693.671L276.662 688.897L272.473 689.498L276.647 690.537L276.105 693.7L265.808 694.666C264.431 690.742 261.135 694.71 257.868 692.616L260.988 695.223C260.505 697.595 255.437 701.006 255.745 697.302C255.803 696.496 257.429 692.426 255.261 692.646C254.807 692.69 253.386 694.754 252.654 695.237L254.69 695.794C255.041 700.494 249.226 698.707 247.673 699.234C247.41 699.322 245.506 702.28 243.279 702.016L242.239 697.844C242.81 702.997 240.686 703.539 235.97 703.041L237.01 698.883L233.904 699.923L232.864 693.671C232.381 698.898 235.34 706.365 227.635 705.135L228.631 702.134L225.028 699.937C220.897 704.242 224.925 702.251 225.555 702.558C228.997 704.213 225.204 708.225 222.523 706.043C221.878 705.53 223.578 701.914 220.34 703.056L220.194 707.097L216.166 708.298L215.126 705.164C215.243 707.976 211.932 708.064 209.896 709.323V693.671L203.7 694.783L203.627 704.096L201.562 695.764V706.189L205.722 705.135L205.634 708.664L208.856 709.323C206.396 712.632 202.704 711.856 200.522 708.269L200.39 712.31L195.307 713.481L195.453 709.411L198.442 709.293C196.435 706.834 199.233 707.434 199.438 706.511C200.126 703.481 199.028 699.015 199.452 695.75C196.479 696.335 184.336 701.826 182.929 699.688L181.743 696.789C182.182 698.239 179.868 708.927 178.608 707.214L177.568 702.002V711.387L179.136 709.293L179.824 710.875L181.728 711.387L183.808 708.269C185.229 714.872 179.165 710.04 180.688 716.614C176.616 717.683 178.74 713.92 175.488 714.521C176.382 716.936 172.852 720.304 171.314 718.708C170.83 718.21 172.324 715.238 170.274 715.575L169.292 719.294L166.084 719.733L165.044 714.535L175.562 711.753L176.514 702.016C175.781 701.182 161.001 707.741 157.75 705.15C156.754 710.304 158.555 712.544 159.83 716.614L161.91 712.969C161.426 714.989 166.48 718.474 165.03 719.748C162.393 722.076 160.65 717.639 160.357 717.654C158.394 717.756 156.505 720.89 156.666 722.881L152.535 720.802L150.953 723.906L147.306 720.802L146.192 724.931C143.893 725.194 142.838 725.341 143.102 722.881H142.076C142.384 727.581 137.008 729.455 137.374 722.881C134.826 724.023 133.917 725.209 133.712 728.094C128.747 726.102 129.948 728.738 128.805 729.089C126.476 729.792 123.591 729.016 121.218 731.227L120.178 728.094L117.541 732.252L117.028 728.094L109.734 727.054C109.382 727.332 117.438 731.783 109.734 733.291L108.708 731.212C107.99 736 106.277 733.599 103.933 733.438C103.684 733.423 102.615 737.274 100.33 734.843C100.681 731.988 103.523 726.571 100.403 724.36C94.2507 720.026 98.6158 734.814 93.0495 734.331L93.9431 722.998C92.8005 721.227 79.0607 720.978 77.3909 717.654L208.505 683.377L210.922 688.429L211.039 682.279L261.018 669.658V688.429H262.058V668.604C265.617 667.681 264.035 675.046 264.138 677.477C264.196 678.736 263.347 681.357 265.163 681.108L265.222 667.594L294.254 660.112L295.47 652.512C292.672 650.946 291.764 650.243 292.306 646.685L295.44 647.183C293.536 642.79 294.84 638.222 294.327 633.698C294.151 632.19 289.508 623.961 294.371 626.875C294.825 626.011 290.358 609.583 296.451 609.114V608.104C293.595 608.602 293.463 602.642 293.287 600.3C292.57 590.299 293.888 579.962 293.522 569.977L295.411 569.479L293.361 567.81C293.888 557.121 290.24 546.154 293.361 535.656L291.207 533.621C291.324 531.586 293.478 528.833 293.39 527.31C293.361 526.725 291.471 526.856 291.266 526.022C289.406 518.569 290.651 508.364 290.197 500.648L285.026 503.239C287.721 505.523 287.589 511.439 287.164 514.792C287.077 515.45 284.674 518.76 283.942 518.891L286.022 521.498C279.225 523.225 274.64 526.783 267.243 524.646L268.283 528.804L259.216 531.761L256.697 530.4C256.316 524.484 256.506 518.613 258.879 513.152H254.719L290.065 499.476L290.182 487.075C285.421 486.416 291.324 495.069 288.629 497.514C287.56 497.514 287.867 486.138 283.473 486.064C281.862 486.035 278.39 487.382 279.782 489.154H284.982L278.141 492.287L278.727 501.673L274.596 490.633C273.205 489.491 267.36 492.609 268.298 493.327H274.553L267.36 497.148L268.283 505.845L265.149 496.46C263.523 496.665 261.75 497.075 260.329 497.91C254.778 501.145 258.352 504.806 257.839 510.018L254.192 499.535L249.49 500.106C246.736 504.074 255.481 497.822 253.679 502.712L247.923 504.791L247.41 514.191L242.722 502.741L241.155 504.791L243.235 506.87C236.204 507.515 238.138 512.932 238.006 518.349L233.89 507.31C232.879 506.534 227.767 509.213 227.591 511.043L232.806 510.531L227.664 513.811L228.631 522.537L224.998 513.152C218.934 517.017 217.074 517.574 218.202 525.656L216.122 517.31L209.281 521.483L209.867 530.883L206.234 521.498L200.654 524.777L199.452 534.002L195.79 522.537L190.048 525.67H196.303L191.22 529.448L191.074 538.175L187.939 526.71C186.035 526.461 187.133 530.663 185.361 530.839C184.38 530.941 181.025 528.862 180.366 527.515C177.261 521.234 182.095 519.784 186.533 517.456C215.638 502.273 249.754 491.687 279.225 476.62H301.651C302.486 467.85 290.299 474.19 291.207 467.235C289.186 466.957 290.958 469.417 289.552 470.5C288.512 471.291 281.642 471.174 279.474 471.657C277.673 472.067 276.501 473.751 274.538 473.487C275.285 470.046 272.15 469.124 269.323 468.245L269.851 466.151L272.985 467.191L273.483 465.127C271.403 465.756 262.981 464.307 262.131 462.916C259.787 459.123 265.148 460.207 265.163 459.387L262.029 457.835L269.338 457.322L268.283 453.662C276.486 454.336 271.462 438.801 265.661 439.211L262.029 443.208V430.704L263.069 433.822L267.243 432.797L265.163 435.901C267.434 435.74 268.972 434.715 271.418 434.862C272.722 437.087 275.168 438.947 275.27 439.24C275.534 439.987 274.23 441.114 275.461 442.71C276.427 443.984 279.225 444.76 280.294 446.326L282.36 444.247C286.227 446.883 286.095 449.46 284.997 453.633L288.117 452.593L287.589 467.176L291.295 465.478L290.328 445.389L297.506 441.612C298.751 438.566 290.914 440.763 290.211 440.06L291.793 434.862C293.111 434.232 294.62 439.284 297.535 436.399L296.422 431.729H290.226L292.306 429.122L290.211 429.635V411.904C294.84 415.052 288.014 424.554 297.506 423.368L293.346 419.21L296.993 419.283L298.634 411.406L295.426 410.849C297.77 406.779 293.859 406.12 290.343 405.52L290.226 395.724L291.251 397.672C295.675 400.234 293.932 391.654 294.415 391.024L297.535 392.064C300.406 386.28 292.599 383.952 293.361 389.985L290.416 388.755L290.24 377.993L298.443 376.28C300.45 372.21 296.407 369.179 292.965 370.218C291.251 370.731 292.028 373.513 290.255 373.293L290.372 367.158L295.484 365.46C295.411 362.121 290.255 362.151 290.255 361.814V347.216C293.61 347.802 291.808 353.907 292.35 354.522H298.59L298.663 347.787L295.455 347.216C297.535 343.307 294.005 340.818 290.27 343.043V332.618L293.448 334.258C298.165 333.936 295.939 324.55 290.255 328.445V187.606C288.849 187.298 288.702 189.289 288.688 190.197C288.541 204.078 289.376 218.075 289.259 231.985L288.263 238.091C291.881 246.041 287.384 256.876 287.15 263.231C286.959 268.663 290.343 278.897 289.288 287.302C289.039 289.308 287.164 288.356 287.003 290.318C286.681 294.359 289.098 297.185 289.113 300.67C289.127 306.277 287.12 313.349 286.549 318.547C286.344 320.378 288.117 323.423 288.146 325.854C288.263 333.321 288.087 340.818 288.146 348.27H285.011V344.083C277.101 343.277 271.799 353.556 281.291 354.405L284.499 348.27C289.303 353.907 288.439 361.653 288.219 368.666C288.16 370.687 286.505 372.005 286.461 372.81C286.388 374.142 288.922 376.426 288.16 378.52L284 377.437C284.879 374.01 285.788 370.335 282.418 368.095L280.866 372.254L277.365 370.248L274.626 372.795C274.142 374.069 278.42 376.602 279.489 377.29C281.027 378.271 284.191 379.135 285.07 380.058C287.047 382.137 284.718 385.358 288.146 386.544V410.864C285.348 411.479 284.645 408.785 283.151 407.818C282.536 407.423 281.188 407.936 280.866 407.745C280.441 407.496 275.153 403.133 273.659 401.903C270.158 399.048 272.136 395.739 265.222 398.345C265.163 395.885 264.826 391.507 267.536 390.336C268.269 390.029 270.349 391.771 271.491 389.458L269.411 382.708L272.516 385.826C274.596 378.286 274.23 375.401 266.789 372.297L264.196 377.481L265.236 362.883C267.58 361.99 268.913 368.256 271.491 366.001C273.718 364.054 267.829 364.215 269.426 361.829L271.33 362.722C275.168 358.314 272.267 351.447 266.291 351.404L264.196 360.789C262.57 351.623 266.145 341.711 266.276 333.145C266.306 331.183 265.163 329.133 265.192 326.922C265.266 320.963 263.947 308.854 267.932 304.535C269.777 302.544 274.64 302.5 274.714 299.791C274.86 294.388 271.579 294.886 267.331 294.008C266.657 296.819 266.555 298.166 267.038 301.036C267.39 303.086 267.214 302.31 265.236 302.368C266.818 296.189 265.031 285.428 266.291 280.127C266.496 279.278 268.796 279.571 268.444 277.931L267.302 266.906C265.398 267.813 266.379 272.162 265.998 274.446C265.559 277.023 262.6 279.132 265.222 283.583L260.593 275.178C257.854 272.03 254.045 274.798 257.385 270.039C259.026 271.869 260.373 273.656 263.127 273.158C261.736 269.57 262.409 267.067 264.167 263.787L260.505 266.906C258.396 259.76 266.774 261.971 267.243 261.678C269.235 260.39 268.781 235.543 269.367 231.443L265.734 233.537L266.247 230.404L262.658 231.516L261.047 229.364L260.007 231.443L257.912 226.245L263.127 228.31V224.152L260.007 225.191L261.545 221.033C264.182 221.999 263.728 228.032 266.247 226.216C266.555 225.996 265.427 223.112 268.342 224.152C269.221 225.191 265.983 229.774 269.382 230.404C269.191 228.925 271.008 227.724 271.169 226.582C271.506 224.137 270.583 214.18 270.436 210.579C273.776 207.636 271.213 200.637 271.432 197.577C271.755 193.082 273.22 187.342 273.469 182.818C273.659 179.245 272.106 174.252 273.556 169.889C268.547 171.075 270.261 173.593 269.177 176.492C268.693 177.766 265.339 179.04 265.236 181.91C267.419 184.34 267.155 180.299 267.917 180.299L270.363 181.28L271.462 179.289L271.33 190.622C265.559 190.578 268.693 195.014 265.72 198.045C262.468 198.558 266.467 193.682 266.262 192.847C264.87 192.833 263.479 192.833 262.087 192.847L262.102 193.008ZM273.571 166.917C274.391 162.934 274.67 156.96 273.073 153.373C271.623 154.398 271.125 155.467 270.51 157.063C268.093 163.329 270.876 160.957 272.018 162.729C273.073 164.369 271.608 167.048 273.586 166.917H273.571ZM297.579 200.315L291.324 199.26V208.646H294.444C293.873 205.278 296.232 203.053 297.579 200.3V200.315ZM287.135 202.408C276.34 204.707 287.369 208.368 285.055 214.913C288.336 212.658 285.7 205.922 287.135 202.408ZM282.96 210.74H279.84L281.935 214.913L278.8 214.956V222.219L282.96 221.165L279.826 220.125C282.023 216.508 284.044 215.747 282.96 210.74ZM297.564 221.179L291.31 220.125C291.866 223.8 289.42 234.533 294.122 235.631C299.278 236.831 300.45 229.276 298.077 228.486C294.562 227.314 296.334 230.506 294.444 230.55C294.635 228.808 294.034 226.641 294.415 225.03C294.737 223.624 298.341 223.888 297.564 221.179ZM275.519 237.754L274.64 235.25L270.451 234.738V248.296L274.479 247.139L273.513 238.53L275.505 237.754H275.519ZM284.03 255.588C287.633 253.86 285.656 248.457 286.08 245.163C284.674 246.524 280.983 246.715 280.104 247.535C279.723 247.886 275.754 255.192 279.826 253.508L280.851 251.444L284.015 255.588H284.03ZM308.008 296.292C301.139 296.277 300.143 302.046 304.464 306.629L308.067 304.974L307.994 296.292H308.008ZM298.561 307.712C299.981 306.014 292.672 303.056 291.324 302.544V307.756L295.484 306.731C291.237 310.333 291.075 311.3 291.324 317.142C297.491 316.761 301.768 313.774 296.539 308.269L298.561 307.712ZM279.826 308.811C272.56 309.396 281.027 318.855 284.411 316.205C286.256 314.755 287.018 307.01 281.935 308.796L281.408 311.929L279.826 308.811ZM274.64 320.275C274.098 317.215 274.494 312.368 269.953 312.31C264.27 312.237 266.569 323.496 266.467 327.406L268.913 328.636L269.938 326.527L270.978 329.66L273.395 326.22L271.491 320.29H274.64V320.275ZM302.047 319.44C300.758 321.754 303.424 329.221 307.466 328.636C309.459 328.343 307.613 321.373 309.078 319.748L307.994 315.077C307.525 314.74 302.237 319.133 302.047 319.455V319.44ZM277.76 325.502C284.162 323.54 283.107 317.771 276.706 317.156L277.76 325.502ZM285.055 333.848V324.463L276.72 328.65C276.296 329.265 279.489 336.279 280.895 333.116L281.408 331.74C282.345 333.994 282.243 334.155 285.055 333.848ZM269.528 337.831L268.898 335.927C266.848 336.586 265.119 346.089 266.291 348.431L268.386 346.352C275.182 352.414 273.63 341.374 272.546 336.952L269.543 337.816L269.528 337.831ZM303.746 338.123C300.89 336.967 298.985 342.033 303.848 342.208L301.768 345.298L305.899 345.4L308.023 348.431C309.327 346.542 304.639 338.475 303.761 338.123H303.746ZM308.008 355.752C298.853 355.855 298.458 363.747 306.47 367.217C308.594 367.495 307.818 367.129 308.023 365.679C308.433 362.619 307.745 358.915 308.023 355.752H308.008ZM283.913 361.902C282.565 354.405 272.443 358.505 278.288 365.123L283.913 361.902ZM308.008 376.617C305.137 375.855 305.489 378.872 304.874 380.775C304.346 381.536 302.75 376.573 300.714 378.696C299.82 379.633 303.014 390.263 306.47 391.185C308.975 391.859 307.686 390.029 307.701 388.857C307.759 384.772 307.54 380.702 308.008 376.602V376.617ZM281.759 381.024L275.68 378.711C275.739 382.459 275.959 390.951 280.968 385.519C281.481 384.977 282.067 381.492 281.759 381.024ZM284 394.363V386.017C280.91 388.462 275.431 388.403 275.768 393.162C278.258 394.04 281.466 397.525 282.14 393.616L284 394.363ZM316.358 420.44L320.532 419.883C319.009 419.268 319.185 404.949 315.318 407.921C313.765 409.107 316.138 416.765 316.416 418.741L314.249 419.971C315.274 422.563 314.439 425.242 317.398 426.15L314.263 431.89L316.358 428.756L319.478 429.81L320.518 423.544C317.427 425.257 315.962 423.968 316.358 420.41V420.44ZM306.69 419.107C307.261 418.434 308.155 414.964 307.584 414.144L300.714 411.054C300.904 414.012 299.41 416.823 302.677 417.79L301.754 420.425C302.237 420.879 305.987 419.942 306.69 419.107ZM307.716 430.645C308.023 430.22 307.921 420.513 306.456 420.454C299.82 423.881 299.806 426.531 302.808 432.944C303.35 433.339 307.335 431.158 307.716 430.645ZM318.174 433.266C317.222 432.768 316.314 432.944 315.318 432.958C314.512 434.715 317.881 436.502 317.398 437.102C317.266 437.263 315.215 437.131 314.541 438.654C314.395 438.991 314.146 445.521 314.19 445.873C314.38 447.102 316.812 445.785 316.343 447.542C312.286 448.508 312.037 445.258 313.223 442.344C311.612 442.183 309.825 442.022 309.21 444.057C308.756 445.55 309.254 460.031 311.128 457.981V451.729L315.303 453.808L318.438 449.635C319.712 452.505 316.534 452.696 316.387 453.457C315.142 459.724 317.896 466.21 324.707 466.327C323.198 462.93 326.875 462.14 326.802 460.734C326.67 458.157 323.374 441.114 322.554 438.742C322.144 437.541 318.745 433.544 318.189 433.251L318.174 433.266ZM303.834 443.354C299.864 438.156 299.454 444.321 299.937 447.82C300.392 451.085 302.281 451.144 302.442 453.794L306.954 457.981L307.994 444.423L300.699 445.448L303.834 443.354ZM375.814 553.973C377.132 545.027 363.363 553.446 365.385 554.998C371.625 552.128 368.768 558.629 374.774 558.131L372.679 555.554L373.778 552.948L375.814 553.988V553.973ZM327.827 583.183C328.823 582.232 326.187 559.127 325.601 555.672C325.396 554.442 325.278 550.81 323.667 550.84L324.693 560.225L322.627 556.067C320.576 559.757 321.895 575.482 325.22 576.917L326.772 574.838L326.626 581.675L324.693 583.169H327.813L327.827 583.183ZM382.069 564.398L381.497 560.284L377.909 553.973L376.283 561.323L382.054 564.398H382.069ZM327.827 629.071V654.636C327.827 658.867 327.212 660.858 333.042 660.361L332.016 656.202L335.151 661.415L337.217 659.336L337.348 671.679C337.671 672.25 347.88 676.437 349.418 676.862C350.956 677.286 352.201 677.638 351.864 675.471L330.947 599.861L329.907 602.979C326.157 601.076 328.384 595.131 327.827 591.5C323.154 593.74 326.055 597.811 325.85 601.413C325.557 606.61 323.887 610.886 325.762 616.538L328.867 614.458L329.936 619.671L332.002 618.617V621.75L328.882 622.79L332.954 624.503L330.962 633.229L327.842 629.056L327.827 629.071ZM344.394 609.085L342.475 600.3C332.939 599.451 336.733 608.309 339.824 613.419C339.751 610.871 343.911 609.846 344.379 609.085H344.394ZM323.652 606.127C320.869 605.073 319.58 608.953 319.317 609.056C318.526 609.363 312.593 606.171 313.208 609.788C313.707 612.789 323.667 618.441 324.693 617.592L323.638 606.127H323.652ZM348.686 622.819C347.997 622.233 343.823 626.348 341.406 622.819C344.584 631.048 345.068 643.815 348.613 651.59C351.205 657.256 354.53 650.389 354.648 647.564C354.706 646.114 350.502 627.416 349.858 626.567C349.111 625.586 347.675 626.011 346.606 625.952C345.991 624.605 350.986 624.839 348.686 622.834V622.819ZM321.572 628.046C317.295 627.138 318.365 630.096 317.046 631.867C316.49 632.614 314.776 632.746 314.395 633.888C313.121 637.578 316.065 639.306 318.936 637.49C320.078 634.488 320.752 632.585 318.438 630.14L321.572 628.046ZM325.733 635.323H322.627L323.652 638.456L320.532 637.417C320.635 645.338 312.681 646.744 316.504 656.041C319.536 657.081 322.583 657.315 325.249 655.207L325.733 635.323ZM354.955 661.4C360.917 662.147 356.274 648.588 353.915 650.99L354.911 653.991L351.835 656.188L356.01 657.256L354.97 661.415L354.955 661.4ZM364.345 681.225C362.807 674.666 363.012 664.446 353.93 665.588C355.234 672.586 354.999 681.65 364.345 681.225ZM334.082 684.373L324.707 682.279V687.492C325.044 687.858 333.804 686.218 334.082 684.373ZM219.33 691.665L211.478 693.715L210.995 704.183L219.212 701.987L219.33 691.665ZM153.604 708.371L146.354 709.455L145.68 717.712L146.881 719.821L152.447 718.693L153.604 708.371ZM135.866 711.49C132.511 711.036 134.108 712.383 134.752 714.521L129.611 718.767C134.108 717.361 132.819 721.065 135.866 720.86V711.475V711.49ZM433.19 716.702C430.304 718.65 428.957 715.267 425.895 715.677L427.99 718.284L425.881 720.89L429.03 721.417L427.448 722.984L431.637 726.088C434.391 723.818 432.882 719.821 433.19 716.717V716.702ZM466.573 738.606L466.119 732.296L461.373 731.315C460.259 732.369 463.672 739.5 466.573 738.606ZM41.9721 817.906C40.5073 817.57 40.2583 818.126 39.3501 818.917C35.8346 822.006 31.7625 828.829 28.4227 832.49L40.9907 832.021L45.18 826.662L41.9721 817.892V817.906ZM68.0601 825.213C65.0426 822.841 49.7795 839.122 48.2121 842.388C46.9085 845.111 46.1175 848.025 48.7687 850.236L51.3468 848.171C44.7406 846.443 54.3057 840.426 54.4961 836.677C59.1542 838.2 53.1485 842.607 54.4961 843.969C55.5215 845.008 58.993 842.71 59.6961 841.363C56.664 840.499 57.8651 837.351 55.8144 835.081L64.8962 828.331L64.7643 833.412C61.4832 833.837 57.7772 836.736 61.2488 839.796L73.2455 831.45L72.7475 829.4L67.0055 833.559C66.815 829.986 65.1891 828.083 68.0308 825.227L68.0601 825.213ZM32.5827 838.742L29.9754 835.638L29.0233 837.629C22.7979 834.203 18.2863 846.458 13.8041 850.221C15.3714 849.474 22.71 848.962 23.1934 848.713C24.5703 848.025 24.7754 845.755 25.5371 845.272C26.6796 844.569 29.1844 845.331 30.0486 844.042C31.2351 842.285 29.0086 838.2 32.5681 838.727L32.5827 838.742ZM72.2348 842.944C70.1694 841.465 58.2313 846.487 57.7772 847.234C55.2578 851.363 61.3953 851.773 62.3035 854.423L72.2348 842.959V842.944ZM106.658 842.944C100.798 844.569 96.0817 846.18 97.2682 853.354C98.7037 854.994 106.159 844.511 106.658 842.944Z" fill="#F42E0A" fill-opacity="0.7"/>
<path d="M265.236 398.521C265.236 398.843 264.226 399.502 264.724 400.6C265.149 401.537 267.302 402.738 267.302 403.206C267.302 403.572 264.841 405.051 264.402 406.545C263.713 408.843 264.387 411.743 264.196 414.158L269.411 413.134L268.371 416.252C272.795 417.189 274.846 414.788 270.451 412.621C273.117 410.703 272.663 407.76 272.546 404.788C275.226 404.348 275.739 407.057 275.68 408.961L280.881 407.906C275.519 411.318 275.007 414.158 275.666 420.425C281.466 419.883 282.711 417.819 281.92 412.094C287.633 412.372 285.333 414.481 286.11 417.599C286.344 418.522 287.999 417.907 288.263 419.839C288.527 421.772 288.585 431.802 288.204 433.325C287.926 434.408 286.168 433.559 286.095 434.525C285.568 436.926 287.897 435.579 288.204 436.751C288.746 438.786 287.824 442.11 288.175 444.423C287.545 445.155 275.417 435.287 271.491 435.038C271.286 434.686 271.535 433.705 270.978 432.973C269.323 430.733 262.19 430.235 264.709 425.667L267.858 429.825C270.085 430.059 269.133 426.838 272.502 427.717C271.784 424.349 272.78 419.488 268.503 420.352L267.976 417.277L264.211 416.267C262.981 417.482 265.778 424.583 262.131 423.573L263.113 399.165C263.303 397.906 264.709 398.741 265.251 398.536L265.236 398.521ZM281.657 424.876C280.236 423.558 277.541 423.529 275.68 423.558V429.825L282.975 428.786C283.385 427.995 282.345 425.521 281.657 424.891V424.876Z" fill="#F42E0A" fill-opacity="0.7"/>
<path d="M262.102 193.008C261.648 194.077 259.846 195.278 260.08 196.537L264.079 199.407L263.142 203.433L270.437 200.315C268.547 204.385 270.305 207.035 270.437 210.74C270.144 211.003 267.126 211.765 266.277 212.819L267.302 208.66L261.062 209.685V206.552L258.982 206.069C264.065 200.285 261.897 197.708 254.792 199.26L256.814 193.462C258.498 192.672 260.315 193.008 262.087 193.008H262.102Z" fill="#F42E0A" fill-opacity="0.7"/>
<path d="M251.672 548.761C248.992 560.211 249.578 571.543 247.483 583.184L242.928 582.188C241.17 582.671 240.35 586.449 241.844 587.459L247.351 590.021L245.403 605.073L238.431 602.071L236.204 603.697L213.558 678.062C213.163 679.336 210.277 679.453 209.94 679.131C208.534 677.77 214.76 672.191 213.895 669.966C212.929 667.213 214.642 664.49 214.598 662.381C214.496 657.901 212.123 658.179 211.01 662.015L207.934 661.488C202.719 670.537 205.048 685.003 191.162 684.358L194.282 672.894C191.103 672.894 189.052 674.666 187.002 671.313C189.638 667.433 192.568 668.794 196.362 669.746L198.456 659.321H188.027L190.107 667.667L188.232 666.862C181.86 672.63 180.542 680.317 177.012 687.477C176.279 688.971 177.246 690.098 174.463 689.571C175.884 686.306 175.474 682.206 176.177 679.395C176.733 677.169 179.238 673.89 179.268 672.381C179.341 668.75 176.074 666.964 180.762 661.913C180.791 659.453 176.616 658.237 174.712 658.999C173.013 659.687 167.271 677.008 165.088 679.761C165.997 682.44 163.887 690.42 167.139 689.6V690.611L156.724 693.744C175.562 651.927 192.934 609.466 207.963 566.067L251.658 548.746L251.672 548.761ZM205.561 602.76C206 601.764 204.682 600.139 204.945 598.543C205.678 594.018 209.018 590.314 201.62 588.396C198.984 591.998 200.903 603.243 199.555 605.366C198.72 606.698 196.113 606.025 194.428 608.851C191.85 613.155 184.643 632.029 183.105 637.183C182.212 640.169 185.449 643.069 183.94 646.143L180.762 646.817L185.464 656.202C185.215 654.65 187.954 654.24 188.042 654.094C189.829 651.546 185.552 652.659 185.976 650.99L189.111 650.433L188.159 648.31L190.136 647.827L188.056 645.763C194.384 646.773 190.693 639.393 191.66 636.333C192.187 634.693 194.091 633.493 194.34 631.575C194.721 628.69 192.832 627.782 192.641 626.435C192.202 623.434 195.468 624.181 196.45 623.156C200.976 618.412 203.261 607.943 205.561 602.73V602.76ZM218.246 594.751L212.636 592.598C209.809 593.184 202.441 619.437 201.591 623.858C205.209 623.097 209.281 628.544 211.508 623.858C212.02 622.76 214.496 610.959 214.115 610.315C211.522 611.691 210.6 609.993 210.995 607.181L216.019 606.991L218.231 594.751H218.246ZM233.787 599.67L225.599 597.781C225.555 601.793 223.841 605.6 222.933 609.231C222.611 610.505 222.01 610.813 223.46 611.896C230.33 616.186 234.93 602.847 234.959 597.781L233.787 599.67ZM226.624 618.646L222.992 621.75L220.399 619.686L210.233 651.517C212.885 656.451 219.242 652.615 219.388 647.886L221.41 648.911C222.318 647.974 223.211 637.241 223.768 635.089C224.281 633.127 226.595 631.121 227.21 628.09C227.43 626.977 227.152 619.144 226.624 618.661V618.646ZM203.686 628.046C199.833 624.517 192.817 645.382 192.612 647.842C192.055 654.709 197.314 648.794 197.914 648.779C199.643 648.75 201.093 649.291 202.631 649.965L206.908 636.011C203.539 633.844 200.053 631.838 203.686 628.061V628.046ZM200.551 652.029L190.166 652.073C187.031 660.609 193.696 657.139 199.394 658.208L200.536 652.044L200.551 652.029Z" fill="#F42E0A" fill-opacity="0.7"/>
<path d="M162.994 768.871C159.463 771.755 154.556 769.135 154.923 765.211C155.054 763.834 158.965 762.824 156.724 759.5L153.619 762.619C153.472 760.862 153.399 759.09 152.813 757.421C152.227 755.752 151.832 752.487 149.43 753.248L153.487 765.167C147.174 769.31 149.561 773.22 154.63 766.807C155.01 768.446 155.699 774.098 154.498 775.021C153.897 775.489 152.183 774.874 151.261 775.152C150.045 775.533 151.041 778.081 148.404 777.217V772.019L144.273 771.96C141.9 766.748 146.925 765.84 145.255 761.579L142.149 764.698L139.015 756.352L142.003 767.202C141.725 768.388 136.232 770.511 137.96 771.99C140.348 774.04 140.963 768.842 143.16 769.911C142.486 774.596 148.712 779.662 140.641 779.355L139 777.217C138.546 782.678 134.782 777.041 136.92 774.098L132.789 774.04C130.416 768.827 135.441 767.919 133.771 763.659L130.665 766.777L128.585 759.486C127.355 762.414 130.827 767.378 130.46 769.252C130.036 771.389 125.26 772.283 129.611 774.083L131.706 772.004L133.8 780.336L129.201 781.492L127.56 779.311C128 782.722 125.612 780.35 123.444 781.361C124.03 778.476 121.379 774.537 121.276 772.429C121.159 769.823 124.323 767.817 123.371 764.698L120.265 768.856L118.171 761.199C116.003 757.289 109.909 768.856 107.741 769.911L106.775 761.667L111.901 760.54L108.781 764.186C112.429 765.884 113.029 758.768 116.838 758.739C154.805 753.482 194.955 739.324 232.513 734.565C233.626 734.419 236.307 733.672 236.043 735.488C229.686 735.092 233.802 741.447 229.071 741.608C226.273 741.696 226.727 736.966 223.519 737.596C226.668 739.646 225.54 743.863 225.892 744.697C226.024 745.005 229.393 746.689 229.656 749.793L226.668 753.234L229.642 754.171L232.908 751.169C232.923 757.802 234.798 764.918 225.614 763.673L228.221 754.273C226.507 756.528 225.921 759.749 224.661 762.194C224.105 763.278 225.218 764.171 222.494 763.688C221.688 762.429 222.391 757.86 222.23 757.611C221.952 757.201 220.443 757.011 219.989 756.352C216.708 751.55 220.282 749.925 220.399 744.917C217.572 745.327 219.959 751.184 216.254 750.129L212.943 740.92L208.944 740.744V743.863C210.409 744.419 209.867 739.646 212.05 741.784C212.43 742.164 216.005 751.315 216.034 751.857C216.122 753.512 212.211 759.881 212.064 763.688C214.203 761.082 214.452 759.032 215.99 756.689C216.649 755.693 215.858 754.815 218.319 755.342L221.454 764.727L212.079 765.782C212.079 765.093 212.035 764.391 212.079 763.702C210.966 765.064 211.083 766.279 208.959 765.782C209.076 761.052 202.323 756.089 206.835 752.736L205.282 751.184C204.726 750.876 204.872 755.254 203.188 752.238C201.825 749.793 203.129 746.249 199.555 744.932C198.486 749.471 202.66 751.037 202.528 754.903C202.426 757.948 198.134 763.307 198.515 766.836L202.69 757.45C204.931 755.02 206.454 763.131 204.491 765.518C202.104 768.417 197.46 765.752 196.948 768.93C194.516 767.831 195.497 763.995 195.117 763.205C194.765 762.473 191.396 759.486 191.484 757.948C191.542 756.733 195.571 755.503 193.286 752.253L190.18 755.371C190.078 751.052 189.697 746.176 183.911 745.986L186.533 747.962C186.401 752.56 192.48 756.894 188.1 760.071L190.166 761.638L191.206 759.559L194.355 769.984L186.035 771.053L184.965 767.905L182.871 771.023C182.065 769.384 182.827 766.03 182.519 765.006C182.461 764.83 181.113 764.654 180.879 763.966C179.663 760.598 180.044 758.812 180.776 755.386C179.37 754.8 179.751 759.691 177.656 757.465C177.143 756.923 177.627 753.453 177.378 752.78C177.187 752.267 174.565 751.564 175.547 749.119L173.481 749.617L175.532 753.848L173.467 755.357C182.27 758.387 172.691 761.682 176.06 765.811L179.209 763.702L181.802 772.063L173.481 773.132L172.427 769.984L170.332 773.102C170.757 768.52 164.942 763.366 169.263 760.057C164.517 758.695 164.458 755.635 163.008 751.198C161.075 750.964 162.188 753.321 162.437 754.376C162.979 756.616 165.132 760.276 165.03 762.165C164.927 764.054 162.071 766.25 163.023 768.93C163.521 767.905 165.454 766.397 165.63 764.757L167.051 769.222L160.957 775.182C161.338 773.366 162.261 770.525 163.038 768.93L162.994 768.871Z" fill="#F42E0A" fill-opacity="0.7"/>
<path d="M287.15 560.738C286.637 567.444 282.096 568.293 281.921 569.098C281.423 571.529 284.748 570.811 286.124 572.188C289.201 575.262 285.626 599.202 287.047 604.575L285.597 606.01L282.975 605.088L284.074 607.606C282.682 608.777 281.335 607.504 281.921 610.271L288.175 612.365V644.708C280.192 642.688 286.725 633.947 282.433 629.071L282.961 641.575C276.662 642.351 272.575 638.735 267.317 636.348L268.913 633.229L258.982 628.002L261.062 624.898L252.727 623.858V626.479L249.607 625.952C253.723 628.749 252.903 630.506 252.742 635.323C255.422 635.762 255.935 633.054 255.876 631.15L260.842 634.796L256.902 638.984L258.982 640.023L256.902 642.117L258.982 642.644L256.902 645.748L262.102 646.802L260.52 642.644L263.171 636.377L265.237 640.536L265.764 636.377C271.887 640.784 277.863 645.236 285.07 647.856L282.99 650.961C286.535 652.146 289.259 655.353 288.161 659.292L265.705 664.636L263.171 662.469C264.211 667.769 252.903 668.56 249.607 665.588L249.08 668.721L244.451 664.943L246.531 659.921C246.487 659.321 244.832 659.306 244.363 658.604C243.455 657.213 245.74 629.1 246.487 625.645C246.575 625.206 250.193 621.267 250.589 618.09C248.523 617.123 247.864 616.669 247.849 614.195C247.805 604.414 249.578 589.128 253.796 580.519C249.373 571.309 254.749 560.591 253.796 550.532C256.213 549.786 255.056 547.926 255.745 547.179C258.235 544.485 265.691 543.695 268.942 541.469L269.939 543.548C270.495 539.653 287.15 533.841 287.15 537.809C287.15 545.188 287.706 553.549 287.15 560.752V560.738ZM270.012 591.983C268.825 591.368 267.522 590.958 266.291 590.475V599.861L267.331 595.688C269.733 597.723 269.235 593.828 272.531 594.633C272.663 593.945 270.319 592.13 270.012 591.969V591.983ZM256.873 658.281C256.492 658.53 253.005 654.138 251.672 657.769C251.57 658.062 257.063 659.687 251.658 661.942L254.822 662.469L253.753 664.533H257.942C257.004 662.689 258.586 661.151 255.92 661.371L255.862 659.336L258.982 656.188L256.887 658.267L256.873 658.281Z" fill="#F42E0A" fill-opacity="0.7"/>
<path d="M252.683 515.406C251.672 517.808 254.646 518.745 254.646 518.964C254.675 520.18 253.826 526.622 253.518 528.174C252.024 535.759 245.242 538.438 238.387 540.166C235.999 540.766 233.45 539.946 231.517 540.371C230.711 540.561 229.92 543.255 228.06 544.441C226.873 545.203 215.609 549.229 215.155 548.731C215.551 542.274 217.587 534.002 222.45 529.433C214.818 527.691 214.862 540.459 212.123 546.242C210.951 548.731 208.065 548.585 208.886 551.879L206.366 550.781L205.253 552.904L203.686 551.323L205.766 545.613C201.415 549.785 197.548 542.655 191.176 545.613C190.708 543.724 192.539 543.299 192.934 541.791C193.154 540.942 192.114 539.478 192.202 539.375C192.524 539.038 200.683 536.256 201.152 536.227C204.77 536.037 203.891 539.463 205.414 534.104L252.683 515.406Z" fill="#F42E0A" fill-opacity="0.7"/>
<path d="M224.544 767.831L223.504 774.084C238.548 767.012 230.008 779.794 224.544 785.05L230.169 784.567L231.693 786.939L224.896 795.812C223.124 796.178 214.877 788.301 212.357 786.793C204.579 782.166 193.945 778.198 184.907 778.256C183.34 776.924 192.158 768.534 192.714 777.217C195.073 775.226 197.402 770.862 200.961 772.078L203.144 775.138C206.176 772.019 208.08 768.93 213.06 769.911L213.573 774.084C217.03 770.892 219.037 766.66 224.53 767.831H224.544Z" fill="#F42E0A" fill-opacity="0.7"/>
<path d="M253.767 380.79C253.855 374.538 255.906 373.923 256.638 369.589C257.81 362.707 257.048 354.156 258.176 347.128C258.352 346.015 260.857 333.336 263.142 335.942C261.53 340.876 263.947 345.884 263.2 351.125C262.863 353.453 261.325 354.742 261.12 356.338C259.846 366.133 264.299 375.284 259.861 383.777L257.956 382.898C260.652 389.838 251.804 395.49 260.022 399.092V400.629C255.525 400.073 254.206 406.574 252.712 410.015L251.672 405.857L249.607 407.467C252.244 411.084 252.185 417.116 255.862 418.888C254.617 420.41 253.621 421.567 251.702 420.454L252.742 431.333C249.285 432.958 249.71 434.891 250.647 438.2L248.582 437.146L247 442.359L244.334 436.721L246.414 435.653C242.268 425.828 247.922 413.895 250.559 405.037C251.687 401.244 250.94 396.09 251.658 393.001C251.921 391.874 256.067 392.02 254.807 386.72C254.734 386.383 250.794 384.641 252.742 380.79C253.064 380.673 253.518 380.907 253.767 380.79C253.767 381.522 253.723 387.012 255.832 384.948L258.967 376.602L256.872 374.523C253.767 375.665 254.748 378.432 255.832 380.775C255.188 380.921 254.177 380.585 253.752 380.775L253.767 380.79Z" fill="#F42E0A" fill-opacity="0.7"/>
<path d="M430.055 673.934C426.554 674.021 424.489 666.115 422.263 666.642C420.036 667.169 418.952 674.768 419.084 677.008L413.371 683.319C415.51 680.054 416.33 677.609 413.401 674.461C418.82 672.572 416.55 671.796 418.103 668.794C418.938 667.169 421.237 666.7 420.681 664.563L417.766 664.416L417.443 659.467C412.932 658.208 411.189 660.404 408.669 655.251L406.047 656.803C405.652 654.738 403.25 653.991 402.503 653.128C401.755 652.264 402.986 651.473 402.708 651.166C402.224 650.624 400.408 651.737 400.833 649.98L412.302 653.113L410.222 655.177C414.104 654.226 416.052 655.016 419.611 656.217L416.491 648.911L418.454 649.804L419.597 647.871L430.026 673.948L430.055 673.934Z" fill="#F42E0A" fill-opacity="0.7"/>
<path d="M257.927 471.554L256.008 470.661L252.712 476.225L256.902 475.727L256.14 477.587C259.978 478.67 258.088 483.209 254.368 483.107C253.489 483.077 254.441 479.827 251.687 480.94L251.629 485.069C247.615 483.473 244.671 488.993 244.246 489.139C242.884 489.622 240.584 485.801 241.243 491.379L238.65 489.3L235.003 494.513L236.028 489.3L233.934 492.419C229.144 489.373 235.062 481.672 233.934 476.781C235.706 474.732 241.228 484.688 243.308 484.088L240.188 486.167C239.881 487.777 241.77 487.426 242.62 487.045C246.179 485.42 254.119 470.28 256.887 466.342L257.912 471.554H257.927Z" fill="#F42E0A" fill-opacity="0.7"/>
<path d="M203.686 567.531C200.961 572.026 203.261 579.04 196.406 581.104L198.471 586.302C196.45 586.039 193.725 586.785 191.894 586.317C190.883 586.053 190.839 584.252 190.048 583.813C187.5 582.393 184.233 581.924 181.875 580.46C174.961 576.199 180.791 575.131 185.537 573.798C191.235 572.188 188.789 572.832 192.905 570.87C194.472 570.123 202.865 566.843 203.671 567.531H203.686ZM199.511 573.769L196.347 572.129L187.002 578.981L190.078 579.377L194.296 575.863L193.271 580.021C196.069 580.519 196.757 579.552 197.607 577.063C200.404 578.601 198.866 577.019 200.566 575.336L196.406 574.808L199.526 573.769H199.511Z" fill="#F42E0A" fill-opacity="0.7"/>
<path d="M390.418 634.283L391.663 641.399L396.687 641.59C397.171 646.275 395.794 652.527 400.862 654.636C397.742 655.368 400.1 656.832 398.767 659.321H401.902L400.862 664.548L409.783 662.601L413.371 664.563L402.942 667.696L405.022 676.027L388.382 635.806L390.418 634.298V634.283Z" fill="#F42E0A" fill-opacity="0.7"/>
<path d="M383.343 609.012C384.735 611.062 388.982 609.275 389.246 609.436C389.554 609.612 389.495 611.486 391.121 612.189C394.241 613.521 401.946 612.555 395.105 617.606L392.981 614.561L389.393 615.513C391.019 611.501 383.812 609.993 383.153 612.965L385.189 623.375C385.511 623.58 390.608 623.741 390.975 623.653C391.985 623.434 390.462 621.472 393.011 621.765L395.618 623.888C394.915 626.435 388.089 625.996 387.298 627.065C386.976 627.49 388.983 630.169 386.771 631.165C384.793 626.538 382.244 620.476 381.483 615.557C381.263 614.092 382.244 611.501 382.083 611.354C381.82 611.12 379.652 611.911 378.846 610.739C377.923 609.392 377.85 605.41 376.869 603.623C382.391 599.436 382.142 607.255 383.343 609.026V609.012Z" fill="#F42E0A" fill-opacity="0.7"/>
<path d="M340.337 367.217L338.257 358.871L334.097 359.91C334.844 356.572 335.43 354.347 333.042 351.579H337.217C336.147 345.43 336.133 338.402 335.019 332.34C334.097 327.347 331.606 328.723 330.522 326.586C330.054 325.678 331.299 322.867 328.882 321.827L333.042 321.315C333.481 320.451 332.353 303.964 331.987 302.031C331.445 299.147 326.538 296.585 326.773 292.646C326.773 291.841 331.621 293.671 330.977 290.025C332.485 289.762 331.929 290.406 332.017 291.562C333.848 316.951 337.671 341.93 340.351 367.217H340.337Z" fill="#F42E0A" fill-opacity="0.7"/>
<path d="M269.411 475.713L270.451 472.594H267.331C269.543 478.187 264.006 481.233 258.982 480.925L260.022 464.248L273.571 473.121L269.396 475.698L269.411 475.713Z" fill="#F42E0A" fill-opacity="0.7"/>
<path d="M166.114 617.592L163.008 615.513C163.404 618.265 161.163 619.525 160.137 621.516C158.277 625.147 147.965 646.407 147.628 648.53C147.262 650.799 150.059 654.65 148.433 657.564C142.589 659.658 141.095 663.099 138.151 668.384C135.206 673.67 128.717 685.706 126.989 690.64C126.579 691.797 128.41 693.026 128.571 694.344C129.157 699.191 125.963 699.791 123.869 703.144L121.188 698.517C125.949 696.335 124.513 692.016 126.256 687.829C130.167 678.458 137.301 669.102 140.567 659.248L143.028 659.189C145.064 655.485 145.533 650.023 146.778 646.773C150.587 636.875 156.387 627.665 159.917 617.621L161.924 618.631C160.079 614.971 163.213 614.59 164.268 612.072C164.839 610.71 164.239 608.66 164.971 606.654C168.267 597.723 173.262 589.377 175.503 580.036C177.48 580.724 177.598 581.222 177.026 583.11C174.683 590.885 168.164 600.637 165.498 608.748C166.699 612.043 167.564 614.166 166.099 617.592H166.114Z" fill="#F42E0A" fill-opacity="0.7"/>
<path d="M401.917 611.34L403.967 610.285C404.685 617.021 411.086 623.595 409.197 630.096C407.366 630.023 407.805 627.153 406.589 625.835C405.798 624.971 404.216 625.967 404.099 625.762C403.777 625.191 404.348 623.624 403.777 623.009C403.279 622.467 401.507 623.141 400.774 622.175C399.895 621.018 398.665 615.352 399.822 614.444L401.887 615.498C402.81 614.122 396.922 607.211 401.887 605.073V611.325L401.917 611.34Z" fill="#F42E0A" fill-opacity="0.7"/>
<path d="M84.7588 811.64C84.6855 806.398 83.9678 800.717 88.3915 797.027C91.0134 794.846 93.5622 793.425 93.445 797.833C93.2253 807.013 92.6101 807.072 84.7588 811.64Z" fill="#F42E0A" fill-opacity="0.7"/>
<path d="M241.243 474.673L246.458 473.648C246.853 475.2 245.051 474.614 244.466 475.273C240.833 479.417 246.326 479.227 246.443 480.413C241.756 485.508 240.569 473.326 236.043 475.713L237.083 469.461L238.123 472.579C243.22 470.676 239.339 466.239 239.661 465.302C240.203 463.677 243.543 458.904 245.403 457.981C248.025 465.888 242.122 467.235 241.243 474.658V474.673Z" fill="#F42E0A" fill-opacity="0.7"/>
<path d="M118.112 766.792C120.69 771.448 117.585 771.799 116.706 774.069C115.827 776.338 115.183 779.223 113.938 781.873C113.454 782.913 114.816 783.981 111.872 783.469C112.839 780.614 109.646 774.991 110.363 773C110.905 771.477 115.974 765.298 118.112 766.792Z" fill="#F42E0A" fill-opacity="0.7"/>
<path d="M198.471 793.908C192.597 797.95 194.955 794.114 193.827 794.07C192.421 794.011 190.283 795.373 188.027 793.908L189.081 790.79C177.436 796.573 188.745 785.738 191.176 781.858L196.391 782.444L195.351 786.602L199.13 783.571L203.656 785.621C201.693 789.531 199.877 789.296 198.456 793.908C201.4 791.873 204.667 786.06 207.128 786.719C213.06 788.315 206.366 793.601 204.711 797.027C207.245 795.124 209.208 792.825 211.698 790.878L216.122 793.499C216.385 795.036 210.248 800.263 208.856 801.742C207.86 802.796 207.904 805.973 205.751 803.792L207.846 800.161L202.646 800.673C204.184 799.765 204.14 798.213 204.711 797.013C203.466 797.95 202.294 798.931 201.078 799.897C196.83 797.481 197.094 798.286 198.456 793.894L198.471 793.908Z" fill="#F42E0A" fill-opacity="0.7"/>
<path d="M220.004 801.874C218.319 803.616 215.111 805.08 213.588 807.452L212.504 805.3L208.915 806.413C209.735 801.127 215.258 799.224 217.762 794.992L222.303 798.579C221.454 799.59 220.912 800.937 220.018 801.874H220.004Z" fill="#F42E0A" fill-opacity="0.7"/>
<path d="M91.0136 774.084C89.8418 774.23 88.9775 774.83 87.8936 775.123C85.7989 770.994 89.9736 766.001 93.6356 764.698C96.5212 763.688 93.9871 768.183 96.2136 767.817L96.9167 763.629L101.004 762.707L101.458 764.698L103.523 763.117C108.342 763.702 102.38 768.798 106.731 769.486C106.379 774.918 100.623 776.499 98.8209 781.404C98.2497 777.495 98.4694 774.816 101.428 772.034L98.279 772.619L97.2536 767.861C95.9207 769.369 92.2147 771.214 91.2626 772.326C90.7499 772.927 91.1454 773.922 90.9989 774.127C91.6727 774.04 92.4051 774.157 93.0936 774.127L92.5663 776.221L97.239 774.127L93.0789 779.34C93.4744 778.93 96.2869 777.407 96.1257 779.823C95.8914 783.161 95.6863 787.217 92.0682 788.711L89.9736 784.567C94.4559 784.523 91.7606 780.687 93.0936 779.325L88.9336 781.404C87.5713 777.188 88.9629 777.07 91.0136 774.098V774.084Z" fill="#F42E0A" fill-opacity="0.7"/>
<path d="M173.438 781.39C170.86 783.22 170.098 784.362 169.014 787.393L160.928 790.775C163.726 785.812 166.201 778.696 172.837 779.34C173.921 779.164 173.394 780.658 173.452 781.404C176.733 779.076 177.993 779.735 181.787 779.311C181.758 779.999 181.86 780.716 181.787 781.404C184.643 780.057 185.962 781.053 188.584 780.394C191.513 780.365 181.304 790.351 182.827 791.829L180.82 791.727L180.176 789.677L176.587 790.79C177.231 787.481 181.465 784.391 181.802 781.404C178.418 783 177.436 786.339 175.605 789.282L172.031 788.637C171.387 791.258 168.589 792.43 169.732 788.637C170.874 784.845 173.76 785.079 173.452 781.419L173.438 781.39Z" fill="#F42E0A" fill-opacity="0.7"/>
<path d="M79.5441 777.217C81.9757 777.114 84.8027 776.675 86.8388 775.123C88.4208 780.306 82.1514 777.173 82.6934 781.375C91.8337 775.753 86.9267 788.052 81.1114 788.681C77.6985 789.047 80.423 785.197 80.4816 783.923C80.4962 783.528 76.4241 783.337 79.5441 777.217C78.8556 777.246 78.1525 777.217 77.4641 777.217L76.5559 769.047C79.2804 767.055 86.4286 765.254 85.8281 770.394C85.374 773.893 80.9357 774.464 79.5441 777.202V777.217Z" fill="#F42E0A" fill-opacity="0.7"/>
<path d="M345.551 401.654L342.959 392.24L339.311 392.269L340.234 389.619C336.806 388.784 340.175 386.251 337.231 384.45L341.406 383.938V374.552L345.566 401.669L345.551 401.654Z" fill="#F42E0A" fill-opacity="0.7"/>
<path d="M165.088 780.35L159.83 790.775L156.27 789.662C155.86 789.662 155.333 793.879 153.619 791.815C152.447 790.394 159.376 776.485 165.088 780.35Z" fill="#F42E0A" fill-opacity="0.7"/>
<path d="M156.739 781.39L151.48 791.815L147.921 790.702L145.255 792.84C147.452 786.763 148.609 779.94 156.724 781.39H156.739Z" fill="#F42E0A" fill-opacity="0.7"/>
<path d="M333.701 438.566L341.391 445.463L334.653 443.383L332.016 449.635C332.119 446.912 332.134 444.555 330.361 442.359C329.014 440.689 326.421 442.285 328.94 437.688L326.802 436.077L333.716 438.552L333.701 438.566Z" fill="#F42E0A" fill-opacity="0.7"/>
<path d="M147.35 783.484L143.146 793.908L139.586 792.796C139.176 792.796 138.634 797.013 136.935 794.948C136.613 794.553 139.82 786.397 140.333 785.855C140.948 785.197 147.013 783.147 147.35 783.484Z" fill="#F42E0A" fill-opacity="0.7"/>
<path d="M137.96 786.602L134.825 788.696C137.946 795.885 133.551 795.402 128.585 798.081C129.245 792.313 130.753 785.885 137.96 786.617V786.602Z" fill="#F42E0A" fill-opacity="0.7"/>
<path d="M350.766 430.85C348.862 430.352 349.858 427.278 348.583 425.184C347.953 424.173 346.474 424.086 345.639 422.68C344.643 421.025 344.892 417.306 341.406 415.71L345.522 416.853L347.631 415.725L346.635 407.892L350.78 430.835L350.766 430.85Z" fill="#F42E0A" fill-opacity="0.7"/>
<path d="M120.222 795.988H117.087C119.269 800.629 118.64 804.729 112.927 802.24L110.832 805.358C111.623 798.521 113.586 795.9 119.709 792.854L120.222 795.973V795.988Z" fill="#F42E0A" fill-opacity="0.7"/>
<path d="M75.3694 817.892C72.4545 811.479 84.7148 802.928 83.7627 811.113C83.4404 813.821 77.5373 815.959 75.3694 817.892Z" fill="#F42E0A" fill-opacity="0.7"/>
<path d="M106.496 783.308L97.2827 786.602L107.185 774.083L106.496 783.308Z" fill="#F42E0A" fill-opacity="0.7"/>
<path d="M249.592 290.04C249.534 293.334 245.96 294.784 245.213 296.687C243.645 300.699 243.616 308.957 243.323 313.511C243.191 315.604 244.143 316.527 241.243 316.102C242.869 307.039 242.737 297.551 246.487 288.985L249.592 290.04Z" fill="#F42E0A" fill-opacity="0.7"/>
<path d="M258.967 407.921V415.213L261.047 412.094C261.691 415.359 260.798 417.79 257.942 419.386C258.864 415.784 254.631 415.784 254.778 413.763C255.495 411.523 255.759 407.599 258.967 407.921Z" fill="#F42E0A" fill-opacity="0.7"/>
<path d="M325.732 224.298L319.624 223.112L318.452 216.992C319.859 217.49 320.796 218.002 322.349 217.358C324.019 216.655 323.023 214.664 324.692 214.898L325.732 224.283V224.298Z" fill="#F42E0A" fill-opacity="0.7"/>
<path d="M67.7818 787.393C67.6353 787.818 61.7029 792.166 60.7654 792.854C59.6961 787.495 64.6617 785.768 65.9801 781.39C68.0454 781.712 68.3091 785.929 67.7671 787.393H67.7818Z" fill="#F42E0A" fill-opacity="0.7"/>
<path d="M241.258 459.036L243.323 453.852C239.602 453.603 239.983 450.675 240.203 447.571L244.348 451.744L246.428 445.492C245.843 450.163 245.989 456.576 241.228 459.05L241.258 459.036Z" fill="#F42E0A" fill-opacity="0.7"/>
<path d="M260.022 213.888C258.835 218.91 258.03 221.062 252.727 221.179C252.976 215.938 254.163 212.79 260.022 213.888Z" fill="#F42E0A" fill-opacity="0.7"/>
<path d="M323.653 202.394L317.925 200.373L316.358 195.117C319.024 195.995 320.313 195.527 322.613 194.063L323.667 202.408L323.653 202.394Z" fill="#F42E0A" fill-opacity="0.7"/>
<path d="M354.838 451.846L357.021 463.194C355.248 463.472 356.215 461.29 355.351 460.148C352.904 456.927 350.195 457.762 350.781 451.729L354.838 451.846Z" fill="#F42E0A" fill-opacity="0.7"/>
<path d="M246.458 318.196C247.703 319.411 242.722 325.488 241.448 326.234L239.163 334.888C239.031 331.432 239.236 327.537 240.305 324.243C240.525 323.569 241.653 323.482 242.166 322.559C242.385 322.164 243.499 315.311 246.458 318.211V318.196Z" fill="#F42E0A" fill-opacity="0.7"/>
<path d="M266.13 248.442L266.159 253.377C263.742 253.684 261.648 255.558 260.022 252.952C260.93 250.58 262.673 249.848 261.076 247.256L266.13 248.442Z" fill="#F42E0A" fill-opacity="0.7"/>
<path d="M236.014 359.91C234.256 360.218 234.842 357.304 235.047 356.338C235.867 352.429 237.947 347.802 242.283 347.406C243.66 348.812 234.534 356.762 236.028 359.925L236.014 359.91Z" fill="#F42E0A" fill-opacity="0.7"/>
<path d="M328.721 265.134L329.907 272.279L325.894 271.093C324.956 269.453 327.344 265.383 323.667 266.012C323.491 264.021 327.417 265.061 328.721 265.134Z" fill="#F42E0A" fill-opacity="0.7"/>
<path d="M255.744 237.988L255.774 243.01L249.592 244.108L252.683 237.285L255.744 237.988Z" fill="#F42E0A" fill-opacity="0.7"/>
<path d="M237.068 379.75C236.526 384.67 233.597 385.182 231.766 387.496C230.638 388.916 231.575 391.346 229.774 391.215C228.748 388.565 234.212 377.466 237.068 379.75Z" fill="#F42E0A" fill-opacity="0.7"/>
<path d="M262.102 331.754L261.076 328.123L264.182 311.944C265.251 318.943 262.351 324.96 262.102 331.754Z" fill="#F42E0A" fill-opacity="0.7"/>
</g>
<defs>
<clipPath id="clip0_163_2779">
<rect width="517" height="894" fill="white" transform="translate(-6)"/>
</clipPath>
</defs>
</svg>
