<svg width="744" height="1117" viewBox="0 0 744 1117" fill="none" xmlns="http://www.w3.org/2000/svg">
<g clip-path="url(#clip0_135_1064)">
<path d="M712.878 290.849C712.359 290.63 710.843 291.248 710.524 290.71C709.825 289.552 711.501 287.157 707.95 286.519C713.696 284.164 710.783 282.208 711.621 278.017C711.82 277.039 713.875 277.558 714.135 276.461C716.369 266.862 726.883 254.908 733.885 247.005C734.623 246.167 737.536 243.932 736.359 242.695C734.444 240.679 727.322 254.11 725.367 251.196C725.067 250.757 725.546 248.921 724.589 248.781C720.259 248.163 715.392 254.908 711.681 256.903L719.082 258.759L715.99 266.163C714.653 265.285 715.85 262.811 714.813 261.194C710.783 254.948 706.693 265.465 703.681 264.926C700.668 264.387 702.903 260.236 703.042 258.759C700.748 259.378 699.372 262.93 697.277 263.549C692.968 264.806 690.135 259.218 685.786 262.471L688.239 255.067L682.554 261.174C680.04 260.196 678.544 258.799 675.651 258.34C671.721 257.722 664.599 260.755 668.708 253.411C670.604 249.999 681.995 237.206 685.087 235.231C687.501 233.694 690.314 234.333 690.713 234.073C691.571 233.515 689.157 226.969 689.436 224.873C689.875 221.481 695.122 218.487 694.424 214.316C696.698 214.536 696.998 219.106 698.434 220.164C702.743 223.377 712.359 222.678 717.087 224.375C719.461 225.233 718.683 230.002 721.596 227.268L722.813 221.72C724.269 227.089 724.529 233.056 720.958 237.765C719.382 239.841 716.908 239.462 716.648 241.477C720.259 242.176 721.696 239.142 724.409 237.486C725.506 236.807 727.142 236.987 728.14 236.528C729.616 235.83 728.459 234.393 729.616 234.073C732.808 233.175 731.551 240.24 733.307 241.477C735.182 240.08 735.022 237.685 736.359 235.889C737.915 233.814 743.761 230.042 743.84 229.563C744.14 227.867 744.14 221.68 743.82 220.024C743.661 219.186 742.165 219.226 741.347 218.368C738.334 215.115 734.823 211.822 732.13 208.05C728.259 202.622 732.449 205.236 732.728 203.76C733.806 198.132 729.337 198.81 728.958 197.633C728.12 195.098 730.394 195.697 731.811 196.016C736.06 196.974 738.873 200.706 743.761 199.509L754.5 110.624L754.5 36.6243C761.358 38.4404 731.711 15.391 729.237 14.493C722.913 12.2179 702.424 4.1755 697.377 4.35511C695.342 4.43494 694.105 7.14901 692.549 6.78979C691.292 6.5104 690.633 3.23755 689.456 2.41934C687.421 1.00244 680.738 2.08008 677.626 1.86056C673.636 1.58117 669.267 0.683132 665.416 0.543438C624.678 -0.873467 583.362 1.70091 542.564 0.603307C542.264 2.33951 544.638 2.27965 545.955 2.7586C552.2 4.99372 559.022 6.53036 564.828 8.58587C567.601 9.56373 571.372 13.0361 574.324 13.8943C583.581 16.6083 591.761 19.0031 600.618 22.1562C602.534 22.8347 612.389 26.1475 612.908 26.5466C613.367 26.9059 614.065 29.141 611.312 28.662C609.077 28.2828 607.621 27.5245 605.486 29.6199C601.157 33.8507 607.781 34.4893 609.816 37.6424L611.052 35.1678L614.783 40.097C616.08 40.4762 618.813 37.7422 618.833 37.0238C618.833 36.1656 613.307 29.8195 617.217 27.764C624.519 30.2785 631.96 34.1301 639.042 36.7843C644.15 38.6801 652.808 39.9973 657.736 42.7712C659.591 43.8089 662.923 49.6362 665.357 49.6362C667.092 49.6362 673.057 42.7113 669.686 52.4301H675.85L672.14 51.1928C671.801 48.1195 672.259 48.4987 674.973 48.9776L720.279 64.8031C720.2 65.6612 720.459 68.3753 720.279 68.4751C719.561 68.9141 715.352 67.3575 716.569 70.311C718.025 73.8034 720.1 69.872 722.135 69.6724C728.958 68.954 724.569 75.6195 725.207 79.6107H721.516L722.753 75.8988H717.806L718.424 78.3734C714.215 77.7548 711.382 77.5951 707.392 75.819L704.239 82.0654C700.968 82.9035 700.948 78.7526 699.352 77.7149C697.436 76.4776 693.766 77.9344 692.469 75.9188C692.11 75.3401 693.347 73.6637 693.147 73.4442C691.052 71.1293 690.234 76.0585 689.516 76.5973C687.042 78.4732 679.96 74.5618 677.367 73.7835C673.536 72.646 669.546 71.8277 665.736 70.6104C650.933 65.9206 636.05 59.794 621.008 54.8648C614.224 52.6496 607.681 49.5763 601.556 48.4588C598.723 47.9399 596.21 46.7026 594.434 44.4076L598.125 41.933C595.332 39.2788 591.122 40.3365 587.671 37.6025C583.701 39.638 589.825 42.2523 588.269 43.789C585.935 46.084 586.015 41.494 585.018 41.2944C579.671 40.2966 573.426 39.2788 568.16 37.5626C567.003 37.1834 567.421 35.4272 565.806 34.7487C559.82 32.2941 550.464 35.7865 552.479 25.2495C549.187 25.1297 547.451 27.744 545.018 24.6508C544.12 23.5133 544.02 21.7571 543.84 21.5376C540.05 17.0474 542.843 25.01 542.623 25.2295C542.344 25.5089 538.693 24.2117 537.696 23.9922C538.035 22.256 538.833 17.9654 540.11 17.1472C541.626 16.1493 548.609 16.5684 548.868 14.6526C549.726 8.60583 545.456 8.88522 542.244 6.70997C541.407 6.15119 541.626 4.85402 540.509 4.29524C537.576 2.79851 536.299 3.67659 534.005 5.47267C534.344 0.862741 523.451 0.104397 520.04 0.762958C515.85 1.56121 514.254 1.22196 511.282 1.68095C510.304 1.8406 510.783 4.21542 509.845 4.33516C506.115 4.7742 498.234 -0.0752112 493.287 1.78074C498.115 7.38849 508.688 6.35075 515.491 9.18456V5.45271C518.504 7.04923 521.935 7.50822 525.008 8.90517C526.524 9.60365 527.641 11.28 528.459 11.6392C529.476 12.0982 528.319 7.92731 530.913 9.16461C533.885 10.6015 533.945 14.7724 534.464 16.9676C534.703 18.0053 535.86 18.8235 535.94 19.6218C536.06 20.6795 534.763 23.5133 535.242 23.9723C535.441 24.1718 536.938 23.8126 537.716 23.9723C537.616 24.4512 537.855 25.03 537.736 25.6087C537.197 28.1232 532.369 25.2096 531.551 23.3337C530.314 20.4799 534.544 22.4556 534.005 20.2604C529.536 19.2226 520.818 21.9168 524.13 15.3112L520.419 16.5485L521.656 20.2404C516.948 20.42 511.441 18.2049 507.751 15.3311C506.773 14.5728 504.559 9.58369 503.202 11.6592C502.743 12.3576 504.12 14.2136 501.347 14.1737C495.581 14.0938 483.431 10.2423 484.569 3.01803C480.1 3.87616 475.711 1.62108 471.661 1.60113C411.152 1.5213 348.908 -1.17281 287.84 1.78074C281.796 2.08008 277.047 0.563394 271.801 0.423699C217.357 -0.953293 162.673 1.56121 108.229 0.483568C109.107 4.73428 113.855 1.64104 114.234 1.92043C114.454 2.08008 114.095 3.71651 115.252 4.15555C119.741 5.85184 128.578 6.17115 132.948 8.48609C135.601 9.88304 133.805 12.3776 131.112 12.8565C125.985 13.7945 128.838 10.5216 127.98 9.12469C127.342 8.067 121.576 10.6214 120.08 10.4418C119.162 10.342 119.541 8.50604 119.122 8.18674C118.643 7.82753 111.94 6.88958 109.187 5.31302C108.01 4.6345 108.349 2.89829 107.511 2.83842C106.035 2.71869 104.479 3.93603 102.883 3.83625C100.01 3.67659 94.1845 0.962522 90.2543 0.563394C75.3516 -0.953293 58.6733 1.50135 43.571 0.36383C42.2743 0.58335 43.1122 3.73646 41.6957 4.83407C36.9676 8.46613 38.3441 2.41934 37.8853 1.76078C37.5261 1.28182 30.4838 1.94039 28.6085 1.76078C26.9327 1.60113 25.1969 0.463612 24.9775 0.463612H0.917664V36.904C0.917664 41.1348 5.32666 35.9062 5.84534 35.6468C11.8902 32.5535 14.5436 39.9973 15.1022 39.9773L18.1346 36.7643C11.6907 26.7063 20.9476 33.0125 23.6808 37.6025C27.212 43.4896 24.4588 45.625 24.2792 50.5342C24.1995 52.7494 25.5959 55.1242 25.3366 56.5012C25.1371 57.519 23.4813 58.5767 23.1422 60.4127C22.9426 61.5302 23.8604 79.5309 19.4314 74.6017C18.8329 73.9431 19.2119 58.9758 19.5112 56.7806C19.8703 54.1863 21.7855 51.5919 21.7656 49.3169C21.7656 47.3013 20.0898 44.8666 20.6484 42.4918L18.3342 43.5495L15.7207 41.2745V47.441L9.55603 44.9664C9.43634 49.4167 8.17944 51.5121 4.56848 48.0996C2.87274 46.4831 2.77301 44.0085 0.897705 43.7291V90.6666C3.45129 90.7664 3.27179 91.2653 3.37152 88.8306C3.47125 86.2163 2.77301 83.1829 3.97003 80.7682C5.88525 76.9166 12.1296 78.4932 13.0673 81.5665C13.4064 82.704 14.0249 88.651 14.0848 90.2675C14.1845 92.9616 11.152 96.1147 15.7007 95.6158C14.4837 101.303 2.6134 93.4006 0.897705 97.4717C-0.518738 100.864 9.07727 100.086 9.53613 103.02C4.72815 103.139 1.29669 101.443 0.83783 107.29C-1.5163 137.484 2.81287 170.831 0.83783 201.165L0.877808 1117H29.8852C31.5411 1117 32.1396 1111.22 33.2767 1109.9C34.4139 1108.58 38.1646 1107.96 39.202 1106.31C41.4364 1102.76 40.1795 1098.47 39.1221 1094.79C36.9276 1094.79 37.0872 1097.97 36.6483 1098.49C35.3516 1100.06 29.6259 1094.21 35.4313 1094.77C35.4313 1092.72 31.8204 1092.82 31.6408 1091.54C31.2418 1088.83 33.5561 1085.43 32.9775 1082.44C41.9351 1089.25 38.1646 1080.86 39.202 1080.01C39.7007 1079.59 41.8752 1080.15 42.8528 1079.97V1079.33C41.0573 1076.71 44.1695 1070.17 40.9974 1068.85C40.7381 1068.73 38.6035 1073.12 38.4438 1073.78C37.7855 1076.49 40.3591 1078.81 36.0499 1081.18C31.182 1081.22 37.1072 1077.45 36.6882 1075.66C36.4688 1074.76 30.8229 1072.2 30.5436 1069.45C30.5436 1068.21 44.2294 1059.73 45.0074 1058.63C45.586 1057.81 45.3267 1056.26 46.0049 1055.3C46.7631 1054.22 48.9376 1054.1 49.0773 1053.4C49.2967 1052.25 49.4763 1049.19 47.2219 1050.31C43.7905 1052.01 43.9102 1057.77 39.202 1056.48C39.0623 1053.26 42.4537 1052.03 43.97 1049.53C45.4862 1047.04 47.8403 1042.33 44.1695 1042.35L45.3665 1037.94L51.5311 1040.41L49.0573 1032.99L45.3665 1036.7C43.4313 1027.46 51.1122 1022.61 49.0573 1013.23L44.1296 1014.47C43.9501 1013.05 43.2119 1007.66 42.6733 1007.2C41.3765 1006.07 38.6234 1009.18 39.1022 1003.93C39.3616 1001 41.1371 1000.08 41.3765 998.843C41.6359 997.506 39.9401 995.61 40.4787 994.852C41.4164 993.554 45.965 994.971 42.8727 988.525L45.3466 992.237C47.8603 990.601 48.4589 989.084 51.5112 991L52.8478 981.86C50.9526 981.561 48.798 977.41 48.4388 977.43C48.1595 977.43 45.9451 980.483 44.1097 979.904L46.5635 986.071C46.2842 986.35 39.4612 983.836 39.2418 983.516C36.5685 979.465 45.606 978.328 46.5635 974.975C45.1072 974.197 39.6807 974.696 39.162 974.376C36.1696 972.56 42.015 967.99 36.7082 968.769V967.551C40.9376 967.631 40.2394 963.281 39.182 960.147C42.6334 959.449 41.5959 961.385 41.6558 963.859C48.2792 963.46 47.8603 959.289 46.5835 953.981C55.202 956.296 51.2518 946.856 52.9675 944.282C53.3665 943.703 56.0997 943.484 56.4588 942.227C56.7581 941.169 55.3217 939.313 54.6035 939.153C52.1097 938.575 51.3117 943.065 49.6758 944.083C48.3391 942.825 49.3964 940.231 47.2219 939.173C43.8702 942.965 42.8129 939.872 41.0773 939.712C40.0399 939.612 38.3242 940.75 37.965 940.391C37.7256 940.151 38.9426 934.703 39.2418 933.865C39.6608 932.707 41.3965 933.206 41.6359 932.169C42.3341 929.355 43.6708 924.865 44.0698 922.45C45.2668 915.365 41.7156 919.516 39.3815 917.96C38.7032 917.501 37.0074 912.332 35.4713 911.374C36.5087 909.618 40.8179 913.11 41.6359 911.993C42.1545 911.294 42.1545 905.148 45.3466 903.95L42.8329 902.573C43.1122 897.604 41.0175 892.795 42.2743 887.925C42.9925 885.131 46.0249 882.178 45.3267 878.625C42.5735 878.825 42.2144 882.876 41.6159 883.555C41.5361 883.654 39.3017 884.074 39.162 882.936C38.4239 877.368 41.4164 879.045 41.6558 877.767C41.8952 876.57 41.2368 874.135 41.7356 873.716C42.2742 873.257 44.5885 874.095 45.187 873.557C45.7057 873.098 48.3391 861.503 47.202 860.086C44.1696 864.496 40.0398 862.421 39.3615 857.971C39.0423 855.935 40.4388 854.618 40.4987 853.361C40.5386 852.463 38.0648 852.922 37.8853 852.004C36.9476 847.214 41.4962 846.176 42.2743 842.923C42.7332 841.048 41.3566 838.034 42.9127 835.061C43.7107 833.524 47.561 832.706 47.6608 831.089C47.7605 829.473 42.8928 826.619 47.8204 823.666C46.4438 820.313 43.2718 824.105 41.7755 822.967C41.5162 822.767 38.803 817.24 39.202 816.88C43.0324 816.461 46.6433 817.1 50.2942 818.118V813.787L52.768 814.406C52.6882 808.598 45.2269 811.273 41.7157 809.437C41.8753 812.151 40.6184 814.685 37.985 815.623C39.601 812.61 35.7106 807.381 35.7705 806.343C35.8304 805.046 42.1146 801.913 37.965 797.104C45.8254 797.024 41.9551 793.092 41.7157 788.941C41.576 786.447 42.6333 777.985 45.4662 777.886L44.1496 773.635H47.8802C44.6683 769.524 48.9576 764.415 46.6434 760.883C46.0848 760.024 44.6883 760.344 44.2095 759.166C43.9701 758.548 43.0124 753.658 43.0723 753.359C43.4513 751.523 48.5186 750.565 48.8777 748.17C49.0374 747.093 47.9999 745.756 48.0598 744.638C48.2194 742.263 49.8354 735.338 49.7556 734.081C49.5162 730.429 46.2045 726.937 49.0773 723.005L45.3665 722.367C47.3017 720.232 46.7431 714.225 47.3017 713.087C48.1396 711.311 53.4064 708.737 51.4513 705.823C50.9326 705.045 46.0648 705.125 46.5635 700.175C46.9027 696.743 51.9102 695.785 51.571 692.113C47.6209 695.106 43.9501 687.663 41.6957 684.709C46.1646 683.372 45.0074 687.144 47.4612 688.181C49.0573 688.86 51.6309 688.84 53.4064 689.658C56.0798 685.727 52.1296 682.873 51.0125 679.86C50.5336 678.582 50.8328 674.212 50.2742 673.633C49.7156 673.055 45.2468 674.711 42.8528 671.797C38.4238 666.409 46.0847 666.828 47.601 664.653C49.4164 662.039 46.7431 654.575 52.8079 656.271C50.9127 653.717 52.0299 650.943 51.611 648.448C51.4913 647.77 46.6832 646.293 46.9825 642.042C47.162 639.488 52.7481 639.608 51.571 637.153C50.4937 634.918 45.2667 633.74 44.1695 632.802C39.581 628.891 48.8578 631.825 49.0972 631.585C50.2343 630.428 45.3466 626.556 46.6234 624.181H51.571C51.2917 620.409 47.7206 620.509 50.3541 616.358C51.192 615.021 53.9451 616.019 52.8079 611.828L47.8802 613.066L46.6633 609.972C49.2169 606.879 52.5287 609.872 51.611 605.023C51.4514 604.225 48.0199 605.223 49.3167 601.511C49.4763 601.072 51.4114 598.298 51.5909 598.238C45.7056 598.976 47.4613 596.302 50.9725 593.309H51.571V598.238C54.4438 597.16 57.0972 600.273 53.985 591.712C53.5062 590.395 51.7505 591.553 51.4713 589.078C51.0723 585.426 50.6733 580.337 54.0249 583.43C52.4688 577.922 54.1047 575.927 55.2618 571.077C49.2568 572.574 52.2892 564.751 47.8603 561.817L52.8079 561.199L50.3341 548.846L52.1696 551.3C55.7606 548.926 51.9301 548.526 51.8902 546.99C51.8702 545.832 54.803 544.914 54.0249 542.679H50.3142C51.6309 537.99 51.1321 534.657 49.955 530.007C48.4987 524.24 50.5137 522.982 50.0748 521.266C47.9601 512.725 48.8778 511.827 49.8753 503.784C50.0748 502.208 47.6409 499.534 48.02 497.737C48.399 495.941 53.2867 493.726 51.5311 489.555C50.6733 490.793 43.3715 495.682 45.3865 491.411C46.384 489.316 51.571 482.91 51.571 481.553C51.571 479.417 49.1171 477.661 49.157 475.406C49.177 473.89 50.3341 472.273 50.3541 470.397C50.4937 460.1 52.8678 441.859 50.0548 432.36C49.7356 431.243 48.6782 430.424 47.8403 429.646C49.9949 426.513 51.1521 428.269 53.606 428.828C57.5561 429.706 53.2269 425.036 52.6483 423.48C51.6907 420.925 53.6858 417.573 50.3142 416.674L47.8403 420.366C46.8628 417.752 47.4214 415.677 47.9002 413.022C51.0125 411.945 54.5237 414.06 57.0773 414.04C61.4464 414 63.2817 411.626 68.7281 414.878C70.0448 415.657 73.5959 420.546 74.9725 419.129C77.985 416.036 61.0873 409.829 60.4489 408.971C59.8104 408.113 59.9501 405.639 58.9326 404.321L64.4788 405.559C67.1321 402.785 62.7631 403.124 61.3267 401.328C60.1696 399.871 60.2294 397.097 58.9725 396.239C58.394 395.84 56.7581 396.958 56.6184 396.758C55.9401 395.9 55.1221 390.851 54.4638 389.494C53.8055 388.137 52.0099 387.359 51.5311 386.401C49.4164 382.11 55.601 386.64 56.0997 386.78C58.0748 387.359 60.369 386.919 62.7032 387.598C65.0374 388.277 68.1695 391.889 70.0448 390.132L66.3541 385.822C67.8902 385.902 69.8453 386.52 71.2817 387.059C71.2418 386.381 71.6209 385.403 71.0224 384.884L61.4064 380.274C63.5012 377.4 63.4414 379.176 65.4763 379.895C68.2494 380.873 85.0074 388.775 81.1371 393.246C79.4413 395.201 77.8453 390.492 76.7082 389.693C75.571 388.895 72.6583 387.598 71.2618 387.079C71.3616 389.155 70.8029 391.909 71.4014 393.745C72.2194 396.299 76.5286 394.463 73.7356 398.175C77.0273 398.015 79.5611 395.72 83.0324 395.64C86.5037 395.561 89.8353 397.616 93.4862 396.958C94.0847 392.607 93.1072 384.146 89.177 392.008C87.3615 387.897 83.6508 387.259 80.6184 384.525C75.571 379.955 75.2917 381.491 73.7556 380.334C73.0773 379.835 72.8179 378.438 72.0399 377.6C71.561 377.081 70.3641 377.241 70.2045 377.021C69.5062 376.043 72.3989 371.493 71.2219 369.857C70.8229 369.298 60.4888 366.225 58.6733 365.746C57.4164 365.406 54.9625 365.367 55.2618 363.63C64.6384 364.688 85.566 369.837 91.0723 377.799C92.9077 380.454 92.2892 385.303 95.98 384.625C96.8378 381.651 96.4588 378.438 95.9002 375.465C95.5411 373.569 93.8653 371.174 93.9052 370.435C93.9651 369.617 97.3765 364.489 98.0947 362.653C101.067 355.229 101.347 352.475 107.112 345.969C107.97 345.011 109.646 345.171 109.646 344.432C109.546 335.831 97.0573 341.359 95.9999 333.995C93.4464 333.576 95.4214 338.206 94.783 338.944C93.2667 340.661 75.0323 335.911 71.3217 336.47C72.2194 331.281 71.96 325.035 72.8378 320.066C76.768 297.555 87.3018 265.046 97.0175 244.231C101.586 234.453 107.172 223.077 114.514 215.434C113.636 217.27 115.771 219.226 116.987 217.909C117.247 217.629 117.965 213.398 118.923 211.802C120.439 209.268 124.788 203.959 126.883 201.245C145.197 177.577 172.589 152.013 198.823 137.385C200.339 136.546 203.112 136.506 204.11 135.209C205.546 133.353 198.903 122.796 199.701 119.104C202.314 122.637 208.459 120.102 209.596 120.861C212.309 122.697 211.132 128.344 213.885 130.2C218.953 128.863 230.883 120.501 234.933 120.342C245.207 119.923 244.948 117.608 253.686 114.475C262.424 111.341 273.716 109.306 283.052 106.811C286.883 105.794 281.616 110.024 285.466 109.246C289.317 108.468 292.229 105.993 295.9 104.856C313.756 99.3875 332.788 103.179 350.923 101.762L379.092 104.456C383.441 106.552 377.855 110.044 378.035 114.195L375.561 112.938C368.18 117.488 375.402 126.548 366.923 129.023C364.07 122.517 364.549 127.746 363.192 130.14C361.676 132.815 357.526 134.99 355.89 137.704C354.873 139.4 354.873 141.715 354.015 143.032C353.317 144.13 348.808 143.791 352.778 146.844C353.895 147.702 358.065 148.919 359.501 148.78C365.825 148.241 365.905 134.75 373.686 138.841C373.008 136.606 375.521 134.611 375.641 133.313C375.801 131.737 374.564 130.46 375.441 127.686C376.878 123.156 384.04 116.231 386.613 111.581C387.292 110.344 387.092 108.428 387.352 108.049C388.429 106.532 406.204 113.078 409.197 113.836C413.008 114.814 417.337 114.814 420.968 115.652C423.142 116.151 424.698 118.186 427.352 117.947C427.93 117.887 428.429 112.898 430.484 115.393C430.643 115.572 430.723 119.484 430.264 120.122C429.945 120.601 427.731 120.841 426.713 122.078C422.783 126.808 418.733 134.052 413.845 138.861C409.756 142.892 408.339 142.214 403.731 139.62C403.392 139.42 400.419 137.424 399.721 136.945C398.424 136.047 397.387 132.655 396.549 132.695C396.389 132.695 393.576 133.772 393.476 133.912C392.998 134.471 394.374 141.795 394.913 142.334C395.771 143.192 405.008 144.908 407.042 143.791C407.721 146.664 404.07 147.383 403.631 149.518C403.352 150.875 404.928 153.09 403.332 154.906C405.905 154.846 408.798 155.246 411.112 156.403C413.287 157.481 419.332 163.907 418.175 156.762C417.975 155.485 410.135 152.931 409.536 152.412C408.798 151.753 409.895 147.822 411.372 147.502C413.845 146.964 414.145 150.735 415.761 151.793C418.534 153.629 420.888 152.033 420.628 158.618L427.232 157.401L428.03 154.906H429.247C429.087 162.33 438.424 159.177 436.648 167.259L431.721 166.042C431.9 167.219 433.277 168.477 434.254 169.055C447.86 177.118 463.262 183.045 477.287 191.446C479.461 192.764 485.407 195.637 485.786 195.957C486.524 196.555 491.332 202.722 493.426 204.877C505.975 217.729 520.16 229.104 531.731 241.896C564.07 277.638 593.197 336.809 601.895 385.383C604.17 398.115 604.01 411.366 605.726 424.158C611.87 422.841 614.663 414.539 618.833 411.965C622.304 409.809 628.988 408.512 633.217 406.596C634.953 405.798 635.97 403.803 637.426 403.384C639.003 402.925 642.195 403.543 642.633 403.044C643.072 402.545 642.673 398.794 644.628 398.235C647.801 397.317 648.698 407.255 648.958 409.949C649.456 415.078 647.342 420.007 651.412 424.158C647.82 423.38 646.683 427.331 645.606 427.83C637.466 431.662 626.294 432.66 618.354 436.132C616 437.17 618.115 439.624 613.167 438.267L583.521 447.008C584.579 448.585 584.339 452.636 584.978 453.574C585.197 453.893 591.362 457.186 591.741 457.266C594.075 457.765 603.212 452.596 606.983 453.793L603.312 459.361C609.097 466.146 615.86 457.964 623.022 458.743C621.047 462.834 610.614 462.215 612.529 467.384L619.312 464.929L615.621 468.621C618.773 467.962 617.736 471.195 619.312 472.932C621.347 475.147 626.015 475.187 626.574 479.318C627.132 483.449 616.619 483.109 615.621 487.161C619.85 486.462 622.404 489.256 625.656 491.391C626.574 491.99 628.249 491.83 628.908 492.369C630.564 493.726 630.424 504.483 626.733 503.225V504.443L629.027 504.543C630.623 508.075 625.436 511.208 625.456 513.703C632.559 515.618 619.93 523.94 629.187 520.488C630.364 523.741 627.511 525.617 626.993 527.532C626.374 529.807 627.152 532.202 626.494 534.437C625.736 537.012 621.207 538.748 627.97 540.245L624.279 541.462C623.781 543.996 626.613 544.695 626.813 547.07C627.032 549.564 623.382 554.054 624.2 560.68C624.579 563.713 626.613 565.01 626.773 566.807C627.052 569.74 624.419 576.865 624.439 580.357C624.439 583.45 626.274 588.12 626.554 591.473C626.793 594.247 624.319 597.041 627.97 600.732C626.953 600.932 624.898 600.373 624.299 600.772C623.621 601.211 626.394 614.143 624.259 616.777C631.162 615.38 627.052 622.804 626.713 627.255C626.334 632.383 626.773 637.692 626.035 642.801C625.516 646.333 623.262 651.402 623.003 655.672C622.783 659.185 624.439 656.032 625.556 656.91C627.052 658.067 625.975 661.4 628.589 658.885C631.282 661.28 627.392 660.981 626.693 662.039C624.239 665.75 620.249 689.997 620.688 695.106C621.426 703.787 622.783 711.191 622.943 720.072C623.222 735.857 620.788 751.563 621.706 766.949C621.945 770.941 622.843 776.449 622.584 780.161C622.364 783.234 620.269 789.42 620.489 791.436C620.589 792.374 622.863 791.895 623.082 792.913C624 797.124 621.686 801.215 621.706 805.126C621.706 808.678 625.257 813.687 620.648 813.208C619.112 816.042 624.379 816.461 624.379 817.579C624.379 819.455 622.065 822.488 621.845 825.023C621.586 828.036 623.242 830.491 623.142 833.524C622.703 847.533 624.459 858.49 624.319 871.86C624.18 883.994 625.177 896.746 625.377 908.899C625.417 911.733 623.082 915.565 622.983 918.818C622.883 922.39 625.137 926.082 624.319 929.754C624.1 930.732 622.005 930.273 621.786 931.271C620.09 939.453 624.638 949.77 625.277 957.373C625.456 959.509 624.279 961.105 624.339 963.121C624.479 968.03 628.389 972.281 627.032 976.651L640.319 989.783C635.87 989.623 630.763 987.408 626.434 985.771C622.843 984.414 624.259 981.521 621.865 986.709C621.806 987.548 634.195 994.073 636.269 995.71C637.167 996.408 640.658 998.304 639.082 999.681C638.165 1000.48 623.541 995.231 620.569 995.251L615.641 992.876C618.953 998.005 623.561 1002.28 627.95 1006.49C629.287 1007.78 632.299 1008.98 632.918 1010.18C634.514 1013.29 628.628 1010.82 629.227 1013.25C631.98 1012.67 644.828 1018.56 641.556 1021.89C637.446 1020.46 631.86 1020 627.99 1018.64C625.776 1017.86 619.89 1015.45 617.736 1014.43C616.678 1013.93 616.858 1012.53 616.04 1011.99C613.486 1010.36 610.554 1010.7 608.219 1012.61C611.152 1016.5 614.484 1019.26 618.095 1022.49C614.943 1024.85 613.087 1020.36 610.693 1019.4C610.953 1021.49 610.254 1024.09 610.633 1026C610.873 1027.22 613.087 1027.06 613.786 1027.96C614.045 1028.28 613.686 1034.11 614.404 1035.44L618.135 1034.72C619.791 1035.98 618.773 1039.73 621.147 1041.73C622.843 1043.17 624.599 1041.17 625.317 1041.69C625.696 1041.97 628.968 1047.06 631.082 1048.99C634.314 1051.97 648.16 1063.66 651.312 1064.46C655.202 1065.46 666.234 1060.29 670.843 1059.15C684.369 1055.82 698.853 1052.69 712.638 1050.33C723.072 1048.53 735.162 1049.95 744 1043.43C739.87 1040.21 734.444 1041.81 731.032 1045.28L729.796 1042.81C728.918 1046.26 727.581 1045.36 724.229 1045.28C725.945 1040.35 720.898 1038.72 718.085 1043.43L722.993 1046.5C720.539 1046.16 717.367 1047.02 715.112 1046.54C714.055 1046.32 714.554 1043.98 713.736 1043.96C710.604 1043.9 709.586 1048.35 705.736 1044.02C705.995 1045.3 705.855 1047.38 703.88 1046.48C700.07 1044.74 705.337 1040.95 701.407 1041.55L699.531 1046.48C697.317 1046.96 698.753 1044.66 698.294 1044.02C697.975 1043.57 695.84 1044.14 695.182 1045.24C693.806 1047.5 697.177 1050.33 693.387 1051.43C693.666 1049.51 691.551 1048.35 691.252 1046.88C691.052 1045.96 692.17 1044.64 691.87 1044.24C691.691 1044 690.474 1044.18 690.055 1043.7C688.499 1041.91 691.611 1037.52 684.668 1042.31L687.202 1050.19C682.773 1051.57 683.092 1047.38 682.075 1046.7C681.057 1046.02 678.643 1046.72 676.988 1046.24C673.656 1045.28 671.92 1040.15 672.399 1048.93L668.09 1046.48L667.471 1048.95C663.801 1045.2 663.94 1048.31 661.267 1048.35C655.282 1048.43 656.439 1045 654.344 1044.2C651.711 1043.21 646.943 1043.76 644.03 1042.15C642.035 1041.03 641.915 1038.4 641.337 1038.04C639.262 1036.74 639.581 1038.2 635.372 1034.82C631.541 1031.75 625.157 1030.21 621.806 1026.1L657.257 1038.8C660.349 1039.45 660.389 1042.59 661.407 1043.94C661.686 1044.32 668.748 1041.93 670.663 1041.65C672.958 1041.31 675.272 1041.73 677.646 1041.23C686.643 1039.35 695.761 1035.16 704.499 1032.29C707.092 1029.4 705.197 1030.57 703.162 1030.93C697.835 1031.91 693.486 1033.43 688.12 1031.59L684.768 1026.72L690.913 1029.2C691.87 1023.05 703.242 1025.64 705.736 1019.32C701.825 1019.34 697.716 1021.27 693.945 1021.73C691.491 1022.03 692.09 1021.39 692.15 1019.32C697.816 1019.02 710.743 1015.01 711.92 1008.82C712.06 1008.12 712.239 1006.79 711.282 1006.97C708.229 1010.86 701.247 1014.87 696.419 1015.57C693.646 1015.97 690.633 1015.39 687.801 1015.57C683.272 1015.89 680.04 1017.68 674.853 1015.59C673.935 1010.98 679.202 1013.81 681.636 1013.73C687.122 1013.53 692.229 1013.07 694.604 1007.56L677.925 1008.18C675.751 1009.12 675.551 1006.17 676.09 1005.71C676.369 1005.47 681.097 1005.85 682.773 1005.59C689.037 1004.65 694.703 1003.53 700.509 1001.06C702.344 1000.28 703.88 1001.84 703.242 998.304C697.257 998.144 691.431 1001.9 685.387 1000.84C683.751 1000.56 686.264 995.69 682.274 997.067L678.564 1000.78L681.017 998.943L678.544 995.869C684.01 993.574 692.868 995.39 695.82 989.683C687.86 990.721 681.875 991.659 674.155 988.525C667.731 985.911 671.96 980.842 669.067 975.254C668.688 970.545 670.045 968.689 670.943 965.316C671.661 962.622 669.027 958.192 666.175 959.469C665.217 959.888 663.122 962.682 662.504 959.389C662.224 957.852 664.419 952.185 661.287 949.531L667.431 947.695C667.771 943.564 660.01 941.309 661.287 937.257C661.726 935.88 664.18 935.841 664.698 935.102C666.514 932.508 665.157 923.009 667.771 918.359C667.99 917.98 669.407 918.039 669.905 917.241C674.933 909.139 668.409 910.895 666.454 907.941C665.835 907.023 666.334 904.868 665.576 903.292C665.097 902.254 661.047 899.62 662.484 898.322C662.663 898.163 665.975 897.644 666.195 899.201C666.394 900.498 665.317 902.374 667.392 902.034C668.728 896.207 672.439 894.112 677.267 891.537C675.132 889.302 672.519 886.289 669.267 885.95C665.436 885.55 669.047 889.801 666.175 889.681C665.436 886.608 662.803 884.513 663.701 881.04L666.175 883.515C668.648 882.856 668.948 880.881 668.628 878.566C665.855 880.102 664.499 878.646 664.898 875.492C665.237 872.938 668.708 871.78 666.135 868.089C666.314 866.552 668.229 869.006 668.609 868.707C670.065 867.55 666.474 863.598 666.474 863.139C666.474 860.326 675.052 856.753 667.392 853.88L664.918 860.046L662.464 855.735C662.464 854.079 671.621 853.54 668.01 848.99C662.584 851.046 661.287 844.3 667.392 847.713L668.489 837.136C662.464 834.781 667.611 834.562 668.269 833.843C671.003 830.89 667.052 822.209 669.885 818.078C675.99 817.659 667.95 824.304 673.576 823.007V815.603H667.412C666.434 811.592 671.242 810.873 672.359 806.962H667.412L669.786 798.9C665.177 796.704 663.641 791.915 669.726 794.489C669.885 791.995 669.686 791.815 672.339 792.134L673.596 805.725L677.347 802.452C675.731 799.818 678.264 793.97 677.047 792.354C676.549 791.695 673.037 791.356 673.576 788.442L672.339 790.917L669.885 789.061C674.833 784.351 671.92 783.154 667.412 787.205C668.529 783.892 667.372 779.821 667.691 777.047C668.15 772.876 670.843 766.051 672.958 772.378L677.267 764.355L673.576 764.974C673.117 760.943 673.337 760.963 677.287 761.262L676.05 755.095H680.379C682.833 752.8 679.761 752.92 678.504 751.763C677.367 750.725 678.065 748.829 675.431 748.909C674.254 748.949 675.212 750.665 674.594 751.204C673.935 751.783 672.379 750.426 671.102 750.845C670.145 751.164 666.633 754.397 666.175 753.858C666.374 747.432 668.788 740.108 666.175 734.101C670.743 733.762 670.923 736.855 672.359 739.03C672.539 739.31 676.509 735.279 678.504 736.556L674.813 741.485C680.12 741.086 679.322 743.66 680.359 747.672C684.329 744.997 679.84 742.583 679.721 739.589C679.581 736.276 682.773 735.977 678.404 734.64L679.681 729.87L674.813 725.46C676.489 726.398 679.9 725.3 680.958 725.999C682.195 726.817 683.83 734.101 685.905 731.627C686.584 730.828 685.786 727.276 684.768 725.999C682.314 722.926 680.299 724.083 677.885 723.604C676.609 723.365 674.474 720.371 673.576 723.604C672.918 726.019 675.152 729.052 674.793 731.607L671.102 728.294C669.247 725.719 671.102 723.325 671.102 720.491L673.556 721.748V714.324C680.219 717.138 677.626 712.708 677.666 708.996C677.686 705.763 679.801 704.306 676.05 700.774C679.302 701.432 677.985 698.459 678.843 697.381C678.983 697.202 683.591 696.304 680.938 694.607C680.579 694.368 678.723 695.186 678.484 693.729C678.284 692.512 678.943 690.955 678.205 689.878C677.905 689.459 676.07 689.798 675.95 688.9C675.372 684.25 683.132 673.234 672.339 674.791C671.441 671.997 674.613 670.281 674.554 668.285C674.474 666.07 672.878 662.717 672.638 660.242C672.359 657.369 673.436 653.437 672.359 650.085L674.813 651.342C673.815 642.142 684.868 650.624 685.965 644.557C687.202 637.652 683.551 641.484 680.918 639.687C678.284 637.891 682.793 633.002 673.616 636.514C673.816 634.279 672.938 630.907 674.195 629.071C676.668 625.458 684.628 624.181 681.017 630.328C686.643 630.448 683.431 625.838 684.329 623.243C684.948 621.487 688.319 621.367 688.459 617.436C688.519 615.66 681.317 615.76 681.017 615.5C678.623 613.465 684.229 612.028 685.107 611.788C686.564 611.409 686.125 608.276 685.945 608.096C685.626 607.757 679.461 609.513 676.648 609.334C674.115 609.174 674.354 608.635 674.833 606.24C675.092 604.883 682.254 604.684 683.87 604.404C684.609 604.285 685.786 601.79 685.885 601.231C686.524 597.979 681.656 600.293 681.077 597.48L682.234 592.012L687.162 593.249C687.781 592.73 685.167 591.213 684.968 589.976C684.589 587.641 687.701 587.94 682.234 585.226C682.234 584.149 692.15 577.743 685.925 575.967L683.451 578.441C683.032 576.465 684.549 574.59 684.569 572.873C684.589 570.479 682.434 567.904 682.234 565.37C681.696 558.784 686.065 546.072 687.162 538.289C687.561 535.475 686.743 536.633 684.708 537.71V532.761C688.439 531.843 686.643 534.557 687.182 535.216C690.973 540.005 688.579 528.949 688.579 528.43C688.559 527.153 689.596 525.816 689.596 524.659C689.596 520.428 683.412 520.787 682.254 518.532C680.818 515.738 686.604 517.275 687.122 514.76C687.362 513.563 685.327 511.288 686.085 508.893C686.604 507.257 689.097 506.319 689.257 505.022C689.596 502.367 686.424 498.536 686.344 497.538C686.244 496.181 689.436 493.187 688.419 490.753C683.232 493.686 682.893 489.276 680.2 488.478C676.409 487.36 668.808 489.176 666.215 484.566H685.965L674.035 481.233C671.362 481.852 666.234 483.069 664.978 479.637H691.511C692.03 479.637 693.666 482.83 693.347 479.038L688.339 470.457L692.09 467.923C689.476 463.832 687.761 468.222 686.564 468.222C685.766 468.222 683.99 465.727 682.294 465.987L683.471 462.375L677.307 464.829L674.833 461.117L684.688 458.663C680.658 457.445 673.576 459.082 671.122 454.951C675.092 454.731 679.062 453.115 682.953 452.576C688.439 451.818 690.534 454.771 689.636 447.507C702.025 447.507 714.215 450.92 726.663 449.982L726.025 440.043C727.741 438.028 730.175 436.651 732.828 436.371L724.708 434.017C721.776 432.859 705.197 433.358 704.539 432.58C704.2 432.181 704.439 430.085 703.88 428.968C697.915 417.193 699.551 410.668 700.808 397.516C700.928 396.199 701.746 395.481 702.005 394.383L698.294 392.527C699.232 390.372 702.623 391.05 703.202 390.631C704.08 390.013 701.167 384.146 701.985 383.267C702.344 382.888 705.776 382.828 706.673 381.751C708.848 379.117 707.392 370.096 709.327 366.504C706.953 361.934 705.716 354.75 699.511 358.542L700.728 353.612C698.015 355.468 692.01 352.096 692.05 349.322C692.09 347.047 695.242 344.193 694.564 341.259C699.671 339.882 694.524 346.787 695.781 347.446C696.399 347.765 698.713 346.907 699.352 347.565C700.09 348.324 698.334 353.932 702.484 349.821C702.923 349.382 705.397 345.929 705.576 345.47C706.314 343.554 702.544 343.175 702.564 341.239C698.075 340.421 700.788 343.115 698.254 343.734L697.017 340.042C699.711 338.984 704.359 341.379 706.115 341.02C707.731 340.7 708.329 338.046 710.604 338.805C709.187 341.459 708.13 344.831 711.82 346.208C709.606 341.219 713.257 339.144 714.055 335.472C714.554 333.197 713.975 330.842 714.574 328.587C715.471 325.115 722.314 318.21 714.294 321.522C716.688 316.134 709.925 316.453 708.11 315.336C705.815 313.919 709.367 311.764 711.801 314.118V305.477C708.668 305.318 705.935 311.404 705.017 311.644C702.504 312.322 702.524 308.67 701.746 308.152C699.87 306.894 696.818 309.748 696.958 306.056C697.297 297.934 701.865 298.792 701.945 306.695C706.953 307.812 702.883 302.005 703.182 301.765L710.464 301.646C711.801 298.972 711.421 297.096 710.584 294.342H714.294C714.614 294.142 713.696 290.909 713.057 290.63C713.975 291.628 716.349 289.951 715.531 288.155L718.604 290.61C720.798 289.792 720.16 286.06 720.459 285.681C720.599 285.501 722.334 285.98 722.673 285.521C725.147 282.168 718.863 280.013 717.985 280.751C717.347 281.31 721.397 283.705 720.459 285.681C717.566 284.064 711.382 288.834 713.057 290.63L712.878 290.849Z" fill="#2CC5F4" fill-opacity="0.8"/>
<path d="M61.0474 888.464C60.6484 889.003 58.2942 888.803 57.7755 890.619C57.6957 890.899 57.7356 896.027 57.8154 896.367C58.1146 897.484 59.6309 898.442 59.6708 899.141C59.7107 900.318 54.1247 906.026 57.5561 907.822C58.1346 908.121 59.7506 907.103 59.8902 907.283C60.0498 907.502 61.1272 912.152 61.0474 912.571C60.7082 914.407 56.8778 915.984 56.5386 917.8C56.2593 919.297 58.2144 922.33 57.5561 924.445C59.7905 924.805 58.2144 922.45 59.1321 921.053C59.4114 920.614 60.6483 921.133 61.4264 919.057C65.7755 907.502 63.7207 886.788 63.6409 874.495C63.6209 868.727 63.6009 862.9 63.6807 857.132C63.7406 853.8 65.5361 850.706 63.6807 846.655C62.1246 846.296 61.6658 848.99 61.5062 850.008C61.1271 852.503 61.586 855.017 61.2269 857.132C60.8678 859.248 58.8329 860.325 58.793 862.042C58.7132 864.277 61.2668 872.1 61.3466 875.732C61.4065 878.705 58.5935 880.222 58.9127 881.639C59.2319 883.056 62.9626 885.85 61.0474 888.464Z" fill="#2CC5F4" fill-opacity="0.8"/>
<path d="M738.793 259.977L741.067 260.116C740.808 265.006 738.673 267.181 733.865 264.926L735.102 259.997L727.701 261.234C726.963 264.068 730.833 265.006 731.192 266.942C731.431 268.199 729.397 271.551 730.175 272.35C731.052 273.268 734.324 269.775 736.938 269.775C739.691 269.775 741.466 271.272 743.741 272.35C742.923 266.542 743.88 260.915 743.741 255.067L738.813 259.997L738.793 259.977Z" fill="#2CC5F4" fill-opacity="0.8"/>
<path d="M677.087 933.086C675.81 932.847 672.918 933.545 672.219 933.027C672.08 932.927 670.943 930.173 670.923 930.013C670.923 927.519 675.152 930.831 674.613 927.539C673.436 920.494 667.491 928.397 667.531 930.013C667.531 930.692 669.526 931.889 669.706 933.765C669.845 935.202 668.489 936.998 669.047 938.096C669.307 938.614 672.499 941.728 672.758 941.708C674.294 941.708 678.524 935.461 677.087 933.106V933.086Z" fill="#2CC5F4" fill-opacity="0.8"/>
<path d="M57.5562 967.671C58.9328 969.287 59.9303 967.871 60.03 965.835C60.1896 962.522 59.9104 959.17 60.1099 955.857L56.3393 945.44C56.9577 947.575 55.0824 950.449 55.3816 952.045C55.5811 953.083 57.237 954.14 57.5562 955.957C57.9952 958.331 57.0176 967.032 57.5562 967.671Z" fill="#2CC5F4" fill-opacity="0.8"/>
<path d="M720.279 276.042C723.272 278.915 729.855 273.527 728.359 271.092C724.967 265.545 718.344 274.186 720.279 276.042Z" fill="#2CC5F4" fill-opacity="0.8"/>
<path d="M717.806 1034.37C717.387 1029.5 721.736 1026.8 721.516 1022.01C718.185 1025.58 710.723 1031.63 717.806 1034.37Z" fill="#2CC5F4" fill-opacity="0.8"/>
<path d="M53.8652 1010.9C52.6682 1015.01 49.8552 1018.02 55.0822 1020.77C54.7031 1018.08 59.2518 1010.14 53.8652 1010.9Z" fill="#2CC5F4" fill-opacity="0.8"/>
<path d="M561.077 11.739C561.037 13.7347 564.289 13.8145 564.688 14.3932C565.147 15.0518 562.055 19.6018 567.242 19.1428L568.479 12.9763L561.077 11.739Z" fill="#2CC5F4" fill-opacity="0.8"/>
<path d="M50.1545 849.11C47.3415 845.737 44.2892 857.611 48.2991 857.731C50.354 857.791 50.6931 849.749 50.1545 849.11Z" fill="#2CC5F4" fill-opacity="0.8"/>
<path d="M678.304 781.178C682.893 777.247 673.576 780.2 673.377 779.961C672.918 779.382 674.254 774.214 670.903 773.774C670.943 776.209 670.065 780.121 672.898 781.019C673.855 781.318 678.045 781.378 678.284 781.178H678.304Z" fill="#2CC5F4" fill-opacity="0.8"/>
<path d="M679.561 975.075L686.943 973.239L680.798 968.908L679.561 975.075Z" fill="#2CC5F4" fill-opacity="0.8"/>
<path d="M717.806 306.914L725.207 301.985L717.806 299.51C718.723 302.324 718.623 304.12 717.806 306.914Z" fill="#2CC5F4" fill-opacity="0.8"/>
<path d="M254.763 146.165C254.404 146.584 253.227 146.365 252.569 146.365C252.389 148.261 252.05 149.259 254.424 148.859C259.95 147.902 257.855 144.868 256.239 141.436C253.666 141.176 255.92 144.808 254.763 146.185V146.165Z" fill="#2CC5F4" fill-opacity="0.8"/>
<path d="M704.24 72.2468L710.384 69.1536C708.27 64.5436 702.963 70.7102 704.24 72.2468Z" fill="#2CC5F4" fill-opacity="0.8"/>
<path d="M569.716 19.1428C568.858 19.8413 575.521 25.2295 577.117 20.9788C576.14 19.6617 570.434 18.5441 569.716 19.1428Z" fill="#2CC5F4" fill-opacity="0.8"/>
<path d="M673.377 841.706L672.758 839.231V844.141C677.905 841.846 679.342 836.617 673.377 841.686V841.706Z" fill="#2CC5F4" fill-opacity="0.8"/>
<path d="M61.2469 834.302L61.8654 842.943C63.9402 841.686 65.8155 833.264 61.2469 834.302Z" fill="#2CC5F4" fill-opacity="0.8"/>
<path d="M678.324 893.573C680.239 895.987 676.588 900.757 680.778 899.739L682.015 893.573H678.324Z" fill="#2CC5F4" fill-opacity="0.8"/>
<path d="M674.613 918.279L674.653 921.911L679.541 923.208C680.359 920.933 675.731 917.161 674.613 918.279Z" fill="#2CC5F4" fill-opacity="0.8"/>
<path d="M36.5685 1114.65C35.2518 1119.48 43.3316 1115.67 43.97 1113.41L36.5685 1114.65Z" fill="#2CC5F4" fill-opacity="0.8"/>
<path d="M645.008 48.7781C646.723 50.5342 650.294 44.1482 649.935 43.8489C647.661 43.0306 643.89 47.6406 645.008 48.7781Z" fill="#2CC5F4" fill-opacity="0.8"/>
<path d="M680.798 681.137V686.066H684.489L683.252 681.137H680.798Z" fill="#2CC5F4" fill-opacity="0.8"/>
<path d="M679.561 653.956H683.252C683.731 651.601 681.656 650.643 680.16 649.027H679.561V653.956Z" fill="#2CC5F4" fill-opacity="0.8"/>
<path d="M626.474 236.508C626.633 236.129 626.115 234.991 626.753 234.393C628.309 232.936 635.232 231.359 637.566 232.796C634.933 229.683 634.713 227.647 635.172 223.616C636.09 215.614 642.135 220.703 643.731 219.226C645.825 217.29 641.596 213.139 640.698 211.702C639.362 209.587 641.217 207.152 636.309 208.11C635.252 203.62 640.319 206.454 641.257 205.635C643.651 203.54 638.783 203.001 638.863 202.642L640 196.555L642.414 195.218L641.117 190.948C639.002 191.267 629.087 189.191 628.848 187.595C627.152 176.399 632.319 178.355 641.257 178.475C637.865 174.044 639.102 171.111 640.02 166.142L634.334 174.723C631.82 175.441 629.127 170.592 622.663 172.847C621.087 173.406 619.491 175.501 618.434 175.581C618.075 175.621 611.91 173.745 611.631 173.526C606.743 169.654 620.748 172.947 620.269 171.67C619.791 166.661 611.431 169.395 609.157 167.339L611.651 159.935L615.88 161.252L617.237 158.598C618.554 158.598 623.621 161.931 623.96 158.698C621.327 156.503 606.444 156.982 605.566 156.104C605.267 155.804 605.167 152.951 604.529 151.613C602.274 146.984 594.195 147.502 589.905 148.72C587.99 149.259 587.87 148.341 588.17 151.274C592.519 152.731 599.521 151.035 603.012 153.11C605.067 154.328 602.873 156.223 602.374 156.203C601.596 156.203 594.893 150.197 595.591 156.203C598.424 155.665 598.284 157.401 598.045 159.915C598.344 160.294 603.172 153.549 605.187 162.031C606.444 167.319 606.085 167.778 601.416 167.04C598.823 166.621 584.858 162.789 583.162 161.811C581.207 160.694 583.8 158.119 583.222 157.461C578.494 162.33 573.825 157.9 568.419 159.935V156.203C560.598 158.598 558.045 148.84 566.584 146.325C567.421 146.086 566.743 148.321 568.02 148.8C569.596 149.378 573.965 148.919 574.623 149.478C575.382 150.117 575.461 151.653 576.14 152.172C576.978 152.791 578.534 152.511 579.491 153.15C580.289 153.689 581.287 158.439 583.222 156.203C586.095 152.871 577.496 149.458 575.82 148.161C576.12 143.212 580.589 146.525 580.748 146.325C581.985 144.689 576.359 140.617 575.022 140.398C573.686 140.178 571.97 141.855 571.092 141.176C565.387 136.806 560.898 138.502 554.474 136.167C552.579 135.489 551.721 133.234 550.304 132.854C548.05 132.236 544.339 135.529 541.267 132.735C542.564 134.77 541.047 142.074 541.327 142.473C541.586 142.853 547.83 145.287 549.307 146.305C554.713 150.017 561.995 157.64 565.626 162.629C565.845 162.909 565.446 168.536 565.945 169.794C568.678 168.756 569.556 164.805 568.399 162.39L603.332 171.011C607.362 172.827 601.636 184.182 605.387 186.517C607.501 187.834 616.06 188.812 617.536 189.81C618.234 190.289 618.454 192.863 619.631 193.262C624.279 194.839 622.065 190.608 622.743 189.571C623.86 187.794 634.693 193.921 637.446 193.342L637.387 200.547C631.182 203.36 630.564 202.702 624.519 200.726C620.229 199.329 615.082 197.254 610.733 195.997C609.496 195.637 604.449 194.779 603.312 194.779C601.416 194.779 600.339 197.294 598.045 195.717C597.965 199.07 600.778 201.584 602.953 203.74L598.045 203.121L599.262 208.649C599.022 209.946 593.696 210.565 592.598 210.365C591.282 210.126 589.466 200.846 589.606 200.187C589.965 198.391 594.434 196.735 593.097 193.262C592.539 192.564 590.185 196.795 588.269 195.637C586.294 192.245 584.219 188.792 581.965 185.519C581.347 184.601 579.93 184.581 579.491 183.823C578.633 182.326 578.514 178.934 578.135 178.595C577.576 178.096 573.586 178.495 571.691 177.297C569.396 175.841 571.312 172.468 564.708 174.763C563.95 177.178 567.521 178.235 567.062 180.111C566.783 181.209 564.668 182.187 564.668 184.003C564.668 186.018 569.077 190.189 568.419 193.262C562.833 192.624 559.641 193.622 561.277 199.788C562.913 205.955 568.439 203.879 570.773 207.591C571.511 208.749 572.968 213.418 573.327 214.955C573.406 215.274 567.401 215.853 573.367 219.206C572.888 215.354 575.322 216.252 577.117 218.547C579.711 221.86 578.753 225.951 580.209 229.044C580.808 230.341 585.636 236.488 586.953 235.251L589.426 230.302C587.91 237.745 593.636 236.328 595.491 237.825C596.01 238.244 595.292 242.475 595.81 244.311C596.429 246.446 599.86 247.704 600.399 249.679C600.938 251.655 598.584 254.329 599.382 256.744C599.741 257.861 605.406 260.376 604.249 264.906L610.394 262.431C611.392 265.145 611.292 268.578 612.209 271.132C612.928 273.168 614.743 274.206 615.342 275.423C617.197 279.235 610.374 274.166 611.651 277.858C612.349 279.833 615.561 286.678 616.638 288.714C617.117 289.632 619.411 290.989 620.788 293.464C622.165 295.938 620.429 298.453 625.636 296.836C627.491 296.257 628.289 293.763 630.145 293.324C632.579 306.335 625.656 297.774 625.217 298.273L623.98 301.366L627.691 301.985C624.379 307.114 629.606 307.014 633.855 305.677C634.494 303.641 631.8 302.404 631.741 301.366C631.661 300.129 634.115 298.333 633.736 296.577C633.357 294.821 628.828 293.144 630.165 289.632C633.975 293.064 639.362 293.583 636.329 299.51H641.277C638.723 296.138 642.234 297.575 642.534 296.297C643.292 293.084 641.796 287.716 642.434 284.264C642.693 282.827 648.279 283.126 644.968 277.299H651.132C650.933 272.43 652.449 269.237 651.112 264.407C650.733 263.03 649.656 263.749 648.678 263.709C649.975 268.458 643.711 263.349 642.574 265.006C642.015 265.804 642.813 268.877 640.638 269.875C637.885 266.423 636.309 261.334 640.638 258.779C641.795 258.54 640.938 260.536 641.456 260.935C643.651 262.551 646.045 260.176 646.165 258.161C646.244 256.923 642.653 256.524 641.616 255.886C641.197 255.626 641.297 254.349 640.359 253.89C634.334 250.937 629.566 254.409 631.382 243.972C633.456 243.513 635.272 245.069 637.047 245.189C640.18 245.389 640.858 242.216 641.776 246.386C648.519 245.169 648.878 243.613 648.658 236.568C646.424 237.965 644.848 237.087 642.494 236.568V241.517C641.197 239.921 637.107 239.322 636.589 238.783C635.89 238.085 636.329 234.892 634.454 234.113C631.94 233.056 633.057 236.508 631.86 236.588C630.384 236.688 628.888 236.288 626.454 236.588C625.397 239.162 623.96 239.581 623.92 239.821C623.461 242.415 625.576 245.049 625.217 247.724L622.763 246.466C623.421 251.196 622.105 250.338 617.815 250.178L620.289 246.506C614.823 246.426 618.713 239.721 616.598 235.37C620.19 236.269 618.873 239.581 620.928 241.537C624.519 242.295 621.865 237.546 622.883 236.668C623.421 236.209 625.476 236.728 626.474 236.608V236.508Z" fill="#F3F3F3"/>
<path d="M468.509 125.351C468.688 124.513 468.628 123.655 469.147 122.816C469.586 122.118 475.272 123.096 472.219 120.422C471.96 120.182 467.551 120.661 465.696 120.162C464.479 119.823 460.329 116.231 459.89 116.71C458.055 122.397 464.618 120.442 465.895 121.858C467.172 123.275 463.94 125.351 468.509 125.351C468.249 126.528 469.267 128.464 466.733 127.785C463.92 127.027 459.99 121.26 458.035 121.659C453.965 122.457 459.332 129.242 455.581 127.825C449.416 125.491 444.409 122.038 437.127 122.916C436.688 122.976 429.406 125.81 429.027 126.029C428.189 126.568 428.07 128.025 427.411 128.684C425.975 130.061 423.342 129.901 424.14 132.735L426.653 133.453C423.641 138.941 426.793 136.926 427.85 138.522C429.726 141.356 428.409 141.076 431.96 144.03C432.499 144.489 432.539 145.786 432.958 146.125C434.294 147.123 439.262 145.946 441.357 146.365C443.152 147.922 433.237 154.208 440.12 153.769L441.357 151.314C443.79 153.769 439.222 159.077 440.14 159.955C440.339 160.155 443.391 160.554 443.83 159.117C444.209 157.84 446.204 151.773 446.504 151.514C446.723 151.334 451.631 150.296 451.91 150.316C454.165 150.476 453.247 154.906 453.965 156.004C455.601 158.518 463.302 159.875 466.035 157.501C467.91 160.235 461.885 164.026 460.509 163.687C459.272 163.388 459.052 160.574 458.434 160.175C457.377 159.516 455.721 160.255 454.564 159.975C453.347 159.676 454.464 156.144 449.496 157.6C447.521 158.179 447.342 161.971 446.304 163.647L453.167 162.689C455.501 168.137 456.997 164.705 458.673 165.503C462.444 167.319 465.297 173.645 466.015 174.164C467.711 175.382 471.202 174.503 470.982 178.475L473.436 176.02V179.732C480.18 180.331 477.785 174.224 478.384 173.546C479.022 172.827 484.668 176.499 485.227 177.218C486.843 179.333 483.491 180.51 483.252 182.845C482.992 185.42 484.828 186.677 485.167 188.273C485.446 189.61 484.189 191.686 484.549 192.065C485.746 193.322 490.414 187.755 491.511 186.657C491.91 186.258 492.608 182.366 494.404 184.661C494.643 184.961 494.464 186.457 495.681 187.675C496.499 188.473 505.855 194.819 506.833 195.218C508.688 195.977 510.125 194.18 510.464 194.54C510.963 195.078 509.785 199.768 508.948 200.447C507.91 201.285 505.277 200.646 504.299 202.582C504.918 203.66 510.224 203.4 510.424 203.161C511.102 202.303 509.267 199.11 511.701 199.509C513.935 204.219 511.721 204.658 509.247 208.15C512.379 208.649 516.768 207.491 519.601 208.11C520.638 208.35 520.219 210.704 520.878 210.565C526.125 209.527 528.219 206.035 531.451 204.997C534.484 204.019 537.895 205.735 540.708 200.746C544.419 200.127 540.928 202.881 541.307 203.201C543.9 205.416 543.701 200.886 544.439 199.589C546.693 195.577 550.803 195.078 543.8 191.466C548.708 188.393 546.035 185.839 546.254 180.969L549.945 183.424C546.514 175.741 551.92 179.991 553.636 176.619C555.352 173.246 548.01 176.699 548.828 173.047C549.207 171.31 550.444 168.636 551.8 167.359C553.197 167.618 551.92 170.173 552.479 171.011C552.718 171.35 556.17 170.911 557.347 171.071C554.693 164.585 557.646 166.88 558.364 165.982C558.603 165.683 556.728 160.893 558.583 158.738C554.853 157.78 556.628 160.574 556.11 161.212C555.092 162.45 554.833 159.476 554.534 159.177C552.818 157.521 550.025 157.361 549.805 153.888C546.135 156.563 547.93 152.292 545.656 150.057C545.017 149.438 541.067 146.525 539.751 145.487C529.756 137.664 518.324 131.837 507.95 124.812C503.002 121.459 498.015 119.563 491.97 119.204C492.17 121.12 496.938 127.805 495.661 129.083C492.389 130.061 488.918 127.985 486.284 127.885C484.249 127.805 482.853 129.083 481.536 129.162C480.618 129.222 481.057 127.247 480.06 126.588C475.511 123.595 472.678 125.391 468.509 125.391V125.351Z" fill="#F3F3F3"/>
<path d="M315.93 20.0409C316.688 20.899 318.983 19.4621 316.708 22.8547C321.676 21.9168 325.965 26.2473 329.955 27.5046C331.671 28.0434 344.938 31.0768 345.776 30.977C346.753 30.8373 347.591 29.3006 348.17 29.2807C349.087 29.2807 350.105 31.5358 351.282 32.1145C358.065 35.4273 388.05 46.9621 395.192 47.5408C400.499 47.9798 399.042 44.5673 402.095 48.4388C402.494 48.9377 411.092 49.3169 414.524 51.2726C415.86 52.031 415.82 53.6874 416.718 54.2462C431.661 63.2665 459.91 66.1801 477.207 71.5883C481.117 72.8056 484.409 75.5197 488 76.8368C497.317 80.2494 505.656 80.6086 514.434 82.3647C520.938 83.6819 527.342 86.0966 533.925 87.0744L532.688 90.7664C536.898 91.9638 535.92 89.0501 537.197 88.2918C543.182 84.6597 542.484 89.5291 543.322 89.6289C545.636 89.8883 551.142 88.5712 553.816 88.9503C557.087 89.4093 559.9 92.1633 562.294 92.7421C565.407 93.5004 568.599 89.7885 568.499 96.9728C573.227 97.9906 568.619 91.5846 574.025 93.2809C575.402 93.7199 577.037 98.4895 578.993 99.4275L578.374 93.2609C578.913 92.6024 583.92 99.2678 585.756 95.0969C586.733 92.9217 581.606 91.9638 580.569 91.6644C573.865 89.6887 557.686 84.9391 551.721 84.6198C548.429 84.4402 548.17 87.5933 546.793 83.3027C542.623 86.0168 541.087 82.4446 537.935 81.2073C530.195 78.1739 522.933 76.6772 514.574 76.3579C512.618 76.278 510.743 77.5552 508.768 77.3158C507.711 77.1761 507.392 73.8234 505.536 72.8056C503.82 71.8677 499.172 75.4598 499.372 69.8121C505.137 70.1315 511.102 70.5306 516.03 73.544C516.888 73.544 515.491 70.0915 520.958 70.9896C522.454 71.2291 520.479 79.1517 527.402 73.8034C528.02 73.3245 531.332 72.7657 529.017 71.0694C528.818 70.9297 525.546 70.9696 524.03 70.5106C514.933 67.7167 505.656 65.0625 496.618 62.109C489.297 59.7142 480.279 53.0089 472.239 56.2617V52.5299C467.97 51.6917 465.556 58.2774 464.299 52.5898L459.89 53.7672L461.586 51.3126C463.262 51.4123 461.726 49.6961 461.127 49.4367C458.913 48.4787 455.92 48.2592 453.367 47.3213C449.636 45.9642 446.504 42.9309 442.115 43.8489C440.918 44.1083 442.633 46.7026 438.344 46.4232C430.424 45.9044 421.147 41.9929 412.988 41.4142C412.269 39.2788 415.322 37.0437 415.222 35.8463C415.062 33.8906 410.234 30.4581 409.297 35.8663C408.838 38.4606 414.304 37.7622 411.771 40.1769C411.252 40.6758 400 36.7444 397.925 36.1257C394.653 35.1479 387.451 33.711 385.476 32.7331C384.339 32.1744 380.928 25.2894 380.908 34.0104C371.691 32.6533 365.247 25.6087 354.993 27.8239L356.229 22.8946C350.663 22.9944 343.142 16.3888 338.334 15.4709C336.758 15.1715 335.761 15.7502 336.479 17.3268C337.357 19.2426 345.197 23.2938 347.691 24.6708C350.185 26.0478 354.653 25.1497 348.808 29.0811C349.347 24.0322 344.599 27.9835 342.205 27.5644C337.297 26.7263 330.753 18.7437 326.524 16.1893C325.446 15.5307 316.668 11.6791 316.13 11.7989C313.277 12.3976 314.095 18.0253 315.93 20.1007V20.0409Z" fill="#F3F3F3"/>
<path d="M663.521 313.081C664.219 311.265 660.11 308.511 658.973 308.311C657.995 308.132 656.618 309.429 655.421 309.928C654.983 310.107 653.925 309.329 653.786 309.509C652.808 310.806 653.825 315.216 649.277 315.615C646.005 315.915 645.945 313.939 644.409 313.041C637.287 308.85 639.94 316.553 643.751 319.886C644.489 323.777 640.02 318.489 638.863 322.4C637.786 325.993 642.933 329.684 641.297 334.075C644.768 332.638 647.9 330.942 647.461 326.651L654.863 329.126C655.9 325.873 651.172 325.973 651.052 324.675C650.893 322.839 652.309 321.063 652.409 319.267L656.02 322.66L658.574 331.6L661.027 327.908C662.284 330.203 659.751 336.09 657.696 336.549C654.404 337.308 652.948 334.694 653.626 340.241H662.264C662.045 344.851 658.214 345.709 656.758 347.705C655.84 348.962 655.88 352.056 654.204 352.555C652.668 353.014 650.434 352.155 649.915 350.719C648.259 346.109 652.908 348.184 653.626 347.645C654.803 346.747 651.591 344.073 651.431 343.155C651.232 341.898 652.748 340.281 651.87 339.004C651.671 338.705 646.444 335.053 646.224 335.312C646.025 337.428 646.264 339.204 647.162 341.159C648.06 343.115 652.928 346.787 647.461 346.408C648.279 343.015 644.209 344.332 643.052 342.816C640.978 340.142 644.868 332.997 640.06 336.549C639.621 332.558 639.162 326.811 633.895 327.888C633.496 328.307 634.733 337.946 635.132 339.403C635.232 339.762 636.808 342.137 637.865 345.49C638.524 347.585 641.077 349.322 640.06 352.574C642.853 352.355 640.519 346.029 641.297 345.171C643.292 342.975 644.908 349.222 646.224 349.501L642.514 351.337C642.175 354.969 645.646 356.227 643.751 359.978H647.481C646.504 363.97 646.384 368.061 648.838 371.633C650.294 373.768 653.566 373.05 652.429 377.281L653.666 372.351L662.264 373.609C662.943 374.347 660.748 383.886 662.484 385.762C662.883 386.201 664.898 385.882 665.935 386.56C667.312 387.478 667.751 390.492 669.027 390.571C672.16 390.791 674.973 388.017 674.653 384.704L667.252 383.467L674.534 381.152L675.332 383.567C676.17 383.148 679.401 382.329 679.561 382.15C680.02 381.651 678.105 370.276 678.344 368.639H674.653C673.077 371.174 675.012 379.336 674.653 379.755C674.334 380.114 672.718 378.558 671.521 378.538C669.706 378.498 667.012 382.808 666.035 379.117C664.199 372.192 669.885 375.764 670.963 374.806C669.147 371.673 671.541 368.4 670.963 364.928L673.416 367.382C672.239 363.391 673.037 360.278 673.416 356.266L667.272 358.741C666.713 353.173 662.823 348.803 667.89 343.933L669.726 347.645C671.122 347.685 671.681 348.364 672.16 346.707C672.978 343.854 673.815 346.767 674.494 346.288C674.693 346.149 676.768 342.177 676.868 341.818C677.965 337.707 676.369 328.088 683.292 329.106C683.671 326.671 680.439 328.447 679.581 327.868C677.566 326.491 682.554 318.249 684.509 320.485C685.227 321.303 685.207 326.751 687.621 327.888C690.035 329.026 689.277 325.174 690.055 325.414C694.065 326.651 692.848 328.387 693.726 331.64C694.005 332.718 695.382 333.935 695.362 334.714C695.302 336.15 691.032 337.567 691.93 340.261L699.332 337.787C701.107 334.833 694.384 335.392 696.878 332.858C698.195 331.52 702.703 338.485 704.279 332.858L700.589 332.239C706.334 327.17 701.007 328.427 699.93 326.751C699.092 325.454 699.671 323.837 699.312 322.62C698.953 321.403 697.097 322.001 696.878 320.904C696.618 319.666 697.277 317.691 696.798 316.932C696.02 315.695 688.858 316.713 686.364 315.695C683.431 314.478 679.681 310.067 677.566 309.608C675.092 309.07 669.805 315.954 667.272 306.954C663.621 307.792 667.491 312.203 663.601 313.121L663.521 313.081Z" fill="#F3F3F3"/>
<path d="M663.501 277.259C660.868 277.698 663.84 272.35 660.449 273.567C658.055 274.425 650.095 281.61 650.314 284.064C650.813 289.792 661.486 289.273 665.995 290.849C666.314 290.55 662.204 286.239 668.15 283.745C674.554 281.051 675.152 285.541 680.758 287.257L679.581 292.107C679.122 292.685 668.369 285.501 667.252 290.849C673.396 291.189 674.194 292.127 673.436 298.273L674.653 294.581L684.529 295.818C684.329 299.111 678.583 295.559 678.364 295.818L677.127 300.768L682.055 299.55L679.581 305.717C681.616 304.559 686.703 307.253 686.943 306.954C687.441 306.316 688.738 301.506 689.376 300.069C690.015 298.632 688.658 297.814 691.91 298.313L693.247 302.564L690.593 303.941C691.651 305.058 691.132 310.586 693.765 309.429C697.177 307.932 693.586 306.455 693.726 304.46C694.065 299.151 698.833 295.14 699.072 292.586C699.192 291.228 697.676 289.253 698.155 288.574C698.354 288.275 700.987 288.095 702.384 285.94C703.94 283.545 703.681 279.933 704.958 277.399C705.476 276.381 711.002 270.394 710.444 269.935C708.768 269.855 706.414 270.194 705.057 271.112C704.419 271.551 703.481 276.201 701.805 273.627C700.688 271.931 702.264 268.418 696.898 266.682C693.686 265.644 690.833 271.911 690.593 266.343C688.339 265.365 687.741 268.179 685.765 268.678C686.204 259.218 675.212 268.997 671.561 261.274C668.928 262.85 669.267 266.722 667.83 268.638C665.875 271.232 661.825 270.693 663.541 277.319L663.501 277.259Z" fill="#F3F3F3"/>
<path d="M26.6934 9.26437L24.2395 6.80973C23.0425 12.158 27.8904 15.0717 26.6934 20.3801L23.0026 19.1428C23.7806 21.7172 21.8255 24.9501 22.045 27.0056C22.3243 29.6199 26.6933 35.5669 27.6509 39.7977C30.1048 50.7138 31.1422 62.7475 34.6933 73.5041C35.5312 76.0186 38.005 83.5621 40.8579 83.4423C41.4165 83.4224 46.045 80.9478 46.2046 80.7083C47.5014 78.7925 46.9627 66.2399 47.8604 63.2065C48.439 61.2508 51.4913 60.4526 51.4115 58.0777C51.3916 57.3194 49.0375 53.1685 48.5188 52.8092C47.8206 52.3303 46.444 52.7294 45.5861 52.1108C44.5687 51.3923 44.9677 48.6384 40.2594 50.0154C45.8854 44.0484 43.5712 36.5049 43.9502 29.0212L39.0225 29.6199L39.641 24.092C36.9278 28.5822 37.7856 32.3739 33.0774 36.0259L31.641 45.0662C34.0549 39.7578 26.853 33.3717 26.6335 30.8572C26.2744 26.5267 29.8056 21.6174 30.3642 18.5042C31.1821 13.9741 30.5637 6.68999 27.2919 3.07788L26.6734 9.24441L26.6934 9.26437Z" fill="#F3F3F3"/>
<path d="M18.374 97.8709C20.8478 100.485 28.768 103 25.4562 108.049C26.3939 109.026 33.5361 108.069 34.5535 108.328C36.0099 108.687 41.7954 115.233 42.773 108.687C43.5909 103.239 42.1745 103.918 39.4413 101.403C38.9226 100.924 39.0822 99.7268 38.8627 99.5472C38.5036 99.2878 26.3341 102.161 31.6209 98.1702C31.9002 97.9507 35.3315 98.3299 36.9276 97.9108C38.2243 97.5715 44.4887 95.496 45.2069 95.077C49.8154 92.4427 38.9825 84.8792 36.5884 84.0211C35.6308 83.6819 32.2593 84.4003 31.2418 84.7994C28.0099 86.1165 29.2069 90.8262 29.167 93.8397C29.147 95.5958 29.9849 97.5316 27.3316 96.893C23.0822 95.8952 25.1969 94.6379 24.758 93.1611C23.7206 89.6887 23.3416 87.8328 22.6832 84.2406C21.4662 77.6949 18.5535 80.6884 18.0149 86.356C17.7755 88.8306 16.9974 96.3941 18.374 97.8309V97.8709Z" fill="#F3F3F3"/>
<path d="M62.4838 90.7664C62.4838 90.7664 60.0897 90.8462 60.0099 90.7664C59.6708 90.3872 62.2044 88.4714 60.6284 88.2918C53.6857 89.9282 57.7157 97.5715 55.3815 102.561C55.5012 103.858 58.1945 104.975 58.773 104.357C59.7306 103.379 56.5386 97.1125 61.2468 98.1901C60.1296 104.057 62.4439 107.709 63.7207 112.998C53.2868 115.333 57.157 108.368 51.3915 104.357L48.9177 112.998L67.4314 115.472C67.6309 109.725 65.6957 101.283 73.6159 103.119C73.6957 101.044 69.9451 101.104 69.8453 99.9862C69.566 97.1325 72.2394 96.0349 72.1995 94.0791C72.1396 91.7841 66.4937 87.3139 64.359 85.8571C63.3017 85.5777 62.9227 90.3473 62.5037 90.7863L62.4838 90.7664Z" fill="#F3F3F3"/>
<path d="M150.125 37.6624C148.15 40.6957 150.763 44.5074 150.065 46.8024C149.546 48.4787 147.052 48.3989 146.653 48.9776C146.175 49.6562 146.254 53.4479 146.494 53.6275C146.753 53.827 150.564 54.306 152.04 54.8847C153.516 55.4635 154.673 56.7407 155.97 57.1199C159.9 58.2574 165.147 57.7385 169.197 59.9736L170.494 57.4192C173.506 62.1888 176.219 60.9515 179.87 61.7697C181.027 62.0291 183.681 64.5237 184.698 63.5857C186.733 61.6899 179.791 58.876 179.791 58.0378C179.731 55.7029 185.157 58.8561 183.481 54.9446C179.451 53.1086 173.107 55.9823 170.454 55.7628C169.416 55.683 167.022 52.1307 164.11 51.4722C159.96 50.5542 150.224 53.4678 151.362 46.9022C151.481 46.2037 153.157 46.4631 153.496 46.0041C154.414 44.7668 153.875 40.7157 156.329 38.8797L150.165 37.6424L150.125 37.6624Z" fill="#F3F3F3"/>
<path d="M57.5561 33.9704L60.01 35.1878C62.1646 38.1014 56.4389 49.6961 56.4389 53.0887C56.4389 60.7918 58.0748 69.393 57.616 77.8745C57.5162 79.6706 56.0798 84.3404 56.3192 84.5998C58.3142 86.795 58.7332 82.5842 59.6908 82.1851C61.0474 81.6064 62.9626 82.1851 63.601 80.1495C64.0998 78.5331 63.621 76.4576 63.7207 74.7214C61.1272 74.442 63.1222 79.012 62.4838 79.6506C59.5113 82.7239 57.1172 71.3687 59.1322 68.8143C59.3716 68.515 60.5486 68.6147 60.8479 68.1358C61.7257 66.7189 63.6808 64.3042 63.7406 64.0447C64.379 61.171 63.2618 56.8604 63.7406 53.7273L66.9127 58.5966L73.616 57.4192C72.9377 53.2084 71.8005 50.5143 73.616 46.3035C70.1646 45.3057 71.5212 48.3989 69.9052 49.3768C68.788 50.0553 66.793 49.736 66.3741 50.195C65.596 51.0331 66.9925 53.4878 65.596 53.7073C62.2045 50.9733 64.1796 45.7647 65.3167 42.3122C65.7157 41.1148 67.2718 39.8576 67.2918 39.4983C67.3716 37.7821 60.4888 36.5049 62.5037 32.7132L57.576 33.9704H57.5561Z" fill="#F3F3F3"/>
<path d="M99.5113 50.0353C99.3118 50.2548 95.2619 49.9555 93.9452 50.0353C92.429 50.1152 89.3566 49.0974 89.6359 51.2726C93.5462 50.4943 98.8928 55.4635 101.566 55.9025C102.723 56.0821 104.04 55.0045 104.938 55.1641C108.569 55.7628 106.314 68.8542 106.913 72.2867C106.354 72.8854 93.8454 66.7588 90.8728 69.1935C95.8604 73.3045 103.421 73.8234 109.367 75.9986L108.03 70.5904L111.561 68.056L110.623 58.7164C114.933 57.6587 113.855 60.3129 114.554 60.8517C116.349 62.2087 126.404 61.3307 122.953 58.7164C121.277 57.4591 116.15 57.8383 113.955 57.1997C112.459 56.7606 111.122 55.0643 109.387 54.3659C107.292 53.5277 102.264 52.7095 101.247 51.3325C100.868 50.8336 103.701 41.3543 101.965 38.9396C100.269 38.6602 100.03 42.3521 99.8304 43.5894C99.5312 45.3456 99.7307 49.8358 99.5113 50.0752V50.0353Z" fill="#F3F3F3"/>
<path d="M61.4663 30.039C61.6858 30.3184 62.9825 30.0989 63.3815 30.5978C64.2394 31.6555 63.4614 33.4715 63.7207 33.9704C63.9202 34.3496 70.8628 31.2164 71.1621 30.6577C71.9002 29.2607 73.975 12.9962 73.6558 11.28C73.2568 9.22448 65.6559 6.41063 63.9801 11.28C63.7407 11.9785 64.4389 13.3355 64.2594 14.3134C63.8204 16.5884 60.9676 29.4204 61.4663 30.039Z" fill="#F3F3F3"/>
<path d="M119.262 25.3293C121.516 30.6976 119.721 34.7687 119.262 40.1569C118.863 40.7157 109.027 37.2433 107.192 36.7643C105.716 36.3851 104.02 36.7643 102.803 36.445C102.344 36.3253 100.289 31.3162 95.8205 34.5891L108.11 40.8354C113.835 41.0749 118.743 44.1681 123.95 45.9842C131.052 48.4388 139.112 49.1572 145.177 53.7472C146.234 48.3989 143.561 50.9334 141.486 49.4167C140.449 48.6583 140.469 46.8423 140.07 46.5429C139.272 45.9443 133.546 47.9 129.157 44.4276C128.04 43.5295 128.02 41.7135 127.781 41.5339C127.382 41.2345 124.11 44.1083 122.334 41.4341C119.98 37.8819 129.835 24.6308 119.282 25.3692L119.262 25.3293Z" fill="#F3F3F3"/>
<path d="M446.304 112.998L451.232 110.523C453.686 113.956 447.641 117.268 451.87 119.164C454.743 120.462 453.247 116.191 453.746 115.532L464.06 114.135L468.09 119.085C470.923 119.883 472.299 115.991 475.092 116.809C478.444 117.787 481.995 127.586 488.259 119.783C487.8 118.087 484.868 120.681 484.648 120.382C484.329 119.983 484.369 118.346 483.411 117.288C480.259 113.836 473.875 113.956 469.187 112.938C463.142 111.621 459.771 110.723 453.785 108.627C451.551 107.829 448.818 108.528 446.923 106.851L446.324 113.018L446.304 112.998Z" fill="#F3F3F3"/>
<path d="M278.464 68.5549C277.307 67.3974 276.09 65.2022 275.232 64.9228C272.419 64.0048 267.511 67.8963 263.661 63.6057C266.274 68.9939 261.985 69.6126 260.189 74.4221C257.915 80.5686 263.182 82.9634 254.683 82.5044C254.005 82.4645 253.027 83.4823 252.688 83.2428C252.13 82.8437 250.294 77.2958 246.384 78.4333L245.147 83.3625C249.915 81.4068 251.192 86.9547 252.11 87.1343C256.898 88.0922 258.155 86.5556 261.307 84.061C262.484 83.1231 264.499 83.9413 263.541 81.6662C262.583 79.3912 259.431 78.3734 263.042 74.7414C264.319 73.4641 266.214 73.6038 267.272 72.8056C270.125 70.6303 275.032 64.0647 277.007 70.6503C277.307 71.6481 276.808 80.868 279.681 77.216C279.98 76.8368 282.434 71.2889 282.155 71.0694C280.898 70.1713 280.519 70.6303 278.464 68.5748C280.08 70.1514 286.544 67.4772 284.628 63.6256C283.212 63.9449 276.389 66.5193 278.464 68.5748V68.5549Z" fill="#F3F3F3"/>
<path d="M696.838 362.493C695.182 366.304 700.908 364.289 700.529 365.566C699.85 367.861 695.84 376.382 693.167 376.123L695.601 383.487C697.815 383.367 696.04 381.052 699.252 380.294C701.247 379.815 703.781 380.853 704.279 380.493C705.157 379.855 706.594 374.207 706.653 372.85C706.813 369.338 703.322 366.404 704.2 362.513H696.818L696.838 362.493Z" fill="#2CC5F4" fill-opacity="0.8"/>
<path d="M178.514 45.1061L177.257 47.5408C179.611 48.0397 182.085 45.3256 184.1 45.5052C185.097 45.5851 187.132 48.7382 188.369 47.5408C190.264 45.7447 182.524 42.0328 181.287 41.6736C173.347 39.3187 163.85 37.383 156.01 34.8685C152.818 33.8507 147.93 28.2429 145.197 32.1145C146.933 34.5092 149.885 33.7908 152.239 34.9283C159.601 38.5005 165.247 40.0771 172.309 43.2502C174.224 44.1083 176.439 44.7469 178.514 45.1061Z" fill="#F3F3F3"/>
<path d="M628.948 448.944L652.948 445.232C658.574 448.924 664.24 446.769 670.065 446.869C673.117 446.928 676.409 447.787 680.16 447.707C681.636 447.687 684.748 448.625 684.469 446.489C672.738 445.332 660.549 444.893 649.277 441.6C644.15 443.975 638.624 444.913 633.217 446.449C631.541 446.928 629.407 446.449 628.928 448.944H628.948Z" fill="#F3F3F3"/>
<path d="M691.891 197.014C692.03 203.001 700.11 200.108 704.24 200.706V195.757C708.429 195.178 713.237 199.389 716.569 195.138C716.529 193.502 705.397 190.828 703.821 191.107C700.948 191.626 695.362 196.495 691.91 197.014H691.891Z" fill="#2CC5F4" fill-opacity="0.8"/>
<path d="M6.9425 53.7273C8.63826 59.7342 3.19193 60.3528 3.25178 66.0803C3.59093 66.4196 8.53854 62.9671 11.2717 68.5549C12.2493 70.5505 10.9126 73.6438 13.1071 73.4841C14.6234 68.4551 14.9824 62.2886 14.0447 57.08C13.1869 52.2705 11.3714 53.7872 6.9425 53.7273Z" fill="#2CC5F4" fill-opacity="0.8"/>
<path d="M694.384 366.205L689.995 372.451L684.509 369.917C685.626 377.44 682.634 373.828 680.798 374.866C679.202 375.764 683.053 380.114 683.053 380.434C683.053 381.491 679.641 383.128 679.561 384.744L684.489 385.982C682.414 377.68 691.252 380.513 691.871 379.775C692.03 379.595 691.891 376.582 692.569 374.926C693.387 372.87 700.868 366.005 694.404 366.225L694.384 366.205Z" fill="#2CC5F4" fill-opacity="0.8"/>
<path d="M583.661 180.55C588.289 185.06 591.402 181.688 594.793 182.526C597.008 183.065 599.302 186.018 603.032 184.641L600.978 180.909C597.167 180.371 589.008 179.373 585.776 177.836C583.661 176.818 579.531 171.131 576.499 169.834C574.484 171.071 576.898 172.568 577.736 173.546C579.372 175.461 582.205 179.133 583.681 180.57L583.661 180.55Z" fill="#2CC5F4" fill-opacity="0.8"/>
<path d="M98.2744 132.755C97.9552 133.094 98.6734 140.178 97.0375 142.014C100.349 144.968 99.631 138.442 101.925 137.025C102.883 136.447 105.437 138.382 106.913 137.185L116.788 125.371C112.02 125.151 109.586 130.998 105.756 132.236C103.481 132.974 98.5337 132.515 98.2744 132.775V132.755Z" fill="#F3F3F3"/>
<path d="M685.506 341.698C686.065 342.477 685.965 348.104 685.726 349.521C685.067 353.353 679.043 355.668 688.2 355.069C685.486 347.825 693.127 336.49 685.746 330.383C686.324 334.614 685.466 337.128 682.055 339.643C682.634 340.92 685.107 341.1 685.526 341.698H685.506Z" fill="#2CC5F4" fill-opacity="0.8"/>
<path d="M67.4314 61.1311C67.5511 63.5059 68.4089 68.4352 68.1296 70.4108C67.97 71.5683 66.0548 72.4863 66.3142 73.8833C66.4538 74.6216 70.8428 81.4467 72.3591 82.1053C72.2394 74.9809 73.5361 70.2711 70.2244 63.8053C69.3466 62.109 70.9625 60.4326 67.4314 61.1112V61.1311Z" fill="#2CC5F4" fill-opacity="0.8"/>
<path d="M206.883 51.2527H205.666C206.843 48.0796 198.524 47.2813 197.007 48.1594C192.878 50.5941 203.451 52.1307 204.768 52.7494C206.544 53.5876 207.641 55.2439 209.895 56.2617C212.489 57.4391 216.319 58.4769 219.212 58.6565C219.89 55.1442 218.254 56.7207 216.519 55.8626C212.728 53.9867 207.501 52.8093 208.1 47.5607L206.863 51.2527H206.883Z" fill="#F3F3F3"/>
<path d="M137.795 104.357C138.314 101.722 134.284 99.2877 132.848 100.645C132.309 101.144 134.065 103.838 134.045 105.015C134.045 106.392 128.06 113.756 134.683 111.741C136.519 111.182 136.319 107.091 137.736 106.133C138.972 105.295 141.347 105.694 143.401 104.397C144.419 103.758 148.728 99.2279 147.651 98.1502C146.214 96.7333 138.135 104.796 137.795 104.317V104.357Z" fill="#F3F3F3"/>
<path d="M678.324 366.205C680.718 367.422 683.551 363.75 683.87 363.75C685.107 363.71 686.264 369.717 689.417 368.659L685.267 360.377C682.853 359.779 683.332 359.619 684.509 357.564C682.614 358.043 675.99 355.109 675.87 358.162C675.87 358.601 679.741 363.63 678.324 366.205Z" fill="#2CC5F4" fill-opacity="0.8"/>
<path d="M227.87 45.0861C228.269 48.3989 234.474 48.2592 235.132 48.9776C235.591 49.4765 235.252 57.1598 238.284 50.0553L247.621 52.49L246.384 47.5607C244.07 46.9022 242.634 50.4544 240.858 50.0353C239.801 49.7959 239.003 46.8024 237.686 45.7647C233.915 42.871 231.721 42.9708 227.87 45.0861Z" fill="#F3F3F3"/>
<path d="M43.9899 744.119C48.2592 742.503 41.935 738.332 41.5161 737.314C40.5585 734.999 43.4712 735.957 43.95 734.62C45.9251 729.052 44.6483 728.713 39.6607 726.857C36.1296 729.112 40.1794 729.591 39.7804 731.826C39.4812 733.443 37.6856 735.618 38.0048 737.194C38.5036 739.729 44.2692 740.347 44.0098 744.139L43.9899 744.119Z" fill="#2CC5F4" fill-opacity="0.8"/>
<path d="M137.776 11.739C137.536 17.9454 143.701 12.637 146.235 14.4132C147.89 15.5706 148.748 23.4734 153.835 21.6174L153.217 19.1428C154.753 18.8235 156.988 19.3623 157.247 20.9589C157.486 22.4157 154.155 24.6907 158.763 24.0721L158.683 16.7481C151.302 16.1693 145.177 10.9607 137.796 11.739H137.776Z" fill="#F3F3F3"/>
<path d="M417.915 146.345L421.566 146.385L421.646 152.511C425.317 149.179 429.227 151.733 427.272 146.265C424.419 138.303 415.441 144.868 417.935 146.345H417.915Z" fill="#2CC5F4" fill-opacity="0.8"/>
<path d="M669.566 767.468C671.601 766.131 672.798 757.889 672.14 755.235C669.965 752.68 664.738 764.874 664.778 765.752C664.818 767.009 668.349 768.286 669.566 767.468Z" fill="#2CC5F4" fill-opacity="0.8"/>
<path d="M685.726 200.706C682.833 203.46 690.613 206.673 692.549 206.873C698.653 207.471 696.618 202.762 691.97 201.245C690.653 200.826 686.224 200.227 685.726 200.706Z" fill="#2CC5F4" fill-opacity="0.8"/>
<path d="M99.5113 93.241C102.763 93.4405 117.646 98.2899 119.262 96.9528C122.633 94.139 113.895 94.4184 112.778 94.1789C109.466 93.4605 106.334 92.0635 103.242 91.2852C101.107 90.7464 100.19 91.0258 99.5113 93.241Z" fill="#F3F3F3"/>
<path d="M304.379 63.6057C303.92 64.1844 302.644 71.0694 304.998 71.0095C306.195 67.6568 312.579 68.934 313.018 68.5549C315.89 66.0404 304.778 63.1068 304.379 63.6057Z" fill="#2CC5F4" fill-opacity="0.8"/>
<path d="M338.933 83.3625C340.409 83.3625 341.566 82.8836 342.743 84.1608C343.621 85.1187 347.391 90.2275 345.736 90.7664L341.406 88.3117C340.529 92.2032 343.94 94.2388 347.571 94.4783C345.097 91.3651 348.608 90.1278 348.549 87.9725C348.549 87.2939 347.671 82.4445 347.471 82.245C347.132 81.9057 338.693 79.9699 338.933 83.3625Z" fill="#2CC5F4" fill-opacity="0.8"/>
<path d="M251.531 55.204C252.05 57.0001 246.803 58.0578 248.858 59.8938C249.117 60.1333 254.304 59.9936 255.581 59.814C258.015 59.4747 263.362 57.1997 258.135 56.2019C256.419 55.8626 252.549 54.4657 251.531 55.204Z" fill="#F3F3F3"/>
<path d="M35.3514 835.52C37.5859 838.274 42.6731 826.918 37.1868 824.404C35.0921 828.615 33.7953 830.81 35.3514 835.52Z" fill="#2CC5F4" fill-opacity="0.8"/>
<path d="M89.6359 227.867L90.3541 225.293C94.8828 226.51 100.09 228.685 99.5312 221.7C97.0174 221.122 96.3591 224.115 94.0449 224.135C92.5686 224.135 90.6733 222.558 89.0973 222.938C86.424 223.596 86.8429 227.528 89.6359 227.867Z" fill="#F3F3F3"/>
<path d="M40.3591 206.973C39.9202 207.471 41.3168 215.713 43.9502 213.139C44.2295 212.88 46.5038 206.673 46.424 206.334C46.025 204.278 44.788 205.156 43.3516 205.815C42.4738 206.214 40.4589 206.873 40.3591 206.973Z" fill="#F3F3F3"/>
<path d="M43.9702 613.205C45.0874 611.269 43.8904 609.074 43.9702 607.797C44.03 606.899 45.2071 607.138 45.4664 606.919C50.1547 602.529 40.9378 601.97 40.3393 605.282C40.1797 606.22 41.8555 613.046 43.9702 613.225V613.205Z" fill="#2CC5F4" fill-opacity="0.8"/>
<path d="M200.718 33.9704C200.08 34.4494 202.314 38.76 202.933 39.7777C203.691 41.015 202.713 41.9729 205.646 41.3742L206.883 32.7331L200.718 33.9704Z" fill="#F3F3F3"/>
<path d="M674.614 434.136C674.713 439.205 682.454 439.026 685.726 437.828C685.905 434.815 686.105 435.673 683.87 435.414C680.738 435.054 677.786 434.076 674.633 434.136H674.614Z" fill="#F3F3F3"/>
<path d="M653.646 427.95C654.344 432.4 650.813 428.309 647.481 429.187V432.879H656.12V428.568L653.646 427.95Z" fill="#2CC5F4" fill-opacity="0.8"/>
<path d="M85.9451 152.531C87.1421 153.749 89.4563 150.775 90.2543 150.057C90.9327 149.478 96.798 144.649 92.7082 143.89C90.2544 143.431 85.1272 151.713 85.9451 152.531Z" fill="#F3F3F3"/>
<path d="M172.309 75.9587C171.831 79.5908 172.968 77.9544 174.624 78.5331C176.04 79.032 178.015 79.3114 179.212 80.2693C180.569 81.3469 177.656 84.2207 181.067 83.3625V77.196C178.035 77.5752 175.202 77.0364 172.309 75.9587Z" fill="#F3F3F3"/>
<path d="M530.215 132.775L538.853 138.941L536.339 131.577L530.215 132.775Z" fill="#2CC5F4" fill-opacity="0.8"/>
<path d="M659.811 436.591C664.419 439.205 668.13 431.662 664.12 430.424C661.965 429.766 658.913 434.336 659.811 436.591Z" fill="#F3F3F3"/>
<path d="M216.758 72.2468C218.494 75.799 213.407 75.7392 214.284 77.7947C214.624 78.5929 216.878 80.5886 217.975 80.8879C217.895 77.7747 222.863 72.2069 216.758 72.2468Z" fill="#F3F3F3"/>
<path d="M309.327 75.9587C308.788 79.7105 311.661 77.5153 312.998 81.5066C313.576 83.2029 312.219 83.7816 315.511 83.3625C315.511 82.5244 313.676 81.1873 314.973 80.8879C316.269 80.5886 318.883 80.2294 316.728 78.4333C316.429 78.1938 309.606 75.6993 309.327 75.9587Z" fill="#2CC5F4" fill-opacity="0.8"/>
<path d="M717.806 214.277C718.703 207.691 715.731 203.939 712.878 211.183L717.806 214.277Z" fill="#2CC5F4" fill-opacity="0.8"/>
<path d="M30.4039 1043.01C34.9326 1042.67 36.1296 1041.41 35.3316 1036.84L30.4039 1043.01Z" fill="#2CC5F4" fill-opacity="0.8"/>
<path d="M300.688 78.4133C304.998 80.4688 306.274 77.7348 306.853 73.4841L300.688 78.4133Z" fill="#2CC5F4" fill-opacity="0.8"/>
<path d="M300.748 6.88955C300.509 7.26873 300.569 9.10472 300.668 9.88302C300.988 12.2379 307.93 8.80537 306.833 5.57243C306.374 5.1733 300.968 6.53034 300.748 6.88955Z" fill="#2CC5F4" fill-opacity="0.8"/>
<path d="M390.763 92.0236C390.444 92.4028 390.464 100.505 391.382 101.902C393.895 99.9064 393.417 96.6535 393.237 93.8596C393.117 91.864 392.2 90.3473 390.763 92.0236Z" fill="#2CC5F4" fill-opacity="0.8"/>
<path d="M120.499 95.7156L122.953 85.8371C118.823 87.9725 118.963 91.9637 120.499 95.7156Z" fill="#2CC5F4" fill-opacity="0.8"/>
<path d="M47.4215 221.541C49.0574 224.055 52.2495 223.437 55.4614 223.057C53.7457 220.064 51.1323 221.521 47.4215 221.541Z" fill="#F3F3F3"/>
<path d="M673.376 1028.2C671.421 1030.15 677.805 1034.41 679.541 1030.03C680.678 1027.16 673.656 1027.92 673.376 1028.2Z" fill="#2CC5F4" fill-opacity="0.8"/>
<path d="M524.05 126.608L528.379 131.517L531.431 128.444L524.05 126.608Z" fill="#2CC5F4" fill-opacity="0.8"/>
<path d="M85.9453 129.063C85.3667 132.655 86.7432 131.078 88.858 131.637C91.1522 132.236 93.3867 133.034 95.8206 132.755C96.0201 131.038 92.848 130.679 91.5114 130.28C89.656 129.721 88.04 128.703 85.9453 129.063Z" fill="#F3F3F3"/>
<path d="M253.786 52.49C257.197 53.368 259.012 49.5165 261.187 47.5607L253.786 52.49Z" fill="#2CC5F4" fill-opacity="0.8"/>
<path d="M53.8452 8.0271C53.1669 5.15338 51.7106 6.27094 50.1345 6.19111C46.6632 6.01151 46.0248 3.41717 43.9898 6.19111L53.8452 8.0271Z" fill="#2CC5F4" fill-opacity="0.8"/>
<path d="M139.012 64.843C139.372 66.4794 145.616 70.6104 146.414 69.7722C147.83 64.7831 142.643 65.5015 139.012 64.843Z" fill="#F3F3F3"/>
<path d="M40.2792 773.774C44.8677 771.958 46.0048 771.14 43.9699 766.371C42.4138 766.031 42.5734 767.528 41.9749 768.685C41.117 770.382 39.7006 771.459 40.2792 773.774Z" fill="#2CC5F4" fill-opacity="0.8"/>
<path d="M87.1819 85.8371C84.9275 87.8128 88.8378 88.4714 89.6557 88.8505C91.4911 89.7087 93.7854 90.7664 95.8203 90.7664C95.541 88.6909 87.92 85.1786 87.1819 85.8371Z" fill="#2CC5F4" fill-opacity="0.8"/>
<path d="M16.8379 103.139C15.9801 107.031 21.7057 106.771 24.2394 106.831C25.2569 102.94 19.0923 104.377 16.8379 103.139Z" fill="#2CC5F4" fill-opacity="0.8"/>
<path d="M31.6407 1004.73L36.5684 999.162L32.8577 996.089L31.6407 1004.73Z" fill="#2CC5F4" fill-opacity="0.8"/>
<path d="M193.317 57.4392C193.037 57.7984 190.544 63.3263 190.843 63.6057C194.594 64.9428 195.591 61.2109 195.791 58.0578C195.87 56.9403 193.397 57.3194 193.317 57.4192V57.4392Z" fill="#F3F3F3"/>
<path d="M48.9177 205.635C49.0573 206.613 48.6384 207.99 48.9177 208.709C51.0922 214.496 57.8753 205.017 48.9177 205.635Z" fill="#2CC5F4" fill-opacity="0.8"/>
<path d="M663.501 988.665C669.307 989.942 666.793 985.472 667.192 981.261L663.501 988.665Z" fill="#2CC5F4" fill-opacity="0.8"/>
<path d="M694.364 384.724V390.891C700.608 391.629 696.778 382.329 694.364 384.724Z" fill="#2CC5F4" fill-opacity="0.8"/>
<path d="M661.646 404.481C660.17 404.162 659.571 405.319 658.594 406.337C660.948 408.872 662.205 411.027 664.738 407.574C663.821 406.956 662.324 404.621 661.666 404.481H661.646Z" fill="#2CC5F4" fill-opacity="0.8"/>
<path d="M34.1148 992.377L37.2071 997.286C39.1223 995.949 39.3417 994.652 39.0624 992.357H34.1348L34.1148 992.377Z" fill="#2CC5F4" fill-opacity="0.8"/>
<path d="M236.509 82.1252C241.217 82.8636 243.432 79.0719 239.581 75.9587L236.509 82.1252Z" fill="#F3F3F3"/>
<path d="M667.212 303.222L677.087 305.677C675.571 301.626 670.524 305.358 667.212 303.222Z" fill="#2CC5F4" fill-opacity="0.8"/>
<path d="M21.7854 1103.53L19.3116 1109.7C22.2443 1109.42 27.9301 1103.55 21.7854 1103.53Z" fill="#2CC5F4" fill-opacity="0.8"/>
<path d="M62.4839 141.416C63.4216 145.507 72.7383 144.309 69.8854 141.416H62.4839Z" fill="#2CC5F4" fill-opacity="0.8"/>
<path d="M15.6009 147.602V150.057L21.7655 151.294C22.1246 147.602 18.8727 147.223 15.6009 147.602Z" fill="#2CC5F4" fill-opacity="0.8"/>
<path d="M357.446 80.9079C355.152 83.3027 364.828 87.7729 363.611 82.1452L357.446 80.9079Z" fill="#2CC5F4" fill-opacity="0.8"/>
<path d="M158.763 71.0295C158.484 72.8455 160.878 72.626 162.194 73.1448C163.93 73.8034 165.466 74.9409 167.401 74.7214C166.025 71.4885 161.955 70.7501 158.763 71.0295Z" fill="#2CC5F4" fill-opacity="0.8"/>
<path d="M222.923 59.9137V62.3684L227.252 63.5857L229.067 61.7497C227.531 59.4148 225.516 59.774 222.923 59.8938V59.9137Z" fill="#F3F3F3"/>
<path d="M656.1 301.985L665.955 304.44C666.454 301.087 665.416 302.025 662.883 301.965C660.608 301.905 658.334 301.985 656.08 301.965L656.1 301.985Z" fill="#2CC5F4" fill-opacity="0.8"/>
<path d="M148.888 126.588C150.943 126.049 151.262 128.344 152.519 126.987C153.356 126.089 156.249 124.094 155.052 122.896C154.314 122.158 149.047 124.692 148.888 126.588Z" fill="#2CC5F4" fill-opacity="0.8"/>
<path d="M559.86 180.929L558.544 185.12L562.314 188.333C562.075 186.078 561.556 184.621 561.776 182.227C561.995 179.692 562.474 180.57 559.88 180.929H559.86Z" fill="#2CC5F4" fill-opacity="0.8"/>
<path d="M41.5161 705.843H43.97V699.676C41.1371 700.455 41.3366 703.368 41.5161 705.843Z" fill="#2CC5F4" fill-opacity="0.8"/>
<path d="M672.299 696.124C672.16 696.244 673.436 698.459 672.14 699.656H675.85V694.727L672.319 696.124H672.299Z" fill="#2CC5F4" fill-opacity="0.8"/>
<path d="M159.98 17.9255C159.621 19.7415 161.377 19.1827 162.693 19.5021C164.668 19.981 166.504 20.7194 168.618 20.3801C167.781 17.4665 162.374 17.9455 159.98 17.9255Z" fill="#2CC5F4" fill-opacity="0.8"/>
<path d="M230.324 63.6057L236.489 64.843C234.893 61.4903 231.94 59.335 230.324 63.6057Z" fill="#F3F3F3"/>
<path d="M216.758 35.2077C215.042 36.924 221.666 42.3321 221.666 38.301C221.666 37.7222 217.756 34.2099 216.758 35.2077Z" fill="#F3F3F3"/>
<path d="M350.045 79.6706C349.327 80.389 350.085 85.877 352.499 85.8371V79.6706H350.045Z" fill="#2CC5F4" fill-opacity="0.8"/>
<path d="M665.975 300.728C667.731 299.011 661.347 295.439 661.047 295.799C660.229 298.074 664.838 301.845 665.975 300.728Z" fill="#2CC5F4" fill-opacity="0.8"/>
<path d="M148.888 98.1901C150.025 99.3077 154.633 95.5359 153.815 93.2609C153.516 92.9216 147.132 96.4739 148.888 98.1901Z" fill="#2CC5F4" fill-opacity="0.8"/>
<path d="M668.449 1051.65L667.212 1056.6H670.903V1051.67L668.449 1051.65Z" fill="#2CC5F4" fill-opacity="0.8"/>
<path d="M610.434 210.585C609.636 211.443 613.187 219.126 614.743 219.186C615.282 219.186 617.257 216.073 617.816 216.771C614.923 227.009 622.604 226.151 628.309 231.599C628.788 228.286 632.02 229.443 633.337 227.947C633.736 227.488 632.419 222.638 632.02 221.7C628.988 214.316 622.364 218.228 616.858 215.933C615.202 215.234 612.289 208.569 610.414 210.605L610.434 210.585Z" fill="#2CC5F4" fill-opacity="0.8"/>
<path d="M610.454 255.047C612.209 254.728 614.304 251.056 614.005 249.659L604.888 236.548C601.696 238.903 604.17 238.583 604.788 240.34C606.544 245.349 608.898 249.979 610.454 255.067V255.047Z" fill="#2CC5F4" fill-opacity="0.8"/>
<path d="M611.671 224.175C611.172 224.674 612.369 229.563 613.207 230.122C613.905 230.581 615.441 230.082 616.279 230.601C616.878 230.98 618.434 236.009 620.309 234.033C620.788 233.515 614.983 220.782 611.671 224.155V224.175Z" fill="#2CC5F4" fill-opacity="0.8"/>
<path d="M625.237 266.163V269.855L630.185 268.638L628.948 272.33H635.112C635.112 270.414 632.22 270.434 631.661 269.556C630.125 267.221 633.656 265.106 625.237 266.163Z" fill="#2CC5F4" fill-opacity="0.8"/>
<path d="M603.052 225.392C604.988 225.432 605.047 222.319 605.706 221.88C606.005 221.68 615.262 221.341 609.716 219.146C607.621 218.328 605.147 218.767 605.506 215.514C603.85 215.195 603.531 219.006 603.372 220.164C603.132 221.92 602.853 223.616 603.052 225.392Z" fill="#2CC5F4" fill-opacity="0.8"/>
<path d="M552.439 143.89L559.84 152.531C560.978 147.443 558.005 142.952 552.439 143.89Z" fill="#2CC5F4" fill-opacity="0.8"/>
<path d="M624.02 251.336C627.451 254.529 625.915 258.42 627.092 262.431L630.185 252.553L624 251.316L624.02 251.336Z" fill="#2CC5F4" fill-opacity="0.8"/>
<path d="M619.072 278.496C624.479 278.436 623.082 287.018 627.691 281.59C623.96 280.013 626.713 276.261 626.474 276.042C626.175 275.762 618.913 276.501 619.072 278.496Z" fill="#2CC5F4" fill-opacity="0.8"/>
<path d="M616.599 201.924C615.96 202.562 616.279 212.9 619.052 209.347C619.551 208.709 619.711 205.236 620.309 204.019C621.047 202.502 623.222 203.979 622.763 201.943H616.599V201.924Z" fill="#2CC5F4" fill-opacity="0.8"/>
<path d="M635.152 283.346C635.312 283.545 639.701 285.002 640.06 284.683L635.751 277.279L635.172 283.346H635.152Z" fill="#2CC5F4" fill-opacity="0.8"/>
<path d="M631.421 208.09C631.421 206.354 627.332 206.394 625.576 205.915C623.82 205.436 623.761 203.141 621.566 206.234C624.04 208.888 628.209 209.068 631.421 208.07V208.09Z" fill="#2CC5F4" fill-opacity="0.8"/>
<path d="M543.801 140.178C544.02 142.453 550.105 144.748 551.202 143.87C549.925 140.598 547.132 139.719 543.801 140.178Z" fill="#2CC5F4" fill-opacity="0.8"/>
<path d="M482.095 134.012C479.88 136.307 484.608 136.586 484.489 137.005C483.91 139.201 482.115 141.316 483.89 143.93C488.219 147.203 506.953 157.54 508.688 161.193C509.586 163.088 506.793 165.543 509.865 167.339L511.102 163.627C514.155 163.527 514.953 167.998 515.691 170.153C516.13 171.47 517.865 173.007 514.793 172.288C508.03 170.732 504.359 161.332 496.918 163.627C497.656 166.84 502.663 166.122 504.08 167.559C505.057 168.556 506.853 175.461 508.09 177.517C508.828 178.734 510.204 178.435 510.304 178.595C510.663 179.133 508.688 181.448 509.287 182.047C512.02 184.741 518.983 184.422 521.935 185.859C523.272 186.497 523.132 188.313 524.05 188.912C525.925 190.129 529.377 189.331 530.853 192.025C531.132 190.149 535.501 188.233 535.062 186.657C534.723 185.46 533.127 182.905 532.15 182.107C530.374 180.65 524.19 180.311 525.307 177.856C528.319 171.29 534.823 186.617 538.873 182.785C533.047 174.962 525.227 169.315 517.905 163.009C516.908 160.374 520.798 161.232 521.596 159.297C522.653 156.782 519.162 157.9 519.022 156.702C518.903 155.585 519.84 154.228 519.8 153.15C519.581 148.361 515.072 148.381 517.885 153.749C516.15 153.968 514.055 153.35 512.459 153.709C511.421 153.948 511.86 156.383 511.142 156.223C510.424 156.064 505.636 154.148 505.097 153.789C503.86 152.99 504.499 149.797 499.372 151.274C499.012 147.323 503.182 147.023 506.135 147.562C508.529 148.001 510.703 151.973 512.938 146.944C513.915 144.748 511.102 145.467 510.524 144.25C508.928 140.917 510.743 137.943 510.484 137.704C510.224 137.464 508.309 137.085 508.01 138.522C506.853 144.01 505.656 138.482 505.217 138.083C503.98 136.906 497.536 135.209 495.681 132.755C495.88 135.628 489.955 139.52 487.761 138.881C486.344 138.462 484.03 131.996 482.095 133.992V134.012Z" fill="#2CC5F4" fill-opacity="0.8"/>
<path d="M533.925 161.173C535.481 156.962 528.798 160.195 530.234 156.862C532.03 152.671 537.476 158.119 539.531 155.046C540.788 153.15 540.09 149.079 538.234 148.82C536.678 148.6 535.781 150.636 534.584 150.775C533.387 150.915 531.711 149.458 530.175 150.576C528.738 151.633 529.037 156.702 526.683 158.319C527.621 162.669 530.414 162.589 533.925 161.173Z" fill="#2CC5F4" fill-opacity="0.8"/>
<path d="M463.581 129.063C461.925 130.559 466.913 133.473 467.87 134.032L480.858 140.158C478.145 133.413 475.93 135.09 470.923 133.433C468.888 132.755 464.878 127.865 463.581 129.043V129.063Z" fill="#2CC5F4" fill-opacity="0.8"/>
<path d="M494.125 170.732C490.713 173.286 485.147 171.869 493.825 177.018C498.454 174.005 498.095 172.308 496.898 167.339C495.022 167.359 495.062 170.013 494.125 170.732Z" fill="#2CC5F4" fill-opacity="0.8"/>
<path d="M509.227 190.808C512.08 183.723 508.509 186.278 505.835 184.322C504.918 183.643 504.958 180.949 503.062 180.929C502.743 185.16 505.696 188.872 509.227 190.808Z" fill="#2CC5F4" fill-opacity="0.8"/>
<path d="M525.287 163.647L537.616 175.98C538.853 169.514 535.142 170.712 532.289 168.636C530.494 167.319 529.337 162.889 525.267 163.647H525.287Z" fill="#2CC5F4" fill-opacity="0.8"/>
<path d="M547.511 158.718C547.332 161.891 550.404 164.186 553.676 163.647C553.855 160.474 550.783 158.179 547.511 158.718Z" fill="#2CC5F4" fill-opacity="0.8"/>
<path d="M542.584 168.576L541.347 173.506C545.417 173.985 547.172 167.638 542.584 168.576Z" fill="#2CC5F4" fill-opacity="0.8"/>
<path d="M662.284 330.383C663.421 337.128 669.167 333.835 673.396 332.838C673.496 330.223 673.955 330.503 671.561 330.383C668.489 330.223 665.357 330.483 662.284 330.383Z" fill="#2CC5F4" fill-opacity="0.8"/>
<path d="M658.574 350.14L659.81 353.832C657.416 353.672 654.424 354.271 654.863 357.544L660.908 357.424C662.085 355.089 662.923 349.461 658.574 350.14Z" fill="#2CC5F4" fill-opacity="0.8"/>
<path d="M34.1148 57.4192C38.9228 58.2773 35.5711 53.6075 35.8105 51.8114C35.9502 50.6939 38.424 49.277 37.8255 48.798L32.8978 47.5607C32.2993 51.4522 36.5886 53.6674 34.1148 57.4391V57.4192Z" fill="#2CC5F4" fill-opacity="0.8"/>
</g>
<defs>
<clipPath id="clip0_135_1064">
<rect width="744" height="1117" fill="white" transform="matrix(-1 0 0 1 744 0)"/>
</clipPath>
</defs>
</svg>
