<svg width="630" height="747" viewBox="0 0 630 747" fill="none" xmlns="http://www.w3.org/2000/svg">
<g clip-path="url(#clip0_135_1238)">
<path d="M284.478 208.188L286.446 206.223C289.632 205.949 291.421 206.001 293.336 208.674C292.585 209.308 290.86 212.583 291.368 213.09H293.336V215.055C294.68 214.844 296.617 215.372 297.77 215.055C298.617 214.823 299.358 212.372 301.221 213.09C298.755 216.08 302.374 216.165 302.205 218.975L305.158 217.992L304.173 220.94L307.126 222.905L310.079 220.94L308.11 224.87C309.909 224.648 310.968 224.828 312.047 226.339C310.407 227.48 311.518 227.754 312.545 228.79C315.159 227.036 318.567 225.441 317.963 221.922L320.916 222.905C318.958 220.612 321.329 219.714 320.916 217.02L322.398 218.985L325.35 216.038C329.256 218.235 327.033 221.563 327.816 224.384C327.964 224.923 329.637 225.8 329.785 226.349C330.123 227.532 328.843 229.973 330.769 229.783V221.437L333.235 217.02L334.717 222.905H337.669L337.172 216.038L338.654 219.968L341.606 218.985L339.638 224.87L341.606 224.384V225.853C342.707 225.979 344.04 225.652 345.056 225.853C345.437 225.927 345.681 226.782 346.041 226.835C347.723 227.068 349.713 226.677 351.459 226.835V220.951L348.009 225.853L345.543 224.87L346.527 218.985H348.496L349.48 214.083L350.962 216.049C351.47 214.791 353.333 215.161 353.428 215.066C353.618 214.865 352.75 212.214 354.909 213.101C355.322 213.27 355.523 213.978 355.894 214.083C357.132 214.432 357.735 212.594 359.344 213.101V210.65C358.275 209.192 356.56 208.791 354.909 208.199C352.687 207.396 349.956 206.656 348.02 205.251C347.162 204.639 345.882 203.339 345.554 202.304C347.861 202.578 350.761 201.913 352.941 202.304C353.301 202.367 353.512 203.16 353.925 203.286C354.507 203.476 355.28 203.107 355.894 203.286C356.423 203.434 358.973 207.84 360.815 209.171C361.016 209.319 361.566 209.012 361.799 209.171C363.958 210.639 363.937 211.823 367.705 211.136C368.075 211.073 368.287 210.27 368.689 210.153C369.324 209.974 370.107 210.354 370.657 210.153C371.906 209.699 373.451 207.755 375.092 208.188C375.367 207.966 373.367 205.98 374.107 205.241C374.309 205.04 376.044 206.202 377.06 202.79C377.293 201.997 376.859 200.74 377.06 199.842C377.145 199.462 377.991 199.219 378.044 198.86C378.224 197.655 378.224 195.162 378.044 193.958C377.991 193.588 377.124 193.355 377.06 192.975C376.467 189.658 376.436 186.774 375.092 183.646H373.123C371.673 178.174 372.636 172.342 372.139 166.468C372.107 166.12 371.197 165.845 371.155 165.486C370.932 163.457 371.313 161.175 371.155 159.105C369.694 159.4 368.562 159.105 369.186 157.636C369.356 157.224 370.054 157.023 370.17 156.654C370.753 154.741 369.356 154.234 369.186 153.706C368.805 152.555 368.615 149.829 368.202 148.804C367.334 146.649 364.688 144.282 364.265 141.937C363.757 139.084 364.614 135.651 365.249 133.105C365.345 132.714 366.17 132.492 366.233 132.122C366.752 129.206 366.297 126.481 367.218 123.29C367.461 122.434 369.906 121.716 369.186 119.857C371.462 121.822 371.493 119.191 372.636 118.874C373.525 118.631 379.071 121.526 381.495 116.909L382.479 117.892C383.146 116.127 385.77 116.075 385.929 115.927C386.109 115.747 385.664 114.923 385.929 114.458C386.31 113.782 387.76 112.99 387.897 112.493C388.077 111.838 388.077 108.246 387.897 107.591C387.516 106.228 384.151 106.133 383.96 104.158C385.283 104.253 388.617 102.657 388.882 101.706V88.4583C387.305 88.9971 386.807 87.5498 386.416 87.4758C385.167 87.254 381.293 87.7716 380.997 87.4758C380.796 87.2751 381.198 85.7432 380.997 85.0248C380.891 84.6233 380.066 84.4015 380.013 84.0423C379.579 81.1264 380.436 77.0167 380.997 74.2276C381.071 73.8473 381.928 73.6149 381.981 73.2451C382.405 70.4455 381.971 67.4979 380.013 65.3955C381.643 64.7933 382.775 60.7893 381.981 59.997C381.833 59.8491 379.198 59.7962 378.531 58.0319L375.579 59.997C374.742 58.782 372.097 60.5991 370.657 60.9795C364.646 62.5853 361.937 64.4025 356.878 67.8465L355.894 66.864C353.745 69.4735 351.364 67.6986 349.988 68.8291C344.199 67.7832 336.981 69.632 332.272 65.8815C330.981 68.2374 328.515 64.2334 327.351 63.9165C327.023 63.832 326.694 63.832 326.366 63.9165C323.763 64.6349 325.636 64.1806 323.414 62.934C320.905 61.5288 318.186 60.1554 315.54 59.0039L312.587 57.0388L304.713 50.1718L304.216 53.1193L300.279 54.1018C300.046 50.9958 296.045 45.1113 292.892 48.2173L291.41 47.2348V52.1368H289.441V54.1018C287.822 53.6053 287.674 54.7569 286.976 55.0844C285.018 56.0035 285.653 52.9186 284.51 52.6333V51.1648C282.89 50.6472 282.615 51.9466 282.044 52.1474C281.472 52.3481 280.7 51.9678 280.075 52.1474C278.848 52.496 277.218 56.5106 277.609 58.0319H275.641C276.022 60.1977 275.292 61.1274 273.672 62.448L276.625 62.934L275.641 68.8185H273.672C274.731 71.3435 271.291 72.738 271.704 74.2171C272.265 76.2561 272.106 74.2593 271.704 76.1821C271.545 76.9322 271.894 78.4535 271.704 78.6331C271.535 78.8022 268.497 78.1894 267.767 80.1016L268.751 82.0667L266.783 85.0142L267.767 86.4827C264.931 86.1235 266.201 86.8419 265.798 87.9512C265.142 89.7789 265.544 89.2929 265.798 91.8813L263.83 94.8289L264.814 95.8114L263.83 97.2799H265.798C265.089 99.171 266.603 100.111 266.783 100.713C267.365 102.636 265.883 103.291 265.798 103.661C265.597 104.538 266.021 105.784 265.798 106.609C265.544 107.507 264.243 109.472 263.83 111.511C262.962 115.821 260.464 120.089 259.893 123.29C259.607 124.896 260.083 126.977 259.893 128.689L261.861 129.175C260.93 130.21 260.39 130.96 258.909 130.643V134.573C261.248 134.087 261.756 135.366 259.893 137.024L262.846 137.51L259.893 139.475C259.396 141.092 260.581 141.271 260.877 141.926C261.311 142.909 259.988 143.807 262.846 143.395L260.877 144.863C262.698 146.311 262.592 153.188 264.327 153.21L265.809 152.227C266.56 154.002 264.867 155.375 264.825 155.661C264.476 157.995 265.703 160.996 263.841 162.528L264.825 163.51L263.841 167.926C264.698 168.116 265.354 166.141 265.809 167.44C266.179 168.497 266.772 169.3 266.793 169.405C267.322 171.74 268.476 175.786 266.793 177.255V179.22L269.746 184.618C266.814 184.861 265.798 181.217 265.809 179.22C259.237 176.431 262.973 171.539 261.872 166.458C261.777 166.035 259.597 163.362 259.904 163.024L261.872 161.059L257.935 163.024C258.39 161.376 256.221 159.527 255.967 158.608C255.607 157.319 256.866 157.045 256.951 156.643C257.491 154.255 256.326 152.428 255.967 150.262L254.982 155.164C253.046 154.625 252.622 153.019 252.03 151.73C250.844 149.132 249.955 144.98 249.077 141.916C248.696 140.595 244.378 138.704 246.124 134.552C242.251 134.447 243.193 138.06 243.171 140.933L237.266 146.332C236.98 146.025 238.97 143.522 239.234 142.898C239.457 142.37 239.065 141.599 239.234 141.43C239.404 141.261 242.103 142.095 241.203 139.961C241.034 139.549 240.325 139.349 240.219 138.979V137.996C243.32 135.429 240.589 131.837 240.219 129.164C239.7 125.393 240.6 123.016 238.25 119.35C236.938 117.311 235.329 116.18 233.329 117.881L234.313 114.448C232.451 110.285 226.767 107.042 222.005 108.066C221.603 108.151 218.968 109.915 218.555 110.517L224.958 113.951C225.667 115.948 229.191 116.698 229.392 116.899C229.604 117.11 230.736 121.315 231.361 122.297C232.345 123.85 233.594 123.966 235.297 123.766C234.112 128.055 229.837 122.202 230.376 126.713L229.392 123.766L226.439 125.731C226.175 125.467 227.953 124.061 227.424 122.297C227.117 121.251 221.878 116.55 220.534 117.881C220.936 119.709 219.931 120.702 219.55 122.297C219.169 123.892 220.619 125.224 217.581 124.748C217.825 123.132 218.354 122.065 218.565 120.332C218.682 119.36 219.2 116.603 217.581 116.899L214.628 122.297V128.678L212.66 127.696V133.58L214.628 129.65H216.597L215.613 128.182L216.597 124.748C217.369 124.812 219.55 127.009 219.55 127.199V144.377L217.581 141.926C217.232 140.141 216.036 138.799 215.613 137.024C215.221 135.376 216.671 134.098 213.644 134.573L214.628 140.954C216.671 145.212 217.253 150.125 218.565 154.699C218.724 155.249 220.386 156.125 220.534 156.664C220.767 157.499 220.301 158.777 220.534 159.612C220.714 160.256 222.979 161.64 223.487 162.559C224.778 164.873 225.561 163.986 226.439 165.507C226.704 165.961 226.259 166.764 226.439 166.975C226.556 167.113 229.36 166.923 229.392 168.94C226.312 169.86 225.667 166.933 223.973 165.993C221.878 164.831 221.814 163.278 221.021 163.045C220.375 162.855 219.55 163.267 219.052 163.045C217.708 162.433 216.279 160.732 214.618 161.08C214.978 158.936 216.078 157.298 215.602 154.699C215.539 154.34 214.745 154.129 214.618 153.717C214.427 153.136 214.798 152.364 214.618 151.752C214.438 151.139 212.268 149.713 211.665 148.804C211.4 148.403 210.945 146.258 210.681 145.856C209.792 144.515 207.516 143.226 206.744 141.926C204.701 138.503 206.627 134.256 205.76 131.129C205.252 129.302 201.865 129.597 202.807 123.28C202.86 122.91 203.728 122.677 203.791 122.297C204.511 118.251 205.336 114.564 206.744 110.517C207.845 107.348 208.035 107.411 208.712 103.65C208.786 103.26 210.236 102.774 209.697 101.199H214.618C214.11 99.583 215.348 99.3717 215.602 98.7484C215.814 98.2201 215.422 97.4172 215.602 96.7833C215.972 95.4839 218.322 95.3994 217.571 90.8988C217.507 90.5184 216.586 90.2438 216.586 89.9163C216.586 89.5888 217.507 89.3141 217.571 88.9337C218.333 84.3698 216.766 79.6051 216.586 76.1715C216.353 71.8294 215.898 62.3529 216.586 58.5073C216.65 58.1376 217.475 57.9157 217.571 57.5248C218.248 54.7991 219.084 50.8585 220.523 48.6927C221.264 47.5834 224.259 45.481 224.46 44.7626C225.349 41.5298 226.376 38.9732 228.397 35.9305C230.726 32.4336 237.15 28.5352 239.224 25.1334C240.907 22.376 239.107 22.7246 242.674 20.7173C246.241 18.71 250.114 14.7588 253.501 13.8502C254.337 13.6284 255.617 14.0827 256.453 13.8502C256.993 13.7023 257.872 12.0542 258.422 11.8852C262.719 10.6174 259.777 10.5963 262.359 8.93764C263.745 8.05021 266.211 7.97626 267.28 5.99009C270.286 7.76496 275.08 5.84218 278.107 4.02505C281.864 1.77476 302.12 -0.581172 307.634 0.0949708C311.645 0.591513 315.857 0.919019 319.445 0.0949708C321.339 -0.338183 338.474 2.65163 342.083 3.04253C344.22 3.27495 347.088 2.6305 348.972 3.04253C350.158 3.29608 353.396 5.28225 355.862 5.99009C356.603 6.20138 358.677 9.17007 359.799 9.92016C360.159 10.1526 363.524 11.8218 363.736 11.8852C364.985 12.2233 365.546 10.4167 367.186 10.9027C366.445 12.7304 368.086 13.9242 368.17 14.3362C368.371 15.2659 367.927 17.5373 368.17 17.7698C368.35 17.9494 369.186 17.5162 369.652 17.7698C370.329 18.1501 370.943 19.3545 371.62 19.7348C372.086 19.9883 372.912 19.5552 373.102 19.7348C373.293 19.9144 372.837 20.7384 373.102 21.2033C374.785 24.2037 383.389 29.0529 383.929 31.0179C384.225 32.085 383.632 33.8704 383.929 34.948C384.225 36.0256 396.618 48.492 398.692 51.6297C401.169 55.359 402.725 63.8742 403.614 68.3114C403.688 68.6917 404.545 68.9241 404.598 69.2939C404.778 70.5511 404.841 74.048 404.598 75.1785C404.354 76.3089 401.73 78.781 401.645 79.1085C400.608 82.8801 400.322 90.5079 399.677 94.8077C399.031 99.1076 400.862 101.421 401.645 104.622C402.111 106.503 402.132 109.672 402.629 111.489C402.767 111.986 404.238 112.778 404.598 113.454C406.302 116.603 407.572 120.871 408.535 124.252C408.651 124.653 409.456 124.864 409.519 125.234C411.371 135.619 404.682 142.666 407.551 153.695C408.545 157.541 410.165 162.369 410.503 166.458C411.286 175.998 410.641 186.478 408.535 194.919C407.836 197.719 407.265 200.952 406.566 203.751C405.868 206.551 405.995 208.854 405.582 211.601C405.529 211.971 404.64 212.224 404.598 212.583C404.428 214.157 404.301 218.098 404.598 219.45C404.672 219.81 406.323 221.817 406.566 222.398C406.789 222.926 406.397 223.697 406.566 223.866C406.746 224.046 407.582 223.613 408.048 223.866C408.81 224.289 418.039 232.572 418.388 233.195C419.764 235.657 420.653 235.044 422.822 236.629C427.521 240.083 437.194 256.712 438.083 261.656C438.782 265.586 437.258 271.703 438.083 275.401C438.157 275.75 438.877 275.961 439.067 276.384C439.205 276.69 438.94 277.155 439.067 277.366C439.353 277.852 441.015 279.49 441.533 279.817C445.798 282.553 451.556 284.423 455.313 288.649C462.679 290.921 467.78 296.583 474.998 299.446C479.379 301.179 483.104 299.721 487.793 302.394C491.772 304.665 501.233 312.283 504.525 313.191C513.076 315.547 512.071 318.252 518.304 323.006C520.262 324.495 525.85 327.601 526.676 330.369C526.887 331.077 526.464 332.609 526.676 332.82C526.993 333.137 530.052 332.535 531.11 332.82C533.608 333.507 537.026 338.24 538.497 340.184C541.259 343.829 543.725 342.244 545.387 348.034C545.853 349.639 550.827 351.34 551.292 352.936C552.023 355.461 557.177 367.198 558.679 368.149C562.331 370.473 565.209 375.407 567.051 379.432C568.194 381.925 567.59 382.295 568.035 384.334C568.268 385.422 570.882 387.894 570.988 388.264C573.136 395.554 576.428 398.237 578.862 404.946C579.507 406.731 579.444 407.397 579.846 408.876C580.968 412.986 583.709 417.518 584.767 421.638C586.058 426.656 585.434 432.636 586.736 437.337C586.863 437.813 590.524 442.725 590.673 443.222C592.345 449.022 597.245 451.219 599.531 456.966C601.203 461.171 601.15 467.056 602.484 471.683C602.642 472.232 604.293 473.099 604.452 473.648C605.955 478.846 607.373 484.234 609.373 489.347C611.966 495.971 615.533 502.595 617.247 508.977C618.295 512.875 621.766 530.338 621.184 533.508C620.052 539.667 620.062 541.093 621.184 547.253C621.406 548.446 620.898 550.137 621.184 551.183C621.385 551.901 624.846 553.856 625.618 553.634C627.979 552.968 625.767 548.689 629.069 549.704V639.504C629.238 640.169 630.032 639.948 630.053 639.99V656.671C627.989 657.717 629.545 661.341 629.069 663.052C628.465 665.208 625.163 664.194 623.65 664.521C623.301 664.595 623.089 665.303 622.666 665.504C622.348 665.651 621.883 665.377 621.682 665.504C621.057 665.894 619.216 668.726 619.216 668.937C619.216 669.265 620.136 669.539 620.2 669.92C620.454 671.42 619.935 673.343 620.2 674.822C621.353 681.245 621.512 689.359 619.216 696.416C617.967 700.261 618.231 700.219 618.231 703.283C618.231 703.452 617.448 705.713 617.247 706.231C616.877 707.213 614.601 711.122 613.797 711.629C611.913 712.823 610.146 715.475 609.86 715.559C609.214 715.739 608.389 715.337 607.892 715.559C607.204 715.866 605.553 717.292 604.939 717.524C604.42 717.714 602.155 718.475 601.986 718.507C598.462 719.151 596.472 716.785 592.144 718.507C590.99 718.972 588.524 721.359 588.207 721.454C583.889 722.69 584.989 723.398 582.788 726.853C581.19 729.367 579.423 727.349 577.867 732.737C577.814 732.906 575.57 735.146 575.401 735.188C573.073 735.833 572.088 734.354 571.464 734.206C569.072 733.646 567.866 733.91 565.559 732.241C563.632 733.023 559.896 735.643 558.669 734.206C558.203 735.315 555.547 735.505 555.219 735.188C554.203 734.174 556.118 732.082 556.203 731.755C556.594 730.213 556.669 729.431 557.187 727.825C557.378 727.244 557.007 726.473 557.187 725.86C557.759 723.863 560.457 724.708 561.622 724.391C563.844 723.779 562.828 719.827 563.103 718.01C563.156 717.64 564.056 717.387 564.087 717.028C564.352 714.45 564.871 695.729 564.087 694.947C563.908 694.768 563.071 695.212 562.606 694.947C560.648 693.838 560.849 689.866 561.124 687.584C563.124 671.621 564.479 654.717 566.045 638.511C566.278 636.134 565.887 633.556 566.045 631.147L568.998 636.049L569.982 630.651L572.935 627.703V626.72L570.967 623.287L567.516 627.217C565.675 626.023 568.448 624.766 568.998 623.783C569.263 623.319 568.818 622.495 568.998 622.315C569.506 621.808 580.904 622.431 583.275 622.315C583.624 622.294 583.92 621.354 584.259 621.332C588.99 621.089 593.805 621.512 598.536 621.332C598.25 620.044 596.821 620.075 598.536 618.881C597.276 618.374 597.658 616.536 597.552 616.43C597.372 616.251 596.536 616.684 596.07 616.43C595.393 616.05 594.61 614.613 594.102 614.465C592.059 613.884 587.222 611.845 585.243 610.535C583.529 609.405 579.412 603.964 578.354 603.668C577.74 603.489 576.967 603.858 576.385 603.668C575.909 603.52 575.708 602.337 574.417 602.686C574.025 602.791 573.813 603.584 573.432 603.668C570.533 604.313 565.072 603.457 561.622 603.668C561.272 603.689 560.987 604.63 560.637 604.651C554.372 604.978 545.673 603.7 539.968 604.651C539.323 604.756 539.259 606.542 538 604.651L535.534 605.633C535.396 607.049 535.745 608.697 535.534 610.049C535.47 610.419 534.592 610.673 534.55 611.032C533.682 619.029 533.629 627.291 533.565 635.563L532.084 638.014C531.597 637.253 529.777 636.112 529.618 635.563C529.279 634.38 530.56 631.929 528.634 632.13C528.496 633.556 528.845 635.183 528.634 636.546C527.575 643.508 526.041 651.928 525.681 659.122C525.321 666.317 525.945 673.881 525.681 681.203L526.665 679.238C532.01 678.731 530.105 682.28 530.602 685.619C531.576 692.201 532.348 701.582 532.57 708.196C532.835 716.056 531.555 725.775 533.555 732.727C533.756 733.435 536.306 734.967 536.508 735.674C537.227 738.168 534.772 738.77 534.539 739.605C533.946 741.749 535.015 745.045 532.073 746.968H0V692.01C2.92098 638.902 -0.94191 582.053 1.96849 528.595C6.20179 523.176 5.12229 514.439 3.93697 507.983C3.63006 506.283 5.37629 496.69 5.90546 494.239C6.29704 492.453 9.96943 486.886 10.8267 484.424C12.0649 480.864 11.1124 478.117 11.8109 475.592C11.8956 475.275 14.5308 472.74 14.7636 471.662C15.2716 469.327 14.7848 466.411 15.7479 463.812C16.3829 462.111 19.4838 457.643 19.6849 456.945C22.373 447.627 27.8763 440.559 30.5115 431.432C30.6703 430.882 32.3213 430.016 32.48 429.466C34.3638 422.927 37.3801 416.578 39.3697 409.837C39.5073 409.393 44.2803 402.621 44.7883 402.474C50.4398 400.857 49.4344 398.237 52.1754 394.127C57.5412 386.077 75.3845 373.452 79.7342 365.666C80.5703 364.176 84.5602 360.331 86.6239 357.817C90.5715 352.988 98.6783 349.904 101.388 345.054C102.128 343.723 122.11 329.651 125.507 326.894C130.47 322.868 136.111 319.34 141.255 315.114C151.288 306.873 157.225 296.171 167.829 287.635C174.952 281.898 180.392 276.5 189.483 273.89C191.091 273.436 190.837 271.07 190.964 270.943C191.176 270.731 195.727 271.408 194.901 267.995H199.822C200.076 263.685 206.119 263.336 209.178 262.111C211.517 261.17 216.205 257.779 218.036 256.226C218.766 255.603 222.386 252.106 222.471 251.81C222.788 250.68 222.682 244.446 222.471 242.978C222.375 242.312 220.788 239.006 220.502 238.076C219.92 236.164 221.433 235.403 221.486 235.128C221.772 233.523 221.296 231.441 221.486 229.73C222.725 230.48 224.672 230.839 225.423 232.181C225.688 232.646 225.243 233.47 225.423 233.649C225.646 233.871 230.895 233.808 231.826 233.649C232.207 233.586 232.705 232.128 234.292 232.667C231.71 236.407 234.25 238.129 236.261 241.013C236.419 241.245 236.112 241.795 236.261 241.995C236.769 242.661 240.388 246.327 240.695 246.412C241.658 246.686 242.833 245.926 243.648 247.394H245.616L249.066 245.429C249.225 246.834 248.823 248.535 249.066 249.845C249.098 250.014 249.765 251.789 250.051 252.793C250.294 253.627 251.956 254.166 252.019 254.261C251.807 252.243 250.516 250.806 251.035 248.377C252.22 248.419 253.427 247.838 254.485 247.394C256.168 246.697 259.946 244.711 261.375 244.446C262.803 244.182 266.328 244.256 266.793 245.915C267.037 246.792 265.005 249.063 265.809 250.817C264.274 251.461 265.068 254.008 264.825 254.251C264.677 254.398 262.041 254.451 261.375 256.216L256.453 257.198L252.019 254.251C252.199 254.525 251.744 255.339 252.019 255.719C252.368 256.194 254.263 258.107 254.485 258.17C255.099 258.35 255.871 257.98 256.453 258.17C256.856 258.297 257.067 259.068 257.438 259.153C259.745 259.691 260.941 258.212 262.856 258.17C263.396 259.66 261.872 260.42 261.872 260.621C261.872 260.949 262.793 261.223 262.856 261.604C263.057 262.819 262.613 264.382 262.856 265.534C262.93 265.903 263.714 266.115 263.841 266.516C264.031 267.097 263.661 267.868 263.841 268.481C264.126 269.464 267.079 271.165 267.777 271.915C267.989 269.855 265.597 268.45 264.825 266.516L263.841 261.614L270.73 256.712L266.793 254.747C269.09 252.761 272.191 251.018 275.165 251.314L278.615 248.366C277.842 250.077 279.557 251.483 279.599 251.8C279.853 253.564 279.948 260.072 279.599 261.614C279.525 261.963 278.805 262.174 278.615 262.597C278.477 262.903 278.742 263.368 278.615 263.579C277.25 265.872 274.392 266.801 272.709 268.481L274.678 269.95L271.725 270.436V271.904H267.788C267.947 272.073 267.619 272.749 267.788 272.887C268.042 273.098 269.524 272.697 270.254 272.887C270.646 272.992 270.847 273.753 271.238 273.869C272.212 274.144 273.376 273.383 274.191 274.852C275.725 273.711 277.281 273.172 278.625 271.418C278.805 271.186 278.477 270.605 278.625 270.436C279.26 269.696 282.753 266.104 283.06 266.02C284.118 265.734 285.843 266.273 286.997 266.02C287.399 265.935 290.161 263.738 290.447 264.055L291.431 267.002L292.415 260.621C295.008 257.23 296.998 256.702 301.273 257.188L297.823 259.153L297.326 261.118L299.792 262.1L300.776 261.118L304.226 265.048C301.379 264.519 302.702 265.777 302.258 266.516C301.707 267.425 299.474 268.83 299.305 269.464C298.501 272.358 298.776 275.422 294.384 275.845V277.81C291.251 278.708 293.452 275.845 291.431 275.845C291.59 276.922 291.188 278.359 291.431 279.278C291.495 279.532 292.902 281.233 293.4 280.261L295.865 277.81L303.253 274.862C301.834 276.88 302.258 278.94 302.268 281.243C302.268 282.427 301.549 284.909 303.253 284.677C302.681 279.595 303.919 275.243 307.687 271.915L312.121 269.95C311.381 272.39 316.64 274.862 317.043 276.331C317.402 277.62 316.143 277.894 316.058 278.296C315.476 280.905 317.212 283.568 317.043 284.18C316.947 284.55 315.571 285.247 316.058 285.649L319.011 286.135C316.302 288.776 314.915 291.502 310.64 290.551C310.259 290.466 310.047 289.674 309.655 289.568C308.364 289.209 308.121 290.424 307.687 290.551C306.967 290.752 305.454 290.34 305.221 290.551C305.094 290.667 305.56 292.294 303.739 293.498L302.258 291.533C302.797 292.949 298.405 297.26 297.823 297.418C297.072 297.629 295.834 297.333 294.871 297.418C293.622 297.524 291.219 296.626 291.42 298.401C293.876 299.003 296.162 299.848 298.808 299.383C299.189 299.32 299.686 297.862 301.273 298.401L302.258 302.331C302.522 300.725 301.877 298.316 302.258 296.932C302.364 296.562 307.306 291.639 307.676 291.533C308.46 291.322 311.634 291.375 312.598 291.533C312.979 291.597 313.254 292.516 313.582 292.516C313.91 292.516 314.185 291.597 314.566 291.533C317.201 291.1 318.556 292.083 320.969 289.568C321.646 291.47 319.233 292.188 319 293.002C317.995 296.573 316.852 300.344 316.048 303.799C315.698 305.289 316.111 308.469 313.582 309.198C312.968 309.377 312.195 309.008 311.613 309.198C311.201 309.324 310.989 310.117 310.629 310.18C309.296 310.423 306.121 309.229 306.195 311.163C308.46 311.628 311.211 312.8 313.582 312.145C314.206 311.976 315.667 309.747 316.535 309.198C318.609 311.617 319.022 307.264 319.985 305.764C320.948 304.264 322.429 304.486 323.435 303.313C325.075 305.585 325.784 303.45 326.388 303.313C328.42 302.859 331.542 303.63 333.775 303.313C331.901 306.842 330.198 309.441 330.822 313.614C330.875 313.983 331.764 314.237 331.806 314.596C332.039 316.614 331.647 318.907 331.806 320.977C333.521 321.21 332.769 318.738 332.79 317.544C332.833 315.42 332.759 313.276 332.79 311.163L335.743 313.128L336.727 307.729L333.775 306.747L339.193 302.331L340.178 305.278L341.162 302.331L341.659 305.764L342.643 306.747L341.659 309.694C343.659 310.973 340.887 312.071 339.691 313.624C338.971 314.554 337.458 317.66 336.738 318.526C335.86 319.593 333.436 322.266 332.304 321.96C331.33 319.974 329.457 322.71 328.367 322.942C327.277 323.175 325.647 322.742 324.43 322.942C324.049 323.006 323.773 323.914 323.445 323.925C322.525 323.946 319.731 320.481 318.027 320.977C318.365 321.907 320.958 324.759 321.477 324.907C322.091 325.087 322.863 324.717 323.445 324.907C323.858 325.034 324.07 325.827 324.43 325.89C327.329 326.418 329.383 325.267 331.817 323.925C331.838 325.055 331.785 326.217 331.817 327.358C331.859 328.563 331.076 331.014 332.801 330.792C333.066 329.186 332.42 326.777 332.801 325.393C332.939 324.897 334.389 324.104 334.77 323.428C335.034 322.964 334.59 322.139 334.77 321.96C334.939 321.791 335.711 322.182 336.251 321.96C337.373 321.495 339.924 319.086 340.188 319.012C341.691 318.6 342.157 318.854 344.125 318.03C344.654 317.808 345.427 318.199 345.607 318.03C345.829 317.808 345.067 316.012 346.104 316.065C348.93 318.558 347.088 323.397 347.586 326.862H344.633C344.093 328.352 345.617 329.112 345.617 329.313C345.617 329.63 344.75 329.883 344.633 330.295C344.104 332.134 345.342 333.074 346.602 334.225V335.208L343.151 337.659H341.183L337.733 335.694C337.754 340.395 344.601 340.226 348.073 339.624C348.454 339.561 348.951 338.103 350.539 338.642C350.306 336.624 348.898 334.638 349.554 332.26C349.851 331.183 355.83 327.284 356.444 327.844C356.719 328.098 355.671 330.2 357.428 329.809L357.926 326.862C360.984 327.295 362.646 324.157 363.344 321.463L365.313 319.012L364.329 324.411C363.556 324.95 361.397 327.918 361.376 328.341C361.365 328.521 363.133 330.063 362.36 331.774L358.423 330.792C358.18 333.539 358.423 336.064 360.392 338.156C359.418 340.29 354.063 340.353 353.502 342.086C352.602 344.854 359.894 346.058 361.873 345.519C362.106 345.456 365.249 342.318 365.323 342.086C365.546 341.272 365.472 338.198 365.323 337.184C365.27 336.814 364.381 336.56 364.339 336.201C364.085 333.856 364.519 331.225 364.339 328.837L366.308 333.74C367.948 334.035 367.451 330.031 367.292 329.323C367.218 328.985 365.397 326.725 365.323 326.376C364.741 323.756 366.181 322.488 367.292 320.491C367.44 320.217 367.154 319.72 367.292 319.509C369.059 316.72 377.357 315.188 377.134 319.995L374.182 320.481L368.276 319.995C368.149 322.013 366.794 323.164 367.292 325.393C367.366 325.742 369.186 328.003 369.26 328.341C370.001 331.753 368.467 334.173 367.292 337.173L369.26 337.659C368.996 336.349 369.694 335.377 370.742 334.711C371.165 334.437 373.293 333.993 373.695 333.729C375.039 332.842 376.266 330.845 377.632 329.799L379.113 333.729C377.886 331.521 381.082 327.802 381.082 327.348C381.082 327.02 380.161 326.746 380.098 326.365C379.6 323.365 381.061 319.826 379.113 317.037L382.066 320.47C382.299 322.298 382.045 323.407 381.082 324.886L386.5 321.939C388.204 321.558 392.099 322.752 392.903 324.39C393.898 326.418 391.02 325.774 390.935 325.858C390.871 325.932 390.702 326.989 390.437 327.823C390.131 328.816 388.903 330.824 390.935 330.771L391.919 326.841L394.872 328.806C394.501 325.531 394.872 322.583 398.322 321.939C399.603 323.788 399.518 322.161 400.29 321.939C401.433 321.611 402.598 321.939 403.243 322.921L404.227 321.939L407.18 325.869C409.593 324.263 408.238 322.456 408.662 320.47C408.778 319.91 410.239 317.385 410.63 316.54C411.413 314.86 413.308 311.205 415.065 310.159C415.276 310.032 415.753 310.296 416.049 310.159C416.98 309.726 417.541 308.595 419.499 309.177C418.949 312.568 419.817 311.849 422.452 313.107C422.261 311.395 422.738 309.314 422.452 307.708C422.388 307.359 420.547 304.127 420.483 303.778C420.282 302.648 420.25 298.95 420.483 297.893C420.557 297.576 422.071 295.58 422.452 294.946C423.023 293.995 423.298 292.41 424.918 291.512C425.891 290.974 427.32 292.146 426.399 288.079C426.315 287.72 424.547 285.554 424.431 285.131C423.246 280.81 424.124 277.123 423.447 273.352C423.161 271.746 423.637 269.664 423.447 267.953C422.304 267.89 421.563 267.795 420.494 268.439C416.112 271.112 411.996 274.461 407.699 277.271C407.021 280.208 406.556 283.219 405.73 286.103C405.582 286.61 404.143 287.392 403.762 288.068C403.497 288.533 403.942 289.357 403.762 289.537C403.592 289.706 400.555 289.093 399.825 291.005C402.492 293.594 397.084 293.245 396.872 293.456C396.629 293.699 396.29 298.443 395.888 299.837C395.782 300.207 391.062 304.887 390.469 305.236C390.258 305.363 389.792 305.099 389.485 305.236C389.083 305.426 388.882 306.06 388.501 306.218C387.971 306.43 387.167 306.039 386.532 306.218C386.13 306.335 385.908 307.138 385.548 307.201C384.109 307.454 380.161 307.423 378.658 307.201C378.055 307.116 374.552 305.817 373.737 305.236L371.769 306.218L368.816 304.253C367.779 305.933 366.636 303.662 364.381 304.253C365.588 307.983 359.577 305.711 358.476 303.767C358.211 303.303 358.656 302.479 358.476 302.299C356.73 301.813 356.55 303.081 355.523 303.767C354.243 304.623 352.687 305.13 352.571 305.236C352.444 305.363 352.613 308.152 350.602 308.183L351.586 302.299H353.555C352.285 298.062 348.507 296.858 345.183 294.449C343.564 294.006 342.908 296.985 340.749 296.414L342.717 293.467L338.781 292.484C339.447 288.227 334.706 286.927 331.393 285.617C330.97 285.448 330.769 284.719 330.409 284.635C329.076 284.339 326.44 284.307 325.488 285.617C323.022 283.885 324.927 283.737 324.991 283.166C325.255 280.969 325.604 280.567 325.975 279.236C326.345 277.905 325.065 277.651 324.991 277.271C324.811 276.363 325.213 275.137 324.991 274.324C324.705 273.267 322.504 271.471 323.022 269.907C320.133 270.393 321.477 269.189 321.054 268.439C320.662 267.752 318.302 266.263 317.603 265.988C316.831 265.682 315.434 266.506 314.651 265.005L312.682 265.988L311.201 265.005C311.507 266.738 309.867 268.228 308.248 268.936C307.835 265.861 309.793 263.664 309.232 260.589C309.169 260.23 308.375 260.019 308.248 259.607C308.057 259.026 308.428 258.255 308.248 257.642C308.068 257.029 304.861 253.712 304.311 252.74C304.057 252.275 304.491 251.451 304.311 251.271C304.205 251.166 302.353 251.546 301.845 250.289H299.877L294.458 254.219C294.458 251.451 296.215 248.693 295.442 245.873C295.262 245.228 289.875 239.861 288.552 240.474V238.509H286.584V240.474L282.647 239.492L280.678 241.457C281.769 239.735 282.171 235.921 281.663 234.093C281.536 233.639 280.149 232.794 279.694 232.128C279.535 231.896 279.842 231.346 279.694 231.145C278.107 228.969 275.27 226.846 272.805 226.729V224.764L270.836 225.747C270.656 225.536 271.09 224.733 270.836 224.278C269.524 221.933 264.973 217.739 262.465 216.915C261.777 216.693 260.221 217.137 259.999 216.915C259.829 216.746 260.221 215.975 259.999 215.446C259.819 215.024 259.078 214.812 259.015 214.464C258.612 212.266 258.983 210.111 258.03 208.083C255.141 208.569 256.485 207.364 256.062 206.614C254.94 204.639 253.49 205.505 252.612 205.146C251.977 204.882 251.776 203.656 250.146 204.163C249.617 202.557 250.992 202.198 251.13 201.712C251.49 200.423 250.294 200.223 250.146 199.747C249.955 199.166 250.326 198.405 250.146 197.782C249.839 196.704 245.997 193.958 247.193 191.401H245.225C247.606 188.411 242.568 188.02 241.288 186.002C240.917 185.411 240.79 183.763 239.319 183.055L240.303 179.621C243.119 178.66 242.018 181.386 242.272 181.586C243.743 182.706 247.32 179.621 247.69 179.621C247.881 179.621 249.797 181.618 251.141 180.604C251.395 180.414 250.294 177.677 253.109 178.639L250.156 182.569C249.818 184.037 251.839 183.784 252.622 183.551C253.882 183.161 253.988 180.836 255.088 180.118L254.104 179.135L257.057 175.702C257.469 177.92 258.496 179.611 258.041 182.083C257.967 182.474 256.517 182.96 257.057 184.534H259.025V190.418H260.994V193.366L262.962 192.384C261.724 195.437 264.666 196.863 264.931 197.782C265.121 198.427 264.708 199.24 264.931 199.747C265.597 201.247 267.322 202.663 267.883 203.677C268.137 204.142 267.703 204.966 267.883 205.146C268.148 205.41 271.513 205.896 272.318 206.128C273.778 206.551 274.413 210.301 276.752 208.093C276.477 211.4 281.218 212.942 278.721 215.943C280.467 215.742 281.673 215.879 282.658 217.411C282.816 217.665 282.509 218.193 282.658 218.394C283.515 219.598 285.123 219.979 284.626 221.827L286.595 220.845V222.81C288.055 222.757 289.198 222.493 290.045 223.792L291.526 222.81C291.209 224.289 291.96 224.828 293.008 225.757L294.976 224.775L297.442 229.191L299.908 231.642C301.718 230.533 299.4 228.378 299.411 228.208C299.527 227.184 300.004 228.451 299.411 226.243C299.146 225.24 299.898 224.109 298.427 223.296L299.411 221.827L296.458 220.845L295.474 223.792C296.024 219.852 294.976 221.437 293.992 220.845C291.674 219.45 290.341 216.376 292.511 214.464L291.029 212.995L289.547 213.978L290.531 210.048L284.626 212.995L286.595 211.03V210.048H284.626V208.083C283.091 208.04 280.562 206.952 279.705 205.632C279.43 205.209 278.975 203.371 278.721 202.684C278.572 202.272 277.821 202.071 277.736 201.702C277.556 200.962 277.133 197.919 278.721 198.268L280.689 203.17C280.901 201.828 280.372 199.906 280.689 198.754C280.837 198.215 282.509 197.328 282.658 196.789C282.975 195.637 282.446 193.715 282.658 192.373C284.351 192.796 284.922 194.158 284.626 195.806L286.595 196.292L285.113 198.258L284.129 197.275C280.615 199.61 284.615 201.004 284.626 201.691C284.626 201.934 283.155 202.758 283.642 203.16L285.61 202.674L288.563 203.16L285.61 204.142L284.626 208.072L284.478 208.188ZM394.734 131.636C392.84 132.312 392.088 129.893 391.284 129.671C389.093 129.08 384.109 129.999 382.913 132.122C382.521 132.82 383.759 134.003 381.431 133.591L377.981 136.538C379.907 137.067 380.86 135.725 382.415 135.556C384.468 135.334 387.665 136.01 389.305 135.556C389.845 135.408 390.713 133.77 391.273 133.591C392.469 133.221 394.269 133.971 394.724 131.626L394.734 131.636ZM389.813 147.336C387.919 146.659 387.167 149.079 386.363 149.301C384.003 149.934 382.796 148.371 382.426 148.318C380.161 147.98 378.055 148.984 376.023 147.336L375.039 150.283C376.52 149.966 377.06 150.716 377.992 151.752L376.023 153.717C377.145 154.467 381.95 158.988 382.426 159.115C383.304 159.358 389.305 159.337 390.3 159.115C390.649 159.041 390.861 158.323 391.284 158.133C392.586 157.541 394.194 157.118 394.734 155.185C392.289 155.481 390.575 153.949 388.331 153.22C387.019 152.798 386.532 154.002 386.85 151.255H392.268L394.734 149.29H389.316L389.813 147.325V147.336ZM400.64 162.063C399.031 162.602 398.65 161.207 398.174 161.08C396.861 160.742 396.597 161.978 396.205 162.063C394.29 162.485 386.807 161.397 385.379 161.08C382.87 160.52 381.071 161.767 378.976 162.063V165.993H380.944C379.928 169.638 382.616 171.053 383.897 173.356C384.151 173.821 383.717 174.645 383.897 174.825C384.077 175.005 384.913 174.571 385.379 174.825C385.844 175.078 389.718 178.945 389.813 179.241C389.993 179.854 389.622 180.625 389.813 181.206C389.94 181.618 390.734 181.829 390.797 182.189C391.168 184.259 391.168 188.686 389.813 190.038L390.31 194.454L391.295 192.489H393.761C392.226 190.672 393.094 189.013 392.776 187.091C392.713 186.71 391.792 186.436 391.792 186.108C391.792 185.781 392.713 185.506 392.776 185.126C392.977 183.911 392.533 182.336 392.776 181.195C392.85 180.868 394.396 178.882 394.745 178.248C396.11 175.786 399.38 174.381 399.666 173.346C400.269 171.159 398.893 167.62 401.634 165.496L400.65 162.063H400.64ZM375.039 231.737L372.573 229.772C370.816 231.388 367.62 230.427 365.683 232.72C357.566 229.719 347.893 231.219 339.109 229.772C338.728 229.709 338.463 228.8 338.124 228.79C337.955 228.79 337.13 230.311 335.658 229.772C337.659 232.139 335.828 232.456 335.658 233.206C335.383 234.463 335.838 236.238 335.658 237.622H337.627C338.325 238.319 336.092 244.848 339.595 245.471C340.061 243.897 337.796 243.084 339.595 242.038C340.051 241.774 340.241 241.097 341.077 241.552L343.046 242.534L344.527 241.066L343.543 239.597C345.617 239.766 347.914 239.354 349.946 239.597C350.306 239.64 350.56 240.516 350.93 240.58C352.285 240.802 353.936 240.432 355.365 240.58C356.137 236.924 351.851 239.925 350.443 237.146L353.893 234.695L355.862 236.66L358.328 234.695L358.825 236.66C359.238 236.417 359.513 235.72 359.809 235.678C362.222 235.382 367.228 235.393 369.652 235.678C371.007 235.836 371.102 236.364 372.118 236.66V232.244L375.071 231.758L375.039 231.737ZM368.149 251.366C366.667 252.106 362.476 248.165 362.244 248.419C361.524 250.173 364.223 251.387 364.212 251.852C364.17 254.42 364.011 254.367 365.196 257.737L367.662 262.153C369.334 261.023 366.159 259.765 368.16 258.719L366.191 256.754C367.514 255.201 368.435 253.363 368.16 251.356L368.149 251.366ZM360.275 251.366L357.809 252.349C356.465 250.035 354.359 250.88 352.888 249.401H351.904L347.967 252.349C347.66 252.349 347.416 251.546 346.983 251.366C344.559 250.373 346.739 254.261 343.532 253.331L344.03 251.366H340.58V256.268L343.532 255.286L342.548 257.737L344.03 259.205L345.998 258.223C348.401 262.153 349.808 259.882 350.92 260.188C352.031 260.494 355.248 264.35 354.37 266.072L355.354 262.142L359.291 263.125L358.307 265.576C358.783 266.432 360.688 267.657 361.259 267.044C361.916 266.347 359.757 264.287 360.275 262.628C360.434 262.121 361.831 261.625 361.259 259.681C361.206 259.48 359.471 258.001 360.275 257.23C360.508 257.008 362.297 257.769 362.244 256.744C360.921 255.191 360 253.353 360.275 251.345V251.366ZM363.228 268.059C361.503 268.122 359.809 267.53 358.793 269.041L355.841 267.076L354.857 268.059L351.406 265.111C351.332 269.073 355.333 268.386 357.312 270.51L354.359 270.996C354.232 273.013 352.877 274.165 353.375 276.394C353.47 276.827 354.899 277.26 354.359 278.845L356.825 279.828L358.793 278.845L359.778 279.828L362.244 276.88V283.747L365.196 279.331V275.898L369.133 276.384C367.387 274.831 369.303 274.271 366.667 273.933C362.402 273.373 363.154 272.295 363.217 268.048L363.228 268.059ZM279.557 282.775C280.53 285.269 284.732 286.325 286.944 285.723C287.558 285.554 291.251 281.666 290.394 280.821L283.991 283.768L279.557 282.786V282.775ZM379.971 337.733C377.896 339.128 376.171 339.149 374.065 337.733C372.605 339.275 380.426 344.019 378.986 345.583C376.192 343.586 375.007 344.811 373.081 347.051L375.049 348.034L373.081 350.485C377.103 350.833 379.399 347.579 381.939 345.086C381.177 342.413 379.336 340.723 379.971 337.722V337.733ZM480.374 543.84L479.876 541.875C476.342 544.263 472.542 546.914 468.552 547.76V551.69L471.505 551.204L475.442 551.69L471.505 552.672L472.489 556.602H469.537L470.521 553.655C468.499 553.486 464.658 554.468 463.631 552.186C462.732 550.179 466.647 550.834 466.584 548.753H459.694L459.197 551.7L457.228 549.735C453.821 551.891 450.804 547.992 447.386 548.753C446.709 548.901 443.47 551.088 442.465 551.7C438.094 554.363 432.887 556.983 427.701 558.567C423.722 559.793 418.959 560.638 414.906 561.515C414.017 561.705 412.768 561.293 411.953 561.515C411.731 561.578 408.207 563.353 408.016 563.48C407.095 564.082 404.28 566.956 403.582 567.896C402.513 569.365 401.444 572.027 400.629 573.781C399.645 575.894 394.406 582.666 392.258 584.081C390.607 585.169 388.331 585.106 386.839 587.515C386.448 588.159 385.834 590.071 385.855 590.948L383.886 589.966C384.468 591.878 382.553 592.248 381.918 593.399C379.907 597.034 379.452 603.584 376.012 603.7V609.584H373.06L374.044 611.549C370.88 611.243 371.62 613.345 371.091 614.983C370.964 615.395 370.17 615.606 370.107 615.966C369.916 617.033 369.916 619.811 370.107 620.868C370.403 622.547 372.562 626.594 373.06 628.717C373.695 631.432 373.515 635.098 374.044 637.549C374.266 638.595 376.489 642.842 376.997 644.416C377.769 646.836 379.463 650.787 380.934 653.248C381.749 654.611 384.13 656.819 384.871 658.15C385.125 658.615 384.691 659.439 384.871 659.619C385.04 659.788 385.813 659.397 386.352 659.619C386.776 659.799 386.987 660.528 387.337 660.602C388.342 660.813 389.686 660.475 390.787 660.602V662.567C392.226 662.334 392.745 660.189 394.237 660.602C396.248 661.151 394.47 660.897 396.205 660.602C398.227 660.253 399.01 660.95 401.126 660.602C403.243 660.253 406.185 660.855 408.514 660.602C409.075 662.535 407.159 662.936 406.545 664.035C406.291 664.5 406.725 665.324 406.545 665.504C406.228 665.82 403.783 664.859 403.592 665.99C405.042 668.029 406.82 668.557 409.011 669.423C409.434 669.592 409.635 670.321 409.995 670.406C413.953 671.282 420.494 669.698 424.759 670.406C425.14 670.469 425.415 671.388 425.743 671.388C426.706 671.388 431.215 668.853 433.13 669.423V667.458C437.469 668.102 440.793 666.232 444.941 666.475C444.243 663.781 446.709 663.771 448.391 665.493L449.873 664.51V666.475C451.947 664.87 451.736 666.38 452.339 666.475C457.006 667.247 460.35 665.091 467.102 666.475C468.108 666.687 469.452 666.349 470.553 666.475L470.055 664.51L468.574 665.493V663.528C467.483 663.38 466.097 663.75 465.123 663.528C464.742 663.443 464.531 662.651 464.139 662.545C463.472 662.366 460.784 664.225 458.234 663.528C457.969 663.454 455.006 660.58 454.297 660.58C453.99 660.58 453.746 661.394 453.312 661.563C453.006 661.69 451.884 661.616 451.831 661.563C451.535 661.267 452.635 657.379 448.381 660.58L444.931 657.147L448.381 655.678C451.185 656.819 452.445 653.956 453.302 653.713C455.99 652.974 461.451 654.453 464.129 653.713C464.436 653.629 468.478 649.593 468.563 649.297C468.944 647.913 468.298 645.505 468.563 643.899C466.986 644.437 466.489 642.98 466.097 642.916C462.404 642.282 458.213 643.011 454.286 641.934C453.746 641.786 452.857 640.117 452.318 639.969C450.296 639.409 448.063 640.444 446.899 637.021L450.836 636.039C450.73 631.707 454.572 633.672 457.239 633.091C458.636 632.785 461.79 630.112 465.113 629.161C466.637 628.728 466.859 623.857 470.531 625.231C469.748 623.879 469.24 622.981 469.547 621.301C470.934 621.111 472.722 621.575 473.982 621.301C474.363 621.216 474.574 620.424 474.966 620.318C476.045 620.022 479.697 623.287 481.856 619.336C482.977 620.445 483.602 621.671 485.306 621.301C484.988 619.822 485.74 619.283 486.787 618.353L489.253 619.336C489.528 616.927 491.243 615.923 489.253 613.451L493.19 612.965C492.598 612.3 490.259 610.62 489.74 610.514C487.803 610.092 484.618 611 482.85 610.514C482.311 610.366 481.422 608.697 480.882 608.549C479.972 608.296 476.13 608.38 474.976 608.549C474.659 608.591 473.251 610.303 471.526 609.532L472.511 611.497C470.902 610.968 470.563 612.331 470.045 612.479C468.648 612.881 465.155 610.673 462.171 611.497C461.631 611.645 460.753 613.303 460.202 613.462C459.557 613.652 458.731 613.24 458.234 613.462C457.313 613.884 454.572 616.187 453.799 615.427C454.381 612.733 452.582 611.771 450.847 610.028L456.752 603.161L455.768 600.71C458.646 601.291 458.35 597.963 460.202 596.78C463.166 594.889 464.224 597.319 466.108 596.78C466.976 596.537 467.685 594.097 469.558 594.815V592.85C472.595 593.051 477.188 589.511 479.898 588.92C482.12 588.444 485.274 589.892 486.787 587.937C488.078 589.924 490.121 585.93 492.693 585.972L495.646 582.042C497.191 584.049 498.514 581.419 498.111 579.095L499.096 583.025C501.117 582.993 500.937 580.193 501.064 580.077C501.361 579.813 503.763 580.669 504.514 579.095L505.996 582.042C505.689 580.172 506.44 577.278 505.996 575.661C505.89 575.291 500.948 570.368 500.577 570.263C499.35 569.924 494.344 570.104 492.703 570.263C486.607 570.833 479.834 571.942 474.003 573.21C469.568 574.172 466.097 575.693 461.208 575.175C455.694 574.583 455.387 574.076 449.397 575.175C448.539 575.334 445.629 575.788 445.947 574.193L451.365 573.21C452.879 570.611 454.614 570.949 456.286 570.263C456.921 570.009 457.122 568.773 458.752 569.28L458.255 567.315C456.286 569.417 455.069 565.984 457.271 565.35C459.26 564.779 463.779 562.402 464.16 562.402C464.806 562.402 465.896 564.294 469.082 562.402C471.315 561.082 471.368 558.652 471.547 558.472C471.706 558.314 474.955 558.937 475.484 557.004C475.717 556.169 475.252 554.891 475.484 554.056C475.717 553.222 479.189 550.792 479.919 549.64C482.141 551.88 481.898 548.679 482.385 547.189C482.512 546.788 483.295 546.576 483.369 546.207C483.538 545.414 483.972 542.435 482.385 542.773L481.4 548.658C479.051 546.682 479.252 549.883 476.479 549.64L480.416 545.224L478.448 543.756H480.416L480.374 543.84ZM605.383 547.77C603.574 548.51 602.515 546.946 601.933 546.788C601.055 546.555 598.271 545.847 597.996 545.805C596.599 545.604 592.366 545.531 591.107 545.805C590.747 545.879 588.757 547.496 588.154 547.77C587.371 548.119 585.635 547.348 584.704 549.239L585.688 550.221C583.391 551.109 582.269 557.057 581.751 557.585C581.402 557.934 580.407 556.38 577.814 560.036C573.93 565.519 570.808 564.822 566.49 567.4C563.495 569.196 561.389 574.457 560.087 577.7C559.918 578.123 559.177 578.323 559.103 578.683C558.849 579.834 558.88 584.314 559.103 585.55C559.166 585.909 559.96 586.12 560.087 586.532C560.277 587.113 559.907 587.885 560.087 588.497C560.468 589.839 565.294 593.093 566.49 593.896C567.516 593.949 566.754 592.163 566.987 591.931C567.358 591.55 569.051 592.058 569.453 592.913L570.935 591.931L571.432 594.878C572.258 593.378 573.517 594.181 574.385 593.896C575.062 593.674 577.888 592.005 578.322 591.931C579.814 591.667 581.751 592.195 583.243 591.931C583.603 591.867 583.815 591.075 584.227 590.948C584.81 590.758 585.582 591.128 586.196 590.948C586.492 590.864 590.228 587.124 590.63 586.532C592.271 584.071 593.689 580.246 594.567 577.7L597.033 573.284C599.33 573.242 598.282 581.768 598.515 583.585C598.875 586.458 601.108 591.508 601.468 594.382C601.827 597.255 600.504 601.164 602.452 603.214C601.52 604.249 600.981 604.999 599.499 604.682V606.647H598.515V604.682H594.578L595.562 608.613H592.609V606.647H589.657V604.682C586.513 605.073 583.952 601.597 581.285 599.78L577.835 598.798L580.788 596.833C578.555 596.6 575.814 597.615 574.385 595.85L567.982 595.364C570.543 597.9 574.766 597.308 577.338 599.78C586.122 605.485 595.149 610.028 600.473 619.896C600.833 620.572 602.304 621.354 602.441 621.861C603.425 625.421 604.283 629.33 606.378 632.658C606.876 633.45 608.368 634.802 609.331 635.109V633.144C611.998 633.577 613.966 632.658 616.221 632.161V629.214L614.252 631.179V624.312L611.299 629.71C610.802 630.682 609.405 629.002 609.331 628.728C609.013 627.64 609.289 626.456 610.315 625.78C608.082 624.544 607.722 620.202 608.347 617.931C608.495 617.392 610.156 616.515 610.315 615.966C610.622 614.898 611.098 610.768 611.299 610.567C611.712 610.155 612.231 610.958 614.252 608.116C615.12 606.89 616.443 605.75 617.205 604.186C617.776 602.242 616.305 601.608 616.221 601.238C616.019 600.361 616.443 599.115 616.221 598.291C616.072 597.752 614.4 596.865 614.252 596.326C612.781 590.991 613.712 581.852 612.284 576.696C612.03 575.788 609.394 575.133 610.315 571.794C610.453 571.298 611.903 570.506 612.284 569.829C612.548 569.365 612.104 568.54 612.284 568.361C612.464 568.181 613.3 568.614 613.765 568.361C614.421 568.002 615.025 566.903 615.734 566.396C616.125 566.121 618.782 565.889 618.2 563.945L615.734 560.511L614.749 561.494L613.268 559.043L616.221 557.574C613.479 558.166 612.474 556.264 610.802 554.627L608.833 556.592C607.426 555.43 605.404 554.828 604.399 553.158C603.806 552.186 605.394 551.14 601.446 551.69C601.171 549.904 602.928 551.003 603.912 550.707C604.759 550.454 605.701 548.827 605.394 547.76L605.383 547.77ZM367.165 610.578C364.741 610.028 362.529 612.257 361.259 614.011C361.111 614.212 361.418 614.761 361.259 614.994C360.804 615.659 359.418 616.494 359.291 616.959C359.111 617.571 359.481 618.343 359.291 618.924C359.164 619.325 358.391 619.536 358.307 619.906C357.746 622.315 359.069 623.033 359.291 623.836C359.365 624.111 358.688 626.456 359.291 628.738C359.397 629.129 360.212 629.351 360.275 629.721C360.603 631.57 359.841 638.511 360.275 639.049L363.228 637.084C362.413 639.356 364.847 641.215 365.196 642.483C365.27 642.758 364.583 645.093 365.196 647.385C365.99 650.333 367.895 652.689 367.165 655.235C366.329 658.129 374.012 665.567 373.07 669.465H375.039V673.395H377.992L378.489 669.465C380.468 671.388 380.235 674.146 383.908 673.395L382.923 668.979C385.41 666.539 380.129 663.074 380.955 659.651C378.203 660.359 377.706 654.971 377.018 652.287C374.848 643.878 372.033 636.778 370.128 628.728C370.033 628.347 369.229 628.126 369.144 627.745C368.498 624.946 368.34 620.963 368.16 617.931L370.128 613.515L367.175 616.948V622.347C365.27 622.537 366.488 620.128 366.191 618.913C366.096 618.533 365.313 618.322 365.207 617.931C364.942 616.938 365.694 615.797 364.223 614.983L367.175 610.567L367.165 610.578Z" fill="#F42E0A" fill-opacity="0.7"/>
<path d="M334.685 119.857V121.822L337.151 122.804L338.632 121.336L339.617 123.787C341.469 124.209 339.955 121.822 341.098 121.822C343.257 121.822 342.993 121.938 341.596 123.29L344.548 123.776C344.358 125.741 340.992 125.847 340.611 127.21C339.341 131.732 343.48 132.144 347.014 131.626C347.332 131.584 348.739 129.872 350.464 130.643L349.48 134.573H345.543C346.877 136.433 346.559 138.208 346.527 140.458C344.739 141.198 343.109 139.19 342.093 139.476C341.384 139.676 339.849 142.222 339.14 142.423C338.527 142.603 337.754 142.233 337.172 142.423C336.759 142.55 336.547 143.342 336.188 143.406C332.621 144.039 330.42 143.289 328.314 140.458L326.345 142.423L323.879 140.955V139.486H321.911L322.895 138.018C321.71 137.024 321.9 135.514 320.429 134.584C320.228 134.457 319.752 134.732 319.445 134.584C319.043 134.394 318.842 133.76 318.461 133.602C317.932 133.39 317.127 133.781 316.492 133.602C316.09 133.485 315.868 132.682 315.508 132.619C311.37 131.879 307.465 133.327 303.697 133.602C301.263 135.767 298.522 137.236 296.31 139.983C296.151 140.183 296.469 140.764 296.31 140.965C294.193 143.638 291.505 145.857 290.404 147.832C289.96 148.635 288.552 149.427 287.939 150.283L288.436 147.832L284.499 146.364C284.499 144.663 286.679 144.621 286.965 144.399C288.478 143.237 289.293 141.05 291.399 141.451L290.415 138.504C293.124 138.916 295.167 136.602 297.305 135.07L292.384 133.602L296.321 132.619V130.654C298.469 131.563 300.511 128.953 301.739 128.689C302.967 128.425 306.988 129.196 307.158 127.22C307.179 127.03 304.798 125.498 307.655 123.787C308.121 123.491 308.227 127.759 310.121 125.752C310.872 124.949 308.322 122.001 307.655 121.822C305.295 121.188 304.184 122.72 303.718 122.804C301.887 123.132 300.152 122.234 298.3 123.787C297.897 120.459 300.607 121.346 301.75 120.839C302.893 120.332 305.454 117.955 305.687 117.892C306.967 117.543 309.137 118.156 310.608 117.892C311.666 117.702 314.682 115.113 315.529 116.909C321.054 114.627 328.451 119.677 334.727 119.857H334.685Z" fill="#F42E0A" fill-opacity="0.7"/>
<path d="M322.874 150.283L324.842 145.381L319.921 147.346L318.937 149.311C318.672 147.705 319.318 145.297 318.937 143.913C318.63 142.803 313.783 140.69 313.031 141.462C313.148 142.571 312.851 143.86 313.031 144.895C313.095 145.276 314.016 145.55 314.016 145.878C314.016 146.205 313.137 146.459 313.031 146.86C312.862 147.473 313.201 148.223 313.031 148.825C312.926 149.185 310.1 152.322 309.581 153.241C306.671 153.833 304.808 152.111 302.194 152.259C302.554 151.287 299.178 146.395 298.744 146.374C296.828 147.853 296.998 148.382 298.247 150.304L295.781 149.322L293.812 151.287L288.394 152.269L291.844 148.339L293.325 150.304C292.987 148.836 293.579 148.709 294.31 147.853C296.606 145.117 299.009 144.029 301.697 142.455C302.374 142.053 303.168 140.638 303.665 140.49C304.279 140.31 305.052 140.68 305.634 140.49C306.046 140.363 306.258 139.571 306.618 139.507C308.449 139.18 315.614 139.18 317.445 139.507C317.804 139.571 318.016 140.363 318.429 140.49C319.011 140.68 319.783 140.31 320.397 140.49C321.329 140.754 327.086 146.395 329.255 147.357C329.859 147.621 332.166 147.061 332.706 148.825C333.563 151.657 327.329 151.625 325.319 151.276C324.938 151.213 324.43 149.755 322.853 150.294L322.874 150.283Z" fill="#F42E0A" fill-opacity="0.7"/>
<path d="M251.014 234.685C251.553 236.27 250.125 236.703 250.029 237.136C249.468 239.661 251.014 240.844 251.014 241.066C251.014 241.372 250.178 241.626 250.029 242.048C249.828 242.598 250.199 243.358 250.029 243.517C249.818 243.728 245.479 243.675 244.611 245.482C243.701 243.823 241.997 244.869 240.674 244.499C240.441 244.436 237.499 241.52 237.224 241.066C237.097 240.855 237.361 240.39 237.224 240.083C236.885 239.344 235.7 239.027 236.239 237.136C236.896 234.843 241.531 235.931 243.626 235.667C243.986 235.625 244.251 234.727 244.611 234.685C246.643 234.452 248.929 234.843 251.014 234.685Z" fill="#F42E0A" fill-opacity="0.7"/>
<path d="M332.716 290.625L330.748 291.608V293.573C334.759 292.696 331.605 297.133 330.251 297.503C329.414 297.735 328.134 297.27 327.298 297.503C325.954 297.872 323.361 300.397 321.392 300.45L317.942 304.38C317.191 302.595 318.799 301.464 318.926 300.947C319.329 299.278 319.382 296.848 319.911 295.062C321.541 294.122 322.789 290.086 324.345 289.664C325.213 289.431 328.155 289.537 329.266 289.664C330.79 289.843 331.161 290.921 332.716 290.646V290.625Z" fill="#F42E0A" fill-opacity="0.7"/>
<path d="M288.415 252.349H290.383C289.843 253.923 291.293 254.409 291.367 254.8C291.981 258.181 290.468 261.033 287.917 263.146C284.869 263.167 282.128 265.428 279.546 267.076C280.541 262.343 282.933 257.991 285.451 253.828L283.483 251.863L286.933 249.412L288.415 252.36V252.349Z" fill="#F42E0A" fill-opacity="0.7"/>
<path d="M356.338 309.272C356.338 311.29 353.47 309.092 354.37 312.219H356.338C356.402 313.941 355.809 315.632 357.323 316.635C357.323 317.216 352.655 320.639 352.401 321.537C352.211 322.182 352.624 322.995 352.401 323.502C352.137 324.094 350.348 326.925 349.936 326.936C348.306 325.837 348.591 325.14 348.454 323.502C348.295 321.474 348.126 317.481 348.454 315.653C348.517 315.304 349.258 315.093 349.438 314.67C349.66 314.142 349.269 313.371 349.438 313.202C349.618 313.022 350.454 313.466 350.92 313.202C352.835 312.114 352.37 308.268 356.338 309.272Z" fill="#F42E0A" fill-opacity="0.7"/>
<path d="M267.746 251.366C266.963 250.458 270.233 246.866 269.714 245.482L273.651 244.499C271.185 241.573 274.244 241.351 274.636 240.083C275.006 238.89 274.233 237.125 276.604 236.65C276.308 238.351 278.16 239.259 277.588 241.066C277.44 241.531 276.244 241.742 276.604 243.031C276.731 243.475 278.149 244.013 277.588 245.978C277.525 246.211 274.382 249.349 274.138 249.412C273.302 249.644 272.021 249.18 271.185 249.412C270.72 249.539 268.021 251.694 267.735 251.377L267.746 251.366Z" fill="#F42E0A" fill-opacity="0.7"/>
<path d="M235.266 224.87C235.805 226.328 234.271 227.163 234.281 227.321C234.281 227.564 235.805 228.261 235.266 229.772C233.689 229.233 233.191 230.691 232.8 230.755C230.62 231.135 227.73 230.491 225.413 230.755V227.807L228.365 228.79C228.291 226.656 229.858 226.719 228.365 224.86H235.255L235.266 224.87Z" fill="#F42E0A" fill-opacity="0.7"/>
<path d="M223.455 214.073H221.487C222.026 215.647 220.566 216.144 220.502 216.524C220.217 218.14 220.693 220.211 220.502 221.923H216.565C217.105 220.327 215.676 219.905 215.581 219.472C214.819 216.133 216.65 216.165 217.55 214.57C217.814 214.105 217.37 213.281 217.55 213.101C217.878 212.774 222.1 213.693 223.455 212.119V214.084V214.073Z" fill="#F42E0A" fill-opacity="0.7"/>
<path d="M227.392 142.434L231.826 137.532C232.683 138.018 232.916 137.193 233.308 137.046C236.588 135.757 237.298 140.057 234.789 141.462L227.402 142.444L227.392 142.434Z" fill="#F42E0A" fill-opacity="0.7"/>
<path d="M329.763 162.063L328.779 165.993C326.663 165.01 322.461 172.395 320.905 170.895C321.953 169.574 321.646 168.148 322.387 166.965C323.551 165.105 325.879 165.053 326.821 163.531C327.403 162.581 325.816 161.503 329.774 162.063H329.763Z" fill="#F42E0A" fill-opacity="0.7"/>
</g>
<defs>
<clipPath id="clip0_135_1238">
<rect width="630" height="747" rx="300" fill="white"/>
</clipPath>
</defs>
</svg>
