<svg width="775" height="972" viewBox="0 0 775 972" fill="none" xmlns="http://www.w3.org/2000/svg">
<g clip-path="url(#clip0_135_1210)">
<path d="M314.578 972C306.004 967.297 296.322 964.137 287.094 960.722C225.77 938.095 163.774 916.011 102.922 892.24C98.6529 890.569 90.951 889.879 90.5151 884.449C90.0246 878.274 91.3506 879.872 95.3106 878.765C99.2705 877.657 103.412 860.895 106.264 857.154C107.136 856.009 108.498 855.61 109.443 854.484C110.387 853.358 111.241 850.362 112.022 849.889C113.203 849.145 118.071 850.834 119.724 851.36C123.284 852.486 127.044 854.611 130.641 855.428C131.368 855.592 132.276 855.301 131.15 854.829C129.37 854.738 130.296 851.796 131.295 851.596L143.938 853.83C140.904 851.36 134.456 851.251 131.368 848.981C130.532 848.364 130.26 847.075 130.296 846.094C130.95 834.072 131.913 820.27 130.932 808.229C130.823 806.867 130.823 806.159 129.261 805.959C127.698 805.76 120.887 807.085 119.343 807.739C118.543 808.084 118.398 808.357 118.18 809.174L117.926 844.096C117.962 845.604 117.09 846.802 115.582 846.966C109.588 846.748 102.522 849.926 96.7274 849.599C93.0036 849.399 85.2473 847.238 84.1574 843.261C84.8113 839.429 82.1593 818.926 83.5398 817.183C86.0284 814.041 84.1029 811.426 83.9757 807.63C83.5216 794.627 84.3572 781.515 84.0302 768.513L83.3218 764.009L83.3763 741.817L82.6679 737.313L82.7224 692.33L82.014 687.826L82.7224 670.192C80.8151 653.267 82.9767 635.034 81.3963 618.144C80.8514 612.279 77.9814 613.205 75.2385 609.318L62.4868 588.216C55.4934 586.273 48.0277 585.782 40.8707 584.439C36.5839 583.621 32.3878 582.459 28.1372 581.551C26.6114 581.224 19.7451 580.716 19.4908 579.644C18.855 576.611 20.2174 572.671 20.1266 570.037C20.0357 567.404 18.9459 563.954 19.4908 560.957L21.7796 559.977C39.908 563.318 58.2181 565.534 76.4192 568.439C86.8639 570.11 97.3813 572.743 107.826 574.16C109.007 574.323 110.95 574.505 112.004 573.906C111.314 573.106 111.641 572.598 110.46 572.162C108.498 571.454 104.593 570.855 102.377 570.51C89.6795 568.512 78.4718 568.203 65.9563 564.589C65.1207 564.353 63.3224 564.571 63.1771 564.444C62.0509 563.572 63.3224 563.282 64.1398 563.136C68.9716 562.301 72.5864 558.469 76.5827 557.924C77.9995 557.725 79.5072 558.941 80.7787 557.634C82.2319 556.126 80.5426 552.894 82.4499 550.787C82.8677 550.315 83.9031 550.279 84.0484 549.68C84.3572 548.39 83.8123 546.356 84.0484 544.903C71.551 545.848 58.9992 545.394 46.5926 547.573C45.2666 547.573 44.2494 547.01 43.8316 545.721C39.8898 524.727 36.2751 503.661 32.6603 482.668C22.3063 422.666 11.026 362.518 1.92547 302.462C1.47135 299.465 0 294.671 0 291.965C0 288.024 4.1779 289.15 4.95898 288.478C6.50299 287.134 7.0116 282.049 10.1359 281.25L10.9897 282.34L22.0702 314.266C18.9822 320.295 23.9775 323.31 23.2327 328.976C23.1419 329.612 23.0874 330.883 22.1792 330.719L20.2174 327.469C19.3092 330.265 21.2709 331.5 21.8704 333.298C22.4698 335.096 21.9975 337.221 23.7959 338.528L23.4689 332.027C24.3408 331.083 30.1172 336.531 26.012 338.837C24.6859 339.582 23.814 338.401 24.1228 340.78C24.3226 342.288 25.5397 343.268 26.0301 344.757C26.8657 347.209 27.5015 350.169 28.337 352.875C29.8629 357.815 31.3524 362.827 32.5694 367.839C34.0408 368.511 34.4949 365.678 34.4949 364.861C34.4767 363.118 30.4078 361.955 32.2425 358.705C33.405 356.652 34.2406 361.12 34.4767 361.538C34.9309 362.264 36.2024 362.264 36.7837 363.281C38.4367 366.205 38.3458 369.928 39.2177 372.579C40.2895 375.83 40.1623 373.451 40.4166 377.864C40.4893 379.19 40.8889 382.44 41.1614 383.657C41.5428 385.437 44.5582 387.543 44.2857 388.978C44.0132 390.413 43.1958 389.505 42.6509 389.305C41.8516 389.032 40.4711 388.724 40.344 387.761C39.5084 386.526 39.69 388.379 39.8535 388.851C40.2168 389.886 41.2885 392.701 41.9788 393.282L46.7743 393.972C47.0286 395.697 49.6262 397.55 48.5544 399.093C47.6644 400.383 44.2312 399.965 44.3584 401.89C44.3584 401.981 44.9033 403.543 44.976 403.597C45.1213 403.724 48.3728 403.288 48.5363 403.016L49.4808 400.383C50.2256 403.452 51.3518 406.503 52.4235 409.499C55.4752 418.017 58.7994 426.842 60.7067 435.723C60.8883 436.576 61.8511 437.702 61.8511 437.83C61.8147 438.883 59.9801 438.61 59.3988 438.011C58.0001 436.558 56.7831 429.53 55.4934 427.278C54.9848 426.388 52.7505 423.519 52.7323 426.116C54.8576 433.707 56.7286 441.407 59.2898 448.853C59.9437 450.778 63.6675 461.311 64.4486 461.928C64.9391 462.31 65.1752 462.31 65.7746 462.237C64.1398 460.003 63.5767 456.807 67.0825 458.641C67.7909 459.005 68.1906 460.221 68.7718 460.893C70.552 462.982 69.6074 461.91 70.6246 464.198C71.0243 465.106 72.0415 465.978 72.1868 466.614C72.423 467.667 71.4784 468.811 71.7327 470.228C72.0052 471.789 73.9851 472.897 74.1123 473.696C74.2939 474.732 73.1677 475.712 74.0396 477.71C74.5482 478.89 75.6563 478.418 76.5463 479.108C76.7098 479.235 79.0531 482.232 79.1439 482.432C79.5799 483.358 78.6716 484.52 78.8896 485.827C79.1439 487.335 80.8514 488.77 81.2329 490.041C81.687 491.548 81.3237 494.091 82.3772 495.453C83.013 496.288 87.863 495.888 89.2072 496.088C88.4624 498.812 87.863 497.85 85.6469 498.031C84.6297 498.104 83.0493 497.396 83.3581 498.994C85.0111 500.447 89.4252 500.265 91.5323 500.011C93.0581 499.829 93.6576 498.903 94.7656 498.685C96.8727 498.286 99.6519 498.903 101.923 498.685C108.171 498.049 114.511 496.887 120.759 496.016C121.214 495.961 124.32 495.307 123.085 494.127C122.558 493.618 119.27 495.307 119.833 492.819C122.63 492.692 125.5 491.457 128.298 492.492L124.846 493.455L123.757 495.416C126.681 495.362 129.624 495.525 132.548 495.416C135.164 495.325 141.177 493.019 140.686 497.359C136.436 497.868 132.221 497.777 127.989 498.013C125.737 498.14 123.121 497.868 121.522 498.013C120.051 498.158 118.416 499.684 116.818 499.775C115.074 499.884 112.64 498.812 110.496 499.321C109.988 499.448 110.188 500.428 109.624 500.592C104.302 502.117 97.2179 500.955 91.5323 501.936C89.8611 502.226 87.9357 504.17 85.3381 503.225L86.5915 507.493C87.3362 508.02 93.3851 507.892 94.7838 507.765C129.751 504.642 164.573 500.665 198.995 495.416C206.515 494.272 215.362 493.509 223.063 492.783C226.642 492.438 229.875 493.6 233.163 491.475C232.255 487.19 228.277 489.787 225.625 490.132C208.604 492.256 190.04 492.42 172.929 493.437C170.131 493.6 166.571 494.472 163.701 494.526C161.303 494.563 158.288 493.637 155.672 494.091C158.161 490.622 163.755 492.946 166.989 492.075C167.334 491.984 168.333 491.257 167.715 490.84L166.081 488.897C168.042 487.989 170.367 490.531 171.548 490.168C172.402 489.914 172.584 488.297 173.237 487.898C174.037 487.407 184.463 486.699 185.935 486.953C186.698 487.081 187.46 487.371 187.569 488.243H183.01V490.204L192.783 489.55C191.729 483.122 199.286 485.301 203.536 484.992C212.437 484.357 221.538 483.412 230.347 481.959C231.147 481.832 232.2 482.795 232.854 481.76C233.508 480.724 233.436 477.474 232.128 477.219C228.622 477.782 209.313 480.379 207.751 478.454C206.661 477.111 210.057 476.638 210.748 476.566C215.162 476.094 221.011 476.457 224.989 475.821C227.496 475.422 229.239 473.442 232.491 475.204L233.109 470.682C231.11 469.828 229.494 470.645 227.641 470.682C200.63 470.972 173.128 474.368 146.245 475.24C136.181 475.567 125.591 475.149 115.601 475.857C114.583 475.93 113.693 476.439 112.694 476.529C111.604 474.822 112.785 473.079 112.585 471.771C112.385 470.464 110.642 469.592 110.66 467.74C110.66 466.251 111.95 465.343 111.95 465.143C111.95 464.453 109.079 463.381 108.426 461.602C107.009 457.679 105.864 453.756 104.52 449.888C101.414 440.971 99.0707 431.31 96.1098 423.138C95.6739 421.939 94.6203 420.922 94.4387 419.578C94.257 418.234 94.5476 418.761 95.4014 418.598C96.128 418.452 103.503 417.69 101.596 416.001C97.8173 415.674 91.8956 417.744 92.4769 412.096C94.7293 411.497 97.3269 412.768 99.2523 412.696C105.901 412.478 112.749 411.606 119.506 412.096L123.375 411.406L141.522 411.86L151.367 410.752L159.741 411.206L169.623 410.117C172.711 409.99 182.374 410.734 184.282 409.79C184.845 409.517 185.735 408.555 185.589 407.847C185.135 405.686 179.341 407.429 178.033 407.465C173.819 407.611 172.493 407.029 168.206 408.065C167.679 408.192 166.48 406.975 165.118 406.812C158.724 406.031 147.28 407.393 140.341 407.502C127.935 407.683 111.096 406.83 99.2887 408.119C97.7628 408.283 96.5821 409.318 95.5285 409.281C93.8211 409.227 88.9529 408.046 89.8611 405.54C99.4521 404.269 109.207 405.159 118.87 404.923C140.359 404.414 163.265 403.888 184.609 402.29C186.534 402.144 188.478 402.417 190.403 402.235C194.399 401.854 194.763 400.056 190.494 399.674C185.263 399.202 180.104 398.894 174.836 399.039C155.527 399.62 136.054 399.075 116.872 399.802C108.28 400.128 98.0534 401.363 89.4978 400.383C88.2081 400.237 86.21 399.348 87.2454 397.749C88.3535 396.042 98.8345 397.895 101.269 397.768C125.246 396.624 151.113 394.807 174.818 395.134C177.306 395.171 179.813 395.098 182.302 395.134C183.101 391.902 177.07 391.539 174.945 392.011C170.622 392.973 173.11 392.265 169.641 391.847C164.464 391.23 158.379 392.737 153.383 392.501C152.039 392.428 150.441 391.448 148.842 391.92L146.499 387.325H149.75L149.096 389.922C151.313 389.723 166.625 390.522 167.334 389.922C169.35 388.197 162.629 388.978 162.775 387.634C162.266 386.417 165.427 386.181 165.881 386.163C170.495 386.127 173.91 386.29 178.723 386C183.028 385.745 187.333 385.509 191.62 385.237C192.583 384.765 193.564 383.984 193.364 382.767L158.851 382.113V378.844C160.449 379.226 162.23 378.336 163.628 378.409C168.079 378.608 172.729 379.171 177.252 378.736C178.596 378.608 180.122 377.283 181.284 377.192C183.973 377.01 187.733 378.844 190.094 375.921C190.094 375.358 187.569 374.94 187.17 374.94H176.416L177.488 373.088L194.49 371.835L195.308 370.382C187.388 370.273 179.432 370.509 171.512 370.418C166.153 370.364 160.667 369.437 155.254 369.728C130.677 371.09 104.829 369.365 80.3973 371.726C79.7978 371.78 79.3074 372.143 78.7625 372.325L77.4364 368.42C81.2329 368.457 85.0293 368.348 88.8257 368.42C115.637 368.874 142.975 367.694 169.568 367.113C174 367.022 178.832 367.458 183.174 367.058C183.791 367.004 186.243 366.75 186.171 365.823C176.943 365.751 167.697 365.896 158.469 365.842C157.053 365.842 155.817 365.133 154.6 365.133C148.842 365.133 142.484 366.332 136.363 365.823C135.782 365.769 132.349 365.315 133.438 363.862L182.52 362.464C184.427 361.865 182.629 359.522 182.919 357.706C183.101 356.562 184.372 355.999 184.227 354.746C176.416 353.184 168.406 354.292 160.431 354.128C137.453 353.62 114.057 354.31 90.7512 354.074C87.7177 354.582 74.7662 355.581 72.8589 354.382C70.9516 353.184 66.8645 338.165 65.7383 334.878C63.5222 328.413 60.525 322.166 59.199 315.41C60.1436 313.921 61.7057 315.247 63.4314 315.12C83.4671 313.667 104.484 314.484 124.61 314.448C153.892 314.393 183.192 314.357 212.473 314.502L233.054 369.111V288.387C231.001 288.442 225.116 288.333 223.881 286.826C222.282 284.864 223.844 281.723 223.935 279.616C224.099 276.093 223.645 272.733 224.607 269.228L224.571 233.071C229.421 232.054 234.344 232.762 239.23 232.417C240.502 232.326 244.752 231.909 245.624 231.636C246.569 231.346 249.457 229.239 248.676 227.841H234.671C232.981 227.841 234.326 224.499 234.362 223.609C234.525 218.833 234.362 214.021 234.38 209.317C234.507 184.31 234.344 159.848 233.744 135.005C233.272 116.263 234.053 97.3217 233.672 78.4893C233.653 77.4179 233.163 73.8039 232.927 72.6962C232.818 72.1695 232.455 71.2796 232.109 70.9164C230.002 68.8098 218.668 71.6973 215.253 70.9528C214.508 70.7893 213.799 66.8122 212.237 66.0313C208.822 64.3242 207.696 67.7928 205.207 61.3459C201.829 52.5381 200.521 43.7848 194.254 35.8305C192.547 33.6513 188.641 32.1803 190.076 29.9284C187.915 29.093 180.249 31.4175 179.304 29.9284C177.815 27.6038 178.741 24.7526 179.014 22.4281C179.286 20.1036 178.305 18.1059 180.976 16.5805C204.917 11.2231 229.33 8.37195 253.508 4.46746C254.779 4.2677 255.851 3.54128 256.959 3.35968C262.299 2.50614 270.691 0.635613 275.723 0.671934C279.247 0.708255 278.757 4.17689 278.629 6.792C278.884 8.08138 281.082 5.62973 281.191 5.321C282.008 3.32336 281.245 1.08962 283.806 0.236084C286.64 -0.690097 289.746 0.980661 292.634 1.25307C343.187 5.79317 393.867 13.1845 444.365 17.5248C451.576 18.1423 459.878 19.9038 467.234 20.7029C504 24.7526 540.638 28.9114 577.276 33.0883C605.559 36.3027 634.259 38.4274 662.451 42.3319C664.013 42.5499 670.553 43.7666 671.334 44.5293C672.296 45.4737 672.296 53.9728 671.642 55.2985C670.589 57.4232 666.447 56.2428 664.122 56.8966C651.625 60.456 651.098 83.4108 643.632 90.457C642.615 91.4195 641.235 90.9292 640.072 91.4559C639.146 91.8736 638.619 93.2174 637.002 93.5806C634.786 94.071 623.978 92.6908 623.742 94.0891C623.706 95.3604 623.942 96.6861 623.778 97.9391C623.288 102.025 623.161 106.747 623.088 110.924C621.998 169.328 622.416 227.931 621.199 286.117C618.274 379.081 620.654 472.48 617.257 565.388C617.148 568.421 616.567 576.63 619.691 577.937C624.087 579.771 630.972 579.481 635.749 580.135C639.981 580.698 644.195 581.987 648.519 582.023C648.7 583.022 647.483 582.641 646.92 583.294C646.684 583.567 646.993 584.275 646.793 584.62C646.248 585.565 644.886 586.037 645.34 587.417L652.097 596.352C652.642 594.282 654.277 594.99 655.712 594.027L654.949 589.269L651.116 589.197C650.517 586.89 653.151 586.182 655.022 585.91V584.311L653.078 583.985L654.023 582.877C659.981 584.602 668.355 582.859 672.932 587.253C673.186 584.838 680.543 583.912 681.415 585.274C681.851 585.946 681.688 587.126 682.033 587.907C683.032 590.177 685.502 591.812 681.233 592.956C678.236 593.755 676.256 591.122 673.913 589.832C673.532 592.03 675.112 592.502 676.329 593.573C676.62 593.828 678.254 594.064 677.165 595.044C676.947 595.244 672.714 594.953 671.624 595.044C657.183 596.315 643.542 597.968 629.246 600.202C626.539 600.62 623.996 600.311 621.017 601.092C617.893 601.909 614.914 602.926 619.837 604.56C623.778 604.306 627.92 603.925 631.916 603.525C648.246 601.891 664.05 598.477 680.089 597.006C682.233 596.806 685.357 597.441 687.155 597.006C687.664 596.878 687.482 595.807 687.991 595.698C692.55 594.717 699.271 595.008 704.121 594.336C714.802 592.865 722.704 589.396 733.494 587.889C737.363 587.344 742.794 585.891 746.536 585.891C747.553 585.891 748.189 586.073 748.788 586.908L747.499 588.525C751.15 586.563 755.091 587.58 758.888 587.235C761.413 586.999 767.898 585.492 769.841 585.928C770.314 586.037 770.223 586.908 770.749 587.199C771.512 587.599 772.82 587.49 773.547 588.198C775.036 589.614 773.511 598.495 774.855 601.219V626.553L774.437 627.025L618.184 651.687L617.911 676.149L617.221 680.017V687.844L616.549 691.712L616.603 747.12L615.895 751.623L615.931 827.171C616.204 829.15 618.293 829.659 619.51 830.748C620.272 831.42 620.745 833.109 621.508 833.273C621.962 833.363 625.159 832.619 626.685 832.673C632.025 832.891 629.21 834.417 630.844 836.996C631.825 838.521 636.094 840.555 637.747 842.462C643.106 848.654 644.032 858.625 647.483 865.925C649.609 870.429 652.025 872.245 655.966 875.023C657.801 876.313 659.236 875.586 659.563 878.583C659.89 881.579 659.29 884.431 656.457 885.956C646.448 888.644 635.84 892.294 625.704 894.273C621.235 895.145 618.965 895.454 614.46 894.401C603.597 891.84 592.262 887.518 581.418 884.467C519.222 866.978 456.753 849.417 394.521 831.747C391.542 830.912 382.078 830.076 381.497 826.553C381.369 825.809 381.369 821.922 381.533 821.723C382.15 821.014 388.708 820.887 390.888 818.381C395.193 813.423 397.681 804.343 401.496 798.877C402.822 797.569 405.183 797.733 406.491 796.879C407.381 796.298 407.618 795.009 408.181 794.645C411.378 792.648 422.549 797.551 423.167 796.934L423.984 680.562C423.185 678.528 420.878 678.982 419.007 679.163C407.509 680.326 395.156 683.231 383.731 684.902C366.075 687.481 348.146 689.115 330.544 692.275C328.001 692.729 322.08 693.328 322.207 696.307L322.279 891.622C322.625 894.709 325.912 895.399 328.328 896.634C329.128 897.052 329.672 898.105 330.508 898.36C332.452 898.941 336.648 897.869 337.919 898.759C338.9 899.449 338.21 902.373 339.5 903.681C340.263 904.461 341.934 904.589 343.06 905.333C345.331 906.804 347.674 910.273 348.636 912.779C353.741 926.163 352.923 936.006 363.913 946.975C364.948 948.01 367.11 948.555 367.528 949.227C368.055 950.08 368 954.838 367.873 956.11C367.564 958.997 365.13 959.324 362.66 960.014C349.091 963.737 335.34 966.28 321.753 970.547C320.754 970.856 319.591 971.056 319.01 972.036H314.45L314.578 972ZM476.062 116.19C476.607 125.67 475.663 135.64 476.062 145.156H486.816C489.395 145.156 490.83 141.197 492.665 139.944C495.553 137.983 499.168 138.8 502.438 138.655C503.727 138.6 504.944 137.947 506.343 137.947C509.358 137.947 513.5 139.236 516.661 139.436C517.369 140.707 519.022 141.415 519.73 142.214C519.967 142.468 522.564 148.062 522.655 148.389C523.091 149.842 523.799 156.343 523.563 157.832C523.363 159.122 521.547 163.625 520.875 164.915C519.967 166.658 517.969 169.346 515.97 169.782C514.463 170.109 510.666 170.454 508.941 170.563C504.872 170.817 496.062 171.162 492.756 169.164C491.266 168.256 490.449 166.295 488.741 166.004C487.361 165.768 477.407 166.422 476.662 166.931C474.991 168.038 476.662 174.086 476.734 176.065C477.08 184.964 476.153 193.536 475.681 202.107C475.645 202.852 476.734 206.375 475.081 206.375H459.133C459.423 208.082 457.716 210.879 458.751 212.277C460.84 212.568 462.911 214.529 464.691 214.801C471.467 215.837 480.458 214.275 487.452 216.127H499.186L503.055 216.799L537.259 216.745C537.877 213.367 538.077 210.134 537.932 206.666C536.914 180.315 537.986 153.002 537.895 126.614C537.859 117.498 537.986 108.363 537.913 99.2467C537.913 97.6304 534.934 96.341 534.716 95.2514C534.589 94.6521 535.915 93.5443 536.024 92.0915C536.097 91.2743 535.497 87.1337 535.171 86.6797C533.79 84.7002 527.451 85.4629 525.198 85.245C506.725 83.4471 488.378 81.4495 469.85 80.033C466.744 79.7969 466.671 79.6698 464.818 81.1589C462.966 82.6481 455.391 80.2509 453.556 80.2872C452.376 80.3235 449.524 82.6481 447.671 82.4301C446.436 82.2849 445.873 79.3065 444.329 78.8707C443.475 78.6346 440.805 78.3804 439.769 78.3259C435.228 78.108 434.265 77.545 430.051 76.8731C402.241 72.3874 370.979 69.9358 342.86 68.3377C340.626 68.2105 331.616 66.5943 330.454 68.2832C329.436 69.7723 330.944 71.6247 330.744 72.4964C330.617 73.0775 329 73.7858 328.31 74.603C327.057 76.1103 327.238 77.545 326.566 78.7254C325.84 80.0148 323.496 80.2327 323.024 82.9931C322.279 87.4606 323.878 113.248 322.842 114.429C322.606 114.701 321.862 114.447 321.716 114.556C320.227 115.518 322.77 115.882 322.842 115.954C324.223 117.571 322.461 152.584 322.988 158.486C323.097 159.648 323.533 162.899 324.695 163.298C325.531 163.589 329.454 163.553 330.454 163.353C348.201 160.048 367.092 162.1 385.093 159.394C387.109 159.085 393.358 158.268 394.63 157.197C395.611 156.361 394.975 154.418 396.246 153.601C396.591 154.69 397.827 163.516 399.825 162.064C401.296 159.122 399.861 156.706 399.807 153.964C399.516 142.232 400.115 130.464 399.807 118.733L403.113 114.538C398.753 116.245 396.392 113.375 401.278 111.723C406.164 110.07 421.931 107.128 426.872 108.036C438.897 110.288 452.176 110.179 464.655 110.633C466.544 110.706 474.337 109.961 474.754 110.252C476.68 111.596 475.299 113.466 475.408 114.81C475.463 115.464 476.026 115.954 476.044 116.154L476.062 116.19ZM472.811 115.228C467.906 114.066 463.22 113.648 458.152 113.92L454.283 113.23L440.914 113.267C440.387 115.409 442.221 114.156 442.821 114.592L442.875 119.114C444.692 118.678 442.076 114.538 444.819 115.21C447.834 119.314 442.821 129.575 450.032 127.577C449.524 129.211 450.668 131.191 450.632 132.48C450.614 133.515 449.76 134.205 449.578 135.15C449.469 135.731 449.978 136.512 449.742 137.347C449.124 139.617 446.345 139.29 446.127 140.289L447.435 144.502L450.686 143.849C450.723 145.138 450.159 146.173 451.994 145.81V143.213C453.974 142.559 452.793 145.211 454.265 144.521C455.318 144.03 454.664 141.942 456.444 143.086L456.88 141.924C458.715 141.833 457.716 144.375 459.805 143.885C460.259 142.142 460.059 139.345 460.441 137.819C460.64 137.002 462.875 137.456 462.439 134.478C458.37 132.771 456.354 132.934 457.207 127.595C458.497 127.196 460.441 128.485 461.422 128.249C461.585 128.213 462.711 127.286 462.094 126.959L461.113 124.998C467.071 122.51 461.494 122.129 460.749 121.13C459.423 119.35 461.948 115.609 463.474 115.264C465 114.919 465.563 117.861 466.054 117.861C467.634 117.825 472.175 116.953 472.847 115.228H472.811ZM465.654 132.807C468.833 133.316 469.014 124.526 465.654 126.633V132.807ZM470.359 137.856C471.14 138.637 473.174 138.964 473.428 137.656C473.483 137.347 472.557 131.463 471.83 131.518C470.577 131.609 468.96 136.439 470.359 137.856ZM506.071 150.968C506.325 151.185 508.341 151.113 508.868 150.931C510.158 150.495 512.61 144.176 509.94 142.868C506.888 141.379 505.435 143.958 505.326 146.772C505.308 147.39 505.925 150.804 506.089 150.949L506.071 150.968ZM398.571 202.47V175.448C398.571 174.957 397.463 173.087 397.845 171.943C396.682 171.852 395.465 171.198 394.339 171.198C390.761 171.198 385.674 172.288 381.969 172.524C363.968 173.704 345.894 174.467 327.91 175.775C326.348 175.884 324.768 176.665 323.06 176.465C322.116 178.807 323.024 180.932 323.06 183.239C323.151 191.266 322.915 199.311 323.042 207.337C323.351 209.644 326.548 210.08 328.564 210.279C336.848 211.079 345.621 210.806 353.959 210.933L357.21 211.587H365.675L369.544 212.259L397.609 212.204L402.114 212.913H415.501C415.283 211.387 416.082 207.446 414.883 206.666C412.486 205.067 401.968 207.937 398.553 207.029L398.935 205.031L407.672 202.797C407.672 201.617 399.353 203.469 398.553 202.47H398.571ZM255.306 195.315C251.727 194.988 248.694 194.135 245.297 196.042C243.517 197.041 240.247 201.562 242.336 203.07C242.7 203.324 250.238 202.253 251.001 201.744L255.306 195.297V195.315ZM455.554 201.817C448.615 201.29 440.514 201.817 433.411 201.817C433.303 201.817 431.522 202.452 431.795 203.106C436.463 203.197 441.168 202.725 445.764 203.796L461.095 203.76C461.658 201.581 458.461 202.616 456.899 202.416C456.299 202.343 455.79 201.817 455.554 201.799V201.817ZM506.67 307.601V318.661C506.67 319.46 503.982 320.223 503.11 320.313C491.284 321.548 477.08 319.006 465.309 320.277C463.62 320.459 462.639 321.33 461.095 321.603C461.367 322.456 462.057 323.056 462.275 324C462.421 324.708 463.147 328.504 462.984 328.685C462.711 329.03 461.367 328.631 461.076 330.374C460.55 333.443 462.475 334.442 462.475 336.258C462.475 338.256 460.005 339.327 461.44 342.451C461.694 342.996 462.729 343.377 462.82 344.049C462.947 344.993 461.985 347.427 461.803 348.716C461.694 349.515 462.348 350.405 462.239 351.15C462.112 352.003 460.586 353.238 460.713 354.51C460.786 355.363 462.457 356.743 462.257 358.323C462.13 359.304 461.076 360.266 460.822 361.283C459.896 365.006 462.402 366.514 462.384 368.184C462.366 370.636 457.825 376.066 463.056 377.01L461.113 379.571C470.94 381.532 482.202 379.19 492.066 380.207C495.335 380.552 499.586 386.363 501.366 389.141C503.037 391.738 504.599 394.971 504.636 398.131C504.672 402.108 504.072 407.157 504.127 411.097C504.127 411.969 504.799 413.059 504.799 414.021C508.341 414.021 511.956 414.257 515.516 414.112C516.933 414.058 518.132 413.476 519.385 413.422C524.926 413.168 530.611 414.112 535.915 412.042C536.024 409.59 536.061 407.084 535.988 404.632C535.843 399.511 536.351 397.168 536.66 392.301C538.059 371.017 537.387 344.703 537.314 323.292C537.314 319.442 537.895 312.414 537.151 309.072C536.079 304.187 530.357 306.602 527.214 306.693C520.911 306.875 514.59 306.512 508.287 306.657C507.724 306.657 506.797 307.165 506.67 307.637V307.601ZM369.272 413.404V395.498C369.272 392.301 377.591 393.1 380.043 393.191C394.303 393.754 408.744 395.007 422.985 395.824C424.474 395.915 427.998 396.224 428.87 395.189C431.105 392.519 428.652 383.403 427.09 380.334C422.622 379.535 418.117 378.645 413.539 378.899C414.793 377.228 413.049 376.556 412.867 375.303C412.268 371.253 420.133 373.687 420.079 370.763C420.024 367.621 414.266 368.548 413.848 367.839C413.703 367.585 414.211 364.135 412.885 362.972C413.212 361.338 419.025 362.482 419.425 360.938C420.079 358.432 418.026 357.978 415.792 358.033C413.957 358.069 415.392 360.121 413.539 360.684C414.702 357.452 413.176 354.873 413.612 351.64L417.372 350.841L418.08 347.645L412.867 348.281C416.809 345.284 412.558 343.995 412.94 342.179C413.194 340.926 415.192 340.653 415.392 340.381C415.501 340.217 414.902 339.418 415.029 338.964C415.247 338.111 415.937 337.421 416.01 336.785C416.246 335.096 413.83 333.988 413.539 332.318C413.176 330.265 413.176 325.889 413.103 323.492C413.067 322.62 413.467 321.821 413.539 320.967L370.979 319.551C368.036 318.588 372.36 307.946 367.619 307.274L325.422 307.383L323.351 309.217L322.988 415.692L323.66 421.848H342.896C348.927 421.14 355.049 420.977 361.098 420.541C364.676 420.268 368.273 420.051 371.851 419.887C371.361 418.271 368.291 416.673 370.216 415.292C371.524 414.366 376.792 416.146 377.718 414.039L369.254 413.386L369.272 413.404ZM40.4166 386.708C39.8535 383.076 39.6355 378.845 36.5112 376.302C36.8927 379.208 37.8009 382.622 38.9453 385.291C39.3631 386.254 38.5456 387.071 40.3985 386.726L40.4166 386.708ZM500.676 411.606C498.768 409.699 495.662 411.66 496.28 415.002C496.552 416.473 498.369 421.667 499.041 423.338C499.422 424.3 500.476 424.79 500.712 425.571C501.166 427.079 500.076 429.784 502.783 429.676C502.31 426.77 501.984 412.895 500.676 411.606ZM440.26 429.022V418.271C440.26 417.708 441.277 417.544 440.187 415.765C437.172 410.807 433.884 414.548 435.355 419.923C436.082 422.593 439.351 424.954 437.698 428.005L438.298 428.695L440.26 429.004V429.022ZM165.445 414.058C162.738 413.985 160.013 414.167 157.325 414.203C144.464 414.366 128.334 413.313 116.164 415.837C115.383 416.001 110.932 415.22 109.079 415.329C107.227 415.438 105.465 416.219 103.576 416.019V417.962C105.628 418.507 108.026 417.399 109.77 417.417C126.409 417.526 142.085 417.254 158.615 416.001C160.904 415.837 165.408 417.127 165.463 414.058H165.445ZM375.793 448.235V488.279L373.522 486.99C372.16 487.934 372.541 489.423 372.541 490.894C366.202 491.348 369.798 488.497 369.889 485.301C369.926 484.175 369.29 483.158 369.272 482.105C369.145 472.661 369.998 462.328 370.58 452.794C370.652 451.486 371.361 450.269 371.288 448.926C369.344 447.981 367.946 447.164 365.693 447.2C359.445 447.327 352.415 448.798 346.166 449.216C340.826 449.579 336.066 449.307 330.544 449.87C327.838 450.142 325.149 448.907 323.387 451.831L323.787 508.383C325.149 508.655 326.566 508.31 327.947 508.455C332.361 508.891 336.521 509.2 341.044 509.69C362.097 511.979 383.022 515.266 404.075 517.645C408.09 518.099 411.995 519.533 416.173 518.861L416.918 513.104C418.97 512.451 421.877 513.068 420.46 510.399C418.898 507.457 405.147 506.984 401.623 506.44C388.708 504.478 375.92 502.735 363.059 500.719C360.843 500.374 351.071 500.556 350.562 497.65C350.344 496.397 351.779 492.184 351.089 490.241C355.739 490.785 360.425 491.675 365.076 492.202C379.299 493.818 401.06 498.213 414.611 496.796C415.065 496.742 417.136 494.781 418.644 494.308C419.752 493.963 421.114 494.381 422.077 493.818C422.767 493.419 422.985 491.73 424.02 491.203C425.528 490.422 428.725 490.458 430.487 490.168L430.523 488.279C432.231 488.079 432.794 490.204 433.629 491.366C433.866 491.693 433.702 492.674 434.756 492.184C435.391 491.893 437.789 487.262 437.662 486.717C437.39 485.918 435.101 485.174 435.101 484.702V473.951L437.044 475.894L436.427 471.735L438.37 454.101L436.391 453.774V451.831L439.66 451.159C437.753 448.217 440.132 444.948 440.078 443.023C440.042 441.861 438.334 440.935 438.352 439.773C438.352 438.919 439.497 438.175 439.678 437.139C440.296 433.671 437.299 430.22 436.409 427.079C435.21 426.951 435.809 428.55 435.864 429.294C436.118 433.126 435.282 439.773 435.119 444.331C435.064 446.02 434.302 447.527 434.411 449.561C434.574 452.249 436.772 454.101 436.463 456.698C436.209 458.75 434.12 458.042 433.448 458.95C432.976 459.604 432.976 464.108 433.175 465.161C433.357 466.087 434.193 466.705 434.302 467.286C434.629 468.956 434.302 470.664 435.119 472.28C435.119 472.661 434.229 472.625 434.047 472.897C432.013 476.202 433.194 476.293 432.503 479.381C432.394 479.853 431.468 479.707 431.232 480.289C430.796 481.342 431.014 484.229 430.905 484.393C430.251 485.355 422.821 485.192 421.114 485.028C418.208 484.756 415.283 483.267 412.322 483.067C411.85 476.711 418.535 482.54 420.006 477.528C418.934 475.331 415.973 475.676 414.084 476.584C413.303 476.947 414.048 478.418 412.322 477.873C411.795 477.328 413.412 472.915 413.339 471.662C413.267 470.5 411.85 468.884 411.795 467.649C411.759 466.814 413.031 465.815 413.049 463.872C413.067 461.202 410.833 459.749 412.34 457.025C413.576 456.88 412.268 458.369 413.939 458.369C414.992 458.369 416.482 458.042 416.246 456.716C415.973 455.227 413.794 456.535 413.648 456.389C413.249 455.99 414.139 454.029 414.066 453.429C413.975 452.721 412.74 452.322 412.504 451.414C412.213 450.324 413.321 446.946 412.304 445.366L398.317 445.293C394.03 446.528 389.616 445.602 385.329 445.984C383.676 446.129 378.354 446.946 376.974 447.4C376.592 447.527 375.974 447.945 375.884 448.272L375.793 448.235ZM124.429 433.58H142.993C145.082 433.58 149.169 433.18 151.476 432.944C152.003 432.89 154.292 432.381 154.382 432.272C155.091 431.401 154.455 431.019 153.42 430.983C147.952 430.747 141.94 430.729 136.472 430.983C135.237 431.038 134.002 431.582 132.603 431.673C129.896 431.818 127.135 431.51 124.429 431.637V433.58ZM120.523 432.291L115.637 431.637C114.202 434.869 118.271 434.325 120.523 434.252V432.309V432.291ZM535.334 505.532V440.426C535.334 437.321 524.508 439.391 522.637 439.446C516.243 439.627 509.268 438.302 503.419 441.389C502.928 440.808 504.527 437.448 502.111 438.138C501.984 439.246 502.347 440.59 502.111 441.625C502.002 442.134 500.93 441.952 500.803 442.46C499.858 446.383 502.674 446.456 502.801 447.037C503.219 449.053 501.529 451.977 501.439 454.119C501.348 455.954 502.365 457.988 502.165 459.204C502.056 459.84 500.821 459.785 500.458 460.239C499.404 461.547 501.148 462.818 501.348 463.999C501.548 465.088 500.694 466.795 500.766 468.394C500.93 472.262 503.237 476.983 503.927 480.27C504.49 482.976 503.745 491.929 507.651 492.184C509.595 492.311 512.773 491.548 514.772 491.494C516.77 491.439 519.058 491.348 521.02 491.82C522.165 492.583 521.329 496.288 521.91 498.086C523.182 501.899 534.117 510.017 535.298 505.532H535.334ZM497.569 487.625V441.734C497.569 439.5 487.125 441.371 485.526 441.407C478.969 441.607 472.484 441.443 465.981 442.043C462.076 442.406 459.333 445.275 460.749 449.252C461.113 450.269 462.33 450.978 462.366 452.104C462.421 454.01 460.986 456.807 461.058 459.313C461.149 462.219 463.238 463.635 462.13 466.832C461.694 468.067 460.277 468.72 460.423 470.355C460.55 471.79 462.784 472.825 462.947 474.386C463.111 475.948 460.713 477.964 460.459 479.526C460.205 481.088 460.913 482.268 461.113 483.721L441.567 485.028C441.622 486.3 441.295 487.753 441.894 488.951C443.111 491.403 454.864 490.985 458.025 492.365C460.35 493.382 460.168 496.215 462.711 496.143C475.172 495.253 487.833 494.127 500.113 492.111C501.311 487.099 498.623 488.443 497.588 487.644L497.569 487.625ZM162.847 462.237C162.32 461.783 150.786 462.146 148.824 462.201C145.881 462.273 142.648 462.782 139.742 462.891C136.454 463.018 131.586 462.346 128.661 462.891C127.608 463.073 126.826 463.599 127.044 464.852C129.533 464.761 132.04 464.979 134.528 464.852C141.903 464.489 149.205 464.652 156.671 464.198C158.342 464.09 159.923 463.617 161.884 463.527C162.956 463.472 163.737 462.982 162.865 462.237H162.847ZM126.372 463.545C124.919 463.763 116.618 462.836 116.618 464.525C118.343 466.341 121.976 465.451 124.12 464.87C125.028 464.634 126.136 464.816 126.372 463.545ZM412.903 468.739C415.501 470.373 421.132 467.05 417.463 465.143C415.265 463.999 412.377 468.248 412.903 468.739ZM179.777 502.59C175.744 502.717 171.657 502.136 167.734 503.243C155.581 500.501 140.795 507.983 129.933 507.838C128.443 507.82 127.844 506.712 126.681 506.512C123.648 505.949 117.799 506.839 114.62 507.438C108.48 508.619 99.543 510.616 93.3851 510.853C92.1499 510.907 88.408 509.436 88.0083 511.434C87.9538 511.688 88.6986 514.666 88.9166 514.975C89.9338 516.573 94.2752 515.011 96.0735 514.921C104.175 514.576 112.821 514.466 120.85 513.649C124.265 513.304 127.571 511.742 131.186 512.378L133.22 508.455C134.764 509.6 134.111 511.579 134.22 513.232L131.586 514.303C132.439 518.389 139.106 515.774 142.321 515.574C143.611 515.502 143.811 516.446 143.302 516.882C143.066 517.082 140.105 516.718 139.088 516.9C129.569 518.625 119.869 520.75 109.788 520.823H95.7647C95.7647 521.404 96.346 521.785 96.8909 521.949C102.395 523.601 109.207 523.91 114.91 524.763C150.241 530.121 185.662 534.425 221.065 539.092C224.753 539.582 228.477 540.617 232.218 540.999C234.053 540.999 234.362 538.184 233.563 537.022C232.945 536.132 230.511 536.531 229.239 536.132C227.968 535.732 226.624 534.043 224.916 533.971C223.717 533.916 222.555 535.242 220.502 535.169C213.2 534.897 203.246 532.318 195.653 531.301C179.159 529.104 162.593 527.052 146.154 524.782C138.688 523.765 131.041 523.329 123.757 521.44L158.27 518.843C159.123 518.117 158.379 517.59 157.307 517.536C153.075 517.318 148.788 517.481 144.61 516.882C144.682 515.683 148.097 516.137 148.515 515.574C149.532 514.194 146.444 514.067 146.008 512.542C145.754 511.706 145.736 510.526 146.535 510.017L179.759 505.786V502.553L179.777 502.59ZM221.447 507.148C221.192 505.949 220.175 505.931 219.194 505.822C216.179 505.495 211.856 506.349 209.077 507.475C209.876 508.71 210.384 508.056 211.402 507.911C214.798 507.42 217.886 506.785 221.447 507.148ZM209.077 513.667C201.248 514.666 193.201 514.43 185.299 514.957C181.648 515.211 177.851 515.429 174.309 515.665C173.71 515.701 171.221 515.974 171.312 516.9C175.236 516.682 179.468 517.209 183.355 516.9C191.366 516.264 199.358 515.483 207.46 514.939C208.768 514.848 209.349 515.465 209.077 513.631V513.667ZM534.026 535.805C534.498 533.608 533.554 531.065 533.608 529.086C533.681 526.362 536.006 519.987 533.772 518.171C532.137 516.864 525.725 518.643 523.309 518.879C514.844 519.679 503.727 519.86 495.735 521.912C488.632 523.747 485.98 522.911 479.005 523.42C463.329 524.546 446.545 528.396 430.814 529.285C426.055 529.558 420.478 528.341 415.174 528.632C387.545 530.084 358.1 533.608 330.526 536.459C327.42 536.786 322.043 535.115 323.024 539.709C324.641 539.637 326.294 539.837 327.91 539.709C366.347 536.858 404.802 532.554 443.166 529.285C459.278 527.905 475.953 525.908 492.011 525.399C494.045 525.326 495.88 523.983 498.114 525.472L498.187 531.901L534.008 535.805H534.026ZM233.127 557.325C221.792 555.654 210.384 554.365 199.05 552.658C175.544 549.098 152.402 543.323 128.643 544.922C124.865 545.176 121.014 545.176 117.254 545.575C116.945 547.537 117.708 546.629 118.852 546.883C155.218 554.656 192.892 557.325 229.439 563.954C231.474 564.317 233.762 566.623 233.871 562.828C233.926 561.084 232.872 559.196 233.127 557.325ZM496.262 561.193C484.109 559.813 472.048 557.579 459.805 557.289L465.382 559.196C474.827 559.25 484.618 562.247 493.991 561.847C494.79 561.811 496.407 562.337 496.262 561.193ZM545.742 567.713C539.294 566.659 533.009 564.88 526.451 563.881C518.586 562.664 509.685 561.629 501.766 561.211C500.076 561.121 498.26 559.595 496.897 561.538L501.856 563.082C511.357 564.498 520.911 565.279 530.43 566.405C534.48 566.896 538.822 567.967 542.8 568.367C543.49 568.439 545.851 568.857 545.724 567.713H545.742ZM424.62 567.059L408.998 565.098C409.252 568.367 414.575 566.75 417.081 567.095C418.48 567.295 419.824 568.276 421.078 568.33C421.677 568.367 424.583 568.058 424.62 567.059ZM366.02 570.964C358.082 569.256 350.035 568.748 341.916 568.367C341.625 570.019 342.188 569.529 343.205 569.965C344.713 570.619 347.183 571.363 348.8 571.563C389.889 576.557 430.814 582.859 471.83 587.889C493.119 590.504 514.299 595.171 535.643 597.659C539.348 598.095 547.668 597.441 550.483 599.584C551.301 600.202 551.555 601.6 552.572 602.199L554.843 598.622C552.173 598.676 551.065 596.098 548.631 595.734C545.833 595.317 543.435 596.261 541.02 596.188C537.841 596.116 533.717 594.354 530.339 593.809C492.338 587.762 453.865 583.839 415.792 578.773C409.18 577.901 398.117 577.465 392.45 576.157C391.941 576.049 392.123 574.959 391.614 574.85C387 573.851 380.607 573.778 375.393 572.925C372.396 572.435 368.418 572.453 365.312 572.253L365.966 570.964H366.02ZM522.31 582.677C525.234 581.805 527.087 583.948 529.285 584.493C545.506 588.543 563.635 589.76 580.074 592.956C583.816 593.682 585.632 592.883 588.757 596.007C589.211 596.461 592.19 600.02 592.299 600.274C593.207 602.272 591.645 603.979 594.896 604.215C602.961 604.815 595.986 596.424 600.237 595.171C602.271 594.572 605.614 595.262 607.939 595.044C609.701 594.881 611.662 593.846 613.152 593.846C614.914 593.846 616.858 595.135 618.983 595.081C620.981 595.026 623.905 593.319 624.868 593.319C625.486 593.319 626.721 594.318 628.12 594.445C630.735 594.681 633.242 593.374 635.931 593.755C637.238 592.593 640.108 591.412 641.18 590.54C642.997 589.033 642.143 586.981 639.872 587.235C638.619 587.381 638.183 588.761 636.566 589.178C630.427 590.813 621.054 591.013 614.532 591.884C610.772 592.393 598.584 595.462 595.914 594.1C595.169 593.719 594.624 592.556 593.498 591.975C585.868 587.998 575.224 588.852 567.013 587.853C553.517 586.237 540.057 583.73 526.579 582.06L522.346 582.713L522.31 582.677ZM586.123 596.352C580.019 595.444 574.697 597.732 568.866 598.295C567.395 598.44 565.796 598.241 564.307 598.295C563.526 598.313 561.873 597.805 562.036 598.949C563.308 598.785 563.09 600.202 564.271 600.311C566.25 600.492 567.758 599.73 569.502 599.603C571.246 599.475 573.789 599.966 575.278 599.603C575.787 599.475 575.605 598.404 576.114 598.295C577.186 598.059 578.603 598.44 579.874 598.241C581.255 598.004 582.817 597.678 584.161 597.314C584.906 597.115 586.286 597.351 586.123 596.352ZM370.58 610.008C369.017 609.863 367.219 610.263 365.711 610.008C360.08 608.973 354.231 607.012 348.727 606.14C344.477 605.468 338.61 606.83 334.45 606.086C333.305 605.886 332.488 604.887 331.38 604.597C329.945 604.233 324.096 602.508 323.714 604.542C323.66 604.815 324.332 606.612 324.423 606.685C325.168 607.23 327.602 605.977 327.583 607.411L323.024 608.392C325.64 610.844 330.29 610.172 333.687 610.753C347.892 613.15 362.042 616.038 376.247 618.326C387.2 618.217 408.508 626.734 418.28 623.574C419.316 623.247 419.679 621.922 421.041 621.722C423.475 621.377 426.6 625.318 429.143 621.413L417.735 618.508C416.736 617.345 417.408 617.491 418.244 617.055C419.697 616.292 421.623 615.838 423.276 615.892C424.729 614.621 418.389 612.86 417.681 612.696C410.197 611.062 401.932 610.136 394.357 608.665C388.799 607.593 383.368 605.85 377.7 605.468L381.606 606.776C381.896 608.211 380.77 608.41 379.698 608.81L380.298 611.334C378.082 611.044 373.831 612.515 373.795 609.391L377.046 608.083H369.889L370.543 610.027L370.58 610.008ZM457.189 611.97C451.122 611.134 444.855 610.354 438.77 609.228C436.954 608.901 434.974 607.248 432.449 608.065C432.739 608.501 433.103 609.809 433.212 609.918C433.775 610.372 445.509 611.716 447.598 612.133C450.886 612.769 454.737 613.296 458.025 614.076C461.803 614.966 461.531 618.29 465.49 618.98C469.069 619.615 469.741 618.108 472.484 617.799C475.227 617.491 482.838 617.436 485.544 617.799C488.015 618.144 486.78 620.542 487.179 621.05C487.434 621.359 493.955 621.595 495.226 621.795C497.297 622.103 502.601 623.901 504.145 622.739C504.89 622.176 504.381 620.542 505.162 620.396C513.627 618.689 522.455 617.89 530.974 616.365C534.953 614.04 537.205 611.988 530.466 612.605C523.109 613.277 510.939 616.092 504.418 615.929C497.896 615.765 490.939 613.459 484.836 612.66C476.825 611.607 467.162 611.843 459.514 610.644C457.789 610.372 455.863 608.429 453.956 609.7L457.207 611.97H457.189ZM227.314 645.167C227.187 643.006 228.186 641.353 226.951 639.356C225.715 637.358 223.045 636.831 221.81 635.379C219.739 632.963 221.229 623.193 220.829 619.434C220.738 618.508 220.702 617.727 219.866 617.145L174.563 609.373C175.054 612.188 174.019 614.857 173.873 617.491C171.93 656.862 175.417 697.814 173.873 737.349C175.036 747.301 174.327 757.344 175.163 767.332C175.272 768.676 173.764 769.929 175.599 770.819L233.762 761.031C233.436 757.961 234.235 755.782 235.143 752.967L234.834 692.693C233.908 689.515 228.549 690.568 227.968 687.19C227.623 677.22 228.404 667.177 227.986 657.226C227.913 655.337 226.297 650.561 227.932 649.398C232.564 648.89 239.575 652.413 243.953 652.304C245.352 652.268 246.859 650.706 248.149 650.089C247.495 649.326 246.696 648.872 245.715 648.617C240.847 647.328 234.943 646.929 230.329 645.875C229.73 645.73 230.402 643.678 227.314 645.203V645.167ZM573.516 613.368C571.809 613.895 571.064 616.692 572.772 617.182C575.787 618.035 576.931 612.315 573.516 613.368ZM454.573 621.74C454.428 620.905 453.393 620.324 452.648 620.088C451.231 619.652 446.617 618.635 445.146 618.471C441.404 618.108 436.881 619.452 433.085 619.779C433.03 621.159 432.794 621.014 434.047 621.068C440.877 621.413 447.725 621.885 454.573 621.722V621.74ZM130.223 779.245L130.95 771.836L130.623 622.358L129.297 620.451C127.608 620.451 117.78 637.867 116.073 640.427L115.909 677.438L116.618 681.942L116.582 697.596C119.706 721.386 114.638 748.917 117.29 772.399C117.417 773.452 118.798 780.081 119.143 780.317C120.56 781.279 128.025 779.427 130.205 779.245H130.223ZM251.219 623.829C249.439 624.21 248.294 625.354 248.839 627.225C249.239 628.623 253.38 628.369 254.87 628.823L257.903 625.318C256.25 623.72 253.38 623.356 251.219 623.829ZM485.835 636.05C485.454 630.094 481.566 632.836 477.715 632.128C472.429 631.165 467.053 629.259 461.422 628.877C457.589 628.623 453.52 629.15 449.687 628.877C442.621 628.369 435.718 625.517 428.525 626.28C428.362 627.206 429.67 627.225 430.342 627.388C444.928 631.075 462.457 632.473 477.534 634.906C480.168 635.324 482.711 636.795 485.835 636.05ZM464.491 793.483C464.8 793.737 471.158 795.463 472.302 795.771C479.477 797.733 490.594 801.71 497.896 801.437C499.004 801.401 500.04 800.766 501.148 800.766C503.037 800.766 510.612 803.072 511.883 804.379C513.01 805.523 512.446 807.557 514.826 807.939C516.243 808.175 517.841 807.757 519.331 807.993C520.82 808.229 522.564 809.428 523.908 809.265C524.944 809.156 525.652 807.921 526.542 807.921C527.305 807.921 528.032 808.956 529.14 809.174C531.774 809.682 533.481 806.777 533.409 804.416C532.809 769.511 534.099 734.317 533.336 699.594C533.172 691.712 534.753 684.884 532.9 677.238C532.591 675.931 531.647 674.823 531.447 673.497C531.083 671.082 532.391 665.489 530.103 664.381C529.558 664.127 519.803 665.234 518.114 665.434C501.947 667.486 485.09 669.175 469.069 672.408C467.561 672.716 464.491 672.262 463.638 673.624C462.275 675.767 463.147 698.831 463.056 703.498L462.348 708.002C463.965 733.572 460.314 761.557 462.348 786.836C462.439 787.944 463.892 793.029 464.473 793.501L464.491 793.483ZM234.471 787.744C229.457 786.964 225.08 788.889 220.411 789.633C213.2 790.795 205.843 791.304 198.832 793.447L175.69 797.497C174.691 797.842 174.6 800.075 174.545 801.056C173.801 811.389 173.492 831.402 174.563 841.463C174.818 843.842 177.125 848.727 177.179 849.908C177.252 851.851 173.619 855.192 177.833 857.717C173.019 862.111 173.873 862.475 175.726 867.668C176.017 868.504 175.672 869.721 176.017 870.284C176.743 871.482 196.416 877.348 199.449 878.438C205.407 880.562 211.147 882.832 217.051 884.921C222.518 886.846 227.913 889.007 233.508 890.623C236.124 890.224 233 889.897 233.181 889.643C233.399 889.316 234.017 889.025 234.126 888.644C234.925 886.047 234.598 879.672 234.507 876.585C234.053 861.585 235.252 846.82 235.161 831.656C235.125 826.608 235.125 821.813 235.161 816.747C235.234 806.995 234.798 797.424 234.489 787.744H234.471ZM518.55 821.45C518.132 821.16 518.132 819.925 517.351 819.689C516.479 819.434 515.262 820.397 514.19 820.306C513.209 820.233 511.956 818.944 510.63 818.617C505.689 817.4 504.599 816.42 500.149 814.785C497.297 813.732 479.931 808.484 478.369 808.556C474.591 808.738 476.008 808.484 473.12 807.939C471.103 807.557 468.433 808.175 466.308 807.939L480.622 812.824C494.79 815.984 508.559 819.779 522.473 823.066C524.653 823.593 527.214 825.7 530.121 824.846C528.195 821.559 520.53 822.812 518.55 821.432V821.45Z" fill="#F42E0A" fill-opacity="0.7"/>
<path d="M205.825 478.509C206.715 479.235 205.916 479.744 204.844 479.798C202.882 479.889 201.302 480.361 199.631 480.47C193.073 480.87 185.263 481.233 178.905 481.342C177.797 481.36 176.489 482.086 175.217 481.76C174.927 479.798 175.672 480.688 176.852 480.488C184.118 479.29 192.292 478.073 199.649 477.819C201.611 477.746 203.7 478.963 205.807 478.509H205.825Z" fill="#F42E0A" fill-opacity="0.7"/>
<path d="M138.089 382.15C137.544 380.515 139.633 380.57 140.686 380.497C144.483 380.297 148.079 379.789 152.094 379.535C155.218 379.335 156.907 376.919 156.326 382.132H138.089V382.15Z" fill="#F42E0A" fill-opacity="0.7"/>
<path d="M152.421 374.994C151.567 374.268 152.312 373.741 153.383 373.687C159.814 373.36 166.299 373.778 172.747 373.505C173.728 373.469 174.218 372.47 175.199 374.014C172.947 377.156 169.387 375.049 166.444 374.958C161.776 374.813 157.071 375.14 152.421 374.994Z" fill="#F42E0A" fill-opacity="0.7"/>
<path d="M91.2053 379.553C91.9682 384.075 87.0638 383.948 83.7033 383.457C81.5962 383.148 82.0684 381.351 82.0866 379.553C83.6488 378.699 85.8649 380.642 86.319 380.642C86.7731 380.642 89.4978 378.608 91.2053 379.553Z" fill="#F42E0A" fill-opacity="0.7"/>
<path d="M129.624 363.917C131.15 365.297 126.645 365.932 126.045 365.932C124.574 365.932 123.212 365.297 122.14 365.333C119.27 365.406 115.819 366.405 112.694 365.878V363.935H129.624V363.917Z" fill="#F42E0A" fill-opacity="0.7"/>
<path d="M149.823 373.687C150.096 375.412 149.551 374.831 148.406 375.158C145.663 375.939 145.009 375.212 142.866 375.194C141.031 375.194 140.577 375.812 138.216 375.158C137.053 374.831 136.527 375.376 136.799 373.669H149.823V373.687Z" fill="#F42E0A" fill-opacity="0.7"/>
<path d="M155.018 494.781C151.767 495.743 148.697 496.433 145.245 496.088C145.173 493.328 148.152 494.381 149.986 494C151.948 493.582 154.709 491.294 155.018 494.781Z" fill="#F42E0A" fill-opacity="0.7"/>
<path d="M102.922 494.781C103.212 496.488 102.649 495.943 101.505 496.252C99.0888 496.924 94.584 497.432 92.5132 495.743C95.9463 495.053 99.3976 494.526 102.922 494.781Z" fill="#F42E0A" fill-opacity="0.7"/>
<path d="M66.4649 451.813C65.1388 451.995 64.2851 451.65 63.5585 450.487C63.1407 449.815 60.3252 443.023 60.5976 442.715C62.0327 442.424 62.0871 443.405 62.5776 444.313C63.9036 446.783 64.939 449.452 66.4649 451.813Z" fill="#F42E0A" fill-opacity="0.7"/>
<path d="M134.201 382.15C131.822 382.44 130.06 382.876 127.68 382.15V380.207C130.405 380.207 134.51 377.809 134.201 382.15Z" fill="#F42E0A" fill-opacity="0.7"/>
<path d="M173.91 481.106C174.8 481.85 174 482.341 172.929 482.395C169.95 482.522 167.134 483.303 164.137 483.049C163.846 481.342 164.409 481.887 165.554 481.578C166.789 481.233 173.401 480.688 173.891 481.106H173.91Z" fill="#F42E0A" fill-opacity="0.7"/>
<path d="M87.9537 374.994C88.0082 376.375 88.2443 376.229 86.991 376.302C84.7204 376.411 82.4135 376.229 80.1429 376.302C79.8341 374.341 80.6151 375.249 81.7414 374.994C84.1754 374.45 85.5015 374.577 87.9537 374.994Z" fill="#F42E0A" fill-opacity="0.7"/>
<path d="M455.881 132.807V138.346L454.592 138.673C454.301 136.621 451.885 135.64 451.976 133.479L455.881 132.825V132.807Z" fill="#F42E0A" fill-opacity="0.7"/>
</g>
<defs>
<clipPath id="clip0_135_1210">
<rect width="775" height="972" fill="white"/>
</clipPath>
</defs>
</svg>
