<svg width="406" height="511" viewBox="0 0 406 511" fill="none" xmlns="http://www.w3.org/2000/svg">
<path d="M241.202 510C245.694 507.537 250.766 505.882 255.6 504.094C287.726 492.245 320.204 480.681 352.082 468.232C354.319 467.357 358.353 466.996 358.582 464.153C358.839 460.919 358.144 461.756 356.07 461.176C353.995 460.596 351.825 451.818 350.331 449.859C349.875 449.26 349.161 449.051 348.666 448.461C348.171 447.872 347.724 446.302 347.315 446.055C346.696 445.665 344.146 446.55 343.28 446.825C341.415 447.415 339.445 448.528 337.561 448.956C337.18 449.041 336.705 448.889 337.295 448.642C338.227 448.594 337.742 447.054 337.218 446.949L330.595 448.119C332.184 446.825 335.563 446.768 337.18 445.58C337.618 445.256 337.761 444.581 337.742 444.068C337.399 437.772 336.895 430.544 337.409 424.239C337.466 423.526 337.466 423.155 338.284 423.051C339.103 422.946 342.671 423.64 343.48 423.983C343.899 424.163 343.975 424.306 344.089 424.734L344.222 443.021C344.203 443.811 344.66 444.439 345.45 444.524C348.59 444.41 352.292 446.074 355.327 445.903C357.278 445.798 361.341 444.667 361.912 442.584C361.57 440.577 362.959 429.841 362.236 428.928C360.932 427.283 361.941 425.913 362.008 423.926C362.245 417.116 361.808 410.25 361.979 403.441L362.35 401.083L362.322 389.462L362.693 387.103L362.664 363.547L363.035 361.189L362.664 351.954C363.663 343.091 362.531 333.543 363.359 324.699C363.644 321.627 365.148 322.112 366.585 320.077L373.265 309.027C376.929 308.009 380.84 307.752 384.589 307.049C386.835 306.621 389.033 306.012 391.26 305.536C392.059 305.365 395.656 305.099 395.789 304.538C396.122 302.95 395.409 300.886 395.456 299.507C395.504 298.128 396.075 296.321 395.789 294.752L394.59 294.239C385.093 295.988 375.501 297.149 365.966 298.67C360.495 299.545 354.985 300.924 349.513 301.666C348.895 301.751 347.876 301.847 347.324 301.533C347.686 301.114 347.515 300.848 348.133 300.62C349.161 300.249 351.207 299.935 352.368 299.754C359.02 298.708 364.891 298.547 371.447 296.654C371.885 296.531 372.827 296.645 372.903 296.578C373.493 296.122 372.827 295.969 372.399 295.893C369.868 295.456 367.974 293.449 365.881 293.164C365.138 293.059 364.348 293.697 363.682 293.012C362.921 292.223 363.806 290.53 362.807 289.427C362.588 289.179 362.046 289.16 361.969 288.846C361.808 288.171 362.093 287.106 361.969 286.345C368.516 286.84 375.092 286.602 381.591 287.743C382.286 287.743 382.819 287.449 383.038 286.773C385.103 275.78 386.997 264.748 388.89 253.755C394.314 222.334 400.224 190.837 404.991 159.388C405.229 157.819 406 155.308 406 153.891C406 151.827 403.811 152.417 403.402 152.065C402.593 151.361 402.327 148.699 400.69 148.28L400.243 148.851L394.438 165.569C396.056 168.727 393.439 170.305 393.829 173.272C393.877 173.605 393.905 174.271 394.381 174.185L395.409 172.483C395.884 173.948 394.857 174.594 394.543 175.536C394.229 176.477 394.476 177.59 393.534 178.275L393.705 174.87C393.249 174.375 390.222 177.228 392.373 178.436C393.068 178.826 393.525 178.208 393.363 179.454C393.258 180.243 392.621 180.757 392.364 181.536C391.926 182.82 391.593 184.37 391.155 185.787C390.356 188.374 389.575 190.999 388.938 193.624C388.167 193.975 387.929 192.492 387.929 192.064C387.939 191.151 390.07 190.542 389.109 188.84C388.5 187.765 388.062 190.105 387.939 190.324C387.701 190.704 387.035 190.704 386.73 191.237C385.864 192.768 385.912 194.717 385.455 196.106C384.894 197.808 384.96 196.562 384.827 198.873C384.789 199.567 384.579 201.27 384.437 201.907C384.237 202.839 382.657 203.942 382.8 204.693C382.943 205.444 383.371 204.969 383.656 204.864C384.075 204.722 384.798 204.56 384.865 204.056C385.303 203.409 385.208 204.379 385.122 204.627C384.932 205.169 384.37 206.643 384.009 206.947L381.496 207.308C381.363 208.212 380.002 209.182 380.564 209.99C381.03 210.665 382.829 210.447 382.762 211.455C382.762 211.502 382.476 212.32 382.438 212.349C382.362 212.415 380.659 212.187 380.573 212.044L380.078 210.665C379.688 212.273 379.098 213.87 378.537 215.439C376.938 219.9 375.197 224.521 374.198 229.172C374.102 229.619 373.598 230.208 373.598 230.275C373.617 230.826 374.578 230.684 374.883 230.37C375.615 229.609 376.253 225.929 376.929 224.75C377.195 224.284 378.366 222.781 378.375 224.141C377.262 228.116 376.282 232.148 374.94 236.047C374.597 237.055 372.646 242.571 372.237 242.895C371.98 243.094 371.857 243.094 371.543 243.056C372.399 241.886 372.694 240.213 370.857 241.173C370.486 241.363 370.277 242.001 369.972 242.352C369.04 243.446 369.535 242.885 369.002 244.083C368.792 244.559 368.26 245.015 368.183 245.348C368.06 245.9 368.555 246.499 368.421 247.241C368.279 248.058 367.241 248.639 367.175 249.057C367.08 249.599 367.67 250.113 367.213 251.159C366.946 251.777 366.366 251.53 365.9 251.891C365.814 251.958 364.586 253.527 364.539 253.631C364.31 254.116 364.786 254.725 364.672 255.41C364.539 256.199 363.644 256.95 363.444 257.616C363.207 258.405 363.397 259.737 362.845 260.45C362.512 260.887 359.971 260.678 359.267 260.783C359.657 262.209 359.971 261.705 361.132 261.8C361.665 261.838 362.493 261.467 362.331 262.304C361.465 263.065 359.153 262.97 358.049 262.837C357.25 262.742 356.936 262.257 356.355 262.143C355.251 261.933 353.795 262.257 352.606 262.143C349.332 261.81 346.011 261.201 342.738 260.745C342.5 260.716 340.873 260.374 341.52 259.756C341.796 259.489 343.518 260.374 343.223 259.071C341.757 259.004 340.254 258.358 338.789 258.9L340.597 259.404L341.168 260.431C339.635 260.402 338.094 260.488 336.562 260.431C335.191 260.383 332.042 259.176 332.299 261.448C334.525 261.715 336.733 261.667 338.95 261.791C340.13 261.857 341.501 261.715 342.338 261.791C343.109 261.867 343.965 262.666 344.803 262.713C345.716 262.77 346.991 262.209 348.114 262.475C348.381 262.542 348.276 263.056 348.571 263.141C351.359 263.94 355.07 263.331 358.049 263.845C358.924 263.997 359.933 265.015 361.294 264.52L360.637 266.755C360.247 267.031 357.078 266.964 356.346 266.898C338.027 265.262 319.785 263.179 301.752 260.431C297.813 259.832 293.178 259.432 289.144 259.052C287.269 258.871 285.575 259.48 283.853 258.367C284.328 256.123 286.412 257.483 287.802 257.663C296.718 258.776 306.444 258.862 315.408 259.394C316.873 259.48 318.738 259.936 320.242 259.965C321.498 259.984 323.078 259.499 324.448 259.737C323.144 257.92 320.213 259.137 318.519 258.681C318.339 258.633 317.815 258.253 318.139 258.034L318.995 257.017C317.968 256.541 316.749 257.873 316.131 257.682C315.684 257.549 315.589 256.703 315.246 256.494C314.827 256.237 309.365 255.866 308.594 255.999C308.195 256.066 307.795 256.218 307.738 256.674H310.126V257.701L305.007 257.359C305.559 253.993 301.6 255.134 299.373 254.972C294.71 254.639 289.943 254.145 285.328 253.384C284.909 253.317 284.357 253.821 284.014 253.279C283.672 252.737 283.71 251.035 284.395 250.902C286.232 251.197 296.347 252.557 297.166 251.549C297.736 250.845 295.957 250.598 295.595 250.56C293.283 250.312 290.219 250.502 288.135 250.17C286.822 249.96 285.908 248.924 284.205 249.846L283.881 247.478C284.928 247.031 285.775 247.459 286.746 247.478C300.896 247.63 315.303 249.409 329.387 249.865C334.659 250.036 340.206 249.818 345.44 250.189C345.973 250.227 346.439 250.493 346.963 250.541C347.534 249.647 346.915 248.734 347.02 248.049C347.125 247.364 348.038 246.908 348.029 245.938C348.029 245.158 347.353 244.682 347.353 244.578C347.353 244.216 348.856 243.655 349.199 242.723C349.941 240.669 350.541 238.615 351.245 236.589C352.872 231.92 354.1 226.861 355.651 222.581C355.879 221.954 356.431 221.421 356.526 220.717C356.621 220.014 356.469 220.289 356.022 220.204C355.641 220.128 351.778 219.728 352.777 218.844C354.756 218.673 357.859 219.757 357.554 216.799C356.374 216.485 355.013 217.151 354.005 217.113C350.522 216.999 346.934 216.543 343.394 216.799L341.367 216.438L331.861 216.676L326.703 216.096L322.316 216.333L317.14 215.763C315.522 215.696 310.459 216.086 309.46 215.592C309.165 215.449 308.699 214.945 308.775 214.574C309.013 213.442 312.049 214.355 312.734 214.374C314.941 214.45 315.636 214.146 317.882 214.688C318.158 214.755 318.786 214.117 319.5 214.032C322.849 213.623 328.844 214.336 332.479 214.393C338.979 214.488 347.8 214.041 353.986 214.717C354.785 214.802 355.403 215.344 355.955 215.325C356.85 215.297 359.4 214.679 358.924 213.366C353.9 212.701 348.79 213.166 343.727 213.043C332.47 212.777 320.47 212.501 309.289 211.664C308.28 211.588 307.262 211.73 306.253 211.635C304.16 211.436 303.969 210.494 306.206 210.294C308.946 210.047 311.649 209.886 314.409 209.962C324.524 210.266 334.725 209.981 344.774 210.361C349.275 210.532 354.633 211.179 359.115 210.665C359.79 210.589 360.837 210.123 360.295 209.286C359.714 208.393 354.223 209.363 352.948 209.296C340.387 208.697 326.836 207.746 314.418 207.917C313.114 207.936 311.801 207.898 310.497 207.917C310.079 206.224 313.238 206.034 314.351 206.281C316.616 206.785 315.313 206.414 317.13 206.196C319.842 205.872 323.03 206.662 325.647 206.538C326.351 206.5 327.189 205.986 328.026 206.234L329.253 203.828H327.55L327.893 205.188C326.732 205.083 318.71 205.501 318.339 205.188C317.282 204.284 320.803 204.693 320.727 203.989C320.994 203.352 319.338 203.229 319.1 203.219C316.683 203.2 314.894 203.286 312.372 203.134C310.117 203 307.862 202.877 305.616 202.734C305.111 202.487 304.598 202.078 304.702 201.441L322.783 201.098V199.387C321.945 199.586 321.013 199.12 320.28 199.158C317.948 199.263 315.512 199.558 313.143 199.33C312.439 199.263 311.639 198.569 311.03 198.521C309.622 198.426 307.652 199.387 306.415 197.855C306.415 197.561 307.738 197.342 307.947 197.342H313.581L313.019 196.372L304.112 195.716L303.684 194.955C307.833 194.898 312.001 195.022 316.15 194.974C318.957 194.945 321.831 194.46 324.667 194.613C337.542 195.326 351.083 194.422 363.882 195.659C364.196 195.687 364.453 195.877 364.739 195.973L365.433 193.928C363.444 193.947 361.456 193.89 359.467 193.928C345.421 194.166 331.1 193.548 317.168 193.243C314.846 193.196 312.315 193.424 310.041 193.215C309.717 193.186 308.432 193.053 308.471 192.568C313.305 192.53 318.148 192.606 322.982 192.577C323.725 192.577 324.372 192.207 325.009 192.207C328.026 192.207 331.357 192.834 334.563 192.568C334.868 192.539 336.666 192.302 336.095 191.541L310.383 190.809C309.384 190.495 310.326 189.268 310.174 188.317C310.079 187.718 309.413 187.423 309.489 186.767C313.581 185.949 317.777 186.529 321.955 186.444C333.992 186.177 346.249 186.539 358.458 186.415C360.047 186.681 366.832 187.204 367.831 186.577C368.831 185.949 370.972 178.084 371.562 176.363C372.723 172.978 374.293 169.706 374.987 166.168C374.493 165.389 373.674 166.083 372.77 166.016C362.274 165.255 351.264 165.683 340.72 165.664C325.38 165.636 310.031 165.617 294.691 165.693L283.91 194.289V152.018C284.985 152.046 288.068 151.989 288.715 151.2C289.553 150.173 288.734 148.527 288.687 147.424C288.601 145.579 288.839 143.82 288.335 141.985L288.354 123.05C285.813 122.518 283.234 122.889 280.674 122.708C280.008 122.66 277.781 122.442 277.325 122.299C276.83 122.147 275.317 121.044 275.726 120.312H283.063C283.948 120.312 283.244 118.562 283.225 118.096C283.139 115.595 283.225 113.074 283.215 110.611C283.148 97.5162 283.234 84.7063 283.548 71.6967C283.796 61.8825 283.386 51.9636 283.586 42.1019C283.596 41.5408 283.853 39.6483 283.976 39.0682C284.033 38.7924 284.224 38.3264 284.405 38.1362C285.508 37.0331 291.446 38.5451 293.235 38.1552C293.626 38.0696 293.997 35.987 294.815 35.578C296.604 34.6841 297.194 36.5005 298.498 33.1245C300.268 28.5122 300.953 23.9284 304.236 19.763C305.13 18.6218 307.176 17.8515 306.425 16.6723C307.557 16.2348 311.573 17.4521 312.068 16.6723C312.848 15.455 312.363 13.962 312.22 12.7447C312.077 11.5274 312.591 10.4813 311.192 9.6825C298.65 6.87707 285.861 5.38401 273.195 3.33937C272.529 3.23476 271.967 2.85437 271.387 2.75927C268.589 2.3123 264.193 1.33278 261.557 1.3518C259.711 1.37082 259.968 3.18721 260.034 4.55664C259.901 5.23185 258.749 3.94801 258.692 3.78634C258.264 2.74025 258.664 1.57053 257.322 1.12356C255.838 0.638552 254.21 1.51347 252.697 1.65611C226.214 4.0336 199.665 7.90414 173.21 10.177C169.432 10.5003 165.083 11.4228 161.23 11.8412C141.969 13.962 122.775 16.1397 103.582 18.327C88.7652 20.0103 73.7299 21.1229 58.9611 23.1676C58.1427 23.2817 54.717 23.9189 54.3078 24.3183C53.8034 24.8128 53.8034 29.2634 54.146 29.9577C54.6979 31.0703 56.8676 30.4522 58.0856 30.7945C64.6327 32.6585 64.9086 44.679 68.8197 48.3689C69.3526 48.8729 70.0758 48.6162 70.6848 48.8919C71.1701 49.1107 71.4461 49.8144 72.293 50.0046C73.454 50.2614 79.116 49.5386 79.2397 50.2709C79.2587 50.9366 79.135 51.6308 79.2207 52.287C79.4776 54.4267 79.5442 56.8993 79.5823 59.0866C80.1532 89.6705 79.9344 120.359 80.5719 150.829C82.104 199.51 80.8574 248.42 82.6369 297.073C82.694 298.661 82.9985 302.959 81.3618 303.644C79.0589 304.604 75.4523 304.452 72.9496 304.795C70.7324 305.089 68.5247 305.765 66.2599 305.784C66.1647 306.307 66.8023 306.107 67.0973 306.449C67.221 306.592 67.0592 306.963 67.1639 307.144C67.4494 307.638 68.1631 307.885 67.9252 308.608L64.3852 313.287C64.0998 312.203 63.2433 312.574 62.4915 312.07L62.8912 309.578L64.8991 309.54C65.2131 308.332 63.8333 307.961 62.8531 307.819V306.982L63.8714 306.811L63.3765 306.231C60.2553 307.134 55.8684 306.221 53.4704 308.523C53.3372 307.258 49.4832 306.773 49.0264 307.486C48.798 307.838 48.8837 308.456 48.7029 308.865C48.1795 310.054 46.8853 310.91 49.1216 311.509C50.6917 311.927 51.7289 310.548 52.9565 309.873C53.1563 311.024 52.3285 311.271 51.6909 311.832C51.5386 311.965 50.6822 312.089 51.2531 312.602C51.3673 312.707 53.5846 312.555 54.1555 312.602C61.7207 313.268 68.8672 314.133 76.3563 315.303C77.7742 315.522 79.1064 315.36 80.6671 315.769C82.3038 316.197 83.8644 316.73 81.2856 317.586C79.2206 317.452 77.051 317.253 74.9575 317.043C66.4026 316.188 58.1237 314.4 49.7211 313.629C48.5982 313.525 46.9614 313.858 46.0193 313.629C45.7529 313.563 45.8481 313.002 45.5816 312.945C43.1931 312.431 39.6722 312.583 37.1314 312.231C31.536 311.461 27.3965 309.645 21.744 308.855C19.7171 308.57 16.8718 307.809 14.9115 307.809C14.3786 307.809 14.0456 307.904 13.7316 308.342L14.4072 309.188C12.4945 308.161 10.4295 308.694 8.44067 308.513C7.11795 308.389 3.72073 307.6 2.70251 307.828C2.45511 307.885 2.50269 308.342 2.22672 308.494C1.82706 308.703 1.14191 308.646 0.761261 309.017C-0.019043 309.759 0.780273 314.409 0.0761108 315.836V329.102L0.294983 329.349L82.1516 342.264L82.2943 355.074L82.6559 357.099V361.198L83.008 363.224L82.9795 392.238L83.3506 394.597L83.3316 434.158C83.1888 435.195 82.0945 435.461 81.4569 436.032C81.0573 436.384 80.8098 437.268 80.4102 437.354C80.1723 437.401 78.4974 437.011 77.6981 437.04C74.9004 437.154 76.3754 437.953 75.5189 439.303C75.0051 440.102 72.7688 441.167 71.9029 442.166C69.0956 445.409 68.6103 450.629 66.8023 454.452C65.6889 456.811 64.4233 457.762 62.3583 459.217C61.3972 459.892 60.6454 459.512 60.4742 461.081C60.3029 462.65 60.6169 464.143 62.1014 464.942C67.3447 466.349 72.902 468.261 78.212 469.297C80.5529 469.754 81.7424 469.916 84.1024 469.364C89.7929 468.023 95.7309 465.76 101.412 464.162C133.995 455.004 166.72 445.808 199.322 436.555C200.883 436.117 205.841 435.68 206.145 433.835C206.212 433.445 206.212 431.41 206.126 431.305C205.802 430.934 202.367 430.868 201.225 429.555C198.97 426.959 197.666 422.204 195.668 419.342C194.973 418.657 193.736 418.743 193.051 418.296C192.585 417.991 192.461 417.316 192.166 417.126C190.491 416.08 184.639 418.648 184.315 418.324L183.887 357.385C184.306 356.319 185.514 356.557 186.494 356.652C192.518 357.261 198.989 358.783 204.975 359.657C214.224 361.008 223.616 361.864 232.837 363.518C234.17 363.756 237.272 364.07 237.205 365.63L237.167 467.909C236.986 469.526 235.264 469.887 233.998 470.534C233.58 470.752 233.294 471.304 232.856 471.437C231.838 471.741 229.64 471.18 228.974 471.646C228.46 472.008 228.822 473.539 228.146 474.224C227.746 474.633 226.871 474.699 226.281 475.089C225.091 475.859 223.864 477.676 223.359 478.988C220.685 485.997 221.114 491.151 215.357 496.895C214.814 497.437 213.682 497.723 213.463 498.074C213.187 498.521 213.215 501.013 213.282 501.679C213.444 503.191 214.719 503.362 216.013 503.723C223.122 505.673 230.325 507.004 237.443 509.239C237.967 509.401 238.576 509.505 238.88 510.019H241.269L241.202 510ZM156.605 61.8445C156.319 66.8086 156.814 72.0296 156.605 77.0128H150.971C149.62 77.0128 148.868 74.9396 147.907 74.2834C146.394 73.2564 144.5 73.6843 142.788 73.6082C142.112 73.5797 141.474 73.2374 140.742 73.2374C139.162 73.2374 136.992 73.9126 135.336 74.0172C134.965 74.6829 134.099 75.0538 133.728 75.4722C133.605 75.6053 132.244 78.5344 132.196 78.7056C131.968 79.4664 131.597 82.8709 131.72 83.6507C131.825 84.3259 132.777 86.6844 133.129 87.3596C133.605 88.2726 134.651 89.68 135.698 89.9083C136.488 90.0794 138.477 90.2601 139.381 90.3172C141.512 90.4503 146.128 90.631 147.86 89.5849C148.64 89.1094 149.068 88.0824 149.963 87.9302C150.686 87.8066 155.901 88.1489 156.291 88.4152C157.166 88.9953 156.291 92.1621 156.253 93.1987C156.072 97.8586 156.557 102.347 156.805 106.836C156.824 107.226 156.253 109.071 157.119 109.071H165.474C165.321 109.965 166.216 111.429 165.673 112.162C164.579 112.314 163.494 113.341 162.562 113.483C159.012 114.025 154.302 113.208 150.638 114.178H144.491L142.464 114.529L124.545 114.501C124.222 112.732 124.117 111.039 124.193 109.223C124.726 95.424 124.165 81.1211 124.212 67.3032C124.231 62.5292 124.165 57.7457 124.203 52.9717C124.203 52.1253 125.763 51.4501 125.878 50.8795C125.944 50.5657 125.25 49.9856 125.192 49.2248C125.154 48.7968 125.468 46.6286 125.64 46.3908C126.363 45.3542 129.684 45.7537 130.864 45.6395C140.542 44.6981 150.153 43.652 159.859 42.9102C161.486 42.7866 161.525 42.72 162.495 43.4998C163.466 44.2796 167.434 43.0243 168.395 43.0433C169.014 43.0624 170.508 44.2796 171.478 44.1655C172.125 44.0894 172.42 42.5298 173.229 42.3016C173.676 42.1779 175.075 42.0448 175.618 42.0163C177.997 41.9021 178.501 41.6073 180.709 41.2555C195.278 38.9065 211.655 37.6227 226.386 36.7858C227.556 36.7192 232.276 35.8728 232.885 36.7573C233.418 37.5371 232.628 38.5071 232.733 38.9636C232.799 39.2679 233.646 39.6388 234.008 40.0667C234.664 40.8561 234.569 41.6073 234.921 42.2255C235.302 42.9007 236.53 43.0148 236.777 44.4603C237.167 46.7998 236.33 60.3039 236.872 60.922C236.996 61.0647 237.386 60.9315 237.462 60.9886C238.242 61.4926 236.91 61.6828 236.872 61.7208C236.149 62.5672 237.072 80.9024 236.796 83.9931C236.739 84.6017 236.511 86.304 235.902 86.5132C235.464 86.6654 233.408 86.6464 232.885 86.5417C223.588 84.8109 213.691 85.8856 204.261 84.4686C203.205 84.3069 199.931 83.879 199.265 83.3179C198.751 82.8804 199.084 81.8629 198.418 81.4349C198.237 82.0055 197.59 86.6273 196.543 85.8665C195.773 84.3259 196.524 83.0611 196.553 81.6251C196.705 75.4817 196.391 69.3193 196.553 63.1758L194.821 60.9791C197.105 61.873 198.342 60.3704 195.782 59.505C193.222 58.6396 184.962 57.099 182.374 57.5745C176.074 58.7537 169.118 58.6967 162.581 58.9344C161.591 58.9725 157.509 58.5826 157.29 58.7347C156.281 59.4385 157.004 60.418 156.947 61.1217C156.919 61.4641 156.624 61.7208 156.614 61.8254L156.605 61.8445ZM158.308 61.3404C160.877 60.7318 163.333 60.5131 165.988 60.6557L168.014 60.2943L175.018 60.3134C175.294 61.4355 174.333 60.7794 174.019 61.0076L173.99 63.3756C173.039 63.1473 174.409 60.9791 172.972 61.3309C171.393 63.4802 174.019 68.8533 170.241 67.8072C170.508 68.6631 169.908 69.6997 169.927 70.3749C169.937 70.9169 170.384 71.2783 170.479 71.7728C170.536 72.0771 170.27 72.4861 170.393 72.9235C170.717 74.1123 172.173 73.9411 172.287 74.4641L171.602 76.6704L169.899 76.3281C169.88 77.0033 170.175 77.5454 169.213 77.3552V75.9952C168.176 75.6529 168.795 77.0413 168.024 76.68C167.472 76.4232 167.815 75.3295 166.882 75.9287L166.654 75.32C165.693 75.2725 166.216 76.6039 165.122 76.3471C164.884 75.4342 164.988 73.9696 164.789 73.1708C164.684 72.7428 163.513 72.9806 163.742 71.421C165.873 70.527 166.93 70.6126 166.482 67.8167C165.807 67.6075 164.788 68.2827 164.275 68.1591C164.189 68.14 163.599 67.655 163.923 67.4839L164.436 66.4568C161.315 65.1539 164.237 64.9542 164.627 64.4312C165.321 63.4992 163.999 61.5401 163.199 61.3595C162.4 61.1788 162.105 62.7194 161.848 62.7194C161.02 62.7004 158.641 62.2439 158.289 61.3404H158.308ZM162.057 70.546C160.392 70.8123 160.297 66.2095 162.057 67.3127V70.546ZM159.593 73.1898C159.184 73.5987 158.118 73.7699 157.985 73.0852C157.956 72.9235 158.441 69.8423 158.822 69.8708C159.479 69.9184 160.326 72.448 159.593 73.1898ZM140.884 80.056C140.751 80.1701 139.695 80.1321 139.419 80.037C138.743 79.8087 137.459 76.4993 138.857 75.8146C140.456 75.0347 141.217 76.3851 141.274 77.8592C141.284 78.1825 140.96 79.9704 140.875 80.0465L140.884 80.056ZM197.2 107.026V92.8754C197.2 92.6186 197.78 91.6391 197.581 91.0399C198.19 90.9924 198.827 90.65 199.417 90.65C201.292 90.65 203.956 91.2206 205.898 91.3443C215.328 91.9624 224.796 92.3618 234.217 93.0465C235.036 93.1036 235.863 93.5125 236.758 93.4079C237.253 94.6347 236.777 95.7474 236.758 96.9551C236.71 101.159 236.834 105.371 236.768 109.575C236.606 110.783 234.931 111.011 233.875 111.115C229.535 111.534 224.939 111.391 220.571 111.458L218.868 111.8H214.433L212.407 112.152L197.704 112.123L195.344 112.494H188.331C188.445 111.696 188.027 109.632 188.655 109.223C189.911 108.386 195.421 109.889 197.21 109.413L197.01 108.367L192.432 107.197C192.432 106.579 196.791 107.549 197.21 107.026H197.2ZM272.253 103.279C274.127 103.108 275.716 102.661 277.496 103.66C278.429 104.183 280.141 106.551 279.047 107.34C278.857 107.473 274.908 106.912 274.508 106.646L272.253 103.27V103.279ZM167.348 106.684C170.983 106.408 175.228 106.684 178.948 106.684C179.005 106.684 179.938 107.017 179.795 107.359C177.35 107.407 174.885 107.159 172.477 107.72L164.446 107.701C164.151 106.56 165.826 107.102 166.644 106.998C166.958 106.96 167.225 106.684 167.348 106.674V106.684ZM140.57 162.079V167.871C140.57 168.289 141.979 168.689 142.435 168.736C148.63 169.383 156.072 168.051 162.238 168.717C163.123 168.812 163.637 169.269 164.446 169.411C164.303 169.858 163.942 170.172 163.827 170.667C163.751 171.037 163.371 173.025 163.456 173.12C163.599 173.301 164.303 173.092 164.455 174.005C164.731 175.612 163.723 176.135 163.723 177.086C163.723 178.132 165.017 178.693 164.265 180.329C164.132 180.614 163.589 180.814 163.542 181.166C163.475 181.66 163.98 182.934 164.075 183.61C164.132 184.028 163.789 184.494 163.846 184.884C163.913 185.331 164.712 185.978 164.646 186.643C164.608 187.09 163.732 187.813 163.837 188.64C163.904 189.154 164.455 189.658 164.589 190.19C165.074 192.14 163.761 192.929 163.77 193.804C163.78 195.088 166.159 197.932 163.418 198.426L164.436 199.767C159.288 200.794 153.388 199.567 148.221 200.1C146.508 200.281 144.282 203.324 143.349 204.779C142.473 206.139 141.655 207.831 141.636 209.486C141.617 211.569 141.931 214.213 141.903 216.276C141.903 216.733 141.55 217.303 141.55 217.807C139.695 217.807 137.801 217.931 135.936 217.855C135.194 217.826 134.566 217.522 133.909 217.493C131.007 217.36 128.028 217.855 125.25 216.771C125.192 215.487 125.173 214.175 125.211 212.891C125.288 210.209 125.021 208.982 124.859 206.433C124.127 195.288 124.479 181.508 124.517 170.296C124.517 168.28 124.212 164.599 124.602 162.849C125.164 160.291 128.161 161.556 129.808 161.604C133.11 161.699 136.421 161.509 139.723 161.585C140.018 161.585 140.504 161.851 140.57 162.098V162.079ZM212.549 217.484V208.107C212.549 206.433 208.191 206.852 206.906 206.899C199.436 207.194 191.871 207.85 184.41 208.278C183.63 208.326 181.784 208.488 181.327 207.946C180.157 206.548 181.441 201.774 182.26 200.166C184.601 199.748 186.961 199.282 189.359 199.415C188.702 198.54 189.616 198.188 189.711 197.532C190.025 195.411 185.905 196.686 185.933 195.155C185.962 193.509 188.978 193.994 189.197 193.624C189.273 193.49 189.007 191.684 189.701 191.075C189.53 190.219 186.485 190.818 186.276 190.01C185.933 188.697 187.008 188.46 188.179 188.488C189.14 188.507 188.388 189.582 189.359 189.877C188.75 188.184 189.549 186.833 189.321 185.141L187.351 184.722L186.98 183.049L189.711 183.381C187.646 181.812 189.873 181.137 189.673 180.186C189.54 179.53 188.493 179.387 188.388 179.245C188.331 179.159 188.645 178.741 188.579 178.503C188.464 178.056 188.103 177.694 188.065 177.362C187.941 176.477 189.207 175.897 189.359 175.022C189.549 173.948 189.549 171.656 189.587 170.4C189.606 169.944 189.397 169.525 189.359 169.078L211.655 168.337C213.196 167.833 210.932 162.26 213.415 161.908L235.521 161.965L236.606 162.926L236.796 218.682L236.444 221.906H226.367C223.207 221.535 220 221.45 216.831 221.221C214.957 221.079 213.073 220.965 211.198 220.879C211.455 220.033 213.063 219.196 212.054 218.473C211.369 217.988 208.61 218.92 208.124 217.817L212.559 217.474L212.549 217.484ZM384.827 203.504C385.122 201.602 385.236 199.387 386.873 198.055C386.673 199.577 386.197 201.365 385.598 202.763C385.379 203.267 385.807 203.695 384.836 203.514L384.827 203.504ZM143.711 216.543C144.71 215.544 146.337 216.571 146.013 218.321C145.871 219.091 144.919 221.811 144.567 222.686C144.367 223.19 143.815 223.447 143.692 223.856C143.454 224.645 144.025 226.062 142.607 226.005C142.854 224.483 143.025 217.218 143.711 216.543ZM175.361 225.663V220.033C175.361 219.738 174.828 219.652 175.399 218.72C176.979 216.124 178.701 218.083 177.93 220.898C177.549 222.296 175.837 223.532 176.703 225.13L176.389 225.491L175.361 225.653V225.663ZM319.328 217.826C320.746 217.788 322.174 217.883 323.582 217.902C330.319 217.988 338.769 217.436 345.145 218.758C345.554 218.844 347.886 218.435 348.856 218.492C349.827 218.549 350.75 218.958 351.74 218.853V219.871C350.664 220.156 349.408 219.576 348.495 219.586C339.778 219.643 331.566 219.5 322.906 218.844C321.707 218.758 319.347 219.434 319.319 217.826H319.328ZM209.133 235.724V256.693L210.323 256.018C211.036 256.513 210.836 257.293 210.836 258.063C214.158 258.301 212.273 256.808 212.226 255.134C212.207 254.544 212.54 254.012 212.549 253.46C212.616 248.515 212.169 243.104 211.864 238.111C211.826 237.426 211.455 236.789 211.493 236.085C212.511 235.591 213.244 235.163 214.424 235.182C217.697 235.249 221.38 236.019 224.654 236.238C227.451 236.428 229.945 236.285 232.837 236.58C234.255 236.723 235.664 236.076 236.587 237.607L236.377 267.221C235.664 267.364 234.921 267.183 234.198 267.259C231.886 267.487 229.707 267.649 227.337 267.906C216.308 269.104 205.346 270.825 194.317 272.071C192.214 272.309 190.168 273.06 187.979 272.708L187.589 269.694C186.514 269.351 184.991 269.674 185.733 268.277C186.552 266.736 193.755 266.489 195.601 266.203C202.367 265.176 209.066 264.263 215.804 263.208C216.965 263.027 222.084 263.122 222.351 261.601C222.465 260.944 221.713 258.738 222.075 257.721C219.639 258.006 217.184 258.472 214.747 258.748C207.296 259.594 195.896 261.895 188.797 261.154C188.559 261.125 187.475 260.098 186.685 259.851C186.104 259.67 185.391 259.889 184.886 259.594C184.525 259.385 184.41 258.5 183.868 258.225C183.078 257.816 181.403 257.835 180.48 257.682L180.461 256.693C179.567 256.589 179.272 257.702 178.834 258.31C178.71 258.481 178.796 258.995 178.244 258.738C177.911 258.586 176.655 256.161 176.722 255.876C176.864 255.457 178.063 255.067 178.063 254.82V249.19L177.045 250.208L177.369 248.03L176.35 238.796L177.388 238.625V237.607L175.675 237.255C176.674 235.715 175.427 234.003 175.456 232.995C175.475 232.386 176.369 231.901 176.36 231.292C176.36 230.845 175.76 230.456 175.665 229.913C175.342 228.097 176.912 226.29 177.378 224.645C178.006 224.578 177.692 225.415 177.664 225.805C177.53 227.812 177.968 231.292 178.054 233.679C178.082 234.564 178.482 235.353 178.425 236.418C178.339 237.826 177.188 238.796 177.35 240.156C177.483 241.23 178.577 240.859 178.929 241.335C179.177 241.677 179.177 244.036 179.072 244.587C178.977 245.072 178.539 245.396 178.482 245.7C178.311 246.575 178.482 247.469 178.054 248.315C178.054 248.515 178.52 248.496 178.615 248.639C179.681 250.369 179.062 250.417 179.424 252.034C179.481 252.281 179.967 252.205 180.09 252.509C180.319 253.061 180.204 254.573 180.262 254.658C180.604 255.162 184.496 255.077 185.391 254.991C186.913 254.848 188.445 254.069 189.996 253.964C190.244 250.636 186.742 253.688 185.971 251.064C186.533 249.913 188.084 250.094 189.073 250.569C189.483 250.759 189.092 251.53 189.996 251.244C190.272 250.959 189.425 248.648 189.463 247.992C189.502 247.383 190.244 246.537 190.272 245.89C190.291 245.453 189.625 244.93 189.616 243.912C189.606 242.514 190.777 241.753 189.987 240.327C189.34 240.251 190.025 241.031 189.149 241.031C188.598 241.031 187.817 240.859 187.941 240.165C188.084 239.385 189.226 240.07 189.302 239.994C189.511 239.785 189.045 238.758 189.083 238.444C189.13 238.073 189.778 237.864 189.901 237.388C190.053 236.818 189.473 235.049 190.006 234.221L197.333 234.183C199.579 234.83 201.891 234.345 204.137 234.545C205.003 234.621 207.791 235.049 208.515 235.287C208.714 235.353 209.038 235.572 209.085 235.743L209.133 235.724ZM340.815 228.05H331.09C329.996 228.05 327.855 227.84 326.646 227.717C326.37 227.688 325.171 227.422 325.124 227.365C324.752 226.908 325.085 226.709 325.628 226.69C328.492 226.566 331.642 226.556 334.506 226.69C335.153 226.718 335.8 227.003 336.533 227.051C337.951 227.127 339.398 226.965 340.815 227.032V228.05ZM342.861 227.374L345.421 227.032C346.173 228.725 344.041 228.439 342.861 228.401V227.384V227.374ZM125.554 265.728V231.635C125.554 230.009 131.226 231.093 132.206 231.121C135.555 231.216 139.21 230.522 142.274 232.139C142.531 231.834 141.693 230.075 142.959 230.437C143.025 231.017 142.835 231.72 142.959 232.262C143.016 232.529 143.577 232.434 143.644 232.7C144.139 234.754 142.664 234.792 142.597 235.096C142.378 236.152 143.263 237.683 143.311 238.805C143.358 239.766 142.826 240.831 142.93 241.468C142.987 241.801 143.634 241.772 143.825 242.01C144.377 242.695 143.463 243.361 143.358 243.979C143.254 244.549 143.701 245.443 143.663 246.28C143.577 248.306 142.369 250.778 142.007 252.5C141.712 253.917 142.102 258.605 140.056 258.738C139.038 258.805 137.373 258.405 136.326 258.377C135.279 258.348 134.08 258.301 133.053 258.548C132.453 258.947 132.891 260.887 132.586 261.829C131.92 263.826 126.192 268.077 125.573 265.728H125.554ZM145.338 256.351V232.319C145.338 231.15 150.809 232.129 151.647 232.148C155.082 232.253 158.479 232.167 161.886 232.481C163.932 232.671 165.369 234.174 164.627 236.257C164.436 236.789 163.799 237.16 163.78 237.75C163.751 238.748 164.503 240.213 164.465 241.525C164.417 243.047 163.323 243.788 163.904 245.462C164.132 246.109 164.874 246.451 164.798 247.307C164.731 248.058 163.561 248.6 163.475 249.418C163.39 250.236 164.646 251.292 164.779 252.11C164.912 252.927 164.541 253.546 164.436 254.306L174.676 254.991C174.647 255.657 174.818 256.418 174.504 257.045C173.867 258.329 167.71 258.11 166.054 258.833C164.836 259.366 164.931 260.849 163.599 260.811C157.071 260.345 150.438 259.756 144.006 258.7C143.378 256.075 144.786 256.779 145.328 256.361L145.338 256.351ZM320.689 243.056C320.965 242.818 327.008 243.009 328.035 243.037C329.577 243.075 331.271 243.341 332.793 243.399C334.516 243.465 337.066 243.113 338.598 243.399C339.15 243.494 339.559 243.769 339.445 244.426C338.141 244.378 336.828 244.492 335.525 244.426C331.661 244.235 327.836 244.321 323.925 244.083C323.049 244.026 322.221 243.779 321.193 243.731C320.632 243.703 320.223 243.446 320.68 243.056H320.689ZM339.797 243.741C340.558 243.855 344.907 243.37 344.907 244.254C344.003 245.205 342.1 244.739 340.977 244.435C340.501 244.311 339.921 244.407 339.797 243.741ZM189.692 246.461C188.331 247.317 185.381 245.576 187.303 244.578C188.455 243.979 189.968 246.204 189.692 246.461ZM311.82 264.187C313.933 264.254 316.074 263.949 318.129 264.53C324.495 263.094 332.242 267.012 337.932 266.936C338.712 266.926 339.026 266.346 339.635 266.241C341.225 265.947 344.289 266.413 345.954 266.726C349.17 267.345 353.852 268.391 357.078 268.514C357.725 268.543 359.686 267.772 359.895 268.819C359.924 268.952 359.533 270.511 359.419 270.673C358.886 271.51 356.612 270.692 355.67 270.645C351.426 270.464 346.896 270.407 342.69 269.979C340.901 269.798 339.169 268.98 337.275 269.313L336.21 267.259C335.401 267.858 335.743 268.895 335.686 269.76L337.066 270.321C336.619 272.461 333.126 271.091 331.442 270.987C330.767 270.949 330.662 271.443 330.928 271.672C331.052 271.776 332.603 271.586 333.136 271.681C338.122 272.585 343.204 273.697 348.485 273.735H355.832C355.832 274.04 355.527 274.239 355.242 274.325C352.358 275.19 348.79 275.352 345.802 275.799C327.293 278.604 308.737 280.858 290.19 283.302C288.259 283.559 286.308 284.101 284.347 284.301C283.386 284.301 283.225 282.827 283.643 282.218C283.967 281.752 285.242 281.961 285.908 281.752C286.574 281.543 287.278 280.658 288.173 280.62C288.801 280.592 289.41 281.286 290.485 281.248C294.311 281.105 299.526 279.755 303.503 279.222C312.144 278.072 320.822 276.997 329.434 275.808C333.345 275.276 337.352 275.048 341.168 274.059L323.087 272.699C322.64 272.318 323.03 272.042 323.591 272.014C325.809 271.9 328.054 271.985 330.243 271.672C330.205 271.044 328.416 271.282 328.197 270.987C327.664 270.264 329.282 270.198 329.51 269.399C329.644 268.961 329.653 268.343 329.234 268.077L311.83 265.861V264.168L311.82 264.187ZM289.99 266.574C290.124 265.947 290.657 265.937 291.17 265.88C292.75 265.709 295.015 266.156 296.471 266.745C296.052 267.392 295.786 267.05 295.253 266.974C293.473 266.717 291.856 266.384 289.99 266.574ZM296.471 269.988C300.572 270.511 304.788 270.388 308.927 270.664C310.84 270.797 312.829 270.911 314.684 271.034C314.999 271.053 316.302 271.196 316.255 271.681C314.199 271.567 311.982 271.843 309.946 271.681C305.749 271.348 301.562 270.939 297.318 270.654C296.633 270.606 296.328 270.93 296.471 269.969V269.988ZM126.239 281.581C125.992 280.43 126.487 279.099 126.458 278.062C126.42 276.636 125.202 273.298 126.372 272.347C127.229 271.662 130.588 272.594 131.854 272.718C136.288 273.136 142.112 273.231 146.299 274.306C150.02 275.266 151.409 274.829 155.063 275.095C163.275 275.685 172.068 277.701 180.309 278.167C182.802 278.31 185.724 277.672 188.502 277.824C202.976 278.585 218.402 280.43 232.847 281.923C234.474 282.094 237.291 281.22 236.777 283.626C235.93 283.588 235.064 283.692 234.217 283.626C214.081 282.133 193.936 279.879 173.838 278.167C165.398 277.444 156.662 276.398 148.25 276.132C147.184 276.094 146.223 275.39 145.052 276.17L145.014 279.536L126.249 281.581H126.239ZM283.872 292.85C289.81 291.975 295.786 291.3 301.724 290.406C314.037 288.542 326.161 285.518 338.608 286.355C340.587 286.488 342.604 286.488 344.574 286.697C344.736 287.724 344.336 287.249 343.737 287.382C324.686 291.452 304.95 292.85 285.803 296.321C284.738 296.512 283.539 297.719 283.482 295.732C283.453 294.819 284.005 293.83 283.872 292.85ZM146.023 294.876C152.389 294.153 158.708 292.983 165.122 292.831L162.2 293.83C157.252 293.858 152.123 295.427 147.212 295.218C146.794 295.199 145.947 295.475 146.023 294.876ZM120.101 298.29C123.48 297.738 126.772 296.806 130.207 296.283C134.328 295.646 138.991 295.104 143.14 294.885C144.025 294.838 144.976 294.039 145.69 295.056L143.092 295.865C138.115 296.607 133.11 297.016 128.123 297.605C126.001 297.862 123.727 298.423 121.643 298.632C121.281 298.67 120.044 298.889 120.111 298.29H120.101ZM183.554 297.948L191.738 296.92C191.605 298.632 188.816 297.786 187.503 297.967C186.77 298.071 186.066 298.585 185.41 298.613C185.096 298.632 183.573 298.471 183.554 297.948ZM214.253 299.992C218.411 299.098 222.627 298.832 226.88 298.632C227.033 299.498 226.738 299.241 226.205 299.469C225.415 299.811 224.121 300.201 223.274 300.306C201.749 302.921 180.309 306.221 158.822 308.855C147.669 310.225 136.574 312.669 125.392 313.972C123.451 314.2 119.093 313.858 117.618 314.98C117.189 315.303 117.056 316.035 116.523 316.349L115.334 314.476C116.733 314.504 117.313 313.154 118.588 312.964C120.054 312.745 121.31 313.24 122.576 313.201C124.241 313.163 126.401 312.241 128.171 311.956C148.078 308.789 168.233 306.735 188.179 304.081C191.643 303.625 197.438 303.397 200.407 302.712C200.673 302.655 200.578 302.084 200.845 302.027C203.262 301.504 206.611 301.466 209.342 301.019C210.913 300.762 212.997 300.772 214.624 300.667L214.281 299.992H214.253ZM132.377 306.126C130.845 305.67 129.874 306.792 128.723 307.077C120.225 309.198 110.728 309.835 102.116 311.509C100.156 311.889 99.2043 311.471 97.5675 313.106C97.3296 313.344 95.769 315.208 95.7119 315.341C95.2361 316.387 96.0544 317.281 94.3511 317.405C90.126 317.719 93.7801 313.325 91.5534 312.669C90.4876 312.355 88.7367 312.716 87.5186 312.602C86.5956 312.517 85.5678 311.975 84.7875 311.975C83.8645 311.975 82.8463 312.65 81.7329 312.621C80.6861 312.593 79.1541 311.699 78.6497 311.699C78.3261 311.699 77.679 312.222 76.9463 312.288C75.576 312.412 74.2628 311.727 72.8545 311.927C72.1693 311.318 70.6658 310.7 70.1043 310.244C69.1527 309.455 69.6 308.38 70.7895 308.513C71.4461 308.589 71.6745 309.312 72.5214 309.531C75.7378 310.387 80.6481 310.491 84.0643 310.948C86.0341 311.214 92.4193 312.821 93.8182 312.108C94.2083 311.908 94.4938 311.299 95.0838 310.995C99.0805 308.912 104.657 309.359 108.958 308.836C116.029 307.99 123.08 306.678 130.141 305.803L132.358 306.145L132.377 306.126ZM98.9473 313.287C102.145 312.812 104.933 314.01 107.988 314.305C108.758 314.381 109.596 314.276 110.376 314.305C110.785 314.314 111.651 314.048 111.566 314.647C110.899 314.561 111.014 315.303 110.395 315.36C109.358 315.455 108.568 315.056 107.654 314.989C106.741 314.923 105.409 315.18 104.628 314.989C104.362 314.923 104.457 314.362 104.191 314.305C103.629 314.181 102.887 314.381 102.221 314.276C101.498 314.152 100.679 313.981 99.975 313.791C99.5849 313.686 98.8617 313.81 98.9473 313.287ZM211.864 320.439C212.683 320.362 213.625 320.572 214.414 320.439C217.364 319.896 220.429 318.869 223.312 318.413C225.539 318.061 228.612 318.774 230.791 318.384C231.391 318.28 231.819 317.757 232.4 317.605C233.151 317.414 236.216 316.511 236.415 317.576C236.444 317.719 236.092 318.66 236.044 318.698C235.654 318.983 234.379 318.327 234.389 319.079L236.777 319.592C235.407 320.876 232.971 320.524 231.191 320.828C223.75 322.084 216.337 323.596 208.895 324.794C203.157 324.737 191.995 329.197 186.875 327.542C186.333 327.371 186.142 326.677 185.429 326.572C184.154 326.392 182.517 328.455 181.185 326.411L187.161 324.889C187.684 324.28 187.332 324.357 186.894 324.128C186.133 323.729 185.124 323.491 184.258 323.52C183.497 322.854 186.818 321.932 187.189 321.846C191.11 320.99 195.44 320.505 199.408 319.735C202.32 319.174 205.165 318.261 208.134 318.061L206.088 318.746C205.936 319.497 206.526 319.602 207.087 319.811L206.773 321.133C207.934 320.981 210.161 321.751 210.18 320.115L208.476 319.43H212.226L211.883 320.448L211.864 320.439ZM166.492 321.466C169.67 321.028 172.953 320.619 176.141 320.03C177.093 319.858 178.13 318.993 179.453 319.421C179.3 319.649 179.11 320.334 179.053 320.391C178.758 320.629 172.611 321.332 171.516 321.551C169.794 321.884 167.777 322.16 166.054 322.569C164.075 323.035 164.218 324.775 162.143 325.136C160.268 325.469 159.916 324.68 158.479 324.518C157.042 324.357 153.055 324.328 151.637 324.518C150.343 324.699 150.99 325.954 150.781 326.221C150.648 326.382 147.231 326.506 146.565 326.61C145.481 326.772 142.702 327.714 141.893 327.105C141.503 326.81 141.769 325.954 141.36 325.878C136.926 324.984 132.301 324.566 127.838 323.767C125.754 322.55 124.574 321.475 128.104 321.798C131.958 322.15 138.334 323.624 141.75 323.539C145.167 323.453 148.811 322.245 152.009 321.827C156.205 321.275 161.268 321.399 165.274 320.771C166.178 320.629 167.187 319.611 168.186 320.277L166.482 321.466H166.492ZM286.917 338.85C286.983 337.718 286.46 336.853 287.107 335.807C287.754 334.76 289.153 334.485 289.8 333.724C290.885 332.459 290.105 327.343 290.314 325.374C290.362 324.889 290.381 324.48 290.818 324.176L314.551 320.106C314.294 321.58 314.837 322.978 314.913 324.357C315.931 344.974 314.104 366.419 314.913 387.122C314.304 392.334 314.675 397.593 314.237 402.823C314.18 403.527 314.97 404.183 314.009 404.649L283.539 399.523C283.71 397.916 283.291 396.775 282.815 395.301L282.977 363.737C283.463 362.073 286.27 362.625 286.574 360.856C286.755 355.635 286.346 350.376 286.565 345.164C286.603 344.175 287.45 341.674 286.593 341.066C284.167 340.799 280.494 342.644 278.2 342.587C277.467 342.568 276.678 341.75 276.002 341.427C276.345 341.027 276.763 340.79 277.277 340.657C279.827 339.981 282.92 339.772 285.337 339.221C285.651 339.145 285.299 338.07 286.917 338.869V338.85ZM105.551 322.198C106.446 322.474 106.836 323.938 105.942 324.195C104.362 324.642 103.762 321.646 105.551 322.198ZM167.862 326.582C167.938 326.144 168.481 325.84 168.871 325.717C169.613 325.488 172.03 324.956 172.801 324.87C174.761 324.68 177.131 325.384 179.12 325.555C179.148 326.278 179.272 326.202 178.615 326.23C175.037 326.411 171.45 326.658 167.862 326.572V326.582ZM337.78 409.062L337.399 405.182L337.57 326.905L338.265 325.907C339.15 325.907 344.298 335.027 345.193 336.368L345.278 355.749L344.907 358.107L344.926 366.305C343.29 378.763 345.945 393.18 344.555 405.476C344.489 406.028 343.765 409.499 343.585 409.623C342.842 410.127 338.931 409.157 337.789 409.062H337.78ZM274.394 327.676C275.326 327.875 275.926 328.474 275.64 329.454C275.431 330.186 273.261 330.053 272.481 330.291L270.892 328.455C271.758 327.618 273.261 327.428 274.394 327.676ZM151.485 334.076C151.685 330.956 153.721 332.392 155.739 332.022C158.508 331.518 161.325 330.519 164.275 330.319C166.283 330.186 168.414 330.462 170.422 330.319C174.124 330.053 177.74 328.56 181.508 328.959C181.594 329.444 180.909 329.454 180.557 329.54C172.915 331.47 163.732 332.202 155.834 333.477C154.454 333.695 153.122 334.466 151.485 334.076ZM162.666 416.517C162.505 416.65 159.174 417.554 158.575 417.716C154.816 418.743 148.992 420.825 145.167 420.683C144.586 420.664 144.044 420.331 143.463 420.331C142.473 420.331 138.505 421.539 137.839 422.223C137.249 422.822 137.544 423.888 136.298 424.087C135.555 424.211 134.718 423.992 133.938 424.116C133.157 424.239 132.244 424.867 131.54 424.781C130.997 424.724 130.626 424.078 130.16 424.078C129.76 424.078 129.379 424.62 128.799 424.734C127.419 425 126.525 423.479 126.563 422.242C126.877 403.964 126.201 385.534 126.601 367.351C126.686 363.224 125.859 359.648 126.829 355.644C126.991 354.96 127.486 354.379 127.59 353.685C127.781 352.42 127.096 349.491 128.295 348.911C128.58 348.778 133.69 349.358 134.575 349.463C143.044 350.537 151.875 351.422 160.268 353.115C161.058 353.276 162.666 353.039 163.114 353.752C163.827 354.874 163.371 366.952 163.418 369.396L163.789 371.754C162.942 385.144 164.855 399.799 163.789 413.037C163.742 413.617 162.98 416.28 162.676 416.527L162.666 416.517ZM283.168 413.512C285.794 413.103 288.087 414.111 290.533 414.501C294.311 415.11 298.165 415.376 301.838 416.498L313.961 418.619C314.485 418.8 314.532 419.969 314.561 420.483C314.951 425.894 315.113 436.374 314.551 441.643C314.418 442.888 313.21 445.447 313.181 446.065C313.143 447.082 315.046 448.832 312.838 450.154C315.36 452.455 314.913 452.646 313.942 455.365C313.79 455.803 313.971 456.44 313.79 456.735C313.409 457.362 303.104 460.434 301.514 461.005C298.393 462.117 295.386 463.306 292.293 464.4C289.429 465.408 286.603 466.54 283.672 467.386C282.302 467.177 283.938 467.006 283.843 466.872C283.729 466.701 283.405 466.549 283.348 466.349C282.93 464.989 283.101 461.651 283.148 460.035C283.386 452.18 282.758 444.448 282.806 436.507C282.825 433.863 282.825 431.353 282.806 428.7C282.768 423.593 282.996 418.581 283.158 413.512H283.168ZM134.347 431.163C134.566 431.01 134.566 430.364 134.975 430.24C135.432 430.107 136.069 430.611 136.631 430.564C137.145 430.525 137.801 429.85 138.496 429.679C141.084 429.042 141.655 428.528 143.987 427.672C145.481 427.121 154.578 424.373 155.396 424.411C157.376 424.506 156.633 424.373 158.146 424.087C159.203 423.888 160.601 424.211 161.715 424.087L154.216 426.645C146.794 428.3 139.581 430.288 132.291 432.009C131.149 432.285 129.808 433.388 128.285 432.941C129.294 431.22 133.31 431.876 134.347 431.153V431.163Z" fill="#2CC5F4" fill-opacity="0.8"/>
<path d="M298.174 251.577C297.708 251.958 298.127 252.224 298.688 252.252C299.716 252.3 300.544 252.547 301.419 252.604C304.854 252.813 308.946 253.004 312.277 253.061C312.857 253.07 313.543 253.451 314.209 253.279C314.361 252.252 313.971 252.718 313.352 252.614C309.546 251.986 305.264 251.349 301.41 251.216C300.382 251.178 299.288 251.815 298.184 251.577H298.174Z" fill="#2CC5F4" fill-opacity="0.8"/>
<path d="M333.659 201.117C333.945 200.262 332.85 200.29 332.299 200.252C330.31 200.147 328.426 199.881 326.323 199.748C324.686 199.643 323.801 198.379 324.105 201.108H333.659V201.117Z" fill="#2CC5F4" fill-opacity="0.8"/>
<path d="M326.151 197.37C326.599 196.99 326.208 196.714 325.647 196.686C322.278 196.515 318.881 196.733 315.503 196.591C314.989 196.572 314.732 196.049 314.218 196.857C315.398 198.502 317.263 197.399 318.805 197.351C321.251 197.275 323.715 197.447 326.151 197.37Z" fill="#2CC5F4" fill-opacity="0.8"/>
<path d="M358.22 199.757C357.82 202.125 360.39 202.059 362.15 201.802C363.254 201.64 363.007 200.699 362.997 199.757C362.179 199.31 361.018 200.328 360.78 200.328C360.542 200.328 359.115 199.263 358.22 199.757Z" fill="#2CC5F4" fill-opacity="0.8"/>
<path d="M338.094 191.57C337.295 192.292 339.655 192.625 339.969 192.625C340.739 192.625 341.453 192.292 342.015 192.311C343.518 192.349 345.326 192.872 346.963 192.597V191.579H338.094V191.57Z" fill="#2CC5F4" fill-opacity="0.8"/>
<path d="M327.512 196.686C327.369 197.589 327.655 197.285 328.254 197.456C329.691 197.865 330.034 197.485 331.157 197.475C332.118 197.475 332.356 197.798 333.593 197.456C334.202 197.285 334.478 197.57 334.335 196.676H327.512V196.686Z" fill="#2CC5F4" fill-opacity="0.8"/>
<path d="M324.79 260.098C326.494 260.602 328.102 260.963 329.91 260.783C329.948 259.337 328.387 259.889 327.426 259.689C326.399 259.47 324.952 258.272 324.79 260.098Z" fill="#2CC5F4" fill-opacity="0.8"/>
<path d="M352.082 260.098C351.93 260.992 352.225 260.707 352.825 260.868C354.09 261.22 356.45 261.486 357.535 260.602C355.737 260.241 353.929 259.965 352.082 260.098Z" fill="#2CC5F4" fill-opacity="0.8"/>
<path d="M371.181 237.598C371.875 237.693 372.323 237.512 372.703 236.903C372.922 236.552 374.397 232.995 374.254 232.833C373.503 232.681 373.474 233.195 373.217 233.67C372.523 234.963 371.98 236.361 371.181 237.598Z" fill="#2CC5F4" fill-opacity="0.8"/>
<path d="M335.696 201.118C336.943 201.27 337.866 201.498 339.112 201.118V200.1C337.685 200.1 335.534 198.845 335.696 201.118Z" fill="#2CC5F4" fill-opacity="0.8"/>
<path d="M314.894 252.937C314.428 253.327 314.846 253.584 315.408 253.612C316.968 253.679 318.443 254.088 320.014 253.955C320.166 253.061 319.871 253.346 319.271 253.184C318.624 253.004 315.16 252.718 314.904 252.937H314.894Z" fill="#2CC5F4" fill-opacity="0.8"/>
<path d="M359.923 197.37C359.895 198.093 359.771 198.017 360.428 198.055C361.617 198.112 362.826 198.017 364.015 198.055C364.177 197.028 363.768 197.504 363.178 197.37C361.903 197.085 361.208 197.152 359.923 197.37Z" fill="#2CC5F4" fill-opacity="0.8"/>
<path d="M167.177 70.5461V73.4467L167.853 73.6179C168.005 72.5432 169.27 72.0297 169.223 70.898L167.177 70.5557V70.5461Z" fill="#2CC5F4" fill-opacity="0.8"/>
</svg>
